<?xml version="1.0" encoding="utf-8"?>
<!-- Generator: Adobe Illustrator 22.0.1, SVG Export Plug-In . SVG Version: 6.00 Build 0)  -->
<svg version="1.1" id="Layer_1" xmlns="http://www.w3.org/2000/svg" xmlns:xlink="http://www.w3.org/1999/xlink" x="0px" y="0px"
	 viewBox="0 0 177 52" style="enable-background:new 0 0 177 52;" xml:space="preserve">
<style type="text/css">
	.st0{fill:#3D3A2C;}
	.st1{fill:#4F9E91;}
	.st2{fill:#EBE1C5;}
	.st3{fill:#EBCC6E;}
	.st4{fill:#ED834E;}
</style>
<path class="st0" d="M81.2,6.1c-3.6,0-6.4,2.9-6.4,6.4v1.3c-2.1-0.6-4.5,0-6.2,1.7C66,18,66,22,68.5,24.5l0.9,0.9
	c-1.9,1.1-3.2,3.2-3.2,5.6c0,3.6,2.9,6.4,6.4,6.4h1.3c-0.6,2.1,0,4.5,1.7,6.2c2.5,2.5,6.6,2.5,9.1,0l2.6-2.6
	c2.3-2.3,3.4-5.4,3.3-8.5l4.1,4.1c2.5,2.5,6.6,2.5,9.1,0s2.5-6.6,0-9.1l-0.9-0.9c1.9-1.1,3.2-3.2,3.2-5.6c0-3.6-2.9-6.4-6.4-6.4
	h-1.3c0.6-2.1,0-4.5-1.7-6.2c-2.5-2.5-6.6-2.5-9.1,0L85,11c-2.3,2.3-3.4,5.4-3.3,8.5l-4.1-4.1c0,0,0,0,0,0v-2.9c0-2,1.6-3.6,3.6-3.6
	c1.6,0,2.9,1,3.4,2.5c0.1-0.1,0.3-0.3,0.4-0.4l1.8-1.8C85.6,7.3,83.6,6.1,81.2,6.1z M96.8,17.4C96.8,17.5,96.8,17.5,96.8,17.4
	l-4.1,4.1c2.9-0.1,5.8,0.8,8.1,2.9c1.4-0.5,2.5-1.8,2.5-3.4c0-2-1.6-3.6-3.6-3.6H96.8z M75.6,34.6C75.6,34.5,75.6,34.5,75.6,34.6
	l4.1-4.1c-2.9,0.1-5.8-0.8-8.1-2.9c-1.4,0.5-2.5,1.8-2.5,3.4c0,2,1.6,3.6,3.6,3.6H75.6z M71.5,27.5c-0.1-0.1-0.2-0.2-0.3-0.3v0
	C71.3,27.3,71.4,27.4,71.5,27.5z M91.2,45.9c-2.4,0-4.4-1.3-5.6-3.2l1.8-1.8c0.1-0.1,0.3-0.3,0.4-0.4c0.5,1.4,1.8,2.5,3.4,2.5
	c2,0,3.6-1.6,3.6-3.6v-2.9c0.8,0.8,1.8,1.4,2.9,1.6v1.3C97.6,43.1,94.7,45.9,91.2,45.9z M94.7,10.4c-1.4-1.4-3.6-1.4-5,0L87,13.1
	c-3,3-3.2,7.6-0.8,10.8l8.5-8.5C96.1,14,96.1,11.8,94.7,10.4z M101.8,34.5c1.4-1.4,1.4-3.6,0-5l-2.6-2.6c-3-3-7.6-3.2-10.8-0.8
	l8.5,8.5C98.1,35.9,100.4,35.9,101.8,34.5z M82.7,41.6c-1.4,1.4-3.6,1.4-5,0c-1.4-1.4-1.4-3.6,0-5l8.5-8.5c2.4,3.3,2.2,7.9-0.8,10.8
	L82.7,41.6z M70.6,17.5c-1.4,1.4-1.4,3.6,0,5l2.6,2.6c3,3,7.6,3.2,10.8,0.8l-8.5-8.5C74.2,16.1,72,16.1,70.6,17.5z"/>
<path class="st1" d="M89.7,10.4c1.4-1.4,3.6-1.4,5,0c1.4,1.4,1.4,3.6,0,5l-8.5,8.5c-2.4-3.3-2.2-7.9,0.8-10.8L89.7,10.4z"/>
<path class="st2" d="M101.8,29.5c1.4,1.4,1.4,3.6,0,5c-1.4,1.4-3.6,1.4-5,0l-8.5-8.5c3.3-2.4,7.9-2.2,10.8,0.8L101.8,29.5z"/>
<path class="st3" d="M82.7,41.6c-1.4,1.4-3.6,1.4-5,0c-1.4-1.4-1.4-3.6,0-5l8.5-8.5c2.4,3.3,2.2,7.9-0.8,10.8L82.7,41.6z"/>
<path class="st4" d="M70.6,22.5c-1.4-1.4-1.4-3.6,0-5s3.6-1.4,5,0l8.5,8.5c-3.3,2.4-7.9,2.2-10.8-0.8L70.6,22.5z"/>
<path class="st4" d="M87.8,40.6c2-2.3,3-5.2,2.9-8.1l4.1,4.1c0,0,0,0,0,0v2.9c0,2-1.6,3.6-3.6,3.6C89.6,43.1,88.2,42,87.8,40.6z"/>
<path class="st1" d="M71.6,27.6c2.3,2,5.2,3,8.1,2.9l-4.1,4.1c0,0,0,0,0,0h-2.9c-2,0-3.6-1.6-3.6-3.6C69.1,29.4,70.2,28.1,71.6,27.6
	z"/>
<path class="st3" d="M100.7,24.4c-2.3-2-5.2-3-8.1-2.9l4.1-4.1c0,0,0,0,0,0h2.9c2,0,3.6,1.6,3.6,3.6
	C103.2,22.6,102.2,23.9,100.7,24.4z"/>
<path class="st2" d="M84.6,11.4c-2,2.3-3,5.2-2.9,8.1l-4.1-4.1c0,0,0,0,0,0v-2.9c0-2,1.6-3.6,3.6-3.6C82.8,8.9,84.1,10,84.6,11.4z"
	/>
<path class="st0" d="M18.5,19.1h3.2v9.8h5.4v2.7h-8.6V19.1z"/>
<path class="st0" d="M32.9,31.8c-1.1,0-2-0.2-2.8-0.6c-0.8-0.4-1.4-0.9-1.9-1.6c-0.4-0.7-0.6-1.5-0.6-2.4c0-0.9,0.2-1.7,0.6-2.4
	c0.4-0.7,1.1-1.2,1.9-1.6c0.8-0.4,1.7-0.6,2.8-0.6c1.1,0,2,0.2,2.8,0.6c0.8,0.4,1.4,0.9,1.8,1.6c0.4,0.7,0.7,1.5,0.7,2.4
	c0,0.9-0.2,1.7-0.7,2.4c-0.4,0.7-1,1.2-1.8,1.6C34.8,31.6,33.9,31.8,32.9,31.8z M32.9,29.4c0.6,0,1.1-0.2,1.5-0.6
	c0.4-0.4,0.6-0.9,0.6-1.6c0-0.7-0.2-1.2-0.6-1.5c-0.4-0.4-0.9-0.6-1.5-0.6c-0.6,0-1.1,0.2-1.5,0.6c-0.4,0.4-0.6,0.9-0.6,1.5
	c0,0.7,0.2,1.2,0.6,1.6C31.7,29.2,32.2,29.4,32.9,29.4z"/>
<path class="st0" d="M44,35.7c-0.6,0-1.1-0.1-1.7-0.2c-0.6-0.1-1.1-0.3-1.5-0.4v-2.2c0.9,0.4,2,0.6,3.2,0.6c0.9,0,1.5-0.2,1.9-0.5
	c0.4-0.4,0.6-0.9,0.6-1.6v-0.5c-0.3,0.3-0.8,0.5-1.3,0.7c-0.5,0.2-1,0.3-1.6,0.3c-0.9,0-1.7-0.2-2.4-0.6c-0.7-0.4-1.2-0.9-1.6-1.6
	C39.2,29,39,28.2,39,27.3c0-0.9,0.2-1.7,0.6-2.4c0.4-0.7,0.9-1.2,1.6-1.6c0.7-0.4,1.5-0.6,2.4-0.6c1.2,0,2.2,0.4,3,1.1V23h3v8
	c0,1.5-0.5,2.6-1.4,3.5C47.4,35.3,46,35.7,44,35.7z M44.4,29.4c0.5,0,0.9-0.1,1.3-0.4c0.4-0.3,0.6-0.6,0.8-1v-1.5
	c-0.2-0.4-0.4-0.7-0.8-1c-0.4-0.2-0.8-0.4-1.3-0.4c-0.6,0-1.2,0.2-1.6,0.6c-0.4,0.4-0.6,0.9-0.6,1.5c0,0.7,0.2,1.2,0.6,1.6
	C43.2,29.2,43.8,29.4,44.4,29.4z"/>
<path class="st0" d="M55.7,31.8c-1.1,0-2-0.2-2.8-0.6c-0.8-0.4-1.4-0.9-1.9-1.6c-0.4-0.7-0.6-1.5-0.6-2.4c0-0.9,0.2-1.7,0.6-2.4
	c0.4-0.7,1.1-1.2,1.9-1.6c0.8-0.4,1.7-0.6,2.8-0.6c1.1,0,2,0.2,2.8,0.6c0.8,0.4,1.4,0.9,1.8,1.6c0.4,0.7,0.7,1.5,0.7,2.4
	c0,0.9-0.2,1.7-0.7,2.4c-0.4,0.7-1,1.2-1.8,1.6C57.7,31.6,56.8,31.8,55.7,31.8z M55.7,29.4c0.6,0,1.1-0.2,1.5-0.6
	c0.4-0.4,0.6-0.9,0.6-1.6c0-0.7-0.2-1.2-0.6-1.5c-0.4-0.4-0.9-0.6-1.5-0.6c-0.6,0-1.1,0.2-1.5,0.6c-0.4,0.4-0.6,0.9-0.6,1.5
	c0,0.7,0.2,1.2,0.6,1.6C54.6,29.2,55.1,29.4,55.7,29.4z"/>
<path class="st0" d="M111.4,19.1h3.2v12.5h-3.2V19.1z"/>
<path class="st0" d="M116.2,23h3v0.9c0.8-0.8,1.8-1.1,3-1.1c0.9,0,1.7,0.2,2.4,0.6c0.7,0.4,1.2,0.9,1.6,1.6c0.4,0.7,0.6,1.5,0.6,2.4
	c0,0.9-0.2,1.7-0.6,2.4c-0.4,0.7-0.9,1.2-1.6,1.6c-0.7,0.4-1.5,0.6-2.4,0.6c-0.6,0-1.1-0.1-1.6-0.3c-0.5-0.2-0.9-0.4-1.3-0.7v4.6
	h-3.1V23z M121.4,29.4c0.6,0,1.2-0.2,1.6-0.6c0.4-0.4,0.6-0.9,0.6-1.6c0-0.7-0.2-1.2-0.6-1.5c-0.4-0.4-0.9-0.6-1.6-0.6
	c-0.5,0-0.9,0.1-1.3,0.4c-0.4,0.2-0.7,0.6-0.8,1V28c0.2,0.4,0.4,0.8,0.8,1C120.5,29.3,121,29.4,121.4,29.4z"/>
<path class="st0" d="M131.5,31.8c-0.7,0-1.4-0.1-2.2-0.2c-0.8-0.1-1.3-0.3-1.8-0.6v-2.3c0.5,0.3,1.1,0.5,1.8,0.7
	c0.7,0.2,1.3,0.3,1.9,0.3c0.4,0,0.7,0,0.9-0.1c0.2-0.1,0.3-0.2,0.3-0.4c0-0.1-0.1-0.3-0.2-0.3c-0.1-0.1-0.3-0.2-0.7-0.3
	c-0.3-0.1-0.7-0.2-1.1-0.3c-0.7-0.2-1.3-0.4-1.7-0.7c-0.4-0.2-0.7-0.5-0.9-0.9c-0.2-0.3-0.3-0.8-0.3-1.3c0-0.9,0.4-1.6,1.1-2.1
	c0.7-0.5,1.7-0.7,3-0.7c0.6,0,1.3,0.1,1.9,0.2c0.7,0.1,1.2,0.3,1.6,0.5v2.3c-0.4-0.2-0.8-0.4-1.4-0.6c-0.6-0.2-1.1-0.2-1.6-0.2
	c-0.4,0-0.7,0-0.9,0.1c-0.2,0.1-0.3,0.2-0.3,0.4c0,0.2,0.1,0.3,0.3,0.4s0.6,0.2,1.2,0.4c0.4,0.1,0.5,0.1,0.5,0.1
	c0.8,0.2,1.4,0.4,1.8,0.7c0.4,0.3,0.7,0.5,0.9,0.9c0.2,0.3,0.3,0.8,0.3,1.3c0,0.8-0.4,1.5-1.1,2C133.9,31.6,132.8,31.8,131.5,31.8z"
	/>
<path class="st0" d="M140.3,31.8c-1.2,0-2.1-0.3-2.7-1c-0.6-0.7-0.9-1.5-0.9-2.6V23h3.1v4.9c0,1,0.4,1.5,1.3,1.5
	c0.4,0,0.8-0.1,1.1-0.3c0.3-0.2,0.6-0.5,0.8-0.8V23h3.1v8.6h-3v-0.9c-0.4,0.4-0.8,0.7-1.3,0.9C141.5,31.7,140.9,31.8,140.3,31.8z"/>
<path class="st0" d="M148,23h2.9v0.9c0.4-0.4,0.8-0.7,1.2-0.9c0.5-0.2,1-0.3,1.5-0.3c0.6,0,1.2,0.1,1.5,0.3c0.4,0.2,0.7,0.5,0.9,0.9
	c0.4-0.4,0.8-0.6,1.3-0.8c0.5-0.2,1-0.3,1.6-0.3c1.1,0,1.9,0.3,2.4,0.9c0.5,0.6,0.7,1.4,0.7,2.5v5.5h-3v-5c0-0.5-0.1-0.8-0.3-1
	c-0.2-0.2-0.5-0.3-0.9-0.3c-0.5,0-1,0.2-1.3,0.6c0,0.2,0,0.5,0,0.9v4.9h-3v-5.2c0-0.4-0.1-0.8-0.2-0.9c-0.2-0.2-0.4-0.3-0.8-0.3
	c-0.6,0-1.1,0.3-1.6,1v5.4h-3V23z"/>
</svg>
