<svg id="Capa_1" enable-background="new 0 0 512 512" height="512" viewBox="0 0 512 512" width="512" xmlns="http://www.w3.org/2000/svg"><g><path d="m485.414 223.619h-40.956c-3.762-16.809-10.399-32.536-19.365-46.645l28.96-28.898c2.772-2.772 2.772-7.266 0-10.038l-35.855-35.782c-2.772-2.762-7.245-2.762-10.017 0l-28.97 28.919c-14.14-8.946-29.898-15.572-46.738-19.334v-40.865c0-3.916-3.174-7.091-7.091-7.091h-50.706c-3.916 0-7.091 3.174-7.091 7.091v40.863c-16.84 3.762-32.598 10.388-46.738 19.334l-28.97-28.919c-2.762-2.762-7.245-2.762-10.017 0l-35.844 35.782c-2.783 2.772-2.783 7.266 0 10.038l28.95 28.898c-8.966 14.109-15.603 29.836-19.365 46.645h-40.956c-3.916 0-7.091 3.174-7.091 7.09v50.582c0 3.916 3.174 7.09 7.091 7.09h40.956c3.762 16.809 10.399 32.536 19.365 46.645l-28.95 28.898c-2.783 2.772-2.783 7.266 0 10.038l35.844 35.783c2.772 2.762 7.255 2.762 10.017 0l28.97-28.919c14.14 8.946 29.898 15.572 46.738 19.334v40.864c0 3.916 3.174 7.09 7.091 7.09h50.706c3.916 0 7.091-3.174 7.091-7.09v-40.864c16.84-3.762 32.598-10.388 46.738-19.334l28.97 28.919c2.772 2.762 7.245 2.762 10.017 0l35.855-35.783c2.772-2.772 2.772-7.266 0-10.038l-28.96-28.898c8.966-14.109 15.603-29.836 19.365-46.645h40.956c3.916 0 7.091-3.174 7.091-7.09v-50.582c0-3.914-3.175-7.088-7.091-7.088zm-185.385 120.786c-48.912 0-88.57-39.585-88.57-88.405s39.658-88.405 88.57-88.405 88.57 39.585 88.57 88.405-39.657 88.405-88.57 88.405z" fill="#b3dafe"/><path d="m485.414 223.619h-20.612c3.916 0 7.091 3.174 7.091 7.09v50.582c0 3.916-3.174 7.09-7.091 7.09h20.612c3.916 0 7.091-3.174 7.091-7.09v-50.582c0-3.916-3.175-7.09-7.091-7.09zm-31.361-85.582-35.855-35.782c-2.772-2.762-7.245-2.762-10.017 0l-5.297 5.287 30.557 30.496c2.772 2.772 2.772 7.266 0 10.038l-20.629 20.585c-4.77 4.76-5.84 12.073-2.669 18.019 4.413 8.274 8.061 17.016 10.847 26.133 1.962 6.42 7.884 10.806 14.597 10.806h8.871c-3.762-16.809-10.399-32.536-19.365-46.645l28.96-28.898c2.772-2.773 2.772-7.266 0-10.039zm0 225.888-28.96-28.898c8.966-14.109 15.603-29.836 19.365-46.645h-8.871c-6.713 0-12.635 4.386-14.597 10.806-2.787 9.117-6.434 17.859-10.847 26.133-3.171 5.946-2.101 13.259 2.669 18.019l20.629 20.585c2.772 2.772 2.772 7.266 0 10.038l-30.557 30.496 5.297 5.287c2.772 2.762 7.245 2.762 10.017 0l35.855-35.783c2.772-2.773 2.772-7.266 0-10.038zm-121.58-252.086v-40.863c0-3.916-3.175-7.091-7.091-7.091h-20.612c3.916 0 7.091 3.174 7.091 7.091v42.458c0 6.718 4.392 12.642 10.818 14.601 7.246 2.208 14.257 4.956 20.985 8.197 8.163 3.931 17.931-.087 20.984-8.618l1.382-3.861c-10.534-5.256-21.788-9.286-33.557-11.914zm12.234 267.099c-7.046 3.462-14.407 6.381-22.029 8.704-6.426 1.958-10.818 7.883-10.818 14.601v38.782c0 3.916-3.174 7.09-7.091 7.09h20.612c3.916 0 7.091-3.175 7.091-7.091v-40.863c11.769-2.628 23.024-6.658 33.556-11.914l-.709-1.631c-3.452-7.94-12.841-11.496-20.612-7.678z" fill="#8ac9fe"/><g><path d="m255.458 511.996h-193.496c-16.72 0-30.274-13.554-30.274-30.274l-.363-40.63-11.829-12.001v-398.813c0-16.72 13.554-30.274 30.274-30.274h216.04c16.72 0 30.274 13.554 30.274 30.274v398.814l-10.351 12v40.63c-.001 16.72-13.555 30.274-30.275 30.274z" fill="#b0e7c9"/><path d="m296.084 30.275v451.449c0 16.713-13.552 30.275-30.275 30.275h-20.702c16.713 0 30.275-13.562 30.275-30.275v-451.449c0-16.712-13.563-30.275-30.275-30.275h20.702c16.722 0 30.275 13.563 30.275 30.275z" fill="#91deb6"/><path d="m265.809 511.996h-216.04c-16.72 0-30.274-13.554-30.274-30.274v-52.631h276.587v52.631c.001 16.72-13.553 30.274-30.273 30.274z" fill="#cecece"/><path d="m296.084 429.091v52.634c0 16.713-13.552 30.275-30.275 30.275h-20.702c16.713 0 30.275-13.562 30.275-30.275v-52.634z" fill="#bfbfbf"/><g><path d="m166.239 478.274h-16.899c-4.269 0-7.73-3.461-7.73-7.73s3.46-7.73 7.73-7.73h16.899c4.269 0 7.73 3.461 7.73 7.73-.001 4.269-3.461 7.73-7.73 7.73z" fill="#9c9c9c"/></g></g><g><path d="m101.364 99.556h-47.018c-1.402 0-2.539-1.137-2.539-2.539v-47.018c0-1.402 1.137-2.539 2.539-2.539h47.018c1.402 0 2.539 1.137 2.539 2.539v47.018c0 1.402-1.137 2.539-2.539 2.539z" fill="#f8f6f6"/><path d="m181.299 99.556h-47.018c-1.402 0-2.539-1.137-2.539-2.539v-47.018c0-1.402 1.137-2.539 2.539-2.539h47.018c1.402 0 2.539 1.137 2.539 2.539v47.018c0 1.402-1.137 2.539-2.539 2.539z" fill="#fedba6"/><path d="m261.234 99.556h-47.018c-1.402 0-2.539-1.137-2.539-2.539v-47.018c0-1.402 1.137-2.539 2.539-2.539h47.018c1.402 0 2.539 1.137 2.539 2.539v47.018c0 1.402-1.137 2.539-2.539 2.539z" fill="#f8f6f6"/></g><g><path d="m101.364 186.946h-47.018c-1.402 0-2.539-1.137-2.539-2.539v-47.018c0-1.402 1.137-2.539 2.539-2.539h47.018c1.402 0 2.539 1.137 2.539 2.539v47.018c0 1.402-1.137 2.539-2.539 2.539z" fill="#fedba6"/><path d="m181.299 186.946h-47.018c-1.402 0-2.539-1.137-2.539-2.539v-47.018c0-1.402 1.137-2.539 2.539-2.539h47.018c1.402 0 2.539 1.137 2.539 2.539v47.018c0 1.402-1.137 2.539-2.539 2.539z" fill="#f8f6f6"/><path d="m261.234 186.946h-47.018c-1.402 0-2.539-1.137-2.539-2.539v-47.018c0-1.402 1.137-2.539 2.539-2.539h47.018c1.402 0 2.539 1.137 2.539 2.539v47.018c0 1.402-1.137 2.539-2.539 2.539z" fill="#fedba6"/></g><g><path d="m103.906 50.003v47.016c0 1.402-1.144 2.535-2.546 2.535h-18.664c1.402 0 2.546-1.134 2.546-2.535v-47.016c0-1.402-1.144-2.546-2.546-2.546h18.664c1.402.001 2.546 1.145 2.546 2.546z" fill="#ebebeb"/><path d="m183.839 50.003v47.016c0 1.402-1.134 2.535-2.546 2.535h-18.664c1.402 0 2.546-1.134 2.546-2.535v-47.016c0-1.402-1.144-2.546-2.546-2.546h18.664c1.413.001 2.546 1.145 2.546 2.546z" fill="#fece85"/><path d="m263.773 50.003v47.016c0 1.402-1.134 2.535-2.535 2.535h-18.674c1.412 0 2.546-1.134 2.546-2.535v-47.016c0-1.402-1.134-2.546-2.546-2.546h18.674c1.401.001 2.535 1.145 2.535 2.546z" fill="#ebebeb"/></g><g><path d="m103.906 137.388v47.016c0 1.402-1.144 2.546-2.546 2.546h-18.664c1.402 0 2.546-1.144 2.546-2.546v-47.016c0-1.401-1.144-2.535-2.546-2.535h18.664c1.402 0 2.546 1.133 2.546 2.535z" fill="#fece85"/><path d="m183.839 137.388v47.016c0 1.402-1.134 2.546-2.546 2.546h-18.664c1.402 0 2.546-1.144 2.546-2.546v-47.016c0-1.401-1.144-2.535-2.546-2.535h18.664c1.413 0 2.546 1.133 2.546 2.535z" fill="#ebebeb"/><path d="m263.773 137.388v47.016c0 1.402-1.134 2.546-2.535 2.546h-18.674c1.412 0 2.546-1.144 2.546-2.546v-47.016c0-1.401-1.134-2.535-2.546-2.535h18.674c1.401 0 2.535 1.133 2.535 2.535z" fill="#fece85"/></g></g></svg>