<svg height="58pt" viewBox="-12 0 58 58" width="58pt" xmlns="http://www.w3.org/2000/svg"><path d="m0 8h34v42h-34zm0 0" fill="#ffeb99"/><path d="m0 8h2v42h-2zm0 0" fill="#ffde55"/><path d="m30 0h-26c-2.210938 0-4 1.789062-4 4v4h34v-4c0-2.210938-1.789062-4-4-4zm0 0" fill="#ff9478"/><path d="m6 0h-2c-2.210938 0-4 1.789062-4 4v4h2v-4c0-2.210938 1.789062-4 4-4zm0 0" fill="#ff7956"/><path d="m0 54c0 2.210938 1.789062 4 4 4h26c2.210938 0 4-1.789062 4-4v-4h-34zm0 0" fill="#ff9478"/><path d="m2 54v-4h-2v4c0 2.210938 1.789062 4 4 4h2c-2.210938 0-4-1.789062-4-4zm0 0" fill="#ff7956"/><path d="m6 15h8c.550781 0 1 .449219 1 1v10c0 .550781-.449219 1-1 1h-8c-.550781 0-1-.449219-1-1v-10c0-.550781.449219-1 1-1zm0 0" fill="#00ccb3"/><path d="m16 16v10c0 .550781-.449219 1-1 1h-1c.550781 0 1-.449219 1-1v-10c0-.550781-.449219-1-1-1h1c.550781 0 1 .449219 1 1zm0 0" fill="#0b7"/><path d="m30 32v10c0 .550781-.449219 1-1 1h-1c.550781 0 1-.449219 1-1v-10c0-.550781-.449219-1-1-1h1c.550781 0 1 .449219 1 1zm0 0" fill="#0b7"/><path d="m20 15h8c.550781 0 1 .449219 1 1v10c0 .550781-.449219 1-1 1h-8c-.550781 0-1-.449219-1-1v-10c0-.550781.449219-1 1-1zm0 0" fill="#ff9478"/><path d="m30 16v10c0 .550781-.449219 1-1 1h-1c.550781 0 1-.449219 1-1v-10c0-.550781-.449219-1-1-1h1c.550781 0 1 .449219 1 1zm0 0" fill="#ff7956"/><path d="m16 32v10c0 .550781-.449219 1-1 1h-1c.550781 0 1-.449219 1-1v-10c0-.550781-.449219-1-1-1h1c.550781 0 1 .449219 1 1zm0 0" fill="#ff7956"/><path d="m6 31h8c.550781 0 1 .449219 1 1v10c0 .550781-.449219 1-1 1h-8c-.550781 0-1-.449219-1-1v-10c0-.550781.449219-1 1-1zm0 0" fill="#ff9478"/><path d="m20 31h8c.550781 0 1 .449219 1 1v10c0 .550781-.449219 1-1 1h-8c-.550781 0-1-.449219-1-1v-10c0-.550781.449219-1 1-1zm0 0" fill="#00ccb3"/><g fill="#ffb655"><path d="m3 3h2v2h-2zm0 0"/><path d="m7 3h6v2h-6zm0 0"/><path d="m15 53h4v2h-4zm0 0"/></g></svg>