<?xml version="1.0" encoding="iso-8859-1"?>
<!-- Generator: Adobe Illustrator 19.0.0, SVG Export Plug-In . SVG Version: 6.00 Build 0)  -->
<svg version="1.1" id="Capa_1" xmlns="http://www.w3.org/2000/svg" xmlns:xlink="http://www.w3.org/1999/xlink" x="0px" y="0px"
	 viewBox="0 0 511.998 511.998" style="enable-background:new 0 0 511.998 511.998;" xml:space="preserve">
<path style="fill:#5C6376;" d="M398.72,38.04v435.92c0,16.87-13.67,30.54-30.53,30.54H143.81c-16.86,0-30.53-13.67-30.53-30.54
	V38.04c0-16.87,13.67-30.54,30.53-30.54h224.38C385.049,7.5,398.72,21.17,398.72,38.04z"/>
<path style="fill:#4C5568;" d="M398.723,38.04v435.92c0,16.87-13.67,30.54-30.53,30.54h-28c16.86,0,30.53-13.67,30.53-30.54V38.04
	c0-16.87-13.67-30.54-30.53-30.54h28C385.053,7.5,398.723,21.17,398.723,38.04z"/>
<path style="fill:#707784;" d="M171.81,504.5h-28c-16.86,0-30.53-13.67-30.53-30.54V38.04c0-16.87,13.67-30.54,30.53-30.54h28
	c-16.86,0-30.53,13.67-30.53,30.54v435.92C141.28,490.83,154.949,504.5,171.81,504.5z"/>
<rect x="113.28" y="61.82" style="fill:#D1D9E8;" width="285.44" height="396.79"/>
<rect x="113.28" y="61.822" style="fill:#E2E9F2;" width="28" height="396.79"/>
<rect x="370.72" y="61.82" style="fill:#BCC7D8;" width="28" height="396.79"/>
<rect x="113.28" y="61.822" style="fill:#F7B41F;" width="285.45" height="36.777"/>
<rect x="370.72" y="61.822" style="fill:#EAA213;" width="28" height="36.777"/>
<rect x="113.28" y="61.822" style="fill:#F4BF56;" width="28" height="36.777"/>
<g>
	<path style="fill:#50596D;" d="M398.723,184.807h9.593c4.578,0,8.289,3.361,8.289,7.507v127.371c0,4.146-3.711,7.507-8.289,7.507
		h-9.593V184.807z"/>
	<path style="fill:#50596D;" d="M113.277,119.182h-9.593c-4.578,0-8.289-3.361-8.289-7.507V95.647c0-4.146,3.711-7.507,8.289-7.507
		h9.593V119.182z"/>
	<path style="fill:#50596D;" d="M113.277,168.182h-9.593c-4.578,0-8.289-3.361-8.289-7.507v-16.027c0-4.146,3.711-7.507,8.289-7.507
		h9.593V168.182z"/>
	<path style="fill:#50596D;" d="M113.277,429.167h-9.593c-4.578,0-8.289-3.361-8.289-7.507v-16.027c0-4.146,3.711-7.507,8.289-7.507
		h9.593V429.167z"/>
</g>
<rect x="144.109" y="147.33" style="fill:#86EFEF;" width="223.79" height="164.67"/>
<path d="M408.316,177.307h-2.094v-18.646c0-4.142-3.357-7.5-7.5-7.5s-7.5,3.358-7.5,7.5v292.452H356c-4.143,0-7.5,3.358-7.5,7.5
	s3.357,7.5,7.5,7.5h35.223v7.852c0,12.702-10.333,23.035-23.035,23.035H143.811c-12.702,0-23.036-10.333-23.036-23.035v-7.852H324
	c4.143,0,7.5-3.358,7.5-7.5s-3.357-7.5-7.5-7.5H120.777V106.1h270.446v22.234c0,4.142,3.357,7.5,7.5,7.5s7.5-3.358,7.5-7.5V38.035
	C406.223,17.063,389.16,0,368.188,0H143.811c-20.973,0-38.036,17.063-38.036,38.035V80.64h-2.093
	c-8.706,0-15.789,6.732-15.789,15.007v16.027c0,8.275,7.083,15.007,15.789,15.007h2.093v2.958h-2.093
	c-8.706,0-15.789,6.732-15.789,15.007v16.027c0,8.275,7.083,15.007,15.789,15.007h2.093v214.944h-2.093
	c-8.706,0-15.789,6.732-15.789,15.007v16.027c0,8.275,7.083,15.007,15.789,15.007h2.093v37.298
	c0,20.973,17.063,38.035,38.036,38.035h224.375c20.973,0,38.035-17.063,38.035-38.035v-139.27h2.094
	c8.706,0,15.789-6.732,15.789-15.007V192.314C424.105,184.04,417.022,177.307,408.316,177.307z M120.777,91.1V69.322h270.446V91.1
	H120.777z M143.811,15h224.375c12.702,0,23.035,10.333,23.035,23.035v16.287H120.777V38.035C120.777,25.333,131.109,15,143.811,15z
	 M103.684,111.682c-0.409,0-0.668-0.135-0.789-0.226v-15.59c0.121-0.091,0.38-0.226,0.789-0.226h2.093v16.042H103.684z
	 M103.684,160.682c-0.409,0-0.668-0.135-0.789-0.226v-15.589c0.121-0.091,0.38-0.226,0.789-0.226h2.093v16.042h-2.093V160.682z
	 M103.684,421.667c-0.409,0-0.668-0.134-0.789-0.226v-15.589c0.121-0.092,0.38-0.226,0.789-0.226h2.093v16.041H103.684z
	 M409.105,319.467c-0.12,0.091-0.38,0.226-0.789,0.226h-2.094V192.307h2.094c0.409,0,0.669,0.135,0.789,0.226V319.467z"/>
<path d="M244.19,43.005h24.968c4.143,0,7.5-3.358,7.5-7.5s-3.357-7.5-7.5-7.5H244.19c-4.142,0-7.5,3.358-7.5,7.5
	S240.048,43.005,244.19,43.005z"/>
<path d="M215.849,43.005h1.012c4.142,0,7.5-3.358,7.5-7.5s-3.358-7.5-7.5-7.5h-1.012c-4.142,0-7.5,3.358-7.5,7.5
	S211.707,43.005,215.849,43.005z"/>
<path d="M244.19,472.707c-4.142,0-7.5,3.358-7.5,7.5s3.358,7.5,7.5,7.5h24.968c4.143,0,7.5-3.358,7.5-7.5s-3.357-7.5-7.5-7.5H244.19
	z"/>
<path d="M221.117,182.039c-2.929-2.929-7.678-2.929-10.606,0l-41.995,41.995c-2.929,2.929-2.929,7.678,0,10.606l42.642,42.642
	c1.464,1.464,3.384,2.197,5.303,2.197c1.919,0,3.839-0.732,5.303-2.197c2.929-2.929,2.929-7.678,0-10.606l-37.339-37.339
	l36.691-36.692C224.046,189.717,224.046,184.968,221.117,182.039z"/>
<path d="M290.234,277.283c1.465,1.465,3.384,2.197,5.304,2.197c1.919,0,3.839-0.732,5.304-2.197l42.643-42.642
	c1.406-1.406,2.196-3.314,2.196-5.303s-0.79-3.897-2.196-5.303L301.49,182.04c-2.93-2.929-7.678-2.929-10.607,0
	s-2.929,7.678,0,10.606l36.692,36.692l-37.34,37.339C287.307,269.605,287.307,274.354,290.234,277.283z"/>
<path d="M238.113,276.124c2.841,0,5.559-1.623,6.821-4.374l35.764-77.922c1.728-3.765,0.076-8.217-3.688-9.945
	c-3.768-1.728-8.218-0.077-9.945,3.688l-35.764,77.922c-1.728,3.765-0.077,8.217,3.688,9.945
	C236.003,275.904,237.065,276.124,238.113,276.124z"/>
<path d="M168.332,362.708H201c4.142,0,7.5-3.358,7.5-7.5s-3.358-7.5-7.5-7.5h-32.667c-4.142,0-7.5,3.358-7.5,7.5
	S164.19,362.708,168.332,362.708z"/>
<path d="M313,371.5H168.332c-4.142,0-7.5,3.358-7.5,7.5s3.358,7.5,7.5,7.5H313c4.143,0,7.5-3.358,7.5-7.5S317.143,371.5,313,371.5z"
	/>
<path d="M313,397.155H168.332c-4.142,0-7.5,3.358-7.5,7.5s3.358,7.5,7.5,7.5H313c4.143,0,7.5-3.358,7.5-7.5
	S317.143,397.155,313,397.155z"/>
<path d="M375.395,311.994V147.328c0-4.142-3.357-7.5-7.5-7.5H144.105c-4.142,0-7.5,3.358-7.5,7.5v164.667c0,4.142,3.358,7.5,7.5,7.5
	h37.561c4.142,0,7.5-3.358,7.5-7.5s-3.358-7.5-7.5-7.5h-30.061V154.828h208.789v149.667H212c-4.142,0-7.5,3.358-7.5,7.5
	s3.358,7.5,7.5,7.5h155.895C372.036,319.494,375.395,316.136,375.395,311.994z"/>
<g>
</g>
<g>
</g>
<g>
</g>
<g>
</g>
<g>
</g>
<g>
</g>
<g>
</g>
<g>
</g>
<g>
</g>
<g>
</g>
<g>
</g>
<g>
</g>
<g>
</g>
<g>
</g>
<g>
</g>
</svg>
