<?xml version="1.0" encoding="utf-8"?>
<!-- Generator: Adobe Illustrator 22.0.1, SVG Export Plug-In . SVG Version: 6.00 Build 0)  -->
<svg version="1.1" id="Capa_1" xmlns="http://www.w3.org/2000/svg" xmlns:xlink="http://www.w3.org/1999/xlink" x="0px" y="0px"
	 viewBox="0 0 512 512" style="enable-background:new 0 0 512 512;" xml:space="preserve">
<style type="text/css">
	.st0{fill:#FFE9F0;}
</style>
<rect x="0.8" class="st0" width="512" height="512"/>
<g>
	<path d="M100.3,239.5c1.9-1,4-1.5,6.3-1.5c2.7,0,5.2,0.7,7.4,2s4,3.2,5.2,5.6c1.3,2.4,1.9,5.1,1.9,8.3c0,3.1-0.6,5.9-1.9,8.3
		c-1.3,2.5-3,4.4-5.2,5.7c-2.2,1.4-4.7,2-7.4,2c-2.4,0-4.5-0.5-6.3-1.4c-1.8-1-3.3-2.1-4.5-3.6v19.2h-6.4v-45.6h6.4v4.5
		C97,241.7,98.4,240.5,100.3,239.5z M113.4,248.4c-0.9-1.6-2-2.7-3.5-3.5c-1.4-0.8-3-1.2-4.6-1.2s-3.1,0.4-4.6,1.2
		c-1.4,0.8-2.6,2-3.5,3.6s-1.3,3.4-1.3,5.6c0,2.1,0.4,4,1.3,5.6c0.9,1.6,2,2.8,3.5,3.6c1.4,0.8,3,1.2,4.6,1.2s3.2-0.4,4.6-1.3
		c1.4-0.8,2.6-2.1,3.5-3.7c0.9-1.6,1.3-3.5,1.3-5.6C114.7,251.8,114.2,249.9,113.4,248.4z"/>
	<path d="M133.9,228v41.5h-6.4V228H133.9z"/>
	<path d="M142.2,245.6c1.3-2.4,3.1-4.3,5.3-5.6c2.2-1.3,4.7-2,7.4-2c2.4,0,4.6,0.5,6.4,1.4c1.8,1,3.3,2.1,4.4,3.6v-4.5h6.5v30.9
		h-6.5v-4.6c-1.1,1.5-2.6,2.7-4.4,3.6c-1.9,1-4,1.5-6.4,1.5c-2.7,0-5.1-0.7-7.3-2c-2.2-1.4-4-3.3-5.2-5.7c-1.3-2.5-1.9-5.2-1.9-8.3
		C140.2,250.8,140.9,248,142.2,245.6z M164.2,248.4c-0.9-1.6-2-2.8-3.5-3.6c-1.4-0.8-3-1.2-4.6-1.2s-3.2,0.4-4.6,1.2s-2.6,2-3.5,3.5
		c-0.9,1.6-1.3,3.4-1.3,5.5s0.4,4,1.3,5.6s2,2.8,3.5,3.7c1.4,0.8,3,1.3,4.6,1.3s3.2-0.4,4.6-1.2c1.4-0.8,2.6-2,3.5-3.6
		c0.9-1.6,1.3-3.5,1.3-5.6S165.1,250,164.2,248.4z"/>
	<path d="M180.2,245.6c1.3-2.4,3.1-4.3,5.4-5.6s4.9-2,7.9-2c3.7,0,6.8,0.9,9.3,2.7s4.1,4.3,5,7.6h-6.9c-0.6-1.5-1.5-2.7-2.7-3.6
		c-1.2-0.9-2.8-1.3-4.7-1.3c-2.6,0-4.7,0.9-6.3,2.8c-1.6,1.9-2.3,4.4-2.3,7.8c0,3.3,0.8,5.9,2.3,7.8c1.6,1.9,3.6,2.8,6.3,2.8
		c3.7,0,6.2-1.6,7.4-4.9h6.9c-0.9,3.1-2.6,5.6-5.1,7.5c-2.5,1.9-5.5,2.8-9.2,2.8c-3,0-5.6-0.7-7.9-2s-4.1-3.2-5.4-5.6
		s-1.9-5.2-1.9-8.4C178.3,250.8,178.9,248,180.2,245.6z"/>
	<path d="M242.2,256.4h-23.6c0.2,2.5,1.1,4.5,2.8,6c1.6,1.5,3.7,2.2,6.1,2.2c3.4,0,5.9-1.4,7.3-4.3h6.9c-0.9,2.8-2.6,5.2-5.1,7
		s-5.5,2.7-9.1,2.7c-3,0-5.6-0.7-7.9-2c-2.3-1.3-4.2-3.2-5.5-5.6c-1.3-2.4-2-5.2-2-8.4s0.6-6,1.9-8.4s3.1-4.3,5.4-5.6s5-2,8.1-2
		c2.9,0,5.5,0.6,7.8,1.9c2.3,1.3,4.1,3.1,5.3,5.4c1.3,2.3,1.9,5,1.9,7.9C242.5,254.4,242.4,255.5,242.2,256.4z M235.8,251.3
		c0-2.4-0.9-4.2-2.5-5.7c-1.6-1.4-3.7-2.1-6.1-2.1c-2.2,0-4.1,0.7-5.7,2.1c-1.6,1.4-2.5,3.3-2.8,5.7H235.8z"/>
	<path d="M271.1,239.6c1.9,1,3.3,2.5,4.4,4.5s1.6,4.4,1.6,7.2v18.2h-6.3v-17.3c0-2.8-0.7-4.9-2.1-6.4s-3.3-2.2-5.7-2.2
		c-2.4,0-4.3,0.7-5.7,2.2c-1.4,1.5-2.1,3.6-2.1,6.4v17.3h-6.4V228h6.4v14.2c1.1-1.3,2.5-2.3,4.1-3c1.7-0.7,3.5-1.1,5.5-1.1
		C267.1,238.1,269.2,238.6,271.1,239.6z"/>
	<path d="M290.7,268c-2.4-1.3-4.2-3.2-5.6-5.6c-1.3-2.4-2-5.2-2-8.4c0-3.1,0.7-5.9,2.1-8.4c1.4-2.4,3.3-4.3,5.7-5.6
		c2.4-1.3,5.1-2,8-2c3,0,5.6,0.7,8,2s4.3,3.2,5.7,5.6c1.4,2.4,2.1,5.2,2.1,8.4c0,3.2-0.7,5.9-2.1,8.4c-1.4,2.4-3.4,4.3-5.8,5.6
		c-2.5,1.3-5.2,2-8.1,2C295.7,270,293,269.3,290.7,268z M303.2,263.3c1.4-0.8,2.6-2,3.5-3.5c0.9-1.6,1.3-3.5,1.3-5.7
		s-0.4-4.1-1.3-5.7c-0.9-1.6-2-2.7-3.4-3.5s-3-1.2-4.6-1.2s-3.2,0.4-4.6,1.2s-2.5,2-3.3,3.5c-0.8,1.6-1.2,3.5-1.2,5.7
		c0,3.3,0.9,5.9,2.6,7.7s3.8,2.7,6.4,2.7C300.2,264.4,301.8,264.1,303.2,263.3z"/>
	<path d="M327.4,228v41.5H321V228H327.4z"/>
	<path d="M335.6,245.6c1.3-2.4,3-4.3,5.3-5.6c2.2-1.3,4.7-2,7.4-2c2,0,4,0.4,6,1.3c2,0.9,3.5,2,4.7,3.5v-14.9h6.5v41.5H359v-4.7
		c-1,1.5-2.5,2.7-4.4,3.7s-4,1.5-6.4,1.5c-2.7,0-5.2-0.7-7.4-2c-2.2-1.4-4-3.3-5.3-5.7c-1.3-2.5-1.9-5.2-1.9-8.3
		C333.7,250.8,334.3,248,335.6,245.6z M357.7,248.4c-0.9-1.6-2-2.8-3.5-3.6c-1.4-0.8-3-1.2-4.6-1.2s-3.2,0.4-4.6,1.2s-2.6,2-3.5,3.5
		c-0.9,1.6-1.3,3.4-1.3,5.5s0.4,4,1.3,5.6s2,2.8,3.5,3.7c1.4,0.8,3,1.3,4.6,1.3s3.2-0.4,4.6-1.2c1.4-0.8,2.6-2,3.5-3.6
		c0.9-1.6,1.3-3.5,1.3-5.6S358.6,250,357.7,248.4z"/>
	<path d="M402,256.4h-23.6c0.2,2.5,1.1,4.5,2.8,6c1.6,1.5,3.7,2.2,6.1,2.2c3.4,0,5.9-1.4,7.3-4.3h6.9c-0.9,2.8-2.6,5.2-5.1,7
		s-5.5,2.7-9.1,2.7c-3,0-5.6-0.7-7.9-2c-2.3-1.3-4.2-3.2-5.5-5.6c-1.3-2.4-2-5.2-2-8.4s0.6-6,1.9-8.4s3.1-4.3,5.4-5.6s5-2,8.1-2
		c2.9,0,5.5,0.6,7.8,1.9c2.3,1.3,4.1,3.1,5.3,5.4c1.3,2.3,1.9,5,1.9,7.9C402.2,254.4,402.2,255.5,402,256.4z M395.5,251.3
		c0-2.4-0.9-4.2-2.5-5.7c-1.6-1.4-3.7-2.1-6.1-2.1c-2.2,0-4.1,0.7-5.7,2.1c-1.6,1.4-2.5,3.3-2.8,5.7H395.5z"/>
	<path d="M418.6,239.4c1.6-0.9,3.4-1.3,5.5-1.3v6.6h-1.6c-2.5,0-4.4,0.6-5.7,1.9c-1.3,1.3-1.9,3.5-1.9,6.6v16.3h-6.4v-30.9h6.4v4.5
		C415.9,241.5,417.1,240.3,418.6,239.4z"/>
</g>
</svg>
