<svg id="Capa_1" enable-background="new 0 0 512 512" height="512" viewBox="0 0 512 512" width="512" xmlns="http://www.w3.org/2000/svg"><g><g><path d="m111.051 118.5h-64.551c-8.284 0-15 6.716-15 15v55.71c0 19.4 11.22 37.04 28.78 45.28l11.87 5.553c.633.296.773 1.132.272 1.619-.128.125-.256.251-.382.378-6.51 6.52-10.54 15.52-10.54 25.46s4.03 18.94 10.54 25.46c6.52 6.51 15.52 10.54 25.46 10.54 12.596 0 23.683-6.472 30.116-16.271l4.454-7.604-22.507-56.224-33.743-15.941c-8.74-4.13-14.32-12.94-14.32-22.61v-34.35c0-1.1.9-2 2-2h47.551z" fill="#ffc269"/><path d="m400.949 118.5h64.551c8.284 0 15 6.716 15 15v55.71c0 19.4-11.22 37.04-28.78 45.28l-11.87 5.553c-.633.296-.773 1.132-.272 1.619.128.125.256.251.382.378 6.51 6.52 10.54 15.52 10.54 25.46s-4.03 18.94-10.54 25.46c-6.52 6.51-15.52 10.54-25.46 10.54-12.596 0-23.683-6.472-30.116-16.271l-5.358-7.108 23.411-56.72 33.743-15.941c8.74-4.13 14.32-12.94 14.32-22.61v-34.35c0-1.1-.9-2-2-2h-47.551z" fill="#ffc269"/><path d="m480.5 133.5v55.71c0 19.4-11.22 37.04-28.78 45.28l-11.87 5.55c-.63.3-.77 1.13-.27 1.62l.38.38c6.51 6.52 10.54 15.52 10.54 25.46s-4.03 18.94-10.54 25.46c-6.52 6.51-15.52 10.54-25.46 10.54-5.36 0-10.44-1.17-15.01-3.27 3.92-1.79 7.46-4.26 10.47-7.27 6.51-6.52 10.54-15.52 10.54-25.46s-4.03-18.94-10.54-25.46l-.38-.38c-.5-.49-.36-1.32.27-1.62l11.87-5.55c17.56-8.24 28.78-25.88 28.78-45.28v-55.71c0-8.28-6.72-15-15-15h30c8.28 0 15 6.72 15 15z" fill="#ffa95f"/><path d="m304.545 439.901c-20.58-11.48-33.335-33.2-33.335-56.765v-36.636h-30.42v36.635c0 23.565-12.755 45.285-33.335 56.765-5.407 3.016-11.495 4.599-17.686 4.599-10.918 0-19.769 8.851-19.769 19.769v10.232h172v-10.231c0-10.918-8.851-19.769-19.769-19.769-6.191 0-12.279-1.583-17.686-4.599z" fill="#ffc269"/><path d="m342 464.27v10.23h-30v-10.23c0-10.92-8.85-19.77-19.77-19.77-3.09 0-6.17-.4-9.14-1.17s-5.85-1.92-8.55-3.43c-20.58-11.48-33.33-33.2-33.33-56.76v-36.64h30v36.64c0 23.56 12.75 45.28 33.33 56.76 2.7 1.51 5.58 2.66 8.55 3.43s6.05 1.17 9.14 1.17c10.92 0 19.77 8.85 19.77 19.77z" fill="#ffa95f"/><path d="m256 356.5c81.462 0 147.5-66.038 147.5-147.5v-121.5c0-8.284-6.716-15-15-15h-265c-8.284 0-15 6.716-15 15v121.5c0 81.462 66.038 147.5 147.5 147.5z" fill="#ffe07d"/><path d="m403.5 87.5v121.5c0 81.46-66.04 147.5-147.5 147.5-5.06 0-10.07-.26-15-.75 74.42-7.52 132.5-70.35 132.5-146.75v-121.5c0-8.28-6.72-15-15-15h30c8.28 0 15 6.72 15 15z" fill="#ffd064"/><path d="m367 474.5h-222c-2.761 0-5 2.239-5 5v20c0 2.761 2.239 5 5 5h222c2.761 0 5-2.239 5-5v-20c0-2.761-2.239-5-5-5z" fill="#6f6571"/><path d="m372 479.5v20c0 2.76-2.24 5-5 5h-30c2.76 0 5-2.24 5-5v-20c0-2.76-2.24-5-5-5h30c2.76 0 5 2.24 5 5z" fill="#5d5360"/><path d="m198 148.5v108.164c0 4.346 5.162 6.623 8.371 3.692l49.629-44.829 49.66 44.988c3.219 2.889 8.34.604 8.34-3.721v-103.832z" fill="#fc8d94"/><path d="m314 152.96v103.83c0 4.33-5.12 6.61-8.34 3.73l-21.66-19.62v-87.94z" fill="#fa6f7c"/><path d="m256 150.73v64.8l-49.63 44.83c-3.21 2.93-8.37.65-8.37-3.7v-108.16z" fill="#c3aff0"/><path d="m256 183.5c-48.601 0-88-39.399-88-88 0-48.601 39.399-88 88-88 48.601 0 88 39.399 88 88 0 48.601-39.399 88-88 88z" fill="#cdf2f9"/><path d="m344 95.5c0 24.3-9.85 46.3-25.78 62.22-15.92 15.93-37.92 25.78-62.22 25.78-5.11 0-10.13-.44-15-1.27 18.29-3.14 34.65-11.93 47.22-24.51 15.93-15.92 25.78-37.92 25.78-62.22s-9.85-46.3-25.78-62.22c-12.57-12.58-28.93-21.37-47.22-24.51 4.87-.83 9.89-1.27 15-1.27 24.3 0 46.3 9.85 62.22 25.78 15.93 15.92 25.78 37.92 25.78 62.22z" fill="#a4e8f9"/><path d="m258.69 51.179 12.572 25.474c.437.885 1.282 1.499 2.259 1.641l28.112 4.085c2.461.358 3.443 3.381 1.663 5.117l-20.342 19.829c-.707.689-1.03 1.682-.863 2.655l4.802 27.999c.42 2.451-2.152 4.32-4.353 3.163l-25.144-13.219c-.874-.459-1.918-.459-2.792 0l-25.145 13.219c-2.201 1.157-4.773-.712-4.353-3.163l4.802-27.999c.167-.973-.156-1.966-.863-2.655l-20.342-19.829c-1.781-1.736-.798-4.76 1.663-5.117l28.112-4.085c.977-.142 1.822-.756 2.259-1.641l12.572-25.474c1.101-2.23 4.281-2.23 5.381 0z" fill="#fff"/></g><g><path d="m465.5 111h-54.5v-23.5c0-12.407-10.094-22.5-22.5-22.5h-41.995c-12.754-37.748-48.506-65-90.505-65s-77.751 27.252-90.505 65h-41.995c-12.406 0-22.5 10.093-22.5 22.5v23.5h-54.5c-12.406 0-22.5 10.093-22.5 22.5v55.71c0 22.198 12.99 42.636 33.103 52.074l4.251 1.989c-4.784 7.109-7.354 15.473-7.354 24.227 0 11.612 4.521 22.536 12.741 30.768 8.224 8.21 19.148 12.732 30.759 12.732 11.981 0 23.228-4.88 31.353-13.343 7.699 11.028 16.872 21.13 27.405 29.992 3.152 2.656 7.89 2.271 10.567-.91 2.667-3.169 2.26-7.901-.909-10.568-31.723-26.692-49.916-65.755-49.916-107.171v-121.5c0-4.136 3.364-7.5 7.5-7.5h38.264c-.827 5.047-1.264 10.223-1.264 15.5 0 27.327 11.541 52.007 30 69.431v91.733c0 4.95 2.927 9.439 7.456 11.437 4.529 1.997 9.816 1.131 13.442-2.179l44.595-40.281 44.658 40.457c3.741 3.363 8.925 4.136 13.442 2.112 4.568-2.039 7.406-6.413 7.406-11.415v-91.863c18.459-17.424 30-42.104 30-69.431 0-5.277-.437-10.453-1.264-15.5h38.265c4.136 0 7.5 3.364 7.5 7.5v121.499c0 77.196-62.804 140-140 140-21.891 0-42.852-4.909-62.301-14.59-3.706-1.844-8.21-.336-10.056 3.372s-.336 8.21 3.372 10.057c14.715 7.325 30.209 12.179 46.274 14.523v20.773c0 20.828-11.3 40.069-29.488 50.216-4.28 2.387-9.132 3.649-14.032 3.649-15.036 0-27.27 12.233-27.27 27.269v2.731h-17.499c-6.893 0-12.5 5.607-12.5 12.5v20c0 6.893 5.607 12.5 12.5 12.5h162c4.143 0 7.5-3.358 7.5-7.5s-3.357-7.5-7.5-7.5h-159.5v-15h217v15h-22.5c-4.143 0-7.5 3.358-7.5 7.5s3.357 7.5 7.5 7.5h25c6.893 0 12.5-5.607 12.5-12.5v-20c0-6.893-5.607-12.5-12.5-12.5h-17.5v-2.731c0-15.036-12.233-27.269-27.27-27.269-4.9 0-9.752-1.262-14.032-3.649-18.188-10.147-29.488-29.388-29.488-50.216v-20.803c43.093-6.354 80.464-30.506 104.392-64.725 8.129 8.493 19.394 13.393 31.398 13.393 11.613 0 22.537-4.522 30.768-12.741 8.211-8.223 12.732-19.147 12.732-30.759 0-8.751-2.568-17.112-7.355-24.227l4.261-1.993c20.104-9.434 33.094-29.872 33.094-52.07v-55.71c0-12.407-10.094-22.5-22.5-22.5zm-364.472 100.074-22.004-10.395c-6.089-2.878-10.024-9.091-10.024-15.829v-28.85h32v53c0 .693.019 1.383.028 2.074zm19.481 73.233c-5.37 7.345-13.862 11.693-23.009 11.693-7.609 0-14.77-2.964-20.152-8.339-5.383-5.391-8.348-12.552-8.348-20.161s2.965-14.77 8.333-20.146c4.558-3.822 3.47-11.726-2.005-14.104l-11.862-5.549c-14.862-6.975-24.466-22.083-24.466-38.491v-55.71c0-4.136 3.364-7.5 7.5-7.5h54.5v15h-37.5c-5.238 0-9.5 4.262-9.5 9.5v34.35c0 12.511 7.308 24.047 18.617 29.391l29.585 13.976c2.465 19.83 8.714 38.843 18.307 56.09zm84.991-33.27v-74.518c12.663 7.922 27.303 12.962 43 14.188v21.489zm101 .119-43-38.954v-21.496c15.697-1.225 30.337-6.266 43-14.188zm-50.5-75.156c-44.388 0-80.5-36.112-80.5-80.5s36.112-80.5 80.5-80.5 80.5 36.112 80.5 80.5-36.112 80.5-80.5 80.5zm44.892 270.451c6.508 3.63 13.887 5.549 21.339 5.549 6.766 0 12.27 5.504 12.27 12.269v2.731h-157v-2.731c0-6.765 5.504-12.269 12.27-12.269 7.452 0 14.831-1.919 21.339-5.549 22.935-12.794 37.182-37.055 37.182-63.315v-19.334c2.559.123 5.127.198 7.71.198 2.585 0 5.155-.067 7.71-.192v19.328c-.002 26.26 14.245 50.521 37.18 63.315zm110.108-290.451h32v28.85c0 6.738-3.935 12.951-10.024 15.829l-22.002 10.394c.009-.691.026-1.38.026-2.073zm62 33.21c0 16.408-9.604 31.516-24.458 38.487l-11.873 5.554c-5.462 2.381-6.562 10.245-2.017 14.088 5.383 5.391 8.348 12.552 8.348 20.161s-2.965 14.77-8.34 20.153c-5.39 5.383-12.55 8.347-20.16 8.347-9.166 0-17.673-4.367-23.041-11.739 9.475-16.985 15.851-35.923 18.351-56.049l29.574-13.971c11.308-5.344 18.616-16.88 18.616-29.391v-34.35c0-5.238-4.262-9.5-9.5-9.5h-37.5v-15h54.5c4.136 0 7.5 3.364 7.5 7.5z"/><path d="m302.712 74.958-25.771-3.745-11.525-23.353c-1.782-3.61-5.39-5.853-9.416-5.853s-7.634 2.243-9.416 5.853l-11.525 23.353-25.771 3.745c-3.984.579-7.232 3.317-8.477 7.146-1.244 3.83-.226 7.954 2.657 10.764l18.648 18.178-4.403 25.668c-.68 3.968.922 7.903 4.179 10.269 3.258 2.367 7.494 2.671 11.058.799l23.05-12.12 23.05 12.119c3.549 1.867 7.792 1.574 11.058-.799 3.257-2.366 4.858-6.301 4.178-10.271l-4.402-25.667 18.647-18.177c2.884-2.81 3.902-6.935 2.658-10.764-1.245-3.829-4.493-6.567-8.477-7.145zm-24.994 26.998c-2.475 2.414-3.604 5.888-3.019 9.293l3.261 19.012-17.073-8.977c-3.061-1.608-6.713-1.61-9.773 0l-17.073 8.976 3.261-19.012c.585-3.406-.544-6.88-3.02-9.294l-13.814-13.464 19.09-2.774c3.422-.497 6.377-2.646 7.905-5.744l8.537-17.298 8.536 17.296c1.529 3.101 4.484 5.249 7.907 5.746l19.089 2.774z"/></g></g></svg>