<?xml version="1.0" encoding="utf-8"?>
<!-- Generator: Adobe Illustrator 22.0.1, SVG Export Plug-In . SVG Version: 6.00 Build 0)  -->
<svg version="1.1" id="Layer_1" xmlns="http://www.w3.org/2000/svg" xmlns:xlink="http://www.w3.org/1999/xlink" x="0px" y="0px"
	 viewBox="0 0 177.8 52" style="enable-background:new 0 0 177.8 52;" xml:space="preserve">
<style type="text/css">
	.st0{fill:#E9327C;}
	.st1{fill:#1DACE3;}
	.st2{fill:#001A49;}
</style>
<path class="st0" d="M41,34.8L23,22.4c-1.8-1.3-1.2-3.9,1.1-4.5l19.1-5.2c1.4-0.5,3,0.2,3.5,1.6c0.1,0.3,0.2,0.6,0.2,0.9l-1.1,17.5
	C45.5,34.9,42.8,36,41,34.8z"/>
<path class="st1" d="M35.3,37.8L24.7,17.1C24,15.7,24.6,14,26,13.3c0.5-0.3,1.2-0.4,1.8-0.3l19.6,3c1.6,0.2,2.7,1.7,2.4,3.3
	c0,0.3-0.1,0.6-0.3,0.9l-9,17.6c-0.7,1.4-2.5,2-3.9,1.2C36,38.8,35.6,38.3,35.3,37.8z"/>
<path class="st2" d="M46.8,15.9L37,14.4l-12,3.3l4.8,9.4L41,34.8c0.2,0.2,0.5,0.3,0.8,0.4l4.3-8.3L46.8,15.9z"/>
<path class="st2" d="M96.2,18.3c0-1,0.8-1.8,1.8-1.8c1,0,1.8,0.8,1.8,1.8c0,1-0.8,1.8-1.8,1.8l0,0C97,20.2,96.2,19.3,96.2,18.3z
	 M96.5,21.1h3.1v10.2h-3.1V21.1z"/>
<path class="st2" d="M112.8,26.2c0.1,2.8-2,5.2-4.8,5.4c0,0,0,0,0,0c-1.1,0.1-2.3-0.4-3-1.2v5h-3.1V21.1h3.1v1
	c0.8-0.8,1.9-1.3,3-1.2C110.7,20.9,112.9,23.3,112.8,26.2C112.8,26.1,112.8,26.2,112.8,26.2z M109.7,26.2c0-1.3-1.1-2.4-2.5-2.4
	c-1.3,0-2.4,1.1-2.4,2.5c0,1.3,1.1,2.4,2.4,2.4c1.3,0.1,2.4-0.9,2.4-2.2C109.7,26.3,109.7,26.3,109.7,26.2z"/>
<path class="st2" d="M122.2,28.2c0,2.3-2,3.3-4.2,3.3c-1.8,0.2-3.6-0.8-4.4-2.4l2.7-1.5c0.2,0.8,0.9,1.3,1.7,1.2
	c0.7,0,1.1-0.2,1.1-0.6c0-1.1-5-0.5-5-4.1c0-2.2,1.9-3.3,4-3.3c1.6-0.1,3.1,0.8,4,2.2l-2.6,1.4c-0.2-0.5-0.8-0.9-1.4-0.9
	c-0.5,0-0.9,0.2-0.9,0.6C117.2,25.2,122.2,24.4,122.2,28.2z"/>
<path class="st2" d="M133.4,21.1v10.2h-3.1v-1c-0.7,0.9-1.8,1.3-2.9,1.2c-2.1,0-3.8-1.5-3.8-4.2v-6.3h3.1v5.8
	c-0.1,0.9,0.6,1.8,1.5,1.8c0.1,0,0.2,0,0.3,0c1.1,0,1.9-0.7,1.9-2.1v-5.6H133.4z"/>
<path class="st2" d="M150.9,25v6.3h-3.1v-6c0-1-0.5-1.7-1.5-1.7c-1,0-1.6,0.7-1.6,1.9v5.7h-3.1v-6c0-1-0.5-1.7-1.5-1.7
	c-1,0-1.6,0.7-1.6,1.9v5.7h-3.1V21.1h3.1V22c0.6-0.8,1.7-1.3,2.7-1.2c1.1-0.1,2.1,0.5,2.7,1.3c0.7-0.9,1.8-1.4,3-1.3
	C149.4,20.8,150.9,22.5,150.9,25z"/>
<circle class="st2" cx="153.5" cy="18.7" r="2.3"/>
<path class="st2" d="M54.5,16.4h3.1v14.9h-3.1V16.4z M59.2,26.2c0-3,2.4-5.4,5.4-5.4c3,0,5.4,2.4,5.4,5.4c0,3-2.4,5.4-5.4,5.4
	c0,0,0,0,0,0C61.7,31.6,59.3,29.2,59.2,26.2C59.2,26.2,59.2,26.2,59.2,26.2z M67,26.2c0-1.3-1.1-2.3-2.4-2.3c-1.3,0-2.3,1.1-2.3,2.4
	c0,1.3,1.1,2.3,2.3,2.3c1.3,0,2.3-1,2.4-2.2C67,26.3,67,26.2,67,26.2L67,26.2z M82.2,21.1v9.7c0,3.4-2.7,4.9-5.4,4.9
	c-1.9,0.1-3.8-0.8-4.8-2.5l2.6-1.5c0.4,0.9,1.4,1.4,2.3,1.3c1.1,0.2,2.1-0.6,2.3-1.7c0-0.1,0-0.3,0-0.4v-0.9c-0.7,0.9-1.8,1.4-3,1.3
	c-2.9-0.1-5.1-2.5-5-5.3c0.1-2.7,2.3-4.9,5-5c1.1-0.1,2.3,0.4,3,1.3v-1L82.2,21.1z M79.3,26c0.1-1.4-1-2.5-2.4-2.6
	c-1.4-0.1-2.5,1-2.6,2.4s1,2.5,2.4,2.6c0,0,0.1,0,0.1,0c1.3,0.1,2.4-0.9,2.5-2.1C79.3,26.1,79.3,26,79.3,26L79.3,26z M84,26.2
	c0-3,2.4-5.4,5.4-5.4c3,0,5.4,2.4,5.4,5.4c0,3-2.4,5.4-5.4,5.4c0,0,0,0,0,0C86.4,31.6,84,29.2,84,26.2C84,26.2,84,26.2,84,26.2
	L84,26.2z M91.7,26.2c0-1.3-1.1-2.3-2.4-2.3C88,23.9,87,25,87,26.3c0,1.3,1.1,2.3,2.3,2.3c1.3,0,2.3-1,2.3-2.2
	C91.7,26.3,91.7,26.2,91.7,26.2L91.7,26.2z"/>
</svg>
