<svg id="Capa_1" enable-background="new 0 0 512 512" height="512" viewBox="0 0 512 512" width="512" xmlns="http://www.w3.org/2000/svg"><g><g><path d="m213.711 271.21h84.578v223.374h-84.578z" fill="#fee97d"/><path d="m213.711 271.213h46.988v223.37h-46.988z" fill="#fee45a"/><path d="m129.133 327.596h84.578v166.989h-84.578z" fill="#ade194"/><path d="m129.133 327.598h46.988v166.985h-46.988z" fill="#97da7b"/><path d="m44.556 374.869h84.578v119.716h-84.578z" fill="#f07281"/><path d="m44.556 374.868h46.988v119.715h-46.988z" fill="#eb5569"/><path d="m298.289 214.825h84.578v279.759h-84.578z" fill="#e19974"/><path d="m298.289 214.828h46.988v279.755h-46.988z" fill="#dc8758"/><path d="m382.867 162.343h84.578v332.242h-84.578z" fill="#8ac9fe"/><path d="m382.867 162.343h46.988v332.24h-46.988z" fill="#60b7ff"/><path d="m435.999 26.259-50.604-8.624c-8.169-1.396-15.916 4.1-17.307 12.267-1.392 8.167 4.1 15.915 12.267 17.307l14.906 2.54-352.356 249.748c-6.759 4.791-8.354 14.153-3.564 20.912 2.924 4.126 7.551 6.327 12.25 6.327 3 0 6.028-.897 8.661-2.763l352.357-249.749-2.54 14.906c-1.392 8.167 4.1 15.915 12.267 17.307.853.146 1.701.216 2.538.216 7.177 0 13.522-5.169 14.769-12.482l8.624-50.604c1.391-8.168-4.102-15.916-12.268-17.308z" fill="#8ac9fe"/></g><g><path d="m504.5 487.085h-29.56v-324.742c0-4.142-3.358-7.5-7.5-7.5h-24.81c-4.142 0-7.5 3.358-7.5 7.5s3.358 7.5 7.5 7.5h17.31v317.24h-69.57v-317.24h19.58c4.142 0 7.5-3.358 7.5-7.5s-3.358-7.5-7.5-7.5h-27.08c-4.142 0-7.5 3.358-7.5 7.5v44.983h-77.081c-4.142 0-7.5 3.358-7.5 7.5v48.885h-77.078c-4.142 0-7.5 3.358-7.5 7.5v48.885h-77.078c-4.142 0-7.5 3.358-7.5 7.5v39.777h-77.073c-4.142 0-7.5 3.358-7.5 7.5v44.91c0 4.142 3.358 7.5 7.5 7.5s7.5-3.358 7.5-7.5v-37.41h69.57v104.71h-69.57v-34.62c0-4.142-3.358-7.5-7.5-7.5s-7.5 3.358-7.5 7.5v34.622h-29.56c-4.142 0-7.5 3.358-7.5 7.5s3.358 7.5 7.5 7.5h497c4.142 0 7.5-3.358 7.5-7.5s-3.358-7.5-7.5-7.5zm-367.867-151.989h69.578v151.989h-69.578zm84.578-7.5v-48.885h69.578v208.374h-69.578zm84.578 159.489v-215.874-48.885h69.578v264.759z"/><path d="m51.59 334.233c4.693 0 9.19-1.435 12.997-4.142l337.788-239.421c-.227 4.977 1.199 9.859 4.126 13.99 3.477 4.903 8.654 8.159 14.536 9.16 1.255.221 2.545.333 3.833.333 11.002 0 20.324-7.875 22.163-18.719l8.63-50.611c1.009-5.922-.35-11.884-3.825-16.786-3.477-4.903-8.654-8.159-14.578-9.167l-50.611-8.63c-5.923-1.007-11.884.35-16.787 3.825-4.903 3.477-8.159 8.654-9.167 14.581-1.919 11.283 4.967 22.077 15.658 25.315l-126.861 89.913c-3.38 2.395-4.178 7.076-1.783 10.456s7.076 4.178 10.456 1.783l141.43-100.24c2.475-1.754 3.649-4.827 2.976-7.784-.673-2.958-3.063-5.218-6.053-5.728l-14.901-2.539c-4.076-.699-6.828-4.584-6.135-8.66.336-1.975 1.421-3.701 3.056-4.859 1.634-1.158 3.623-1.609 5.59-1.275l50.612 8.63c1.976.336 3.701 1.421 4.86 3.056 1.158 1.633 1.611 3.619 1.275 5.59l-8.631 50.616c-.613 3.612-3.715 6.234-7.375 6.234-.417 0-.83-.036-1.272-.113-1.976-.336-3.701-1.421-4.86-3.056-1.158-1.633-1.611-3.619-1.275-5.591l2.54-14.911c.509-2.99-.833-5.993-3.4-7.608s-5.856-1.525-8.33.23l-352.368 249.755c-1.263.898-2.754 1.373-4.314 1.373-2.469 0-4.707-1.154-6.13-3.156-2.393-3.377-1.591-8.071 1.788-10.466l178.23-126.33c3.379-2.395 4.177-7.076 1.782-10.456-2.395-3.379-7.076-4.178-10.456-1.782l-178.23 126.33c-4.904 3.475-8.162 8.652-9.174 14.579s.345 11.893 3.828 16.808c4.219 5.932 11.083 9.473 18.362 9.473z"/></g></g></svg>