<?xml version="1.0" encoding="iso-8859-1"?>
<!-- Generator: Adobe Illustrator 22.0.0, SVG Export Plug-In . SVG Version: 6.00 Build 0)  -->
<svg xmlns="http://www.w3.org/2000/svg" xmlns:xlink="http://www.w3.org/1999/xlink" version="1.1" x="0px" y="0px" viewBox="0 0 60 59" style="enable-background:new 0 0 60 59;" xml:space="preserve" width="512" height="512">
<g id="_x31_1-Clock">
	<rect x="26" y="6" style="fill:#F8D293;" width="8" height="7"/>
	<rect x="22" y="45" style="fill:#F8D293;" width="16" height="13"/>
	<rect x="22" y="32" style="fill:#DBB072;" width="16" height="14"/>
	<polygon style="fill:#DBB072;" points="38,17 22,17 22,13 24,11 36,11 38,13  "/>
	<polygon style="fill:#DBB072;" points="34,6 26,6 30,0  "/>
	<path style="fill:#814F51;" d="M30,55c-0.552,0-1-0.448-1-1v-4c0-0.552,0.448-1,1-1s1,0.448,1,1v4C31,54.552,30.552,55,30,55z"/>
	<path style="fill:#814F51;" d="M34,55c-0.552,0-1-0.448-1-1v-4c0-0.552,0.448-1,1-1s1,0.448,1,1v4C35,54.552,34.552,55,34,55z"/>
	<path style="fill:#814F51;" d="M26,55c-0.552,0-1-0.448-1-1v-4c0-0.552,0.448-1,1-1s1,0.448,1,1v4C27,54.552,26.552,55,26,55z"/>
	<path style="fill:#814F51;" d="M30,43c-0.552,0-1-0.448-1-1v-4c0-0.552,0.448-1,1-1s1,0.448,1,1v4C31,42.552,30.552,43,30,43z"/>
	<path style="fill:#814F51;" d="M34,43c-0.552,0-1-0.448-1-1v-4c0-0.552,0.448-1,1-1s1,0.448,1,1v4C35,42.552,34.552,43,34,43z"/>
	<path style="fill:#814F51;" d="M26,43c-0.552,0-1-0.448-1-1v-4c0-0.552,0.448-1,1-1s1,0.448,1,1v4C27,42.552,26.552,43,26,43z"/>
	<path style="fill:#E7ECED;" d="M14,10c-0.382,0-0.744,0.078-1.08,0.208C12.553,8.379,10.938,7,9,7s-3.553,1.379-3.92,3.208   C4.744,10.078,4.382,10,4,10c-1.657,0-3,1.343-3,3s1.343,3,3,3h10c1.657,0,3-1.343,3-3S15.657,10,14,10z"/>
	<path style="fill:#AFB6BB;" d="M56,3c-0.382,0-0.744,0.078-1.08,0.208C54.553,1.379,52.938,0,51,0s-3.553,1.379-3.92,3.208   C46.744,3.078,46.382,3,46,3c-1.657,0-3,1.343-3,3s1.343,3,3,3h10c1.657,0,3-1.343,3-3S57.657,3,56,3z"/>
	<path style="fill:#1F436D;" d="M49,26c-0.552,0-1-0.448-1-1c0-1.103-0.897-2-2-2c-0.552,0-1-0.448-1-1s0.448-1,1-1   c1.064,0,2.032,0.418,2.75,1.098C49.774,20.252,51.744,19,54,19c0.552,0,1,0.448,1,1s-0.448,1-1,1c-2.206,0-4,1.794-4,4   C50,25.552,49.552,26,49,26z"/>
	<path style="fill:#7383BF;" d="M5,59H1c-0.552,0-1-0.448-1-1s0.448-1,1-1h4c0.552,0,1,0.448,1,1S5.552,59,5,59z"/>
	<path style="fill:#7383BF;" d="M59,59H43c-0.552,0-1-0.448-1-1s0.448-1,1-1h16c0.552,0,1,0.448,1,1S59.552,59,59,59z"/>
	<path style="fill:#7383BF;" d="M17,59h-6c-0.552,0-1-0.448-1-1s0.448-1,1-1h6c0.552,0,1,0.448,1,1S17.552,59,17,59z"/>
	<rect x="20" y="16" style="fill:#F8D293;" width="20" height="18"/>
	<circle style="fill:#FFFFFF;" cx="30" cy="25" r="6"/>
	<path style="fill:#28384C;" d="M30,26c-0.552,0-1-0.448-1-1v-2c0-0.552,0.448-1,1-1s1,0.448,1,1v2C31,25.552,30.552,26,30,26z"/>
	<path style="fill:#28384C;" d="M32,26h-2c-0.552,0-1-0.448-1-1s0.448-1,1-1h2c0.552,0,1,0.448,1,1S32.552,26,32,26z"/>
</g>

</svg>
