<?xml version="1.0" encoding="iso-8859-1"?>
<!-- Generator: Adobe Illustrator 19.0.0, SVG Export Plug-In . SVG Version: 6.00 Build 0)  -->
<svg version="1.1" id="Capa_1" xmlns="http://www.w3.org/2000/svg" xmlns:xlink="http://www.w3.org/1999/xlink" x="0px" y="0px"
	 viewBox="0 0 512 512" style="enable-background:new 0 0 512 512;" xml:space="preserve">
<path style="fill:#FFFFFF;" d="M151.846,119.969v-47.95c0-23.189,18.798-41.987,41.987-41.987h124.333
	c23.189,0,41.987,18.798,41.987,41.987v47.95"/>
<path style="fill:#ADE5FF;" d="M151.846,119.969v-47.95c0-23.189,18.798-41.987,41.987-41.987h124.333
	c23.189,0,41.987,18.798,41.987,41.987v47.95C360.153,119.968,151.846,119.968,151.846,119.969z"/>
<rect x="191.85" y="70.03" style="fill:#FFFFFF;" width="128.31" height="49.937"/>
<path style="fill:#FFB954;" d="M462,481.969H50c-22.091,0-40-17.909-40-40v-282c0-22.091,17.909-40,40-40h412
	c22.091,0,40,17.909,40,40v282C502,464.06,484.091,481.969,462,481.969z"/>
<path style="fill:#FEDA9B;" d="M462,119.969H50c-22.091,0-40,17.909-40,40v103.127h492V159.969
	C502,137.876,484.091,119.969,462,119.969z"/>
<g>
	<path style="fill:#FFFFFF;" d="M158.353,242.969H99.451c-1.657,0-3,1.343-3,3v43.516c0,17.121,13.879,31,31,31h2.902
		c17.121,0,31-13.879,31-31v-43.516C161.353,244.311,160.01,242.969,158.353,242.969z"/>
	<path style="fill:#FFFFFF;" d="M412.549,242.969h-58.902c-1.657,0-3,1.343-3,3v43.516c0,17.121,13.879,31,31,31h2.902
		c17.121,0,31-13.879,31-31v-43.516C415.549,244.311,414.206,242.969,412.549,242.969z"/>
</g>
<path d="M502,322c-2.63,0-5.21,1.069-7.07,2.93S492,329.37,492,332s1.069,5.21,2.93,7.069c1.86,1.86,4.44,2.931,7.07,2.931
	s5.21-1.07,7.069-2.931C510.93,337.21,512,334.63,512,332s-1.07-5.21-2.931-7.07C507.21,323.069,504.63,322,502,322z"/>
<path d="M462,109.969h-91.846v-37.95c0-28.666-23.321-51.987-51.987-51.987H193.833c-28.666,0-51.987,23.321-51.987,51.987v37.95H50
	c-27.57,0-50,22.43-50,50v282c0,27.57,22.43,50,50,50h412c27.57,0,50-22.43,50-50V373c0-5.522-4.478-10-10-10s-10,4.478-10,10
	v68.969c0,16.542-13.458,30-30,30H50c-15.869,0-28.892-12.388-29.926-28h132.259c5.522,0,10-4.478,10-10s-4.478-10-10-10H20V261.646
	c9.007,7.158,20.39,11.45,32.763,11.45h33.688v16.389c0,22.607,18.393,41,41,41h2.902c22.607,0,41-18.393,41-41v-16.389h169.293
	v16.389c0,22.607,18.393,41,41,41h2.902c22.607,0,41-18.393,41-41v-16.389h33.688c12.373,0,23.755-4.292,32.763-11.45v31.436
	c0,5.522,4.478,10,10,10s10-4.478,10-10V159.969C512,132.397,489.57,109.969,462,109.969z M161.846,72.019
	c0-17.638,14.35-31.987,31.987-31.987h124.334c17.638,0,31.987,14.35,31.987,31.987v37.95h-20V70.031c0-5.522-4.478-10-10-10
	H191.846c-5.522,0-10,4.478-10,10v39.938h-20V72.019z M201.846,109.969V80.031h108.309v29.938
	C310.155,109.968,201.846,109.968,201.846,109.969z M151.354,289.484c0,11.579-9.421,21-21,21h-2.902c-11.579,0-21-9.421-21-21
	v-36.516h44.902V289.484z M405.549,289.484c0,11.579-9.421,21-21,21h-2.902c-11.579,0-21-9.421-21-21v-36.516h44.902V289.484z
	 M459.237,253.095h-33.688v-7.127c0-7.168-5.832-13-13-13h-58.902c-7.168,0-13,5.832-13,13v7.127H171.354v-7.127
	c0-7.168-5.832-13-13-13H99.451c-7.168,0-13,5.832-13,13v7.127H52.763C34.697,253.095,20,238.397,20,220.332v-60.364
	c0-16.542,13.458-30,30-30h412c16.542,0,30,13.458,30,30v60.364C492,238.397,477.303,253.095,459.237,253.095z"/>
<path d="M191.667,423.969c-5.522,0-10,4.478-10,10s4.478,10,10,10h0.16c5.522,0,10-4.478,10-10s-4.478-10-10-10H191.667z"/>
<g>
</g>
<g>
</g>
<g>
</g>
<g>
</g>
<g>
</g>
<g>
</g>
<g>
</g>
<g>
</g>
<g>
</g>
<g>
</g>
<g>
</g>
<g>
</g>
<g>
</g>
<g>
</g>
<g>
</g>
</svg>
