<svg height="512pt" viewBox="-1 0 511 512" width="512pt" xmlns="http://www.w3.org/2000/svg"><g fill-rule="evenodd"><path d="m255.5 460.964844h-226.867188c-12.636718 0-20.171874-7.023438-20.574218-16.023438v43.9375c0 8.570313 7.019531 15.589844 15.558594 15.589844h463.707031c8.539062 0 15.5625-7.019531 15.5625-15.589844v-42.933594c-.890625 8.511719-8.339844 15.019532-20.488281 15.019532zm0 0" fill="#8a541e"/><path d="m27.027344 410.636719-14.5 20.691406c-2.867188 4.101563-4.296875 8.257813-4.46875 12.097656v1.519531c.402344 8.996094 7.9375 16.019532 20.574218 16.019532h453.765626c12.148437 0 19.597656-6.503906 20.488281-15.019532.484375-4.527343-.890625-9.628906-4.414063-14.617187l-14.5-20.691406c-6.5625-9.371094-14.585937-20.75-25.820312-21.609375-.429688-.03125-7.191406-.058594-7.648438-.058594-13.125 11.351562-40.203125 15.046875-70.578125 15.046875h-252.460937c-30.34375 0-57.453125-3.695313-70.550782-15.046875-.542968 0-3.78125.03125-4.296874.058594-11.089844 1.003906-19.054688 12.292968-25.589844 21.609375zm0 0" fill="#b5722f"/><path d="m54.796875 350.050781c-9.601563 18.140625-7.507813 30.578125 2.121094 38.917969 13.09375 11.351562 40.203125 15.046875 70.550781 15.046875h8.109375l30.34375-28.542969-36.078125-28.203125c-27.535156-21.523437-56.019531-8.054687-75.046875 2.78125zm0 0" fill="#ffdda6"/><path d="m377.574219 347.269531-22.496094 28.289063 16.765625 28.457031h8.082031c30.375 0 57.453125-3.695313 70.578125-15.046875 9.597656-8.339844 11.71875-20.777344 2.121094-38.917969-19.058594-10.835937-41.121094-11.066406-75.050781-2.78125zm0 0" fill="#ffdda6"/><path d="m150.964844 239.363281c-35.5625 1.890625-49 21.550781-66.109375 53.878907l-30.058594 56.808593c19.027344-10.835937 41.089844-11.066406 75.046875-2.78125h247.730469c33.929687-8.285156 55.992187-8.054687 75.046875 2.78125l-30.085938-56.808593c-17.109375-32.328126-30.519531-51.960938-66.082031-53.878907-8.023437-.402343-14.8125-1.402343-20.917969-3.554687l-164.054687.117187c-6.015625 2.089844-12.664063 3.035157-20.515625 3.4375zm0 0" fill="#64b0d9"/><path d="m340.4375 112.339844c-23.957031 18.027344-15.820312 32.84375-1.433594 41.097656 11.375.171875 24.070313-11.546875 24.070313-23.042969v-8.96875c0-5.015625-4.097657-9.085937-9.082031-9.085937zm0 0" fill="#eda93b"/><path d="m138.15625 130.394531c0 11.496094 12.691406 23.214844 24.039062 23.042969l18.226563-22.441406-19.628906-18.65625h-13.554688c-4.984375 0-9.082031 4.070312-9.082031 9.085937zm0 0" fill="#eda93b"/><path d="m374.652344 376.1875-2.808594 27.828125h8.082031c30.375 0 57.453125-3.695313 70.578125-15.046875 8.253906-7.164062 10.972656-17.339844 5.5-31.582031-1.058594 1.34375-2.261718 2.578125-3.609375 3.753906-13.125 11.375-40.203125 15.046875-70.578125 15.046875zm0 0" fill="#fcc368"/><path d="m51.242188 357.816406c-5.273438 14.015625-2.519532 24.074219 5.675781 31.152344 13.09375 11.351562 40.203125 15.046875 70.550781 15.046875h8.109375l-2.867187-28.371094h-8.109376c-30.347656 0-57.457031-3.699219-70.550781-15.046875-1.03125-.890625-1.949219-1.808594-2.808593-2.78125zm0 0" fill="#fcc368"/><path d="m318.570312 253.519531c5.503907 1.664063 11.578126 2.464844 18.601563 2.839844 35.558594 1.890625 48.972656 21.523437 66.105469 53.851563l16.535156 31.238281c12.523438.289062 23.070312 3.039062 32.8125 8.601562l-30.089844-56.808593c-17.105468-32.328126-30.519531-51.960938-66.082031-53.878907-8.023437-.402343-14.8125-1.402343-20.917969-3.554687-3.980468 6.878906-9.828125 12.78125-16.964844 17.710937zm0 0" fill="#4a83c9"/><path d="m173.257812 238.417969c30.691407 46.484375 136.257813 42.359375 162.277344-2.609375-8.050781-2.867188-14.957031-7.738282-22.179687-16.078125-2.546875-2.894531-9.539063-9.773438-9.941407-10.289063l-45.820312-29.0625-56.367188 31.898438c-2.320312 2.351562-5.589843 5.648437-7.164062 7.453125-7.335938 8.457031-14.386719 13.382812-22.582031 16.195312.488281.855469 1.234375 1.660157 1.777343 2.492188zm0 0" fill="#fcc368"/><path d="m162.199219 153.4375c4.496093 20.894531 19.339843 43.25 39.027343 58.839844 7.109376 5.617187 14.84375 10.347656 22.925782 13.84375 1.347656.574218 2.722656 1.117187 4.070312 1.636718 16.332032 6.046876 28.597656 6.015626 44.875-.058593 10.886719-4.070313 21.203125-10.433594 30.316406-18.257813 17.996094-15.390625 31.378907-36.339844 35.589844-56 .945313-4.300781 1.433594-8.542968 1.433594-12.640625v-48.808593l-82.84375-22.355469-96.800781 22.355469v48.808593c0 4.097657.488281 8.339844 1.40625 12.636719zm0 0" fill="#ffdda6"/><path d="m315.363281 100.304688v48.808593c0 4.097657-.488281 8.339844-1.402343 12.636719-4.214844 19.660156-17.625 40.613281-35.59375 56.003906-6.417969 5.472656-13.410157 10.257813-20.773438 14.042969 4.898438-.660156 9.972656-2.035156 15.503906-4.097656 2.894532-1.058594 5.757813-2.320313 8.539063-3.695313 7.734375-3.84375 15.101562-8.828125 21.777343-14.5625 17.996094-15.390625 31.378907-36.339844 35.589844-56 .945313-4.300781 1.433594-8.542968 1.433594-12.640625v-48.808593c-9.140625 3.46875-17.453125 6.191406-25.074219 8.3125zm0 0" fill="#fcc368"/><path d="m160.792969 91.992188c78.433593-21.152344 72.070312 40.898437 179.644531 0 49.71875-36.167969.972656-106.1875-52.238281-77.871094-26.277344 13.988281-59.089844-6.390625-86.597657 5.703125-26.96875 11.867187-40.808593 37.203125-40.808593 72.167969zm0 0" fill="#808080"/><path d="m284.070312 16.011719c43.585938-3.726563 74.363282 52.964843 31.292969 84.292969 7.621094-2.121094 15.933594-4.84375 25.074219-8.3125 49.71875-36.167969.972656-106.1875-52.238281-77.871094-1.378907.71875-2.753907 1.347656-4.128907 1.890625zm0 0" fill="#666"/><path d="m297.023438 239.964844c6.191406 6.390625 12.292968 10.347656 19.226562 12.8125.773438.257812 1.519531.515625 2.320312.742187 7.136719-4.929687 12.984376-10.832031 16.964844-17.710937l-.429687-.171875c-7.851563-2.867188-14.671875-7.710938-21.777344-15.878907-2.523437-2.921874-9.515625-9.800781-9.914063-10.316406-9.113281 7.824219-19.429687 14.1875-30.320312 18.257813-16.273438 6.074219-28.539062 6.105469-44.875.054687-1.347656-.515625-2.722656-1.058594-4.066406-1.632812-8.082032-3.496094-15.820313-8.226563-22.925782-13.84375-2.320312 2.351562-5.589843 5.648437-7.164062 7.453125-.859375 1.003906-1.691406 1.917969-2.550781 2.808593 2.464843 2.207032 5.015625 4.328126 7.652343 6.332032 7.390626 5.617187 15.472657 10.347656 23.925782 13.84375 1.40625.574218 2.808594 1.121094 4.242187 1.605468 16.992188 6.078126 29.800781 6.046876 46.796875-.027343 4.839844-1.722657 9.570313-3.871094 14.125-6.390625 1.660156-.917969 4.214844-2.636719 8.769532 2.0625zm0 0" fill="#eda93b"/><path d="m147.898438 427.777344-12.324219-23.761719h-8.109375c-30.34375 0-57.453125-3.695313-70.550782-15.046875-.542968 0-3.78125.03125-4.296874.058594-5.875.542968-10.859376 3.953125-15.246094 8.425781-.171875.171875-.257813.257813-.257813.257813-1.171875 1.261718-2.320312 2.550781-3.410156 3.925781 9.371094 24.992187 88.921875 26.140625 114.195313 26.140625zm0 0" fill="#8a541e"/><path d="m359.519531 427.777344 12.324219-23.761719h8.082031c30.375 0 57.453125-3.667969 70.578125-15.046875h.371094c1.519531 0 6.878906.03125 7.28125.058594 6.273438.457031 11.546875 4.242187 16.132812 9.113281l-.058593-.027344c.058593.027344.085937.054688.144531.113281l.140625.144532c.34375.371094-.171875 1.890625-.800781 3.265625-9.398438 24.992187-88.949219 26.140625-114.195313 26.140625zm0 0" fill="#8a541e"/><path d="m129.84375 347.269531 5.730469 56.746094 1.292969 12.726563c.601562 6.019531 4.957031 11.003906 11.003906 11.003906h211.652344c6.074218 0 10.429687-4.984375 11.03125-11.003906l1.289062-12.726563 5.730469-56.746094 4.328125-42.90625c.601562-6.046875-4.957032-11.03125-11.035156-11.03125h-234.34375c-6.046876 0-11.636719 4.984375-11.035157 11.03125zm0 0" fill="#e6e6e6"/><path d="m230.769531 360.539062c0 10.976563 10.261719 19.890626 22.925781 19.890626 12.667969 0 22.953126-8.914063 22.953126-19.890626 0-10.976562-10.285157-19.863281-22.953126-19.863281-12.664062 0-22.925781 8.886719-22.925781 19.863281zm0 0" fill="#fcc368"/><path d="m135.574219 404.015625 1.292969 12.726563c.113281 1.117187.34375 2.234374.714843 3.265624 1.574219 4.472657 5.386719 7.738282 10.285157 7.738282h211.652343c4.929688 0 8.710938-3.265625 10.289063-7.738282.371094-1.03125.628906-2.148437.746094-3.265624l1.289062-12.726563zm0 0" fill="#c2c7cc"/></g><path d="m216.070312 157.5c-4.175781 0-7.558593-3.382812-7.558593-7.558594v-8.453125c0-4.175781 3.382812-7.558593 7.558593-7.558593 4.171876 0 7.558594 3.382812 7.558594 7.558593v8.453125c0 4.175782-3.382812 7.558594-7.558594 7.558594zm0 0"/><path d="m286.160156 157.5c-4.171875 0-7.554687-3.382812-7.554687-7.558594v-8.453125c0-4.175781 3.382812-7.558593 7.554687-7.558593 4.175782 0 7.558594 3.382812 7.558594 7.558593v8.453125c0 4.175782-3.382812 7.558594-7.558594 7.558594zm0 0"/><path d="m223.214844 360.539062c0 15.136719 13.671875 27.449219 30.480468 27.449219 16.824219 0 30.511719-12.3125 30.511719-27.449219 0-15.117187-13.6875-27.421874-30.511719-27.421874-16.808593 0-30.480468 12.304687-30.480468 27.421874zm30.480468-12.304687c8.488282 0 15.394532 5.519531 15.394532 12.304687 0 6.800782-6.90625 12.332032-15.394532 12.332032-8.472656 0-15.367187-5.53125-15.367187-12.332032 0-6.785156 6.894531-12.304687 15.367187-12.304687zm0 0"/><path d="m504.664062 426.992188-14.5-20.691407c-6.074218-8.675781-14.101562-20.132812-25.894531-23.746093 4.015625-10.007813 2.390625-22.035157-4.859375-35.835938-.011718-.023438-.027344-.050781-.039062-.074219-.023438-.046875-.042969-.089843-.066406-.132812l-30.089844-56.800781c-17.21875-32.542969-32.488282-55.742188-72.363282-57.894532-15.992187-.839844-26.222656-3.707031-37.824218-17.082031-1.128906-1.28125-2.945313-3.167969-4.761719-5.019531 14.613281-14.210938 25.789063-31.855469 30.808594-49.394532 5.679687-1.300781 11.273437-4.4375 15.96875-9.0625 6.09375-6.003906 9.589843-13.609374 9.589843-20.863281v-8.96875c0-9.179687-7.464843-16.644531-16.640624-16.644531h-5.996094v-9.09375c11.03125-8.996094 17.941406-20.289062 20.039062-32.867188 2.046875-12.273437-.664062-25.164062-7.625-36.296874-13.851562-22.140626-44.324218-35.804688-75.765625-19.074219-11.378906 6.058593-25.0625 4.371093-39.550781 2.585937-15.363281-1.894531-31.246094-3.851562-46.539062 2.871094-14.875 6.546875-26.335938 16.855469-34.0625 30.644531-7.46875 13.324219-11.257813 29.625-11.257813 48.441407v12.789062h-5.996094c-9.175781 0-16.640625 7.464844-16.640625 16.644531v8.96875c0 7.257813 3.496094 14.867188 9.597656 20.871094 4.691407 4.625 10.285157 7.761719 15.957032 9.058594 5.382812 18.820312 17.847656 37.753906 34.042968 52.445312-.703124.742188-1.339843 1.429688-1.84375 2.007813-6.402343 7.386718-12.402343 11.558594-19.199218 13.953125-5.46875 1.929687-11.457032 2.710937-18.589844 3.082031-39.878906 2.121094-55.15625 25.335938-72.386719 57.894531l-30.058593 56.800781c-.027344.050782-.050782.101563-.078126.152344-.007812.015625-.015624.035156-.027343.054688-7.539063 14.328125-8.992188 26.742187-4.371094 36.976562-10.089844 4.496094-17.261719 14.707032-22.800781 22.605469l-14.5 20.695313c-3.464844 4.941406-5.398438 10.265624-5.769532 15.441406-.039062.324218-.070312.652344-.070312.992187v45.453125c0 12.75 10.371094 23.121094 23.117188 23.121094h463.707031c12.75 0 23.121093-10.371094 23.121093-23.121094v-42.933594c0-.007812-.003906-.015624-.003906-.023437.425782-6.230469-1.53125-12.867187-5.777344-18.929687zm-353.863281-286.492188c-3.183593-3.140625-5.085937-6.914062-5.085937-10.105469v-8.96875c0-.828125.699218-1.527343 1.523437-1.527343h5.996094v20.902343c0 .59375.035156 1.195313.050781 1.796875-.859375-.625-1.695312-1.324218-2.484375-2.097656zm233.746094 212.898438c28.550781-6.425782 47.089844-5.765626 62.410156 2.175781 4.867188 9.949219 5.621094 17.832031 2.238281 23.445312-4.78125 7.941407-20.644531 17.398438-68.996093 17.4375zm-30.554687-233.5c.824218 0 1.523437.699218 1.523437 1.527343v8.96875c0 3.1875-1.898437 6.960938-5.082031 10.097657-.789063.773437-1.625 1.472656-2.488282 2.101562.019532-.597656.050782-1.199219.050782-1.792969v-20.902343zm-149.351563-93.15625c11.488281-5.046876 24.660156-3.421876 38.601563-1.707032 16.179687 1.996094 32.910156 4.058594 48.503906-4.242187 24.355468-12.957031 46.019531-1.957031 55.847656 13.746093 8.402344 13.4375 10.519531 34.6875-10.8125 50.753907-56.722656 21.378906-78.699219 13.046875-101.957031 4.230469-12.566407-4.761719-25.402344-9.628907-43.144531-9.628907-6.828126 0-14.382813.722657-22.921876 2.449219 1.78125-20.679688 10.027344-44.222656 35.882813-55.601562zm-34.957031 125.695312c-.039063-.292969-.097656-.578125-.167969-.859375-.753906-3.652344-1.164063-7.265625-1.164063-10.777344v-42.910156c28.558594-6.566406 43.722657-.824219 61.113282 5.769531 12.898437 4.886719 26.722656 10.125 46.644531 10.125 14.832031 0 33.046875-2.90625 56.769531-11.027344v38.042969c0 3.402344-.390625 6.902344-1.101562 10.445313-.136719.453125-.234375.917968-.285156 1.402344-6.152344 27.410156-32.039063 57.15625-61.039063 67.96875-14.613281 5.453124-24.976563 5.46875-39.597656.054687-29.117188-10.824219-55.101563-40.722656-61.171875-68.234375zm30.074218 72.261719c.542969-.621094 1.355469-1.488281 2.273438-2.441407 7.425781 5.222657 15.359375 9.53125 23.566406 12.585938 9 3.332031 17.003906 4.996094 25.003906 4.996094 8.050782 0 16.09375-1.6875 25.132813-5.0625 9.507813-3.542969 18.65625-8.777344 27.0625-15.171875 1.859375 1.890625 3.839844 3.929687 4.847656 5.074219 5.441407 6.273437 10.851563 10.792968 16.445313 14.054687-13.050782 14.621094-38.417969 24.238281-67.566406 25.085937-31.8125.929688-59.210938-8.503906-73.414063-24.953124 5.667969-3.269532 11.144531-7.820313 16.648437-14.167969zm-108.222656 72.078125c17.28125-32.652344 28.816406-48.21875 59.824219-49.867188 6.070313-.316406 11.703125-.960937 17.050781-2.25 15.554688 21.429688 47.144532 34.339844 83.921875 34.339844 1.535157 0 3.082031-.023438 4.632813-.066406 36.210937-1.058594 66.835937-14.0625 81.808594-34.332032 5.414062 1.328126 11.121093 1.984376 17.273437 2.308594 31.007813 1.675782 42.539063 17.230469 59.808594 49.871094l20.679687 39.039062c-13.8125-3.066406-29.867187-2.445312-50.390625 1.769532l3.28125-32.476563c.472657-4.765625-1.097656-9.410156-4.421875-13.078125-3.601562-3.980468-8.753906-6.265625-14.132812-6.265625h-97.976563c-4.171875 0-7.554687 3.386719-7.554687 7.558594 0 4.175781 3.382812 7.558594 7.554687 7.558594h97.976563c1.066406 0 2.21875.507812 2.929687 1.292969.433594.476562.628907.960937.582031 1.425781l-11.347656 112.382812c-.203125 2.023438-1.390625 4.199219-3.511718 4.199219h-211.652344c-2.25 0-3.316406-2.511719-3.484375-4.207031l-6.996094-69.085938c-.011719-.28125-.039063-.566406-.082031-.84375l-4.296875-42.433593c-.046875-.46875.148437-.949219.585937-1.429688.714844-.789062 1.863282-1.300781 2.925782-1.300781h101.355468c4.171875 0 7.558594-3.382813 7.558594-7.558594 0-4.171875-3.386719-7.558594-7.558594-7.558594h-101.355468c-5.375 0-10.527344 2.289063-14.132813 6.273438-3.324219 3.671875-4.894531 8.3125-4.421875 13.082031l3.289062 32.460938c-20.527343-4.210938-36.578124-4.832032-50.382812-1.769532zm35.679688 99.679687c-39.230469-.027343-57.078125-6.253906-64.96875-12.84375-.203125-.203125-.421875-.390625-.648438-.570312-1.496094-1.347657-2.597656-2.703125-3.390625-4.019531-3.378906-5.613282-2.617187-13.496094 2.253907-23.449219 15.292968-7.941407 33.828124-8.601563 62.394531-2.179688zm142.585937 72.066407h212.597657c4.765624 0 9.125-.828126 12.929687-2.371094v22.726562c0 4.414063-3.589844 8.003906-8.003906 8.003906h-463.707031c-4.414063 0-8-3.589843-8-8.003906v-22.757812c3.824218 1.5625 8.214843 2.402344 13.019531 2.402344l206.265625-.117188c4.171875 0 7.554687-3.386719 7.550781-7.5625 0-4.171875-3.382813-7.554688-7.554687-7.554688-.003907 0-.003907 0-.003907 0l-206.261719.117188c-5.929687 0-10.359374-1.976562-12.152343-5.425781-.503907-.972657-.785157-2.042969-.863281-3.179688v-1.269531c.15625-2.449219 1.203124-5.152344 3.101562-7.863281l14.5-20.691407c5.496094-7.839843 12.332031-17.582031 19.90625-18.40625.242188-.003906.6875-.011718 1.183594-.019531 13.660156 10.089844 37.804687 15.023438 73.160156 15.023438h1.277344l.601562 5.917969c1.03125 10.320312 8.820313 17.8125 18.523438 17.8125h211.652344c9.714843 0 17.519531-7.492188 18.550781-17.804688l.597656-5.925781h1.253906c35.371094 0 59.519531-4.9375 73.179688-15.035157 1.808593.011719 3.980469.023438 4.621093.035157 7.667969.707031 14.535157 10.511719 20.058594 18.398437l14.5 20.695313c3.15625 4.503906 3.976563 8.996093 2.246094 12.324219-1.792969 3.441406-6.214844 5.414062-12.132812 5.414062h-212.597657c-4.175781 0-7.558593 3.382812-7.558593 7.558594 0 4.175781 3.382812 7.558594 7.558593 7.558594zm0 0"/></svg>