<?xml version="1.0" encoding="iso-8859-1"?>
<!-- Generator: Adobe Illustrator 19.0.0, SVG Export Plug-In . SVG Version: 6.00 Build 0)  -->
<svg version="1.1" id="Layer_1" xmlns="http://www.w3.org/2000/svg" xmlns:xlink="http://www.w3.org/1999/xlink" x="0px" y="0px"
	 viewBox="0 0 504 504" style="enable-background:new 0 0 504 504;" xml:space="preserve">
<path style="fill:#306F96;" d="M164,488.8c0,3.2-2.4,5.6-5.6,5.6l0,0c-3.2,0-5.6-2.4-5.6-5.6V11.2c0-3.2,2.4-5.6,5.6-5.6l0,0
	c3.2,0,5.6,2.4,5.6,5.6V488.8z"/>
<path style="fill:#4488AA;" d="M332.8,494.4c77.6-278.4-84-460-171.2-464.8v464.8H332.8z"/>
<path style="fill:#306F96;" d="M332.8,494.4c77.6-278.4-84-460-171.2-464.8"/>
<path style="fill:#8EDBDD;" d="M198.4,146.4v348h96.8c44-157.6-0.8-288.8-48.8-348H198.4z"/>
<path style="fill:#8BEAEA;" d="M198.4,494.4h96.8c44-157.6-0.8-288.8-48.8-348"/>
<path style="fill:#71C9C9;" d="M204,146.4l104.8,284c18.4-128-20.8-232.8-62.4-284H204z"/>
<path style="fill:#3DC4C0;" d="M308.8,429.6c8-56,4.8-107.2-4-152l0,0c-4-18.4-8.8-36-15.2-52v-0.8c-1.6-4.8-4-9.6-5.6-14.4
	c0-0.8-0.8-0.8-0.8-1.6c-2.4-4.8-4-9.6-6.4-13.6c0,0,0,0,0-0.8c-2.4-4-4-8.8-6.4-12.8c0,0,0-0.8-0.8-0.8c-2.4-4-4-8-6.4-11.2
	c0-0.8-0.8-1.6-0.8-1.6c-2.4-3.2-4-6.4-6.4-9.6c0-0.8-0.8-0.8-0.8-1.6c-2.4-3.2-4.8-6.4-7.2-9.6l-12,84L308.8,429.6z"/>
<g>
	<path style="fill:#306F96;" d="M504,492c0,3.2-2.4,5.6-5.6,5.6H5.6c-3.2,0-5.6-2.4-5.6-5.6l0,0c0-3.2,2.4-5.6,5.6-5.6h492.8
		C501.6,486.4,504,489.6,504,492L504,492z"/>
	<path style="fill:#306F96;" d="M256,149.6c0,1.6-1.6,3.2-3.2,3.2H140c-1.6,0-3.2-1.6-3.2-3.2l0,0c0-1.6,1.6-3.2,3.2-3.2h112
		C254.4,146.4,256,148,256,149.6L256,149.6z"/>
	<rect x="193.6" y="171.2" style="fill:#306F96;" width="92.8" height="4"/>
	<rect x="193.6" y="196" style="fill:#306F96;" width="92.8" height="4"/>
	<rect x="193.6" y="220.8" style="fill:#306F96;" width="117.6" height="4"/>
	<rect x="193.6" y="245.6" style="fill:#306F96;" width="139.2" height="4"/>
	<rect x="193.6" y="271.2" style="fill:#306F96;" width="131.2" height="4"/>
	<rect x="193.6" y="296" style="fill:#306F96;" width="125.6" height="4"/>
	<rect x="193.6" y="320.8" style="fill:#306F96;" width="136.8" height="4"/>
	<rect x="193.6" y="345.6" style="fill:#306F96;" width="137.6" height="4"/>
	<rect x="193.6" y="370.4" style="fill:#306F96;" width="136" height="4"/>
	<rect x="193.6" y="395.2" style="fill:#306F96;" width="142.4" height="4"/>
	<rect x="193.6" y="420.8" style="fill:#306F96;" width="128.8" height="4"/>
	<rect x="193.6" y="445.6" style="fill:#306F96;" width="136" height="4"/>
	<rect x="193.6" y="470.4" style="fill:#306F96;" width="131.2" height="4"/>
	<polygon style="fill:#306F96;" points="121.6,492 115.2,498.4 108.8,492 115.2,449.6 	"/>
</g>
<g>
	<path style="fill:#4488AA;" d="M116,453.6c-0.8-18.4-16-19.2-19.2-15.2l18.4,18.4L116,453.6z"/>
	<path style="fill:#4488AA;" d="M115.2,452.8c-13.6-12-24.8-2.4-24.8,2.4H116L115.2,452.8z"/>
	<path style="fill:#4488AA;" d="M112.8,453.6c-12.8,0.8-13.6,11.2-11.2,13.6l12.8-12.8L112.8,453.6z"/>
	<path style="fill:#4488AA;" d="M115.2,453.6c0.8-18.4,16-19.2,19.2-15.2L116,456.8L115.2,453.6z"/>
	<path style="fill:#4488AA;" d="M116,452.8c13.6-12,24.8-2.4,24.8,2.4h-25.6L116,452.8z"/>
	<path style="fill:#4488AA;" d="M118.4,453.6c12.8,0.8,13.6,11.2,11.2,13.6l-12.8-12.8L118.4,453.6z"/>
	<path style="fill:#4488AA;" d="M115.2,451.2c-12-13.6-2.4-24.8,2.4-24.8V452L115.2,451.2z"/>
</g>
<polygon style="fill:#306F96;" points="392,492 385.6,498.4 379.2,492 385.6,449.6 "/>
<g>
	<path style="fill:#4488AA;" d="M386.4,453.6c-0.8-18.4-16-19.2-19.2-15.2l18.4,18.4L386.4,453.6z"/>
	<path style="fill:#4488AA;" d="M385.6,452.8c-13.6-12-24.8-2.4-24.8,2.4h25.6L385.6,452.8z"/>
	<path style="fill:#4488AA;" d="M383.2,453.6c-12.8,0.8-13.6,11.2-11.2,13.6l12.8-12.8L383.2,453.6z"/>
	<path style="fill:#4488AA;" d="M385.6,453.6c0.8-18.4,16-19.2,19.2-15.2l-18.4,18.4L385.6,453.6z"/>
	<path style="fill:#4488AA;" d="M386.4,452.8c13.6-12,24.8-2.4,24.8,2.4h-25.6L386.4,452.8z"/>
	<path style="fill:#4488AA;" d="M388.8,453.6c12.8,0.8,13.6,11.2,11.2,13.6l-12.8-12.8L388.8,453.6z"/>
	<path style="fill:#4488AA;" d="M385.6,451.2c-12-13.6-2.4-24.8,2.4-24.8V452L385.6,451.2z"/>
</g>
<polygon style="fill:#306F96;" points="437.6,493.6 432.8,498.4 428.8,493.6 432.8,464 "/>
<g>
	<path style="fill:#4488AA;" d="M433.6,466.4c-0.8-12.8-11.2-13.6-13.6-11.2l12.8,12.8L433.6,466.4z"/>
	<path style="fill:#4488AA;" d="M432.8,466.4c-9.6-8.8-17.6-1.6-17.6,1.6h18.4L432.8,466.4z"/>
	<path style="fill:#4488AA;" d="M431.2,467.2c-8.8,0-9.6,8-8,9.6l8.8-8.8L431.2,467.2z"/>
	<path style="fill:#4488AA;" d="M432.8,466.4c0.8-12.8,11.2-13.6,13.6-11.2L433.6,468L432.8,466.4z"/>
	<path style="fill:#4488AA;" d="M433.6,466.4c9.6-8.8,17.6-1.6,17.6,1.6h-18.4L433.6,466.4z"/>
	<path style="fill:#4488AA;" d="M435.2,467.2c8.8,0,9.6,8,8,9.6l-8.8-8.8L435.2,467.2z"/>
	<path style="fill:#4488AA;" d="M432.8,465.6c-8.8-9.6-1.6-17.6,1.6-17.6v18.4L432.8,465.6z"/>
</g>
<g>
</g>
<g>
</g>
<g>
</g>
<g>
</g>
<g>
</g>
<g>
</g>
<g>
</g>
<g>
</g>
<g>
</g>
<g>
</g>
<g>
</g>
<g>
</g>
<g>
</g>
<g>
</g>
<g>
</g>
</svg>
