<svg id="Layer_1" enable-background="new 0 0 512 512" height="512" viewBox="0 0 512 512" width="512" xmlns="http://www.w3.org/2000/svg"><g><g clip-rule="evenodd" fill-rule="evenodd"><path d="m40.75 175.996c16.913 0 30.75-13.837 30.75-30.75v-29.248l22.501-80.003h-54l-30.001 80.004v29.248c0 15.298 11.322 28.08 26 30.381 1.549.242 3.135.368 4.75.368z" fill="#ff5d7d"/><path d="m71.5 145.247c0 16.912 13.837 30.75 30.75 30.75s30.75-13.837 30.75-30.75v-29.248l15.001-80.003h-54l-22.501 80.003z" fill="#ffc144"/><path d="m133 145.247c0 16.912 13.837 30.75 30.75 30.75 16.912 0 30.75-13.837 30.75-30.75v-29.248l7.5-80.003h-54l-15 80.003z" fill="#ff5d7d"/><path d="m194.5 145.247c0 16.912 13.837 30.75 30.75 30.75 16.912 0 30.75-13.837 30.75-30.75v-109.251h-54l-7.5 80.003z" fill="#ffc144"/><path d="m256 35.996v109.251c0 16.912 13.837 30.75 30.75 30.75s30.75-13.837 30.75-30.75v-29.248l-7.5-80.003z" fill="#ff5d7d"/><path d="m310 35.996 7.5 80.003v29.248c0 16.912 13.837 30.75 30.75 30.75s30.75-13.837 30.75-30.75v-29.248l-15.001-80.003z" fill="#ffc144"/><path d="m363.999 35.996 15.001 80.003v29.248c0 16.912 13.837 30.75 30.75 30.75 16.912 0 30.75-13.837 30.75-30.75v-29.248l-22.501-80.003z" fill="#ff5d7d"/><path d="m417.999 35.996 22.501 80.003v29.248c0 16.912 13.837 30.75 30.75 30.75 1.615 0 3.201-.126 4.75-.369 14.678-2.301 26-15.083 26-30.381v-29.248l-30.001-80.003z" fill="#ffc144"/><path d="m440.5 145.247c0 16.912-13.838 30.75-30.75 30.75-16.913 0-30.75-13.837-30.75-30.75 0 16.912-13.838 30.75-30.75 30.75-16.913 0-30.75-13.837-30.75-30.75 0 16.912-13.837 30.75-30.75 30.75s-30.75-13.837-30.75-30.75c0 16.912-13.838 30.75-30.75 30.75-16.913 0-30.75-13.837-30.75-30.75 0 16.912-13.838 30.75-30.75 30.75-16.913 0-30.75-13.837-30.75-30.75 0 16.912-13.837 30.75-30.75 30.75s-30.75-13.837-30.75-30.75c0 16.912-13.837 30.75-30.75 30.75-1.615 0-3.201-.126-4.75-.37v180.377h362.977l-11.394-30.885c-1.767-5.322 3.361-10.333 8.613-8.55l79.804 29.426v-170.368c-1.549.243-3.135.369-4.75.369-16.913 0-30.75-13.837-30.75-30.749z" fill="#fff"/><path d="m476 345.995-79.805-29.426c-5.252-1.783-10.38 3.229-8.613 8.55l11.394 30.885 14.758 40 7.404 20.068c1.642 5.827 8.049 6.671 11.448 3.272l14.447-14.447 24.079 24.079c2.659 2.659 6.971 2.659 9.63 0l19.262-19.263c2.659-2.659 2.659-6.971 0-9.63l-24.079-24.079 14.447-14.447c3.521-3.515 2.158-9.645-2.687-11.253z" fill="#e3eaef"/><path d="m413.734 396.004-14.758-40h-362.976v20.001c0 11 9 20 20 20h154.614 80.771 122.349z" fill="#a7bdcd"/><path d="m301 476.005-9.615-80.001h-80.771l-9.614 80.001z" fill="#6d91ac"/></g><g><path d="m512 145.246v-29.248c0-1.199-.216-2.389-.637-3.511l-30.001-80.003c-1.463-3.903-5.195-6.489-9.363-6.489h-431.998c-4.168 0-7.9 2.586-9.363 6.489l-30.001 80.004c-.421 1.122-.637 2.312-.637 3.511v29.248c0 17.268 10.802 32.052 26 37.975v192.782c0 16.542 13.458 30 30 30h143.375l-7.283 60.001h-31.092c-5.523 0-10 4.477-10 10s4.477 10 10 10h180c5.523 0 10-4.477 10-10s-4.477-10-10-10h-31.092l-7.283-60.001h104.14l4.881 13.229c1.786 5.78 6.183 10.086 11.844 11.564 5.764 1.505 11.959-.175 16.167-4.383l7.376-7.375 17.008 17.008c3.175 3.175 7.396 4.923 11.886 4.923s8.711-1.749 11.886-4.923l19.264-19.264c6.552-6.554 6.552-17.218-.001-23.772l-17.008-17.008 7.371-7.37c4.142-4.135 5.807-10.019 4.455-15.74-1.335-5.65-5.391-10.128-10.868-12.017l-5.026-1.852v-155.802c15.198-5.924 26-20.707 26-37.976zm-20-27.434v27.434c0 11.441-9.309 20.75-20.75 20.75s-20.75-9.308-20.75-20.75v-29.248c0-.916-.125-1.826-.374-2.708l-18.927-67.296h33.87zm-410.5-.433 20.077-71.383h34.375l-12.78 68.161c-.114.607-.171 1.225-.171 1.843v29.248c0 11.441-9.309 20.75-20.75 20.75s-20.75-9.308-20.75-20.75v-27.869zm61.5-.451 13.3-70.933h34.719l-6.475 69.07c-.029.311-.043.622-.043.934v29.248c0 11.441-9.309 20.75-20.75 20.75s-20.751-9.309-20.751-20.751zm61.5-.462 6.607-70.471h34.893v99.251c0 11.441-9.309 20.75-20.75 20.75s-20.75-9.308-20.75-20.75zm61.5-70.471h34.893l6.607 70.471v28.78c0 11.441-9.309 20.75-20.75 20.75s-20.75-9.308-20.75-20.75zm61.457 69.07-6.475-69.07h34.718l13.3 70.933v28.318c0 11.441-9.309 20.75-20.75 20.75s-20.75-9.308-20.75-20.75v-29.248c0-.311-.015-.622-.043-.933zm61.372-.909-12.78-68.161h34.375l20.077 71.383v27.868c0 11.441-9.309 20.75-20.75 20.75s-20.751-9.308-20.751-20.75v-29.248c0-.617-.057-1.235-.171-1.842zm-368.829 3.656 26.931-71.817h33.87l-18.927 67.296c-.248.881-.374 1.792-.374 2.708v29.248c0 11.441-9.309 20.75-20.75 20.75s-20.75-9.309-20.75-20.751zm269.761 348.193h-77.522l7.283-60.001h62.956zm200.918-61.107-14.751 14.75-21.823-21.823c-1.953-1.953-4.512-2.929-7.071-2.929s-5.119.977-7.071 2.929l-10.882 10.882-29.616-80.276 80.288 29.604-10.897 10.896c-1.875 1.875-2.929 4.419-2.929 7.071s1.054 5.196 2.929 7.071zm-91.025-97.712c-.081-.03-.163-.059-.245-.087-6.062-2.057-12.66-.525-17.216 4.001-4.547 4.517-6.118 11.095-4.102 17.169.035.104.071.207.109.31l6.428 17.423h-88.633c-5.523 0-10 4.477-10 10s4.477 10 10 10h96.011l7.379 20h-343.385c-5.514 0-10-4.486-10-10v-10h159.996c5.523 0 10-4.477 10-10s-4.477-10-10-10h-159.996v-160.356c10.13-1.31 19.109-6.34 25.5-13.688 7.477 8.596 18.489 14.038 30.75 14.038s23.273-5.442 30.75-14.038c7.477 8.596 18.489 14.038 30.75 14.038s23.273-5.442 30.75-14.038c7.477 8.596 18.489 14.038 30.75 14.038s23.273-5.442 30.75-14.038c7.477 8.596 18.489 14.038 30.75 14.038s23.273-5.442 30.75-14.038c7.477 8.596 18.489 14.038 30.75 14.038s23.273-5.442 30.75-14.038c7.477 8.596 18.489 14.038 30.75 14.038s23.273-5.442 30.75-14.038c6.391 7.348 15.37 12.378 25.5 13.688v146.003z"/><path d="m271 215.999c-5.523 0-10 4.477-10 10v60.001c0 5.514-4.486 10-10 10s-10-4.486-10-10v-60.001c0-5.523-4.477-10-10-10s-10 4.477-10 10v60.001c0 16.542 13.458 30 30 30s30-13.458 30-30v-60.001c0-5.523-4.478-10-10-10z"/><path d="m175.999 215.999h-20c-5.523 0-10 4.477-10 10v80c0 5.523 4.477 10 10 10h20c16.542 0 30-13.458 30-30 0-7.676-2.898-14.688-7.657-20 4.759-5.312 7.657-12.324 7.657-20-.001-16.542-13.458-30-30-30zm0 20c5.514 0 10 4.486 10 10s-4.486 10-10 10h-10v-20zm0 60.001h-10v-20h10c5.514 0 10 4.486 10 10s-4.487 10-10 10z"/><path d="m346.001 215.999c-5.523 0-10 4.477-10 10v28.625c0 5.514-4.486 10-10 10s-10-4.486-10-10v-28.625c0-5.523-4.477-10-10-10s-10 4.477-10 10v28.625c0 13.036 8.361 24.152 20 28.28v23.096c0 5.523 4.477 10 10 10s10-4.477 10-10v-23.096c11.639-4.128 20-15.243 20-28.28v-28.625c0-5.523-4.477-10-10-10z"/><path d="m251 346.003h-.007c-5.523 0-9.996 4.477-9.996 10s4.48 10 10.003 10 10-4.477 10-10-4.478-10-10-10z"/></g></g></svg>