<?xml version="1.0" encoding="utf-8"?>
<!-- Generator: Adobe Illustrator 22.0.1, SVG Export Plug-In . SVG Version: 6.00 Build 0)  -->
<svg version="1.1" id="Layer_1" xmlns="http://www.w3.org/2000/svg" xmlns:xlink="http://www.w3.org/1999/xlink" x="0px" y="0px"
	 viewBox="0 0 177 52" style="enable-background:new 0 0 177 52;" xml:space="preserve">
<style type="text/css">
	.st0{fill:#FFAD64;}
	.st1{fill:#ADD4D3;}
	.st2{fill:#FB8351;}
	.st3{fill:#333237;}
</style>
<path class="st0" d="M17.3,47.4l-4.7-8.1l6.9-11.8l4.4,7.5l25.7,0l-7.3,12.5L17.3,47.4z"/>
<path class="st1" d="M54.1,26.9L49.4,35l-13.7,0l4.4-7.5L27.2,5.2l14.5,0.1L54.1,26.9z"/>
<path class="st2" d="M18,5.1h9.3L34.2,17l-8.7,0L12.6,39.3L5.4,26.7L18,5.1z"/>
<path class="st3" d="M28.5,3.3L28.5,3.3l-11.6,0L3.2,26.7l9.4,16.4l0,0l3.6,6.2l27.2,0.1L52.9,33h-0.1l3.5-6.1L42.9,3.3L28.5,3.3z
	 M37.4,18.9L37.4,18.9L30.7,7.1l9.9,0l11.3,19.8L48.4,33l-9.3,0l3.2-5.6L37.4,18.9z M26.1,7.1l4.6,8l-6.4,0l-11,19l-0.7,1.3l-5-8.7
	L19.1,7.1H26.1z M21.7,27.4l4.9-8.5l6.4,0l4.9,8.5L34.7,33l-9.8,0L21.7,27.4z M14.8,39.3l1.9-3.2l2.8-4.8l3.2,5.6l9.8,0l0,0l13.7,0
	l-5,8.6l-22.7-0.1L14.8,39.3z"/>
<path class="st3" d="M67.5,42.7v-9h-3.3v-1h7.9v1h-3.3v9H67.5z"/>
<path class="st3" d="M75.7,42.9c-1.3,0-2.3-0.3-3-0.9c-0.7-0.6-1-1.6-1-2.9c0-1.2,0.3-2.1,0.8-2.8c0.6-0.7,1.5-1,2.7-1
	c0.7,0,1.3,0.1,1.8,0.4c0.5,0.3,0.8,0.6,1.1,1.1c0.2,0.5,0.4,1,0.4,1.6v1.4H73c0,0.6,0.2,1,0.4,1.3c0.2,0.3,0.5,0.6,0.9,0.7
	c0.4,0.1,1,0.2,1.6,0.2c0.8,0,1.5-0.1,2.1-0.4v1c-0.3,0.1-0.7,0.2-1.1,0.3C76.5,42.8,76.1,42.9,75.7,42.9z M73,38.7h4.3v-0.6
	c0-0.6-0.2-1.1-0.5-1.4c-0.3-0.3-0.8-0.5-1.6-0.5c-0.9,0-1.5,0.2-1.8,0.6C73.2,37.3,73,37.9,73,38.7z"/>
<path class="st3" d="M83.8,42.9c-1.3,0-2.2-0.3-2.9-1C80.3,41.2,80,40.3,80,39c0-1.3,0.4-2.3,1.1-2.9c0.7-0.6,1.7-0.9,2.8-0.9
	c0.5,0,0.9,0,1.2,0.1c0.3,0.1,0.6,0.2,0.9,0.3v1c-0.6-0.3-1.2-0.4-1.9-0.4c-0.9,0-1.6,0.2-2.1,0.7c-0.5,0.4-0.7,1.1-0.7,2.2
	c0,1,0.2,1.7,0.7,2.1c0.4,0.4,1.2,0.7,2.2,0.7c0.7,0,1.4-0.1,2-0.4v1c-0.3,0.1-0.7,0.2-1,0.3C84.7,42.8,84.3,42.9,83.8,42.9z"/>
<path class="st3" d="M87.5,42.7V32.2h1.3v3.9c0.3-0.3,0.7-0.5,1.2-0.7c0.5-0.2,1-0.3,1.6-0.3c0.9,0,1.6,0.2,2,0.7
	c0.4,0.4,0.7,1.1,0.7,2.1v4.8H93v-4.8c0-0.6-0.1-1.1-0.4-1.3c-0.3-0.3-0.7-0.4-1.4-0.4c-0.4,0-0.8,0.1-1.3,0.3
	c-0.4,0.2-0.8,0.4-1.1,0.7v5.5H87.5z"/>
<path class="st2" d="M99.4,42.9c-1,0-1.9-0.2-2.5-0.7c-0.6-0.5-0.9-1.1-0.9-1.8c0-0.7,0.2-1.3,0.7-1.8c0.4-0.5,1-1,1.8-1.4
	c-0.4-0.4-0.7-0.8-1-1.1c-0.3-0.4-0.4-0.8-0.4-1.3c0-0.6,0.2-1.1,0.6-1.6c0.4-0.4,1-0.7,1.8-0.7c0.8,0,1.4,0.2,1.8,0.6
	c0.4,0.4,0.6,0.9,0.6,1.6c0,0.6-0.1,1-0.5,1.4c-0.3,0.4-0.7,0.8-1.3,1.2l2.6,2.6c0.2-0.4,0.3-0.9,0.3-1.5v-0.2h1v0.2
	c0,0.4,0,0.8-0.1,1.2c-0.1,0.4-0.2,0.7-0.4,1l1.4,1.4l-0.8,0.7l-1.2-1.2c-0.4,0.4-0.8,0.8-1.4,1C100.8,42.8,100.1,42.9,99.4,42.9z
	 M99.3,36.7c0.5-0.3,0.9-0.6,1.1-0.9c0.2-0.3,0.4-0.6,0.4-1.1c0-0.4-0.1-0.7-0.3-0.9c-0.2-0.2-0.6-0.4-1-0.4c-0.5,0-0.9,0.1-1.1,0.4
	c-0.2,0.2-0.3,0.6-0.3,0.9c0,0.3,0.1,0.6,0.3,0.9C98.6,36,98.9,36.3,99.3,36.7z M99.4,42c0.6,0,1.1-0.1,1.5-0.3
	c0.4-0.2,0.8-0.5,1.1-0.8L99.2,38c-0.7,0.3-1.2,0.6-1.5,1c-0.3,0.4-0.5,0.8-0.5,1.4c0,0.5,0.2,0.9,0.6,1.2
	C98.2,41.8,98.7,42,99.4,42z"/>
<path class="st2" d="M64.7,25.4V11.6h4v10.8H75v3.1H64.7z"/>
<path class="st2" d="M81.5,25.7c-2,0-3.5-0.5-4.5-1.4c-1-0.9-1.4-2.2-1.4-4c0-1.7,0.5-3,1.5-3.9c1-0.9,2.5-1.4,4.5-1.4
	c2,0,3.5,0.5,4.5,1.4c1,0.9,1.5,2.2,1.5,3.9c0,1.7-0.5,3.1-1.5,4C85.1,25.2,83.5,25.7,81.5,25.7z M81.5,22.7c0.7,0,1.1-0.2,1.4-0.6
	c0.3-0.4,0.5-1,0.5-1.8c0-0.8-0.2-1.4-0.5-1.8c-0.3-0.4-0.8-0.6-1.4-0.6c-0.6,0-1.1,0.2-1.4,0.6c-0.3,0.4-0.4,1-0.4,1.8
	c0,0.8,0.1,1.4,0.4,1.8C80.4,22.5,80.9,22.7,81.5,22.7z"/>
<path class="st2" d="M93.5,29.2c-0.5,0-1,0-1.6-0.1c-0.6,0-1.1-0.1-1.7-0.2c-0.5-0.1-0.9-0.2-1.3-0.3v-2.6c0.4,0.1,0.8,0.2,1.3,0.3
	c0.5,0.1,1,0.2,1.6,0.2c0.5,0,1,0.1,1.5,0.1c0.8,0,1.4,0,1.8-0.1c0.4-0.1,0.7-0.2,0.7-0.4c0-0.2-0.1-0.3-0.2-0.3
	c-0.1,0-0.4-0.1-0.8-0.1H92c-1,0-1.9-0.2-2.4-0.5c-0.6-0.3-0.8-0.9-0.8-1.5c0-0.9,0.5-1.6,1.6-2c-0.6-0.3-1-0.7-1.3-1.1
	c-0.3-0.5-0.4-1-0.4-1.7c0-1.3,0.4-2.3,1.3-2.9c0.9-0.6,2.2-0.9,3.9-0.9c0.4,0,0.8,0,1.2,0.1c0.4,0,0.8,0.1,1,0.1h4l-0.1,2.5h-1.4
	c0.3,0.3,0.4,0.7,0.4,1.2c0,1-0.3,1.9-0.9,2.5c-0.6,0.6-1.6,0.9-2.9,0.9c-0.2,0-0.4,0-0.6,0c-0.2,0-0.4-0.1-0.6-0.1
	c-0.3,0-0.6,0.1-0.8,0.2s-0.3,0.2-0.3,0.4c0,0.1,0.1,0.2,0.2,0.3c0.1,0,0.3,0.1,0.5,0.1h2.3c1,0,1.9,0.2,2.5,0.7
	c0.6,0.5,0.9,1.2,0.9,2.2c0,1-0.5,1.8-1.4,2.3C96.9,28.9,95.5,29.2,93.5,29.2z M93.8,20.1c0.6,0,1.1-0.1,1.3-0.3
	c0.2-0.2,0.4-0.6,0.4-1.1c0-0.5-0.1-0.9-0.4-1.1c-0.2-0.2-0.7-0.3-1.3-0.3c-0.6,0-1,0.1-1.3,0.3c-0.3,0.2-0.4,0.6-0.4,1.1
	c0,0.5,0.1,0.8,0.4,1.1C92.8,20,93.2,20.1,93.8,20.1z"/>
<path class="st2" d="M106.6,25.7c-2,0-3.5-0.5-4.5-1.4c-1-0.9-1.4-2.2-1.4-4c0-1.7,0.5-3,1.5-3.9c1-0.9,2.5-1.4,4.5-1.4
	c2,0,3.5,0.5,4.5,1.4c1,0.9,1.5,2.2,1.5,3.9c0,1.7-0.5,3.1-1.5,4C110.2,25.2,108.6,25.7,106.6,25.7z M106.6,22.7
	c0.7,0,1.1-0.2,1.4-0.6c0.3-0.4,0.5-1,0.5-1.8c0-0.8-0.2-1.4-0.5-1.8c-0.3-0.4-0.8-0.6-1.4-0.6c-0.6,0-1.1,0.2-1.4,0.6
	c-0.3,0.4-0.4,1-0.4,1.8c0,0.8,0.1,1.4,0.4,1.8C105.5,22.5,105.9,22.7,106.6,22.7z"/>
<path class="st3" d="M114.4,13.9V11h4.4v2.9H114.4z M114.7,25.4v-7.3h-1.5l0.3-2.9h5.2v10.2H114.7z"/>
<path class="st3" d="M120.7,30.1V15.2h3.5l0.2,0.8c0.4-0.3,0.9-0.6,1.4-0.8c0.5-0.2,1.1-0.3,1.7-0.3c1.5,0,2.7,0.4,3.5,1.2
	c0.8,0.8,1.2,2.1,1.2,3.9c0,1.8-0.4,3.2-1.3,4.2c-0.9,0.9-2.1,1.4-3.6,1.4c-1,0-1.9-0.2-2.6-0.6v5H120.7z M126.3,22.7
	c0.6,0,1-0.2,1.4-0.6c0.3-0.4,0.5-1.1,0.5-1.9c0-0.8-0.2-1.4-0.5-1.7c-0.3-0.3-0.7-0.5-1.3-0.5c-0.6,0-1.1,0.2-1.6,0.6v3.6
	c0.2,0.2,0.5,0.3,0.7,0.4C125.6,22.7,125.9,22.7,126.3,22.7z"/>
<path class="st3" d="M137.6,25.7c-0.9,0-1.7-0.1-2.5-0.2c-0.8-0.1-1.4-0.3-1.8-0.5v-2.9c0.5,0.2,1.1,0.4,1.8,0.5
	c0.7,0.1,1.3,0.2,1.8,0.2c0.5,0,0.9,0,1.2,0c0.3,0,0.4-0.2,0.4-0.4c0-0.2-0.2-0.4-0.7-0.6c-0.5-0.1-1.1-0.3-1.8-0.6
	c-0.9-0.3-1.6-0.7-2.1-1.2c-0.5-0.4-0.7-1.1-0.7-1.9c0-1,0.4-1.8,1.2-2.3c0.8-0.6,2.1-0.8,3.8-0.8c0.7,0,1.3,0.1,2,0.2
	c0.7,0.1,1.3,0.2,1.7,0.3v2.8c-0.4-0.2-0.9-0.3-1.4-0.4c-0.5-0.1-1-0.1-1.4-0.1c-0.5,0-0.9,0-1.2,0.1c-0.4,0-0.5,0.2-0.5,0.4
	c0,0.2,0.2,0.4,0.6,0.5c0.4,0.1,1,0.3,1.7,0.5c0.8,0.2,1.4,0.5,1.8,0.8c0.4,0.3,0.8,0.6,0.9,1c0.2,0.4,0.3,0.9,0.3,1.4
	c0,1-0.4,1.8-1.3,2.4C140.5,25.4,139.3,25.7,137.6,25.7z"/>
<path class="st3" d="M147.8,25.7c-1.2,0-2.1-0.3-2.8-1c-0.7-0.7-1-1.7-1-3v-6.4h4v6.1c0,0.9,0.5,1.3,1.4,1.3c0.3,0,0.7-0.1,1-0.2
	c0.3-0.1,0.6-0.3,0.8-0.5v-6.7h4v10.2h-3.8l-0.1-0.8c-0.4,0.3-0.9,0.5-1.5,0.7C149.2,25.6,148.6,25.7,147.8,25.7z"/>
<path class="st3" d="M157.1,25.4V15.2h3.7l0.1,0.8c0.4-0.3,0.9-0.5,1.5-0.7c0.6-0.2,1.2-0.3,1.8-0.3c0.7,0,1.2,0.1,1.5,0.3
	c0.4,0.2,0.7,0.5,0.9,0.8c0.5-0.3,1-0.6,1.5-0.8c0.6-0.2,1.3-0.3,2.1-0.3c1.2,0,2.1,0.3,2.6,0.9c0.6,0.6,0.8,1.6,0.8,2.8v6.6h-4
	v-6.2c0-0.5-0.1-0.8-0.3-1c-0.2-0.2-0.5-0.3-0.9-0.3c-0.6,0-1,0.2-1.4,0.6c0,0.2,0,0.4,0,0.5c0,0.2,0,0.3,0,0.5v5.7h-3.7v-6.2
	c0-0.4-0.1-0.7-0.2-0.9c-0.1-0.2-0.4-0.3-0.8-0.3c-0.3,0-0.5,0.1-0.8,0.2c-0.3,0.1-0.5,0.3-0.7,0.5v6.7H157.1z"/>
<path class="st3" d="M111.4,43c-1.1,0-2-0.2-2.7-0.6c-0.7-0.4-1.2-1-1.6-1.7c-0.4-0.7-0.5-1.6-0.5-2.6c0-1.1,0.2-2,0.5-2.8
	c0.3-0.8,0.8-1.4,1.6-1.9c0.7-0.4,1.6-0.7,2.7-0.7c0.6,0,1.1,0,1.6,0.1c0.5,0.1,0.9,0.2,1.3,0.3v1.1c-0.4-0.2-0.9-0.3-1.3-0.4
	c-0.5-0.1-1-0.1-1.5-0.1c-0.9,0-1.6,0.2-2.1,0.5c-0.5,0.3-0.9,0.8-1.1,1.5c-0.2,0.6-0.3,1.4-0.3,2.3c0,1.2,0.3,2.2,0.9,2.9
	c0.6,0.7,1.5,1,2.8,1c0.5,0,0.9,0,1.4-0.1c0.5-0.1,0.9-0.2,1.4-0.3v1.1c-0.4,0.1-0.8,0.2-1.3,0.3C112.5,43,112,43,111.4,43z"/>
<path class="st3" d="M119.5,43c-1.3,0-2.2-0.3-2.8-1c-0.6-0.7-0.9-1.6-0.9-2.9c0-1.2,0.3-2.2,0.9-2.8c0.6-0.7,1.5-1,2.8-1
	c1.3,0,2.2,0.3,2.8,1c0.6,0.7,0.9,1.6,0.9,2.8c0,1.2-0.3,2.2-0.9,2.9C121.7,42.7,120.8,43,119.5,43z M119.5,41.9
	c0.9,0,1.5-0.2,1.9-0.7c0.4-0.4,0.5-1.1,0.5-2.1c0-1-0.2-1.6-0.6-2.1c-0.4-0.4-1-0.7-1.8-0.7c-0.9,0-1.5,0.2-1.9,0.7
	c-0.4,0.4-0.5,1.1-0.5,2.1c0,1,0.2,1.7,0.5,2.1C118,41.7,118.6,41.9,119.5,41.9z"/>
<path class="st3" d="M124.7,42.8v-1.1h1.2v1.1H124.7z"/>
</svg>
