<svg id="Capa_1" enable-background="new 0 0 512 512" height="512" viewBox="0 0 512 512" width="512" xmlns="http://www.w3.org/2000/svg"><g><g><g><path d="m182.596 330.624-30.906 30.906 32.377 47.094 22.326-22.326c3.319-3.319 3.975-8.462 1.595-12.508z" fill="#ffe07d"/></g><g><path d="m157.577 355.643-36.793 36.792 66.227 92.717 35.321-35.321z" fill="#9bb9c1"/></g><g><path d="m134.275 411.322 17.384-17.384c4.299-4.299 9.204-7.948 14.558-10.829l7.477-4.025-16.116-23.442-36.793 36.793z" fill="#86a0af"/></g><g><path d="m150.218 39.227-20.604 20.603c-4.064 4.064-4.064 10.653 0 14.717l220.756 220.756c4.064 4.064 10.653 4.064 14.717 0l20.604-20.604c4.064-4.064 4.064-10.653 0-14.717l-220.756-220.755c-4.064-4.064-10.653-4.064-14.717 0z" fill="#e278b1"/></g><g><path d="m150.218 39.227-15.137 15.137c4.064-4.064 10.653-4.064 14.717 0l220.755 220.755c4.064 4.064 4.064 10.653 0 14.717l15.137-15.138c4.064-4.064 4.064-10.653 0-14.717l-220.755-220.754c-4.064-4.064-10.653-4.064-14.717 0z" fill="#dd5ca2"/></g><g><path d="m130.574 142.091-74.545 138.495 88.302 88.302 138.494-74.544c9.765-5.256 20.753-7.816 31.836-7.418l28.349 1.019-206.037-206.039 1.019 28.349c.398 11.083-2.162 22.071-7.418 31.836z" fill="#80b4fb"/></g><g><path d="m343.009 287.948-28.347-1.02c-11.083-.406-22.072 2.154-31.833 7.42l-111.892 60.222c39.274-57.985 45.518-153.725 29.253-209.441z" fill="#61a2f9"/></g><g><path d="m56.029 280.586-36.793 36.793c-4.064 4.064-4.064 10.653 0 14.717l73.585 73.585c4.064 4.064 10.653 4.064 14.717 0l36.793-36.793z" fill="#e278b1"/></g><g><path d="m83.621 269.157h19.401v124.878h-19.401z" fill="#dd5ca2" transform="matrix(.707 -.707 .707 .707 -207.141 163.11)"/></g><g><path d="m19.237 332.095-16.189 16.189c-4.064 4.064-4.064 10.653 0 14.717l58.868 58.868c4.064 4.064 10.653 4.064 14.717 0l16.189-16.189z" fill="#4a80aa"/></g><g><path d="m319.464 193.755 9.089-17.351c4.224-8.064 2.717-17.937-3.72-24.374l-51.945-51.945c-6.437-6.437-16.31-7.944-24.374-3.72l-17.351 9.089z" fill="#407093"/></g><g><path d="m247.351 471.907-38.264 38.264c-2.438 2.438-6.392 2.438-8.83 0l-14.717-14.717c-2.438-2.438-2.438-6.392 0-8.83l38.264-38.264c2.438-2.438 6.392-2.438 8.83 0l14.717 14.717c2.438 2.438 2.438 6.392 0 8.83z" fill="#e278b1"/></g><g><path d="m223.803 448.36-13.245 13.245c2.438-2.438 6.392-2.438 8.83 0l14.717 14.717c2.438 2.438 2.438 6.392 0 8.83l13.245-13.245c2.438-2.438 2.438-6.392 0-8.83l-14.717-14.717c-2.438-2.439-6.391-2.439-8.83 0z" fill="#dd5ca2"/></g></g><g><g><path d="m512 10.302v79.299c0 5.69-4.612 10.302-10.302 10.302h-106.286c-1.329 0-2.622.428-3.688 1.221l-32.364 24.065c-2.719 2.022-6.58.081-6.58-3.307v-17.859c0-2.276-1.845-4.121-4.121-4.121h-9.512c-5.69 0-10.302-4.612-10.302-10.302v-79.298c0-5.69 4.612-10.302 10.302-10.302h162.551c5.69 0 10.302 4.612 10.302 10.302z" fill="#e4f6ff"/></g></g><g><circle cx="434.992" cy="224.78" fill="#ffe07d" r="77.008"/></g><g><path d="m410.016 197.886v53.789c0 4.727 5.091 7.705 9.211 5.387l47.813-26.895c4.201-2.363 4.201-8.412 0-10.775l-47.813-26.895c-4.12-2.316-9.211.661-9.211 5.389z" fill="#61a2f9"/></g><g><path d="m478.699 41.027h-116.553c-4.268 0-7.726-3.459-7.726-7.726s3.459-7.726 7.726-7.726h116.553c4.268 0 7.726 3.459 7.726 7.726s-3.458 7.726-7.726 7.726z" fill="#e278b1"/></g><g><path d="m437.073 74.328h-74.928c-4.268 0-7.726-3.459-7.726-7.726s3.459-7.726 7.726-7.726h74.928c4.268 0 7.726 3.459 7.726 7.726s-3.458 7.726-7.726 7.726z" fill="#e278b1"/></g></g></svg>