<?xml version="1.0" encoding="utf-8"?>
<!-- Generator: Adobe Illustrator 19.2.1, SVG Export Plug-In . SVG Version: 6.00 Build 0)  -->
<svg version="1.1" id="layer" xmlns="http://www.w3.org/2000/svg" xmlns:xlink="http://www.w3.org/1999/xlink" x="0px" y="0px"
	 viewBox="0 0 652 652" style="enable-background:new 0 0 652 652;" xml:space="preserve">
<style type="text/css">
	.st0{fill:#17313B;}
	.st1{fill:#EF4335;}
</style>
<g>
	<path class="st0" d="M177,235.9h27.6v170.4H177V235.9z"/>
	<path class="st0" d="M300.6,352.3c0,26.4-21.6,28.8-28.8,28.8c-16.8,0-19.2-15.6-19.2-24v-66H225v64.8c0,15.6,4.8,30,14.4,38.4
		c8.4,8.4,19.2,12,32.4,12c9.6,0,21.6-2.4,28.8-9.6v9.6h27.6V291.1h-27.6C300.6,291.1,300.6,352.3,300.6,352.3z"/>
	<path class="st0" d="M382.2,249.1h-27.6v42h-20.4v26.4h20.4v88.8h27.6v-88.8h20.4v-26.4h-20.4V249.1z"/>
	<path class="st0" d="M489,371.5c-6,4.8-14.4,8.4-22.8,8.4c-19.2,0-32.4-14.4-32.4-33.6s13.2-32.4,32.4-32.4
		c8.4,0,16.8,2.4,22.8,8.4l3.6,3.6l19.2-18l-4.8-3.6c-10.8-9.6-25.2-15.6-40.8-15.6c-33.6,0-58.8,25.2-58.8,58.8
		s25.2,58.8,58.8,58.8c15.6,0,30-6,40.8-15.6l4.8-3.6l-19.2-19.2L489,371.5z"/>
	<path class="st0" d="M609,300.7c-8.4-8.4-16.8-12-30-12c-9.6,0-19.2,2.4-26.4,9.6v-62.4H525v170.4h27.6v-63.6
		c0-26.4,18-28.8,25.2-28.8c16.8,0,15.6,15.6,15.6,24v67.2H621v-66C621,323.5,617.4,309.1,609,300.7z"/>
	<circle class="st1" cx="465" cy="347.5" r="19.2"/>
	<path class="st0" d="M138.6,364.3c-9.6,9.6-24,15.6-39.6,15.6c-30,0-51.6-24-51.6-56.4s21.6-56.4,52.8-56.4
		c14.4,0,28.8,6,39.6,16.8l3.6,3.6l18-18l-3.6-3.6c-15.6-15.6-36-24-57.6-24C54.6,240.7,21,276.7,21,323.5s33.6,82.8,78,82.8
		c21.6,0,43.2-8.4,57.6-24l3.6-3.6l-18-18L138.6,364.3z"/>
</g>
</svg>
