<svg height="512" viewBox="0 0 64 64" width="512" xmlns="http://www.w3.org/2000/svg"><g id="program-code-computer-mouse-keyboard"><path d="m3 27v4a4 4 0 0 0 4 4h40v-8z" fill="#e0e0e2"/><path d="m43 3h-36a4 4 0 0 0 -4 4v20h44v-20a4 4 0 0 0 -4-4z" fill="#46f8ff"/><path d="m57 49a3.995 3.995 0 0 1 4 4v4a4 4 0 0 1 -8 0v-4a4 4 0 0 1 4-4z" fill="#ff7956"/><rect fill="#898890" height="12" rx="4" width="40" x="5" y="49"/><path d="m32 43v2h-14v-2a2.006 2.006 0 0 1 2-2h10a2.006 2.006 0 0 1 2 2z" fill="#e0e0e2"/><path d="m22 35h6v6h-6z" fill="#898890"/><path d="m61 53v4a3.994 3.994 0 0 1 -6 3.46 3.98 3.98 0 0 0 2-3.46v-4a4.025 4.025 0 0 0 -1.17-2.83 4.225 4.225 0 0 0 -.83-.63 3.995 3.995 0 0 1 6 3.46z" fill="#ff5023"/><path d="m45 53v4a4 4 0 0 1 -4 4h-4a4 4 0 0 0 4-4v-4a4 4 0 0 0 -4-4h4a4 4 0 0 1 4 4z" fill="#57565c"/><path d="m32 43v2h-4v-2a2.006 2.006 0 0 0 -2-2h4a2.006 2.006 0 0 1 2 2z" fill="#898890"/><path d="m25 35h3v6h-3z" fill="#57565c"/><path d="m61 21a14.019 14.019 0 1 1 -2.52-8 14 14 0 0 1 2.52 8z" fill="#fee9ab"/><path d="m61 21a14 14 0 0 1 -14 14 14.6 14.6 0 0 1 -2-.14 14 14 0 0 0 0-27.71 13.168 13.168 0 0 1 2-.15 14.019 14.019 0 0 1 14 14z" fill="#ffde55"/><path d="m42.445 16.168-6 4a1 1 0 0 0 0 1.664l6 4 1.11-1.664-4.755-3.168 4.752-3.168z"/><path d="m51.555 25.832 6-4a1 1 0 0 0 0-1.664l-6-4-1.11 1.664 4.755 3.168-4.752 3.168z"/><path d="m41.901 20h10.198v2h-10.198z" transform="matrix(.196 -.981 .981 .196 17.19 62.969)"/><path d="m41 48h-32a5 5 0 0 0 -5 5v4a5 5 0 0 0 5 5h32a5 5 0 0 0 5-5v-4a5 5 0 0 0 -5-5zm3 9a3.009 3.009 0 0 1 -3 3h-32a3.009 3.009 0 0 1 -3-3v-4a3.009 3.009 0 0 1 3-3h32a3.009 3.009 0 0 1 3 3z"/><path d="m58 48.1v-2.1a3.009 3.009 0 0 0 -3-3h-6a1 1 0 0 1 -1-1v-6.05a14.979 14.979 0 0 0 -.1-29.9 4.99 4.99 0 0 0 -4.9-4.05h-36a5 5 0 0 0 -5 5v24a5 5 0 0 0 5 5h14v4h-1a3.009 3.009 0 0 0 -3 3v2a1 1 0 0 0 1 1h14a1 1 0 0 0 1-1v-2a3.009 3.009 0 0 0 -3-3h-1v-4h17v6a3.009 3.009 0 0 0 3 3h6a1 1 0 0 1 1 1v2.1a5.017 5.017 0 0 0 -4 4.9v4a5 5 0 0 0 10 0v-4a5.017 5.017 0 0 0 -4-4.9zm-54-41.1a3.009 3.009 0 0 1 3-3h36a2.989 2.989 0 0 1 2.83 2.06 15.01 15.01 0 0 0 -13.83 14.94 14.807 14.807 0 0 0 .88 5h-28.88zm26 35a1 1 0 0 1 1 1v1h-12v-1a1 1 0 0 1 1-1zm-7-2v-4h4v4zm-16-6a3.009 3.009 0 0 1 -3-3v-3h29.74a15.04 15.04 0 0 0 5.81 6zm27-13a13 13 0 1 1 13 13 13.012 13.012 0 0 1 -13-13zm26 36a3 3 0 0 1 -6 0v-4a3.01 3.01 0 0 1 2-2.82v2.82h2v-2.82a3.01 3.01 0 0 1 2 2.82z"/><path d="m20 56h10v2h-10z"/><path d="m12 52h2v2h-2z"/><path d="m8 52h2v2h-2z"/><path d="m16 52h2v2h-2z"/><path d="m12 56h2v2h-2z"/><path d="m8 56h2v2h-2z"/><path d="m16 56h2v2h-2z"/><path d="m36 56h2v2h-2z"/><path d="m32 56h2v2h-2z"/><path d="m40 56h2v2h-2z"/><path d="m20 52h2v2h-2z"/><path d="m24 52h2v2h-2z"/><path d="m28 52h2v2h-2z"/><path d="m32 52h2v2h-2z"/><path d="m36 52h2v2h-2z"/><path d="m40 52h2v2h-2z"/></g></svg>