<?xml version="1.0" encoding="iso-8859-1"?>
<!-- Generator: Adobe Illustrator 19.0.0, SVG Export Plug-In . SVG Version: 6.00 Build 0)  -->
<svg version="1.1" id="Capa_1" xmlns="http://www.w3.org/2000/svg" xmlns:xlink="http://www.w3.org/1999/xlink" x="0px" y="0px"
	 viewBox="0 0 512 512" style="enable-background:new 0 0 512 512;" xml:space="preserve">
<path style="fill:#FEB756;" d="M70,399c-33.14,0-60-26.86-60-60c0-16.57,6.72-31.57,17.57-42.43C38.43,285.72,53.43,279,70,279h432
	v120C363.098,399,203.899,399,70,399z M90,339c0-11.05-8.95-20-20-20s-20,8.95-20,20s8.95,20,20,20S90,350.05,90,339z"/>
<path style="fill:#4DBBEB;" d="M449,442c16.57,0,30,13.43,30,30c0,8.28-3.36,15.78-8.79,21.21c-5.43,5.43-12.93,8.79-21.21,8.79h-30
	v-60H449z"/>
<path style="fill:#FD3C65;" d="M419,442v60H113c20-15,20-45,0-60H419z"/>
<g>
	<path style="fill:#FFF5CD;" d="M96,193v-40l43.21-7.2c3.02-12.99,8.14-25.13,14.99-36.12L128.72,74L157,45.72l35.68,25.48
		c10.99-6.85,23.13-11.97,36.12-14.99L236,10h40l7.2,46.21c12.99,3.02,25.13,8.14,36.12,14.99L355,45.72L383.28,74l-25.48,35.68
		c6.85,10.99,11.97,23.13,14.99,36.12L416,153v40c-24.137,0-99.531,0-125.37,0c3.42-5.89,5.37-12.72,5.37-20c0-22.06-17.94-40-40-40
		s-40,17.94-40,40c0,7.28,1.95,14.11,5.37,20C195.531,193,120.138,193,96,193z"/>
	<path style="fill:#FFF5CD;" d="M113,442c20,15,20,45,0,60l-80-30L113,442z"/>
</g>
<path d="M216,123c5.52,0,10-4.48,10-10s-4.48-10-10-10s-10,4.48-10,10S210.48,123,216,123z"/>
<path d="M449,432H113c-0.08,0-0.159,0.009-0.239,0.011c-0.142,0.003-0.283,0.01-0.424,0.019c-0.173,0.011-0.344,0.028-0.516,0.049
	c-0.136,0.016-0.271,0.033-0.405,0.055c-0.172,0.028-0.342,0.062-0.512,0.098c-0.135,0.029-0.27,0.058-0.404,0.092
	c-0.163,0.042-0.323,0.091-0.483,0.142c-0.139,0.043-0.279,0.085-0.416,0.135c-0.037,0.013-0.075,0.022-0.111,0.036l-80,30
	C25.586,464.1,23,467.832,23,472s2.586,7.9,6.489,9.363l80,30c0.028,0.01,0.057,0.017,0.085,0.027
	c0.104,0.038,0.211,0.068,0.316,0.103c0.229,0.075,0.46,0.144,0.694,0.202c0.117,0.029,0.233,0.055,0.351,0.08
	c0.239,0.051,0.48,0.091,0.722,0.124c0.105,0.014,0.208,0.031,0.313,0.042c0.341,0.035,0.683,0.058,1.026,0.058
	c0.004,0,0.008,0.001,0.012,0.001s0.008,0,0.012,0H449c10.68,0,20.724-4.162,28.281-11.719S489,482.68,489,472
	C489,449.944,471.056,432,449,432z M409,452v40H133.615c2.851-6.155,4.385-12.937,4.385-20s-1.534-13.845-4.385-20H409z
	 M110.842,453.489C115.435,458.503,118,465.02,118,472s-2.565,13.497-7.158,18.511L61.48,472L110.842,453.489z M463.139,486.139
	C459.36,489.918,454.338,492,449,492h-20v-40h20c11.028,0,20,8.972,20,20C469,477.338,466.919,482.359,463.139,486.139z"/>
<path d="M96,203h82.465c0.02,0,0.039,0.002,0.058,0.002c0.013,0,0.026-0.002,0.039-0.002h112.036c0.008,0,0.015,0.001,0.023,0.001
	s0.015-0.001,0.023-0.001h42.795c0.013,0,0.026,0.002,0.039,0.002c0.02,0,0.039-0.002,0.058-0.002H416c5.523,0,10-4.477,10-10v-40
	c0-4.889-3.534-9.061-8.356-9.864l-36.813-6.135c-2.685-9.313-6.408-18.282-11.121-26.791l21.709-30.399
	c2.84-3.978,2.389-9.426-1.067-12.883l-28.28-28.28c-3.457-3.456-8.904-3.907-12.883-1.067l-30.399,21.71
	c-8.487-4.701-17.432-8.417-26.718-11.1l-6.19-39.73C285.122,3.591,280.928,0,276,0h-40c-4.928,0-9.122,3.591-9.881,8.46
	l-6.19,39.73c-9.287,2.683-18.231,6.399-26.718,11.1l-30.399-21.709c-3.978-2.84-9.426-2.389-12.883,1.067l-28.28,28.28
	c-3.456,3.457-3.907,8.905-1.067,12.883l21.709,30.399c-4.713,8.509-8.437,17.479-11.121,26.791l-36.813,6.135
	C89.534,143.939,86,148.111,86,153v40C86,198.523,90.477,203,96,203z M226,173c0-16.542,13.458-30,30-30s30,13.458,30,30
	c0,3.425-0.596,6.807-1.727,10h-56.545C226.596,179.807,226,176.425,226,173z M106,161.472l34.854-5.808
	c3.987-0.664,7.182-3.663,8.097-7.599c2.721-11.701,7.342-22.836,13.736-33.095c2.139-3.431,2.001-7.811-0.349-11.101
	l-20.557-28.787l16.301-16.301l28.787,20.557c3.289,2.35,7.671,2.486,11.101,0.349c10.259-6.394,21.394-11.016,33.095-13.736
	c3.974-0.924,6.988-4.169,7.616-8.201L244.563,20h22.875l5.882,37.75c0.628,4.031,3.643,7.277,7.616,8.201
	c11.701,2.721,22.836,7.342,33.095,13.736c3.431,2.138,7.811,2.001,11.101-0.349l28.787-20.557l16.301,16.301l-20.557,28.787
	c-2.35,3.29-2.487,7.67-0.349,11.101c6.394,10.259,11.016,21.394,13.736,33.095c0.915,3.937,4.11,6.935,8.097,7.599L406,161.472V183
	h-60.565c0.368-3.314,0.565-6.652,0.565-10c0-24.583-10.268-48.402-28.17-65.349c-18.147-17.178-41.886-25.884-66.858-24.516
	c-5.514,0.302-9.74,5.018-9.437,10.533c0.302,5.514,4.992,9.737,10.533,9.437c19.422-1.063,37.896,5.707,52.013,19.07
	C318.216,135.556,326,153.606,326,173c0,3.356-0.247,6.698-0.721,10h-20.297c0.669-3.278,1.018-6.628,1.018-10
	c0-27.57-22.43-50-50-50s-50,22.43-50,50c0,3.372,0.348,6.722,1.018,10h-20.297c-0.474-3.302-0.721-6.644-0.721-10
	c0-11.635,2.927-23.164,8.464-33.341c2.64-4.851,0.847-10.924-4.004-13.563c-4.848-2.639-10.923-0.847-13.563,4.004
	C169.768,143.202,166,158.036,166,173c0,3.348,0.196,6.686,0.565,10H106V161.472z"/>
<path d="M33,246h40c5.523,0,10-4.477,10-10s-4.477-10-10-10H33c-5.523,0-10,4.477-10,10S27.477,246,33,246z"/>
<path d="M113,226c-5.523,0-10,4.477-10,10s4.477,10,10,10h40c5.523,0,10-4.477,10-10s-4.477-10-10-10H113z"/>
<path d="M196,226c-5.523,0-10,4.477-10,10s4.477,10,10,10h40c5.523,0,10-4.477,10-10s-4.477-10-10-10H196z"/>
<path d="M276,226c-5.523,0-10,4.477-10,10s4.477,10,10,10h40c5.523,0,10-4.477,10-10s-4.477-10-10-10H276z"/>
<path d="M356,226c-5.523,0-10,4.477-10,10s4.477,10,10,10h40c5.523,0,10-4.477,10-10s-4.477-10-10-10H356z"/>
<path d="M439,246h40c5.523,0,10-4.477,10-10s-4.477-10-10-10h-40c-5.523,0-10,4.477-10,10S433.477,246,439,246z"/>
<path d="M502,269H70c-18.689,0-36.268,7.279-49.505,20.502C7.279,302.732,0,320.311,0,339c0,38.598,31.402,70,70,70h432
	c5.523,0,10-4.477,10-10V279C512,273.477,507.523,269,502,269z M492,389h-23v-10c0-5.523-4.477-10-10-10s-10,4.477-10,10v10h-20v-10
	c0-5.523-4.477-10-10-10s-10,4.477-10,10v10h-20v-10c0-5.523-4.477-10-10-10s-10,4.477-10,10v10h-23v-10c0-5.523-4.477-10-10-10
	s-10,4.477-10,10v10h-20v-10c0-5.523-4.477-10-10-10s-10,4.477-10,10v10h-20v-10c0-5.523-4.477-10-10-10s-10,4.477-10,10v10h-20v-10
	c0-5.523-4.477-10-10-10s-10,4.477-10,10v10h-20v-10c0-5.523-4.477-10-10-10s-10,4.477-10,10v10h-23v-10c0-5.523-4.477-10-10-10
	s-10,4.477-10,10v10H70c-27.57,0-50-22.43-50-50c0-13.351,5.201-25.91,14.637-35.355C44.091,294.201,56.649,289,70,289h422V389z"/>
<path d="M40,339c0,16.542,13.458,30,30,30s30-13.458,30-30s-13.458-30-30-30S40,322.458,40,339z M80,339c0,5.514-4.486,10-10,10
	s-10-4.486-10-10s4.486-10,10-10S80,333.486,80,339z"/>
<g>
</g>
<g>
</g>
<g>
</g>
<g>
</g>
<g>
</g>
<g>
</g>
<g>
</g>
<g>
</g>
<g>
</g>
<g>
</g>
<g>
</g>
<g>
</g>
<g>
</g>
<g>
</g>
<g>
</g>
</svg>
