<?xml version="1.0" encoding="utf-8"?>
<!-- Generator: Adobe Illustrator 22.0.1, SVG Export Plug-In . SVG Version: 6.00 Build 0)  -->
<svg version="1.1" id="Capa_1" xmlns="http://www.w3.org/2000/svg" xmlns:xlink="http://www.w3.org/1999/xlink" x="0px" y="0px"
	 viewBox="0 0 512 512" style="enable-background:new 0 0 512 512;" xml:space="preserve">
<style type="text/css">
	.st0{fill:url(#SVGID_1_);}
	.st1{fill:url(#SVGID_2_);}
	.st2{fill:url(#SVGID_3_);}
	.st3{fill:url(#SVGID_4_);}
	.st4{fill:url(#SVGID_5_);}
	.st5{fill:url(#SVGID_6_);}
	.st6{fill:url(#SVGID_7_);}
	.st7{fill:url(#SVGID_8_);}
	.st8{fill:url(#SVGID_9_);}
	.st9{fill:url(#SVGID_10_);}
	.st10{fill:url(#SVGID_11_);}
	.st11{fill:url(#SVGID_12_);}
	.st12{fill:url(#SVGID_13_);}
	.st13{fill:url(#SVGID_14_);}
	.st14{fill:url(#SVGID_15_);}
	.st15{fill:#FFCB4A;}
	.st16{fill:#342BF6;}
	.st17{fill:#864BFF;}
	.st18{fill:#FF4398;}
</style>
<linearGradient id="SVGID_1_" gradientUnits="userSpaceOnUse" x1="377.592" y1="62.61" x2="397.621" y2="62.61">
	<stop  offset="0" style="stop-color:#342BF6"/>
	<stop  offset="1" style="stop-color:#864BFF"/>
</linearGradient>
<path class="st0" d="M397.6,62.6c0-5.5-4.5-10-10-10h-0.1c-5.5,0-10,4.5-10,10s4.5,10,10,10S397.6,68.1,397.6,62.6z"/>
<linearGradient id="SVGID_2_" gradientUnits="userSpaceOnUse" x1="431.533" y1="62.61" x2="451.562" y2="62.61">
	<stop  offset="0" style="stop-color:#342BF6"/>
	<stop  offset="1" style="stop-color:#864BFF"/>
</linearGradient>
<path class="st1" d="M451.6,62.6c0-5.5-4.5-10-10-10h-0.1c-5.5,0-10,4.5-10,10s4.5,10,10,10S451.6,68.1,451.6,62.6L451.6,62.6z"/>
<linearGradient id="SVGID_3_" gradientUnits="userSpaceOnUse" x1="323.679" y1="62.61" x2="343.708" y2="62.61">
	<stop  offset="0" style="stop-color:#342BF6"/>
	<stop  offset="1" style="stop-color:#864BFF"/>
</linearGradient>
<path class="st2" d="M343.7,62.6c0-5.5-4.5-10-10-10h-0.1c-5.5,0-10,4.5-10,10s4.5,10,10,10S343.7,68.1,343.7,62.6L343.7,62.6z"/>
<linearGradient id="SVGID_4_" gradientUnits="userSpaceOnUse" x1="60.438" y1="62.61" x2="230.554" y2="62.61">
	<stop  offset="0" style="stop-color:#342BF6"/>
	<stop  offset="1" style="stop-color:#864BFF"/>
</linearGradient>
<path class="st3" d="M60.4,62.6c0,5.5,4.5,10,10,10h150.1c5.5,0,10-4.5,10-10s-4.5-10-10-10H70.4C64.9,52.6,60.4,57.1,60.4,62.6z"/>
<linearGradient id="SVGID_5_" gradientUnits="userSpaceOnUse" x1="0.205" y1="256" x2="511.795" y2="256">
	<stop  offset="0" style="stop-color:#342BF6"/>
	<stop  offset="1" style="stop-color:#864BFF"/>
</linearGradient>
<path class="st4" d="M479.7,0H167.1c-5.5,0-10,4.5-10,10s4.5,10,10,10h312.6c6.7,0,12.1,5.4,12.1,12.1v73.2H20.2V32.1
	c0-6.6,5.4-12.1,12.1-12.1h45c5.5,0,10-4.5,10-10s-4.5-10-10-10h-45C14.6,0,0.2,14.4,0.2,32.1v447.9c0,17.7,14.4,32.1,32.1,32.1
	h447.5c17.7,0,32.1-14.4,32.1-32.1V32.1C511.8,14.4,497.4,0,479.7,0z M479.7,492H32.3c-6.6,0-12.1-5.4-12.1-12.1V125.2h471.6v354.7
	C491.8,486.6,486.4,492,479.7,492z"/>
<linearGradient id="SVGID_6_" gradientUnits="userSpaceOnUse" x1="51.991" y1="424.261" x2="135.286" y2="424.261">
	<stop  offset="0" style="stop-color:#342BF6"/>
	<stop  offset="1" style="stop-color:#864BFF"/>
</linearGradient>
<path class="st5" d="M93.7,382.6c-23,0-41.7,18.7-41.7,41.7c0,23,18.7,41.6,41.7,41.6c23,0,41.6-18.7,41.6-41.6
	C135.3,401.3,116.6,382.6,93.7,382.6z M93.7,445.9c-11.9,0-21.7-9.7-21.7-21.6c0-11.9,9.7-21.7,21.7-21.7c11.9,0,21.6,9.7,21.6,21.7
	C115.3,436.2,105.6,445.9,93.7,445.9z"/>
<linearGradient id="SVGID_7_" gradientUnits="userSpaceOnUse" x1="160.242" y1="424.261" x2="243.508" y2="424.261">
	<stop  offset="0" style="stop-color:#342BF6"/>
	<stop  offset="1" style="stop-color:#864BFF"/>
</linearGradient>
<path class="st6" d="M201.9,382.6c-23,0-41.6,18.7-41.6,41.7c0,23,18.7,41.6,41.6,41.6s41.6-18.7,41.6-41.6
	C243.5,401.3,224.8,382.6,201.9,382.6z M201.9,445.9c-11.9,0-21.6-9.7-21.6-21.6c0-11.9,9.7-21.7,21.6-21.7s21.6,9.7,21.6,21.7
	C223.5,436.2,213.8,445.9,201.9,445.9z"/>
<linearGradient id="SVGID_8_" gradientUnits="userSpaceOnUse" x1="268.464" y1="424.261" x2="351.759" y2="424.261">
	<stop  offset="0" style="stop-color:#342BF6"/>
	<stop  offset="1" style="stop-color:#864BFF"/>
</linearGradient>
<path class="st7" d="M310.1,382.6c-23,0-41.6,18.7-41.6,41.7c0,23,18.7,41.6,41.6,41.6c23,0,41.7-18.7,41.7-41.6
	C351.8,401.3,333.1,382.6,310.1,382.6z M310.1,445.9c-11.9,0-21.6-9.7-21.6-21.6c0-11.9,9.7-21.7,21.6-21.7
	c11.9,0,21.7,9.7,21.7,21.7C331.8,436.2,322,445.9,310.1,445.9z"/>
<linearGradient id="SVGID_9_" gradientUnits="userSpaceOnUse" x1="376.685" y1="424.261" x2="459.98" y2="424.261">
	<stop  offset="0" style="stop-color:#342BF6"/>
	<stop  offset="1" style="stop-color:#864BFF"/>
</linearGradient>
<path class="st8" d="M418.3,382.6c-23,0-41.7,18.7-41.7,41.7c0,23,18.7,41.6,41.7,41.6c23,0,41.6-18.7,41.6-41.6
	C460,401.3,441.3,382.6,418.3,382.6z M418.3,445.9c-11.9,0-21.7-9.7-21.7-21.6c0-11.9,9.7-21.7,21.7-21.7c11.9,0,21.6,9.7,21.6,21.7
	C440,436.2,430.3,445.9,418.3,445.9z"/>
<linearGradient id="SVGID_10_" gradientUnits="userSpaceOnUse" x1="51.992" y1="248.545" x2="295.833" y2="248.545">
	<stop  offset="0" style="stop-color:#342BF6"/>
	<stop  offset="1" style="stop-color:#864BFF"/>
</linearGradient>
<path class="st9" d="M52,333.9c0.4,5.2,4.8,9.3,10,9.3h223.8c5.5,0,10-4.6,10-10V163.9c0-5.5-4.5-10-10-10H62c-5.5,0-10,4.5-10,10
	v169.3C52,333.4,52,333.6,52,333.9L52,333.9z M217.8,323.2l-18.6-29.4l24.9-39.3l43.5,68.6H217.8z M194.1,323.2H80.2l57-89.8
	L194.1,323.2z M275.8,173.9v124.8l-43.3-68.2c-1.8-2.9-5-4.6-8.4-4.6c-3.4,0-6.6,1.8-8.4,4.6l-28.3,44.6l-41.7-65.8
	c-1.8-2.9-5-4.6-8.4-4.6c0,0,0,0,0,0c-3.4,0-6.6,1.8-8.4,4.6L72,298.8V173.9L275.8,173.9z"/>
<linearGradient id="SVGID_11_" gradientUnits="userSpaceOnUse" x1="328.045" y1="163.918" x2="459.583" y2="163.918">
	<stop  offset="0" style="stop-color:#342BF6"/>
	<stop  offset="1" style="stop-color:#864BFF"/>
</linearGradient>
<path class="st10" d="M338,173.9h111.5c5.5,0,10-4.5,10-10s-4.5-10-10-10H338c-5.5,0-10,4.5-10,10S332.5,173.9,338,173.9z"/>
<linearGradient id="SVGID_12_" gradientUnits="userSpaceOnUse" x1="328.045" y1="219.334" x2="459.583" y2="219.334">
	<stop  offset="0" style="stop-color:#342BF6"/>
	<stop  offset="1" style="stop-color:#864BFF"/>
</linearGradient>
<path class="st11" d="M338,229.3h111.5c5.5,0,10-4.5,10-10s-4.5-10-10-10H338c-5.5,0-10,4.5-10,10S332.5,229.3,338,229.3z"/>
<linearGradient id="SVGID_13_" gradientUnits="userSpaceOnUse" x1="328.045" y1="274.723" x2="459.583" y2="274.723">
	<stop  offset="0" style="stop-color:#342BF6"/>
	<stop  offset="1" style="stop-color:#864BFF"/>
</linearGradient>
<path class="st12" d="M338,284.7h111.5c5.5,0,10-4.5,10-10s-4.5-10-10-10H338c-5.5,0-10,4.5-10,10S332.5,284.7,338,284.7z"/>
<linearGradient id="SVGID_14_" gradientUnits="userSpaceOnUse" x1="328.045" y1="330.11" x2="459.583" y2="330.11">
	<stop  offset="0" style="stop-color:#342BF6"/>
	<stop  offset="1" style="stop-color:#864BFF"/>
</linearGradient>
<path class="st13" d="M338,340.1h111.5c5.5,0,10-4.5,10-10s-4.5-10-10-10H338c-5.5,0-10,4.5-10,10S332.5,340.1,338,340.1z"/>
<linearGradient id="SVGID_15_" gradientUnits="userSpaceOnUse" x1="112.169" y1="10" x2="132.197" y2="10">
	<stop  offset="0" style="stop-color:#342BF6"/>
	<stop  offset="1" style="stop-color:#864BFF"/>
</linearGradient>
<path class="st14" d="M122.2,20L122.2,20c5.6,0,10-4.5,10-10s-4.5-10-10-10s-10,4.5-10,10S116.6,20,122.2,20z"/>
<rect x="-639" y="-88.4" class="st15" width="91" height="98"/>
<rect x="-495" y="-108.4" class="st16" width="91" height="98"/>
<rect x="-471" y="36.6" class="st17" width="91" height="98"/>
<rect x="-620" y="65.9" class="st18" width="91" height="98"/>
</svg>
