<svg id="Layer_1" height="512" viewBox="0 0 512 512" width="512" xmlns="http://www.w3.org/2000/svg" data-name="Layer 1"><path d="m447.13 198.2a222.169 222.169 0 0 0 -302.04-119.71h-.01l-64.88 46.85a221.157 221.157 0 0 0 -60.95 133.91q-.87 9.78-.87 19.78c0 122.59 99.37 221.97 221.96 221.97 101.61 0 187.28-68.28 213.62-161.47a220.619 220.619 0 0 0 7.56-41.63z" fill="#92d6d4"/><path d="m447.13 198.2a222.347 222.347 0 0 0 -65.82-90.61l-8.83 12.32a280.7 280.7 0 0 0 -35.6 48.2l-8.19 14a10.916 10.916 0 0 0 1.32 12.52 19.261 19.261 0 0 0 12.17 6.45l3.95.48a39.3 39.3 0 0 1 32.77 27.57 38.566 38.566 0 0 1 -11.34 39.97l-39.11 34.54a17.946 17.946 0 0 0 -6.06 13.45v9.16a13.06 13.06 0 0 0 6.01 11.03 37.165 37.165 0 0 1 16.9 27.65l.92 9.15a10.6 10.6 0 0 0 10.58 9.58h22.89a29.455 29.455 0 0 0 26.95-17.6l1.37-3.14a37.312 37.312 0 0 1 32.65-22.4l5.38-.24c.52-.02 1.03-.06 1.55-.11l6.37-.64a220.619 220.619 0 0 0 7.56-41.63z" fill="#d2ed35"/><path d="m250.84 341.92-15.1-17.78-51.44-38.71-17.03-10.22a22.981 22.981 0 0 0 -22.57-.55l-12.44 6.67a24.456 24.456 0 0 1 -32.2-8.47l-12.08-19.09a26.242 26.242 0 0 1 .44-28.79 29.6 29.6 0 0 1 28.37-12.83l18.12 2.31a16.3 16.3 0 0 0 16.2-7.77 28.61 28.61 0 0 1 28.39-14.01l7.93 1.01a16.131 16.131 0 0 0 14.76-6.13l6.98-9.06a23.592 23.592 0 0 0 .71-27.95l-15.06-21.71a69.612 69.612 0 0 0 -22.06-20.43 68.334 68.334 0 0 1 -6.64-4.42l-12.7-9.53-12.09-8.12c-.29.5-.6.99-.91 1.48l-60.22 37.52a221.157 221.157 0 0 0 -60.95 133.91l5.78-1.27a35.117 35.117 0 0 1 37.13 16.85 35.724 35.724 0 0 0 6.37 8.01l15.78 14.86a23.858 23.858 0 0 0 9.99 5.59l1.84.5a32.128 32.128 0 0 1 22.4 22.31l8.46 30.52a29.788 29.788 0 0 0 5.03 10.13l25.63 33.61a32.4 32.4 0 0 1 6.2 14.31l6.96 41.8a6.136 6.136 0 0 0 2.17 3.83 5.918 5.918 0 0 0 6.01.85 11.82 11.82 0 0 0 7.19-9.82 42.444 42.444 0 0 1 9.8-23.18l7.43-8.94a15.717 15.717 0 0 0 2.91-5.36l7.63-24.76a36.874 36.874 0 0 1 12.79-18.4l22.7-17.44a8.066 8.066 0 0 0 3.14-5.06 7.647 7.647 0 0 0 -1.75-6.27z" fill="#d2ed35"/><path d="m482.25 208.82a38.845 38.845 0 0 0 -60.21 48.37l32.74 51.25 32.74-51.25a38.826 38.826 0 0 0 -5.27-48.37z" fill="#4689d3"/><path d="m248.97 246.8a38.84 38.84 0 0 0 -60.2 48.37l32.73 51.26 32.74-51.26a38.826 38.826 0 0 0 -5.27-48.37z" fill="#5fa8ed"/><path d="m236.01 263.91a10.254 10.254 0 0 1 0 14.51l-14.51 14.5-14.51-14.5a10.26 10.26 0 1 1 14.51-14.51 10.254 10.254 0 0 1 14.51 0z" fill="#e75163"/><path d="m469.29 225.93a10.242 10.242 0 0 1 0 14.5l-14.51 14.51-14.51-14.51a10.257 10.257 0 1 1 14.51-14.5 10.254 10.254 0 0 1 14.51 0z" fill="#e75163"/><path d="m48.38 279.03q0-8.665.666-17.155a34.9 34.9 0 0 0 -24.016-3.895l-5.78 1.27q-.87 9.78-.87 19.78c0 122.59 99.37 221.97 221.96 221.97q7.6 0 15.07-.511c-115.625-7.682-207.03-103.889-207.03-221.459z" fill="#7bb7b4"/><path d="m141.33 86.34 11.854 7.96 21.9-15.811h.01a220.8 220.8 0 0 1 80.386-20.91q-7.5-.505-15.136-.51a221.17 221.17 0 0 0 -95.25 21.42h-.01l-64.884 46.851 60.22-37.52c.31-.49.62-.98.91-1.48z" fill="#7bb7b4"/><path d="m49.046 261.875c.067-.875.126-1.752.2-2.625a221.157 221.157 0 0 1 60.954-133.91l42.984-31.04-11.854-7.96c-.29.5-.6.99-.91 1.48l-60.22 37.52a221.157 221.157 0 0 0 -60.95 133.91l5.78-1.27a34.9 34.9 0 0 1 24.016 3.895z" fill="#becc33"/><path d="m133.64 25.63a49.938 49.938 0 0 0 -77.4 62.19l23.96 37.52 18.13 28.38 43-67.38a49 49 0 0 0 3.75-7.85h.01a49.954 49.954 0 0 0 -11.45-52.86z" fill="#4689d3"/><path d="m116.98 47.63a13.188 13.188 0 0 1 0 18.65l-18.65 18.65-18.66-18.65a13.191 13.191 0 1 1 18.66-18.65 13.17 13.17 0 0 1 18.65 0z" fill="#e75163"/></svg>