<?xml version="1.0"?>
<svg xmlns="http://www.w3.org/2000/svg" viewBox="0 0 128 128" width="512" height="512"><title>MEDAL</title><g id="Layer_1" data-name="Layer 1"><path d="M90.147,79.523a10.366,10.366,0,0,1,1.824-3.243,12.133,12.133,0,0,1,3.786-2.051c2.2-.907,4.7-1.935,5.969-4.136,1.255-2.168.921-4.708.6-7.165a12.331,12.331,0,0,1-.106-4.379,11.889,11.889,0,0,1,2.2-3.574c1.469-1.9,3.135-4.064,3.135-6.667s-1.666-4.762-3.135-6.667a11.889,11.889,0,0,1-2.2-3.574,12.331,12.331,0,0,1,.106-4.379c.322-2.456.656-5-.6-7.164-1.273-2.2-3.768-3.229-5.969-4.136a12.126,12.126,0,0,1-3.786-2.051,12.133,12.133,0,0,1-2.051-3.786c-.907-2.2-1.935-4.7-4.136-5.969-2.169-1.255-4.709-.921-7.164-.6a12.323,12.323,0,0,1-4.379.106,11.9,11.9,0,0,1-3.575-2.2C68.762,6.416,66.6,4.75,64,4.75s-4.762,1.666-6.667,3.135a11.889,11.889,0,0,1-3.574,2.2,12.32,12.32,0,0,1-4.379-.106c-2.457-.322-5-.656-7.164.6-2.2,1.273-3.229,3.768-4.136,5.969a12.126,12.126,0,0,1-2.051,3.786,12.133,12.133,0,0,1-3.786,2.051c-2.2.907-4.7,1.935-5.969,4.136-1.255,2.168-.921,4.708-.6,7.165a12.331,12.331,0,0,1,.106,4.379,11.9,11.9,0,0,1-2.2,3.575c-1.469,1.9-3.135,4.064-3.135,6.667s1.666,4.762,3.135,6.667a11.889,11.889,0,0,1,2.2,3.574,12.331,12.331,0,0,1-.106,4.379c-.322,2.456-.656,5,.6,7.164,1.273,2.2,3.768,3.229,5.969,4.136a12.126,12.126,0,0,1,3.786,2.051,10.378,10.378,0,0,1,1.824,3.245L22.6,112.332a1.75,1.75,0,0,0,2.187,2.382l11.638-4.25L40.687,122.1a1.75,1.75,0,0,0,1.57,1.147h.074a1.75,1.75,0,0,0,1.586-1.013L58.93,89.92A8.937,8.937,0,0,0,64,91.865a8.936,8.936,0,0,0,5.07-1.945l15.013,32.317a1.749,1.749,0,0,0,1.586,1.013h.074a1.75,1.75,0,0,0,1.57-1.147l4.259-11.638,11.638,4.25a1.75,1.75,0,0,0,2.187-2.382Zm-47.625,37.41-3.408-9.314a1.751,1.751,0,0,0-2.244-1.042l-9.313,3.4,12.252-26.36a7.172,7.172,0,0,0,2.405,2.417c2.168,1.255,4.708.923,7.165.6a12.351,12.351,0,0,1,4.378-.106,7.631,7.631,0,0,1,2.308,1.25ZM59.47,85.959a14.375,14.375,0,0,0-4.808-2.814,9.075,9.075,0,0,0-2.351-.28,26.257,26.257,0,0,0-3.387.3c-1.964.258-3.818.5-4.957-.158-1.113-.644-1.819-2.257-2.541-4a1.752,1.752,0,0,0-.074-.179l-.038-.091A14.632,14.632,0,0,0,38.5,73.8a14.65,14.65,0,0,0-4.927-2.813c-1.849-.762-3.6-1.481-4.273-2.652-.659-1.139-.416-2.993-.158-4.956a14.864,14.864,0,0,0,.017-5.738,14.369,14.369,0,0,0-2.813-4.808c-1.237-1.6-2.406-3.12-2.406-4.53s1.169-2.925,2.406-4.53a14.369,14.369,0,0,0,2.813-4.808,14.878,14.878,0,0,0-.017-5.739c-.258-1.962-.5-3.816.158-4.956.678-1.171,2.424-1.891,4.273-2.652A14.639,14.639,0,0,0,38.5,22.811a14.648,14.648,0,0,0,2.813-4.928c.762-1.849,1.481-3.6,2.652-4.273,1.14-.66,2.993-.416,4.956-.158a14.844,14.844,0,0,0,5.738.017,14.369,14.369,0,0,0,4.808-2.813C61.075,9.419,62.59,8.25,64,8.25s2.925,1.169,4.53,2.406a14.369,14.369,0,0,0,4.808,2.813,14.878,14.878,0,0,0,5.739-.017c1.962-.258,3.816-.5,4.956.158,1.171.678,1.891,2.424,2.652,4.273A14.632,14.632,0,0,0,89.5,22.811a14.65,14.65,0,0,0,4.927,2.813c1.849.762,3.6,1.481,4.273,2.652.659,1.139.416,2.993.158,4.956a14.864,14.864,0,0,0-.017,5.738,14.368,14.368,0,0,0,2.813,4.808c1.237,1.6,2.406,3.12,2.406,4.53s-1.169,2.926-2.406,4.53a14.368,14.368,0,0,0-2.813,4.808,14.878,14.878,0,0,0,.017,5.739c.258,1.962.5,3.816-.158,4.956-.678,1.171-2.424,1.891-4.273,2.652A14.632,14.632,0,0,0,89.5,73.8a14.65,14.65,0,0,0-2.813,4.927l-.042.1c-.024.054-.049.106-.067.162-.722,1.749-1.428,3.363-2.543,4.009-1.139.659-2.992.416-4.955.158a14.863,14.863,0,0,0-5.738-.017,14.364,14.364,0,0,0-4.809,2.813c-1.6,1.237-3.12,2.406-4.529,2.406S61.075,87.2,59.47,85.959Zm31.66,20.617a1.752,1.752,0,0,0-2.244,1.042l-3.408,9.314L71.934,87.777a7.628,7.628,0,0,1,2.308-1.25,12.331,12.331,0,0,1,4.379.106c2.456.321,5,.655,7.164-.6a7.174,7.174,0,0,0,2.406-2.418l12.253,26.361Z"/><path d="M92.558,48.308A28.558,28.558,0,1,0,64,76.865,28.59,28.59,0,0,0,92.558,48.308ZM64,73.365A25.058,25.058,0,1,1,89.058,48.308,25.086,25.086,0,0,1,64,73.365Z"/><path d="M82.461,44A1.75,1.75,0,0,0,80.8,42.787H69.236L65.665,31.793a1.75,1.75,0,0,0-3.329,0L58.764,42.787H47.2a1.75,1.75,0,0,0-1.029,3.166l9.353,6.794L51.955,63.741A1.75,1.75,0,0,0,54.648,65.7L64,58.9,73.352,65.7a1.75,1.75,0,0,0,2.693-1.957L72.473,52.747l9.353-6.794A1.751,1.751,0,0,0,82.461,44ZM69.387,50.663a1.751,1.751,0,0,0-.636,1.957l2.3,7.081-6.023-4.376a1.752,1.752,0,0,0-2.058,0L56.948,59.7l2.3-7.081a1.751,1.751,0,0,0-.636-1.957L52.59,46.287h7.445A1.75,1.75,0,0,0,61.7,45.077L64,38l2.3,7.08a1.75,1.75,0,0,0,1.665,1.209H75.41Z"/></g></svg>
