<svg id="Layer_2" height="512" viewBox="0 0 64 64" width="512" xmlns="http://www.w3.org/2000/svg" data-name="Layer 2"><path d="m40 4v5h-16v-5a3.656 3.656 0 0 1 .13-1 3.992 3.992 0 0 1 3.87-3h8a3.992 3.992 0 0 1 3.87 3 3.656 3.656 0 0 1 .13 1z" fill="#c86a25"/><path d="m12 9h40v8h-40z" fill="#e29344"/><path d="m5 17 3 6v40h14v-30a8 8 0 0 1 8-8h4a8 8 0 0 1 8 8v30h14v-40l3-6z" fill="#fdb25a"/><g opacity=".2"><path d="m12 14h40v3h-40z" fill="#58595b"/></g><g opacity=".2"><path d="m40 6v3h-16v-3a3.656 3.656 0 0 1 .13-1h15.74a3.656 3.656 0 0 1 .13 1z" fill="#58595b"/></g><g opacity=".2"><path d="m8 56h14v7h-14z" fill="#58595b"/></g><g opacity=".2"><path d="m42 56h14v7h-14z" fill="#58595b"/></g><g fill="#c86a25"><path d="m8 38h14v10h-14z"/><path d="m42 38h14v10h-14z"/><path d="m48 35h-1a1 1 0 0 1 0-2h1a1 1 0 0 1 0 2z"/><path d="m52 35h-1a1 1 0 0 1 0-2h1a1 1 0 0 1 0 2z"/></g><path d="m16 26h-1.875a1 1 0 0 1 0-2h1.875a1 1 0 0 1 0 2z" fill="#844215"/><path d="m16 57h-2a1 1 0 0 1 0-2h2a1 1 0 0 1 0 2z" fill="#c86a25"/><path d="m50 57h-2a1 1 0 0 1 0-2h2a1 1 0 0 1 0 2z" fill="#c86a25"/><path d="m50 26h-2a1 1 0 0 1 0-2h2a1 1 0 0 1 0 2z" fill="#844215"/><path d="m44 15h-2a1 1 0 0 1 0-2h2a1 1 0 0 1 0 2z" fill="#844215"/><path d="m22 15h-2a1 1 0 0 1 0-2h2a1 1 0 0 1 0 2z" fill="#844215"/><path d="m0 62h64v2h-64z" fill="#fdb25a"/><path d="m12 5h2v4h-2z" fill="#844215"/><path d="m50 5h2v4h-2z" fill="#844215"/></svg>