<?xml version="1.0" encoding="iso-8859-1"?>
<!-- Generator: Adobe Illustrator 19.0.0, SVG Export Plug-In . SVG Version: 6.00 Build 0)  -->
<svg version="1.1" id="Capa_1" xmlns="http://www.w3.org/2000/svg" xmlns:xlink="http://www.w3.org/1999/xlink" x="0px" y="0px"
	 viewBox="0 0 512.001 512.001" style="enable-background:new 0 0 512.001 512.001;" xml:space="preserve">
<path style="fill:#FFDAAE;" d="M459.26,290.764c8.724-1.333,13.454-10.947,9.186-18.672l-36.842-66.688
	c0-0.186,0.007-0.37,0.007-0.557c0-4.951-0.188-32.69-0.551-37.548l-1.542-13.866C415.764,59.886,335.622,10.762,238.432,10.006
	C131.657,9.175,43.349,95.54,41.99,202.31c-1.091,85.721,53.194,158.906,129.334,186.069l-19.723,92.831L308.432,502l22.876-85.006
	c0.296,0.373,83.879,7.389,85.488,7.389c10.023,0,17.43-7.718,17.039-17.038V295.091L459.26,290.764z"/>
<path d="M289.386,421.3c-0.65,0-1.311-0.06-1.95-0.19c-0.64-0.13-1.27-0.32-1.87-0.57c-0.609-0.25-1.189-0.56-1.729-0.92
	c-0.55-0.37-1.061-0.78-1.521-1.25c-0.46-0.46-0.88-0.97-1.24-1.52c-0.359-0.54-0.67-1.12-0.92-1.72
	c-0.25-0.61-0.439-1.23-0.569-1.87c-0.13-0.65-0.2-1.3-0.2-1.96c0-0.65,0.07-1.31,0.2-1.95s0.319-1.27,0.569-1.87
	c0.25-0.61,0.561-1.19,0.92-1.73c0.36-0.55,0.78-1.06,1.24-1.52s0.971-0.88,1.521-1.24c0.54-0.36,1.12-0.67,1.729-0.92
	c0.601-0.25,1.23-0.44,1.87-0.57c1.29-0.26,2.62-0.26,3.91,0c0.63,0.13,1.26,0.32,1.87,0.57c0.6,0.25,1.18,0.56,1.72,0.92
	c0.55,0.36,1.06,0.78,1.521,1.24c1.859,1.86,2.93,4.44,2.93,7.07c0,2.64-1.07,5.21-2.93,7.07c-0.46,0.47-0.971,0.88-1.521,1.25
	c-0.54,0.36-1.12,0.67-1.72,0.92c-0.61,0.25-1.24,0.44-1.87,0.57C290.696,421.24,290.037,421.3,289.386,421.3z"/>
<path style="fill:#EF4635;" d="M229.382,285.145h4.939c11.589-10.401,60.172-57.344,60.149-113.69
	c-0.018-46.158-32.616-86.032-50.766-104.648c-6.501-6.669-17.203-6.668-23.705,0c-18.15,18.614-50.751,58.481-50.766,104.648
	C169.214,227.801,217.793,274.744,229.382,285.145z"/>
<g>
	<path style="fill:#F4BA64;" d="M172.348,146.33c3.232-13.273,8.701-25.682,15.055-36.814
		c-15.795-10.085-32.268-16.417-43.939-20.07c-9.008-2.82-18.538,2.465-20.928,11.596c-2.062,7.877-4.246,18.19-5.43,29.728
		C132.393,132.633,153.039,136.845,172.348,146.33z"/>
	<path style="fill:#F4BA64;" d="M346.597,130.77c-1.184-11.538-3.368-21.851-5.43-29.728c-2.391-9.132-11.92-14.416-20.928-11.597
		c-11.672,3.653-28.146,9.988-43.942,20.073c6.354,11.132,11.825,23.537,15.057,36.81
		C310.663,136.845,331.308,132.633,346.597,130.77z"/>
</g>
<g>
	<path style="fill:#FF8C5A;" d="M204.694,285.145h24.687c-11.573-10.385-60.148-57.33-60.148-113.69
		c0-8.628,1.147-17.034,3.118-25.124c-22.418-11.012-46.643-14.92-62.187-16.291c-9.359-0.826-17.494,6.348-17.926,15.733
		c-1.104,23.979,0.998,69.011,27.793,99.669C143.312,272.079,179.833,281.693,204.694,285.145z"/>
	<path style="fill:#FF8C5A;" d="M234.321,285.145h24.687c24.861-3.452,61.381-13.066,84.663-39.704
		c26.795-30.658,28.897-75.69,27.793-99.669c-0.432-9.385-8.567-16.559-17.926-15.733c-15.544,1.372-39.77,5.279-62.187,16.291
		c1.971,8.09,3.117,16.496,3.117,25.124C294.469,227.815,245.894,274.76,234.321,285.145z"/>
</g>
<path d="M477.199,267.257l-35.593-64.428c-0.032-7.822-0.21-31.408-0.572-36.273c-0.01-0.121-0.021-0.241-0.034-0.362l-1.542-13.866
	c-0.013-0.117-0.027-0.233-0.045-0.349c-6.946-47.246-30.585-86.393-68.36-113.21C335.897,13.811,290.065,0.407,238.51,0.006
	C237.968,0.002,237.438,0,236.896,0C125.185,0,33.415,90.369,31.992,202.182C30.914,286.833,81.921,363.1,159.764,394.673
	l-17.944,84.458c-0.579,2.726,0.005,5.57,1.612,7.846s4.092,3.779,6.855,4.145l156.83,20.791c0.444,0.059,0.886,0.088,1.322,0.088
	c4.462,0,8.461-2.989,9.648-7.402l20.662-76.78c1.488,0.138,3.138,0.288,4.919,0.447c9.233,0.83,20.89,1.832,29.041,2.527
	c7.038,0.6,42.238,3.59,44.086,3.59c7.657,0,14.692-2.939,19.809-8.274c4.905-5.115,7.467-11.837,7.229-18.95V303.533l17.036-2.899
	c7.285-1.146,13.57-5.773,16.828-12.394C480.969,281.588,480.784,273.745,477.199,267.257z M459.752,279.41
	c-0.282,0.573-0.858,1.293-2.003,1.468c-0.056,0.008-0.111,0.018-0.167,0.027l-25.426,4.327c-4.807,0.818-8.322,4.983-8.322,9.858
	v112.253c0,0.14,0.003,0.28,0.009,0.42c0.092,2.183-0.859,3.653-1.674,4.503c-1.268,1.321-3.098,2.068-5.17,2.114
	c-5.696-0.356-77.168-6.371-83.763-7.199c-1.286-0.253-2.626-0.254-3.953,0.02c-3.698,0.765-6.65,3.547-7.632,7.194l-20.598,76.539
	l-137.425-18.219l15.433-72.638l69.061,13.485c0.648,0.127,1.291,0.188,1.927,0.188c4.688,0,8.872-3.313,9.804-8.085
	c1.059-5.42-2.478-10.673-7.898-11.731l-77.929-15.217c-74.025-26.724-123.04-97.471-122.036-176.281
	C53.274,101.537,136.08,20,236.898,20c0.482,0,0.974,0.002,1.456,0.005C337.98,20.781,407.413,72.391,419.6,154.717l1.5,13.485
	c0.199,3.036,0.355,15.118,0.44,24.801h-21.444c-5.522,0-10,4.477-10,10s4.478,10,10,10h24.282l35.315,63.925
	C460.253,277.941,460.034,278.837,459.752,279.41z"/>
<path d="M372.397,126.519c-4.817-4.212-10.813-6.488-17.113-6.544c-1.093-7.136-2.574-14.322-4.443-21.465
	c-1.829-6.987-6.501-13.001-12.818-16.499c-6.404-3.547-13.779-4.296-20.772-2.108c-9.74,3.048-23.47,8.149-37.538,15.959
	c-9.686-15.071-20.457-27.429-28.848-36.036c-5.043-5.172-11.795-8.021-19.012-8.021c-0.001,0,0,0-0.001,0
	c-7.217,0-13.97,2.849-19.013,8.02c-8.391,8.606-19.163,20.963-28.85,36.034c-14.064-7.807-27.796-12.907-37.538-15.956
	c-6.99-2.188-14.365-1.438-20.772,2.109c-6.316,3.498-10.988,9.512-12.816,16.498c-1.87,7.143-3.351,14.329-4.444,21.467
	c-6.299,0.057-12.296,2.331-17.113,6.542c-5.424,4.742-8.726,11.592-9.058,18.794c-1.178,25.578,1.188,73.454,30.254,106.71
	c25.007,28.613,63.189,39.192,90.817,43.028c0.455,0.064,0.915,0.095,1.375,0.095h24.688h4.939l0,0h0.001h24.688
	c0.46,0,0.92-0.032,1.375-0.095c27.628-3.836,65.81-14.415,90.817-43.028c29.067-33.257,31.432-81.132,30.253-106.709
	C381.123,138.111,377.822,131.261,372.397,126.519z M323.225,98.99c1.72-0.538,3.534-0.354,5.109,0.518
	c1.578,0.875,2.7,2.319,3.158,4.066c1.632,6.237,2.944,12.502,3.921,18.719c-9.977,1.683-21.128,4.3-32.416,8.327
	c-0.198,0.07-0.395,0.143-0.593,0.214c-1.336,0.482-2.672,0.985-4.01,1.509c-0.215,0.084-0.43,0.158-0.646,0.243
	c-2.286-6.735-5.051-13.202-8.126-19.361C302.159,106.287,314.468,101.73,323.225,98.99z M227.159,73.788
	c1.246-1.278,2.913-1.982,4.692-1.982s3.446,0.704,4.692,1.982c8.932,9.162,20.884,22.994,30.619,39.803
	c0.134,0.3,0.284,0.596,0.45,0.886c6.581,11.53,11.298,23.031,14.017,34.185c0.003,0.012,0.004,0.023,0.007,0.035
	c0.47,1.928,0.881,3.851,1.235,5.768c0.001,0.003,0.001,0.006,0.002,0.009c0.164,0.888,0.312,1.775,0.451,2.66
	c0.037,0.238,0.071,0.476,0.106,0.714c0.153,1.026,0.287,2.049,0.407,3.069c0.087,0.754,0.174,1.508,0.243,2.265
	c0.042,0.45,0.071,0.896,0.106,1.345c0.06,0.777,0.113,1.555,0.153,2.335c0.019,0.372,0.039,0.745,0.053,1.116
	c0.045,1.156,0.077,2.316,0.078,3.48c0,0.002,0,0.004,0,0.007c0,1.323-0.039,2.639-0.097,3.951c-0.01,0.22-0.016,0.442-0.028,0.662
	c-0.063,1.212-0.155,2.419-0.265,3.622c-0.028,0.309-0.057,0.619-0.088,0.928c-0.117,1.155-0.256,2.306-0.415,3.451
	c-0.047,0.339-0.098,0.676-0.149,1.014c-0.17,1.134-0.353,2.265-0.561,3.389c-0.058,0.312-0.123,0.622-0.184,0.933
	c-0.19,0.975-0.393,1.945-0.611,2.912c-0.083,0.368-0.165,0.737-0.251,1.104c-0.236,1.001-0.49,1.995-0.754,2.987
	c-0.101,0.38-0.2,0.76-0.305,1.138c-0.284,1.023-0.585,2.04-0.896,3.051c-0.126,0.409-0.254,0.817-0.384,1.224
	c-0.319,0.996-0.648,1.986-0.992,2.97c-0.139,0.398-0.283,0.794-0.426,1.19c-0.325,0.902-0.658,1.801-1.003,2.692
	c-0.167,0.433-0.339,0.863-0.51,1.293c-0.323,0.809-0.653,1.614-0.991,2.415c-0.162,0.384-0.323,0.769-0.488,1.152
	c-0.399,0.922-0.81,1.835-1.227,2.744c-0.176,0.383-0.351,0.766-0.53,1.147c-0.434,0.924-0.876,1.84-1.327,2.749
	c-0.187,0.378-0.376,0.754-0.566,1.13c-0.461,0.912-0.928,1.82-1.405,2.717c-0.18,0.338-0.362,0.673-0.544,1.009
	c-0.439,0.813-0.883,1.62-1.332,2.419c-0.201,0.358-0.403,0.713-0.607,1.068c-0.454,0.793-0.913,1.579-1.376,2.359
	c-0.172,0.29-0.343,0.582-0.517,0.87c-0.534,0.887-1.074,1.761-1.617,2.629c-0.187,0.298-0.374,0.597-0.561,0.893
	c-0.548,0.863-1.099,1.717-1.654,2.561c-0.179,0.273-0.36,0.543-0.539,0.814c-0.573,0.861-1.148,1.714-1.726,2.554
	c-0.145,0.21-0.291,0.417-0.436,0.627c-0.556,0.8-1.114,1.592-1.673,2.372c-0.112,0.157-0.224,0.315-0.337,0.47
	c-0.608,0.843-1.217,1.67-1.826,2.488c-0.137,0.184-0.273,0.369-0.41,0.551c-0.611,0.815-1.222,1.616-1.831,2.404
	c-0.143,0.185-0.286,0.37-0.429,0.554c-0.617,0.792-1.231,1.573-1.844,2.337c-0.115,0.144-0.23,0.286-0.346,0.429
	c-0.639,0.794-1.276,1.576-1.907,2.339c-0.059,0.071-0.116,0.139-0.175,0.21c-0.646,0.778-1.287,1.541-1.922,2.285
	c-0.038,0.045-0.077,0.091-0.116,0.136c-0.646,0.756-1.284,1.492-1.916,2.212c-0.077,0.088-0.155,0.177-0.231,0.264
	c-0.617,0.701-1.225,1.384-1.826,2.049c-0.077,0.086-0.155,0.171-0.232,0.257c-0.609,0.673-1.21,1.331-1.799,1.966
	c-0.038,0.041-0.076,0.081-0.114,0.122c-1.255,1.352-2.46,2.619-3.599,3.79c-0.001,0.001-0.002,0.002-0.003,0.003
	c-0.566,0.581-1.114,1.138-1.645,1.673c-0.027,0.027-0.054,0.054-0.081,0.081c-0.521,0.524-1.025,1.025-1.51,1.502
	c-0.025,0.024-0.049,0.048-0.074,0.073c-0.49,0.482-0.963,0.943-1.413,1.376l0,0c-0.449-0.433-0.92-0.892-1.41-1.373
	c-0.027-0.026-0.053-0.051-0.079-0.078c-0.485-0.477-0.989-0.978-1.51-1.502c-0.025-0.026-0.051-0.051-0.076-0.077
	c-0.533-0.536-1.082-1.094-1.648-1.676l-0.001-0.001c-1.143-1.175-2.353-2.447-3.613-3.805c-0.031-0.034-0.063-0.067-0.094-0.102
	c-0.598-0.645-1.208-1.312-1.827-1.997c-0.064-0.07-0.127-0.141-0.191-0.212c-0.612-0.678-1.233-1.375-1.862-2.09
	c-0.063-0.071-0.126-0.144-0.189-0.215c-0.646-0.736-1.299-1.489-1.96-2.263c-0.017-0.02-0.035-0.041-0.052-0.061
	c-0.67-0.785-1.347-1.59-2.029-2.412c-0.03-0.037-0.06-0.072-0.091-0.109c-0.652-0.787-1.309-1.594-1.968-2.414
	c-0.094-0.117-0.189-0.234-0.283-0.352c-0.633-0.79-1.269-1.597-1.906-2.417c-0.117-0.15-0.233-0.301-0.35-0.452
	c-0.634-0.82-1.269-1.653-1.904-2.501c-0.107-0.143-0.215-0.289-0.322-0.433c-0.653-0.876-1.306-1.762-1.957-2.667
	c-0.058-0.081-0.116-0.164-0.174-0.244c-0.612-0.852-1.222-1.718-1.83-2.595c-0.112-0.161-0.224-0.319-0.335-0.481
	c-0.605-0.878-1.207-1.77-1.806-2.671c-0.152-0.228-0.304-0.456-0.455-0.686c-0.581-0.882-1.158-1.776-1.731-2.68
	c-0.158-0.248-0.314-0.499-0.471-0.749c-0.572-0.913-1.141-1.834-1.702-2.768c-0.138-0.229-0.274-0.462-0.411-0.692
	c-0.52-0.874-1.035-1.755-1.543-2.646c-0.136-0.239-0.273-0.478-0.408-0.718c-0.505-0.896-1.003-1.801-1.494-2.714
	c-0.15-0.279-0.302-0.557-0.451-0.837c-0.502-0.944-0.994-1.899-1.479-2.86c-0.164-0.324-0.326-0.648-0.488-0.974
	c-0.473-0.954-0.938-1.917-1.393-2.887c-0.155-0.33-0.306-0.661-0.459-0.993c-0.455-0.991-0.903-1.986-1.337-2.992
	c-0.124-0.288-0.243-0.579-0.366-0.868c-0.375-0.887-0.742-1.779-1.099-2.677c-0.126-0.318-0.254-0.634-0.378-0.953
	c-0.384-0.988-0.752-1.984-1.112-2.985c-0.125-0.348-0.252-0.696-0.374-1.045c-0.358-1.023-0.7-2.053-1.031-3.088
	c-0.117-0.365-0.232-0.732-0.345-1.099c-0.324-1.048-0.635-2.101-0.928-3.161c-0.094-0.338-0.182-0.678-0.273-1.017
	c-0.284-1.064-0.557-2.132-0.81-3.208c-0.067-0.287-0.13-0.575-0.194-0.862c-0.231-1.022-0.446-2.048-0.646-3.079
	c-0.054-0.278-0.112-0.554-0.164-0.833c-0.213-1.148-0.4-2.302-0.573-3.46c-0.047-0.315-0.095-0.629-0.139-0.944
	c-0.162-1.162-0.302-2.329-0.421-3.5c-0.03-0.294-0.057-0.59-0.084-0.885c-0.112-1.214-0.204-2.432-0.267-3.655
	c-0.011-0.211-0.017-0.422-0.026-0.633c-0.059-1.319-0.098-2.642-0.097-3.971c0-0.002,0-0.003,0-0.005
	c0-1.161,0.032-2.317,0.077-3.47c0.015-0.382,0.035-0.764,0.055-1.147c0.039-0.759,0.091-1.515,0.149-2.27
	c0.036-0.471,0.067-0.941,0.111-1.414c0.055-0.599,0.126-1.193,0.192-1.789c0.136-1.211,0.29-2.426,0.473-3.645
	c0.027-0.178,0.052-0.356,0.079-0.534c0.44-2.815,1.004-5.648,1.696-8.49c0.003-0.012,0.004-0.023,0.007-0.035
	c2.722-11.162,7.437-22.664,14.015-34.189c0.163-0.285,0.309-0.575,0.441-0.869C206.265,96.788,218.223,82.951,227.159,73.788z
	 M135.368,99.508c1.575-0.872,3.389-1.057,5.109-0.518c8.759,2.741,21.069,7.298,33.6,14.233
	c-3.076,6.159-5.841,12.627-8.126,19.362c-0.226-0.089-0.452-0.167-0.678-0.255c-1.316-0.514-2.629-1.009-3.944-1.484
	c-0.216-0.078-0.432-0.157-0.648-0.234c-11.28-4.023-22.422-6.638-32.392-8.319c0.976-6.218,2.289-12.483,3.921-18.719
	C132.668,101.826,133.789,100.382,135.368,99.508z M127.56,238.86c-24.463-27.991-26.373-70.049-25.334-92.628
	c0.084-1.812,0.88-3.466,2.242-4.657c1.192-1.043,2.679-1.601,4.236-1.601c0.191,0,0.385,0.009,0.579,0.026
	c2.145,0.189,4.447,0.433,6.854,0.727c11.824,1.455,28.5,4.601,44.795,11.402c-0.014,0.082-0.023,0.163-0.037,0.245
	c-0.23,1.344-0.433,2.697-0.617,4.056c-0.033,0.244-0.073,0.488-0.104,0.732c-0.174,1.353-0.32,2.715-0.447,4.082
	c-0.022,0.238-0.053,0.477-0.074,0.714c-0.114,1.324-0.197,2.656-0.265,3.993c-0.013,0.262-0.038,0.525-0.049,0.787
	c-0.068,1.563-0.105,3.133-0.105,4.712c0,0,0,0.001,0,0.002v0.001c0,0.002,0,0.005,0,0.007c0,1.234,0.028,2.462,0.068,3.687
	c0.009,0.273,0.02,0.545,0.031,0.818c0.101,2.482,0.284,4.944,0.543,7.382c0.021,0.197,0.043,0.393,0.065,0.589
	c0.279,2.495,0.636,4.967,1.068,7.412c0.024,0.134,0.049,0.268,0.073,0.402c0.449,2.494,0.972,4.962,1.566,7.4
	c0.019,0.077,0.038,0.154,0.057,0.231c0.297,1.21,0.609,2.412,0.939,3.607c0.005,0.018,0.01,0.036,0.015,0.055
	c0.343,1.239,0.703,2.47,1.079,3.693c0.01,0.031,0.02,0.062,0.029,0.094c0.367,1.189,0.749,2.37,1.146,3.544
	c0.014,0.043,0.028,0.085,0.043,0.128c0.81,2.386,1.68,4.738,2.602,7.054c0.026,0.065,0.051,0.13,0.077,0.195
	c0.915,2.291,1.882,4.546,2.893,6.764c0.04,0.088,0.08,0.177,0.12,0.265c1.003,2.19,2.048,4.344,3.129,6.459
	c0.057,0.113,0.115,0.225,0.173,0.338c1.073,2.087,2.179,4.136,3.314,6.146c0.074,0.132,0.149,0.263,0.223,0.394
	c1.125,1.98,2.275,3.921,3.446,5.822c0.095,0.154,0.19,0.307,0.285,0.46c0.569,0.918,1.142,1.829,1.719,2.727
	c0.009,0.014,0.018,0.028,0.026,0.041c0.59,0.917,1.185,1.822,1.782,2.718c0.113,0.17,0.227,0.339,0.341,0.509
	c0.531,0.791,1.063,1.575,1.598,2.35c0.067,0.098,0.135,0.197,0.202,0.295c0.586,0.845,1.174,1.678,1.763,2.503
	c0.132,0.185,0.265,0.368,0.397,0.553c0.496,0.689,0.992,1.371,1.489,2.045c0.113,0.154,0.226,0.31,0.34,0.463
	c0.576,0.778,1.153,1.545,1.729,2.302c0.145,0.191,0.29,0.378,0.435,0.567c0.465,0.607,0.929,1.206,1.393,1.799
	c0.15,0.191,0.299,0.384,0.449,0.573c0.559,0.71,1.117,1.41,1.674,2.1c0.158,0.195,0.314,0.386,0.471,0.58
	c0.435,0.536,0.868,1.065,1.301,1.588c0.175,0.211,0.35,0.423,0.524,0.633c0.538,0.647,1.075,1.285,1.608,1.912
	c0.162,0.191,0.323,0.377,0.485,0.566c0.408,0.477,0.814,0.948,1.218,1.413c0.192,0.22,0.383,0.44,0.574,0.658
	c0.514,0.586,1.024,1.165,1.53,1.732c0.035,0.039,0.07,0.08,0.105,0.119C181.18,271.698,148.307,262.599,127.56,238.86z
	 M336.142,238.86c-20.748,23.739-53.622,32.839-77.813,36.282c0.024-0.027,0.048-0.055,0.072-0.082
	c0.534-0.598,1.073-1.209,1.616-1.828c0.149-0.17,0.298-0.342,0.448-0.514c0.471-0.541,0.945-1.091,1.422-1.648
	c0.103-0.12,0.204-0.237,0.307-0.358c0.569-0.668,1.141-1.35,1.716-2.041c0.121-0.146,0.242-0.293,0.364-0.439
	c0.512-0.618,1.025-1.244,1.54-1.88c0.09-0.112,0.181-0.221,0.271-0.334c0.599-0.742,1.2-1.496,1.802-2.262
	c0.084-0.106,0.167-0.214,0.251-0.321c0.551-0.702,1.102-1.414,1.654-2.136c0.08-0.104,0.159-0.207,0.238-0.311
	c0.622-0.816,1.244-1.644,1.866-2.484c0.036-0.049,0.073-0.099,0.109-0.148c0.593-0.802,1.185-1.616,1.776-2.439
	c0.065-0.091,0.13-0.181,0.196-0.272c1.26-1.761,2.513-3.57,3.754-5.424c0.049-0.073,0.098-0.146,0.147-0.219
	c1.252-1.876,2.49-3.799,3.706-5.765c0.035-0.057,0.071-0.114,0.106-0.171c1.228-1.99,2.434-4.024,3.611-6.101
	c0.019-0.034,0.039-0.068,0.058-0.102c1.188-2.099,2.345-4.241,3.465-6.425c0.008-0.016,0.016-0.032,0.025-0.048
	c5.085-9.925,9.385-20.701,12.179-32.122c0.004-0.018,0.009-0.035,0.013-0.053c0.606-2.485,1.14-5.001,1.596-7.544
	c0.016-0.09,0.033-0.179,0.049-0.268c0.438-2.477,0.8-4.98,1.082-7.508c0.019-0.171,0.038-0.342,0.057-0.512
	c0.262-2.455,0.446-4.933,0.547-7.432c0.011-0.262,0.021-0.524,0.029-0.787c0.041-1.229,0.069-2.461,0.069-3.699
	c0-0.003,0-0.005,0-0.008v-0.001c0-0.001,0-0.002,0-0.002c-0.001-1.576-0.038-3.143-0.105-4.702
	c-0.014-0.307-0.042-0.617-0.058-0.924c-0.067-1.286-0.145-2.57-0.255-3.845c-0.025-0.288-0.062-0.577-0.089-0.865
	c-0.124-1.312-0.262-2.62-0.429-3.919c-0.038-0.296-0.087-0.594-0.127-0.89c-0.178-1.3-0.371-2.596-0.591-3.883
	c-0.017-0.098-0.028-0.195-0.044-0.293c16.295-6.802,32.971-9.947,44.794-11.402c2.407-0.295,4.709-0.538,6.853-0.727
	c1.778-0.153,3.477,0.404,4.816,1.575c1.362,1.19,2.157,2.844,2.241,4.656C362.515,168.811,360.607,210.869,336.142,238.86z"/>
<g>
</g>
<g>
</g>
<g>
</g>
<g>
</g>
<g>
</g>
<g>
</g>
<g>
</g>
<g>
</g>
<g>
</g>
<g>
</g>
<g>
</g>
<g>
</g>
<g>
</g>
<g>
</g>
<g>
</g>
</svg>
