<svg id="_x33_0" enable-background="new 0 0 64 64" height="512" viewBox="0 0 64 64" width="512" xmlns="http://www.w3.org/2000/svg"><g><g><g><path d="m10 62h-8l1.09-14.66c.49-6.71 4.85-12.43 11.03-14.75l.88 4.41 3.06-1.83.94 2.83-4 19 5 5z" fill="#fcd770"/></g><g><path d="m21.94 35.17 3.06 1.83.88-4.41c1.49.56 2.87 1.32 4.12 2.23v27.18h-10l5-5-4-19z" fill="#fcd770"/></g><g><path d="m20 34-1.94 1.17-3.06 1.83-.88-4.41c.61-.23 1.24-.43 1.88-.59z" fill="#ffc729"/></g><g><path d="m25.88 32.59-.88 4.41-3.06-1.83-1.94-1.17 4-2c.64.16 1.27.36 1.88.59z" fill="#ffc729"/></g><g><path d="m21 38 4 19-5 5-5-5 4-19z" fill="#e6e9ed"/></g><g><path d="m21.94 35.17-.94 2.83h-2l-.94-2.83 1.94-1.17z" fill="#ccd1d9"/></g><g><path d="m22.89 12h-7.89c-1.66 0-3 1.34-3 3v3h-1c-.8 0-1.52.31-2.05.81l-.84-3.37c-.07-.29-.11-.59-.11-.9 0-.99.39-1.93 1.09-2.63l1.04-1.04c.53-.53.72-1.32.48-2.04-.12-.37-.18-.75-.18-1.13 0-.79.26-1.57.77-2.2l.4-.5c1.52-1.9 3.81-3 6.24-3 1.41 0 2.8.38 4.03 1.09l7.11 4.15c1.87 1.09 3.02 3.09 3.02 5.26 0 .33-.03.67-.08 1l-.89 5.3c-.53-.5-1.24-.8-2.03-.8h-1v-.68c0-.69-.22-1.34-.61-1.88s-.94-.96-1.6-1.18c-1.23-.41-2.24-1.22-2.9-2.26z" fill="#b27946"/></g><g><path d="m31.03 18.8c.6.54.97 1.33.97 2.2 0 .83-.34 1.58-.88 2.12s-1.29.88-2.12.88h-1v-6h1c.79 0 1.5.3 2.03.8z" fill="#f0d0b4"/></g><g><path d="m22 30c.44 0 .88-.05 1.29-.14l.71 2.14-4 2-4-2 .71-2.14c.41.09.85.14 1.29.14z" fill="#f0d0b4"/></g><g><path d="m28 18v6c0 2.87-2.02 5.27-4.71 5.86-.41.09-.85.14-1.29.14h-4c-.44 0-.88-.05-1.29-.14-2.69-.59-4.71-2.99-4.71-5.86v-6-3c0-1.66 1.34-3 3-3h7.89c.66 1.04 1.67 1.85 2.9 2.26.66.22 1.21.64 1.6 1.18s.61 1.19.61 1.88z" fill="#f0d0b4"/></g><g><path d="m12 18v6h-1c-.83 0-1.58-.34-2.12-.88s-.88-1.29-.88-2.12c0-.86.36-1.64.95-2.19.53-.5 1.25-.81 2.05-.81z" fill="#f0d0b4"/></g><g><path d="m61 22h-18.46c-.19 0-.38.03-.56.08l-3.98 7.92c-1.32-.66-2.77-1-4.24-1h-3.39c-.24.33-.37.73-.37 1.15v4.67 27.18h32v-39c0-.55-.45-1-1-1z" fill="#e6e9ed"/></g><g><path d="m41.98 22.08-3.98 7.92c-1.32-.66-2.77-1-4.24-1h-3.39c.16-.23.37-.43.62-.58l10.54-6.15c.14-.08.29-.15.45-.19z" fill="#b4dd7f"/></g><g><path d="m58 4v10h-8v-10c0-1.1.9-2 2-2h4c1.1 0 2 .9 2 2z" fill="#aab2bd"/></g><g><path d="m58 22v7.85c0 .05 0 .1-.01.15h-7.98c-.01-.05-.01-.1-.01-.15v-7.85-8h8z" fill="#ff826e"/></g><g><path d="m52.71 39.04-2.67-8.9c-.02-.04-.02-.09-.03-.14h7.98c-.01.05-.01.1-.03.14l-2.67 8.9c-.17.57-.7.96-1.29.96s-1.12-.39-1.29-.96z" fill="#aab2bd"/></g><g><path d="m49 55c0 1.66-1.34 3-3 3s-3-1.34-3-3c-1.66 0-3-1.34-3-3s1.34-3 3-3c0-1.66 1.34-3 3-3s3 1.34 3 3c1.66 0 3 1.34 3 3s-1.34 3-3 3z" fill="#ff826e"/></g><g><circle cx="46" cy="52" fill="#fc6e51" r="2"/></g></g><g><circle cx="16" cy="18" r="1"/><circle cx="24" cy="18" r="1"/><path d="m25 23h-2c0 1.103-.897 2-2 2h-4v2h4c2.206 0 4-1.794 4-4z"/><path d="m20.707 14.293c-1.101-1.101-1.707-2.565-1.707-4.122v-1.171h-2v1.171c0 2.091.814 4.057 2.293 5.536z"/><path d="m63 11.382v-4.382c0-2.206-1.794-4-4-4h-.184c-.414-1.161-1.514-2-2.816-2h-3.997c-.803 0-1.557.313-2.123.881-.567.567-.878 1.322-.877 2.122l-.002 16.997h-6.46c-.53 0-1.053.141-1.512.409l-10.541 6.149c-.918.535-1.488 1.528-1.488 2.591v2.826c-1.319-.774-2.733-1.362-4.215-1.782l-.228-.684c2.298-.906 4.001-2.992 4.363-5.51h.08c2.206 0 4-1.794 4-4 0-.951-.347-1.813-.903-2.5l.806-4.837c.065-.381.097-.774.097-1.166 0-2.51-1.347-4.856-3.516-6.122l-7.114-4.15c-1.374-.801-2.94-1.224-4.53-1.224-2.746 0-5.305 1.23-7.019 3.374l-.399.498c-.966 1.207-1.25 2.804-.762 4.271.121.362.028.754-.241 1.023l-1.037 1.037c-.891.893-1.382 2.078-1.382 3.339 0 .387.048.773.142 1.145l.717 2.867c-.53.678-.859 1.521-.859 2.446 0 2.206 1.794 4 4 4h.08c.363 2.518 2.065 4.603 4.363 5.51l-.226.679c-7.312 2.07-12.563 8.453-13.128 16.074l-1.166 15.737h62.077v-40c0-1.103-.897-2-2-2h-2v-5.382l2 1v2.382h2v-2.382c0-.763-.424-1.448-1.105-1.789l-1.659-.829 1.658-.829c.682-.341 1.106-1.026 1.106-1.789zm-7.544 23.618h-2.912l-1.2-4h5.312zm-.6 2-.527 1.756c-.088.292-.57.292-.658 0l-.527-1.756zm-3.856-8 .002-14h5.998v14zm.295-25.707c.189-.189.44-.293.708-.293h3.997c.552 0 1 .449 1 1v9h-5.998l.001-8.999c0-.267.103-.518.292-.708zm-11.676 21.254-2.086 4.155c-1.2-.461-2.485-.702-3.769-.702h-.064zm-10.619 36.453h-6.586l3.676-3.676-4.056-19.265.464-1.394 3.204 1.922.921-4.603c.83.384 1.619.85 2.377 1.374zm-13.097-27.931 2.02 1.01-2.221 1.333-.432-2.158c.209-.066.421-.126.633-.185zm8.19.002c.214.058.424.125.635.192l-.43 2.15-2.221-1.333zm-4.093 2.095.742.445-.463 1.389h-.559l-.463-1.388zm-.189 3.834h.378l3.721 17.676-3.91 3.91-3.91-3.91zm9.189-16v-4c1.103 0 2 .897 2 2s-.897 2-2 2zm-20-2c0-1.103.897-2 2-2v4c-1.103 0-2-.897-2-2zm4 3v-9c0-1.103.897-2 2-2v-2c-2.206 0-4 1.794-4 4v2c-.495 0-.964.102-1.403.267l-.516-2.067c-.054-.214-.081-.435-.081-.658 0-.727.283-1.411.797-1.925l1.036-1.035c.809-.808 1.087-1.984.725-3.071-.273-.821-.114-1.714.426-2.39l.399-.498c1.333-1.667 3.322-2.623 5.457-2.623 1.236 0 2.454.329 3.522.952l7.114 4.15c1.557.908 2.524 2.592 2.524 4.394 0 .281-.023.562-.069.836l-.649 3.897c-.405-.138-.831-.229-1.282-.229h-.026c-.13-1.684-1.24-3.142-2.863-3.684-1.861-.62-3.111-2.355-3.111-4.316h-2c0 2.823 1.8 5.32 4.479 6.214.91.303 1.521 1.152 1.521 2.111v6.675c0 2.757-2.243 5-5 5h-4c-2.757 0-5-2.243-5-5zm5 7h4c.203 0 .404-.013.603-.031l.175.524-2.778 1.389-2.777-1.388.175-.524c.198.017.399.03.602.03zm-13.917 16.409c.439-5.918 4.057-10.996 9.295-13.418l.92 4.596 3.204-1.922.464 1.394-4.056 19.265 3.676 3.676h-6.586v-17h-2v17h-5.923zm56.917-24.409v38h-30v-30.851c0-.051.012-.099.02-.149h2.744c1.309 0 2.619.309 3.789.895l.893.446 4.187-8.341h6.367v6.853c0 .191.027.382.084.575l2.671 8.901c.295.984 1.218 1.671 2.245 1.671 1.028 0 1.951-.688 2.245-1.67l2.673-8.908c.055-.187.082-.378.082-.569v-6.853zm0-11.618-2 1v-7.382c1.103 0 2 .897 2 2z"/><path d="m49.898 48.102c-.409-1.775-2.002-3.102-3.898-3.102s-3.489 1.327-3.898 3.102c-1.775.409-3.102 2.001-3.102 3.898s1.327 3.489 3.102 3.898c.409 1.775 2.002 3.102 3.898 3.102s3.489-1.327 3.898-3.102c1.775-.409 3.102-2.001 3.102-3.898s-1.327-3.489-3.102-3.898zm-3.898-1.102c1.103 0 2 .897 2 2v.78c-.532-.48-1.229-.78-2-.78s-1.468.301-2 .78v-.78c0-1.103.897-2 2-2zm1 5c0 .551-.448 1-1 1s-1-.449-1-1 .448-1 1-1 1 .449 1 1zm-4 2c-1.103 0-2-.897-2-2s.897-2 2-2h.78c-.48.532-.78 1.229-.78 2s.301 1.468.78 2zm3 3c-1.103 0-2-.897-2-2v-.78c.532.48 1.229.78 2 .78s1.468-.301 2-.78v.78c0 1.103-.897 2-2 2zm3-3h-.78c.48-.532.78-1.229.78-2s-.301-1.468-.78-2h.78c1.103 0 2 .897 2 2s-.897 2-2 2z"/><path d="m45 13h2v2h-2z"/><path d="m41 13h2v2h-2z"/><path d="m37 13h2v2h-2z"/><path d="m35 33h12v2h-12z"/><path d="m35 37h12v2h-12z"/><path d="m35 41h4v2h-4z"/><path d="m41 41h6v2h-6z"/><path d="m41 29h6v2h-6z"/></g></g></svg>