<svg height="512pt" viewBox="0 -1 512 512" width="512pt" xmlns="http://www.w3.org/2000/svg"><path d="m304.640625 245.414062h58.503906v70.558594h-58.503906zm0 0" fill="#92d8f3"/><path d="m166.464844 10h335.535156v235.410156h-335.535156zm0 0" fill="#f2484b"/><path d="m333.902344 205.636719h-127.65625v-155.863281h255.972656v155.863281h-36.15625" fill="#dae9ec"/><path d="m462.21875 215.636719h-36.15625c-5.523438 0-10-4.476563-10-10 0-5.523438 4.476562-10 10-10h26.15625v-135.863281h-235.972656v135.863281h117.65625c5.523437 0 10 4.476562 10 10 0 5.523437-4.476563 10-10 10h-127.65625c-5.523438 0-10-4.476563-10-10v-155.863281c0-5.523438 4.476562-10 10-10h255.972656c5.523438 0 10 4.476562 10 10v155.863281c0 5.523437-4.476562 10-10 10zm0 0"/><path d="m378.988281 215.636719c-.648437 0-1.308593-.0625-1.957031-.191407-.632812-.128906-1.261719-.320312-1.871094-.570312-.601562-.25-1.179687-.558594-1.71875-.921875-.550781-.367187-1.0625-.777344-1.519531-1.25-.460937-.457031-.882813-.96875-1.25-1.519531-.363281-.539063-.671875-1.117188-.921875-1.71875-.25-.609375-.441406-1.230469-.570312-1.871094-.128907-.648438-.191407-1.296875-.191407-1.957031 0-.652344.0625-1.3125.191407-1.953125.128906-.636719.320312-1.269532.570312-1.867188.25-.613281.558594-1.191406.921875-1.730468.367187-.550782.789063-1.0625 1.25-1.519532.457031-.460937.96875-.882812 1.519531-1.242187.539063-.359375 1.117188-.667969 1.71875-.917969.609375-.25 1.238282-.441406 1.871094-.570312 1.289062-.261719 2.617188-.261719 3.910156 0 .636719.128906 1.269532.320312 1.867188.570312.613281.25 1.191406.558594 1.730468.917969.550782.359375 1.0625.78125 1.519532 1.242187.460937.457032.882812.96875 1.242187 1.519532.359375.539062.667969 1.117187.917969 1.730468.25.597656.441406 1.230469.570312 1.867188.132813.640625.199219 1.300781.199219 1.953125 0 .660156-.066406 1.308593-.199219 1.957031-.128906.632812-.320312 1.261719-.570312 1.871094-.25.601562-.558594 1.179687-.917969 1.71875-.359375.550781-.78125 1.0625-1.242187 1.519531-.457032.472656-.96875.882813-1.519532 1.25-.539062.363281-1.117187.671875-1.730468.921875-.597656.25-1.230469.441406-1.867188.570312-.640625.128907-1.300781.191407-1.953125.191407zm0 0"/><path d="m272.0625 160.410156c0-.324218.109375-.765625.21875-1.199218l20.351562-66.722657c1.203126-3.828125 6.125-5.6875 11.15625-5.6875s9.957032 1.859375 11.160157 5.6875l20.457031 66.722657c.109375.4375.21875.875.21875 1.199218 0 4.050782-6.234375 7-10.941406 7-2.734375 0-4.921875-.875-5.578125-3.171875l-3.71875-13.671875h-23.082031l-3.71875 13.671875c-.660157 2.296875-2.847657 3.171875-5.582032 3.171875-4.703125 0-10.941406-2.953125-10.941406-7zm39.714844-22.96875-7.988282-29.3125-7.984374 29.3125zm0 0"/><path d="m368.773438 87.457031c15.097656 0 26.910156 7 26.910156 25.8125v28.328125c0 18.8125-11.8125 25.8125-26.910156 25.8125h-19.367188c-4.484375 0-7.4375-2.402344-7.4375-5.140625v-69.671875c0-2.734375 2.953125-5.140625 7.4375-5.140625zm-9.738282 14.875v50.203125h9.738282c6.125 0 9.84375-3.5 9.84375-10.9375v-28.328125c0-7.4375-3.71875-10.9375-9.84375-10.9375zm0 0"/><g fill="#fdd1a3"><path d="m287.660156 315.972656h-12.121094c0-19.671875.003907-28.460937.003907-42.929687.003906-15.265625-12.375-27.632813-27.640625-27.632813h-.003906c-14.113282 0-25.960938 10.628906-27.484376 24.660156l-7.171874 56.730469c-5.710938 28.664063-21.90625 25.714844-43.628907 25.714844h-15.234375v108.058594h26.238282c3.855468 19.988281 14.042968 27.582031 26.007812 27.582031h61.445312"/><path d="m369.253906 361.78125h-81.574218c-12.65625 0-22.910157-10.253906-22.910157-22.902344 0-12.652344 10.253907-22.90625 22.910157-22.90625h81.574218c12.652344 0 22.910156 10.257813 22.910156 22.90625-.003906 12.648438-10.257812 22.902344-22.910156 22.902344zm0 0"/><path d="m378.511719 407.59375h-81.578125c-12.652344 0-22.910156-10.257812-22.910156-22.90625 0-12.652344 10.257812-22.90625 22.910156-22.90625h81.578125c12.652343 0 22.910156 10.253906 22.910156 22.90625s-10.257813 22.90625-22.910156 22.90625zm0 0"/><path d="m378.511719 453.402344h-81.578125c-12.652344 0-22.910156-10.257813-22.910156-22.90625 0-12.648438 10.257812-22.902344 22.910156-22.902344h81.578125c12.652343 0 22.910156 10.253906 22.910156 22.902344 0 12.652344-10.257813 22.90625-22.910156 22.90625zm0 0"/><path d="m369.257812 499.210938h-81.585937c-12.648437 0-22.902344-10.257813-22.902344-22.90625 0-12.648438 10.253907-22.90625 22.902344-22.90625h81.585937c12.648438 0 22.90625 10.257812 22.90625 22.90625-.003906 12.652343-10.257812 22.90625-22.90625 22.90625zm0 0"/></g><path d="m10 339.226562h101.445312v137.453126h-101.445312zm0 0" fill="#0082a0"/><path d="m111.445312 349.171875h42.933594v117.5625h-42.933594zm0 0" fill="#dae9ec"/><path d="m502 0h-335.535156c-5.523438 0-10 4.476562-10 10v235.410156c0 5.523438 4.476562 10 10 10h48.160156c-2.164062 4.085938-3.601562 8.636719-4.140625 13.488282l-7.117187 56.285156c-3.589844 17.671875-9.324219 17.601562-28.0625 17.375-1.851563-.023438-13.464844-.042969-13.464844-.042969-1.832032-2.050781-4.496094-3.34375-7.460938-3.34375h-32.933594c-.03125-5.496094-4.496093-9.945313-10-9.945313h-101.445312c-5.523438 0-10 4.476563-10 10v137.453126c0 5.523437 4.476562 10 10 10h101.445312c5.503907 0 9.96875-4.449219 9.996094-9.945313h32.9375c4.160156 0 7.726563-2.542969 9.234375-6.160156h9.226563c7.875 24.714843 25.875 27.585937 33.785156 27.585937h56.46875c6.03125 6.777344 14.8125 11.050782 24.578125 11.050782h81.585937c18.144532 0 32.902344-14.761719 32.902344-32.90625 0-6.773438-2.058594-13.078126-5.582031-18.316407 8.933594-5.890625 14.839844-16.015625 14.839844-27.492187 0-8.894532-3.546875-16.976563-9.304688-22.902344 5.757813-5.929688 9.304688-14.011719 9.304688-22.90625 0-11.476562-5.90625-21.597656-14.839844-27.488281 3.523437-5.242188 5.582031-11.542969 5.582031-18.320313 0-16.832031-12.707031-30.753906-29.03125-32.675781l.03125-50.792969h128.839844c5.523438 0 10-4.476562 10-10v-235.410156c0-5.523438-4.476562-10-10-10zm-482 349.226562h81.445312v117.453126h-81.445312zm101.445312 9.945313h22.933594v97.5625h-22.933594zm85.179688 118.988281c-3.074219 0-12.433594 0-16.1875-19.476562-.910156-4.707032-5.027344-8.109375-9.820312-8.109375h-16.238282v-88.0625s8.910156.023437 10.683594.046875c19.289062.234375 41.15625.5 47.988281-33.804688.046875-.230468.085938-.464844.113281-.699218l7.171876-56.730469c.007812-.058594.015624-.117188.023437-.175781.972656-8.972657 8.511719-15.738282 17.542969-15.738282 4.714844 0 9.144531 1.835938 12.476562 5.164063 3.332032 3.332031 5.167969 7.757812 5.167969 12.464843l-.007813 41.515626c-6.613281 6.019531-10.769531 14.695312-10.769531 24.324218 0 11.476563 5.90625 21.601563 14.839844 27.492188-3.523437 5.238281-5.582031 11.542968-5.582031 18.316406 0 8.894531 3.546875 16.976562 9.304687 22.90625-5.757812 5.925781-9.304687 14.007812-9.304687 22.902344 0 6.777344 2.058594 13.078125 5.582031 18.320312-8.933594 5.886719-14.839844 16.011719-14.839844 27.488282 0 .625.015625 1.242187.050781 1.855468zm107.996094-172.1875.035156-50.558594h38.503906l-.03125 50.558594zm63.890625 65.808594c7.117187 0 12.910156 5.789062 12.910156 12.90625s-5.792969 12.90625-12.910156 12.90625h-60v-5.632812c0-5.523438-4.476563-10-10-10-5.523438 0-10 4.476562-10 10v5.632812h-1.578125c-7.117188 0-12.910156-5.789062-12.910156-12.90625s5.792968-12.90625 12.910156-12.90625zm12.910156 58.714844c0 7.117187-5.792969 12.90625-12.910156 12.90625h-60v-6.90625c0-5.523438-4.476563-10-10-10-5.523438 0-10 4.476562-10 10v6.90625h-1.578125c-7.117188 0-12.910156-5.789063-12.910156-12.90625 0-7.113282 5.792968-12.902344 12.910156-12.902344h81.574218c7.121094 0 12.914063 5.789062 12.914063 12.902344zm-22.164063 58.714844h-60.589843v-6.21875c0-5.523438-4.476563-10-10-10-5.523438 0-10 4.476562-10 10v6.21875h-.996094c-7.113281 0-12.902344-5.789063-12.902344-12.90625 0-7.113282 5.789063-12.902344 12.902344-12.902344h81.585937c7.117188 0 12.90625 5.789062 12.90625 12.902344 0 7.117187-5.789062 12.90625-12.90625 12.90625zm12.90625-150.332032c0 7.113282-5.792968 12.902344-12.910156 12.902344h-60.585937v-6.566406c0-5.523438-4.476563-10-10-10-5.523438 0-10 4.476562-10 10v6.566406h-.988281c-7.121094 0-12.910157-5.789062-12.910157-12.902344 0-7.117187 5.789063-12.90625 12.910157-12.90625h81.574218c7.117188 0 12.910156 5.789063 12.910156 12.90625zm-87.542968-32.90625h-6.941406c-.003907 0-.007813 0-.015626 0h-.003906-2.121094l.003907-32.929687c0-6.25-1.511719-12.265625-4.363281-17.632813h13.476562zm197.378906-70.5625h-315.535156v-215.410156h315.535156zm0 0"/></svg>