<svg id="Layer_3" enable-background="new 0 0 64 64" height="512" viewBox="0 0 64 64" width="512" xmlns="http://www.w3.org/2000/svg"><g><path d="m30 17-.092.092c-5.063 5.063-11.931 7.908-19.092 7.908h-6.816c-1.105 0-2 .895-2 2v10c0 1.105.895 2 2 2h6.816c7.161 0 14.028 2.845 19.092 7.908l.092.092" fill="#2862be"/><path d="m10.816 25h-6.816c-1.105 0-2 .895-2 2v8h23c1.105 0 2-.895 2-2v-13.392c-4.643 3.478-10.314 5.392-16.184 5.392z" fill="#3279ea"/><path d="m60 7h-20c-1.105 0-2 .895-2 2v12c0 1.105.895 2 2 2h2v3l4-3h14c1.105 0 2-.895 2-2v-12c0-1.105-.895-2-2-2z" fill="#f6b940"/><path d="m40 7c-1.105 0-2 .895-2 2v11h17c1.105 0 2-.895 2-2v-11z" fill="#fad85d"/><path d="m30 17h4v30h-4z" fill="#3279ea"/><path d="m34 28c2.209 0 4 1.791 4 4s-1.791 4-4 4" fill="#61668c"/><path d="m6 39v10c0 1.105.895 2 2 2h2c1.105 0 2-.895 2-2v-10" fill="#8389b2"/><path d="m12 47h2c1.105 0 2-.895 2-2 0-1.105-.895-2-2-2h-2" fill="#a3a7c6"/><g><path d="m43.929 14h14.142v2h-14.142z" fill="#fff" transform="matrix(.707 -.707 .707 .707 4.331 40.456)"/></g><g><path d="m47 11h2v2h-2z" fill="#fff"/></g><g><path d="m53 17h2v2h-2z" fill="#fff"/></g><path d="m60 57h-20c-1.105 0-2-.895-2-2v-12c0-1.105.895-2 2-2h2v-3l4 3h14c1.105 0 2 .895 2 2v12c0 1.105-.895 2-2 2z" fill="#f6b940"/><path d="m40 57c-1.105 0-2-.895-2-2v-11h17c1.105 0 2 .895 2 2v11z" fill="#fad85d"/><g><path d="m43.929 48h14.142v2h-14.142z" fill="#fff" transform="matrix(.707 -.707 .707 .707 -19.711 50.414)"/></g><g><path d="m53 51h2v2h-2z" fill="#fff"/></g><g><path d="m47 45h2v2h-2z" fill="#fff"/></g><path d="m10 39h.816c1.07 0 2.132.071 3.184.196v-14.392c-1.052.125-2.114.196-3.184.196h-.816z" fill="#3279ea"/><path d="m10.816 25h-.816v10h4v-10.211c-1.053.126-2.113.211-3.184.211z" fill="#7aadf9"/><path d="m10 39h-4v9h2c1.105 0 2-.895 2-2z" fill="#a3a7c6"/><path d="m35 28.141v4.859c0 .552.448 1 1 1h1.445c.344-.59.555-1.268.555-2 0-1.862-1.278-3.413-3-3.859z" fill="#8389b2"/><path d="m4 40h1v9c0 1.654 1.346 3 3 3h2c1.654 0 3-1.346 3-3v-1h1c1.654 0 3-1.346 3-3s-1.346-3-3-3h-1v-1.903c6.121.506 11.809 3.126 16.201 7.519l.091.091c.181.181.431.293.708.293h4c.552 0 1-.447 1-1v-10.101c2.279-.465 4-2.484 4-4.899s-1.721-4.434-4-4.899v-10.101c0-.553-.448-1-1-1h-4c-.277 0-.527.112-.708.294l-.091.091c-4.91 4.911-11.44 7.615-18.385 7.615h-6.816c-1.654 0-3 1.346-3 3v10c0 1.654 1.346 3 3 3zm33-8c0 1.302-.839 2.402-2 2.816v-5.631c1.161.413 2 1.513 2 2.815zm-23 12c.551 0 1 .448 1 1s-.449 1-1 1h-1v-2zm-3 5c0 .552-.449 1-1 1h-2c-.551 0-1-.448-1-1v-9h3.816c.061 0 .122.004.184.004zm18-4.284c-4.004-3.432-8.824-5.636-14-6.407v-12.618c5.176-.771 9.996-2.975 14-6.407zm-16-6.624c-.663-.051-1.329-.083-2-.087v-12.009c.671-.004 1.337-.036 2-.087zm18-20.092h2v28h-2zm-28 9c0-.552.449-1 1-1h5v12h-5c-.551 0-1-.448-1-1z"/><path d="m60 6h-20c-1.654 0-3 1.346-3 3v12c0 1.654 1.346 3 3 3h1v2c0 .379.214.725.553.895.141.07.295.105.447.105.212 0 .423-.067.6-.2l3.733-2.8h13.667c1.654 0 3-1.346 3-3v-12c0-1.654-1.346-3-3-3zm1 15c0 .552-.449 1-1 1h-14c-.216 0-.427.07-.6.2l-2.4 1.8v-1c0-.553-.448-1-1-1h-2c-.551 0-1-.448-1-1v-12c0-.552.449-1 1-1h20c.551 0 1 .448 1 1z"/><path d="m43.929 14h14.142v2h-14.142z" transform="matrix(.707 -.707 .707 .707 4.331 40.456)"/><path d="m47 11h2v2h-2z"/><path d="m53 17h2v2h-2z"/><path d="m60 40h-13.667l-3.733-2.8c-.304-.229-.709-.264-1.047-.095-.339.17-.553.516-.553.895v2h-1c-1.654 0-3 1.346-3 3v12c0 1.654 1.346 3 3 3h20c1.654 0 3-1.346 3-3v-12c0-1.654-1.346-3-3-3zm1 15c0 .552-.449 1-1 1h-20c-.551 0-1-.448-1-1v-12c0-.552.449-1 1-1h2c.552 0 1-.447 1-1v-1l2.4 1.8c.173.13.384.2.6.2h14c.551 0 1 .448 1 1z"/><path d="m43.929 48h14.142v2h-14.142z" transform="matrix(.707 -.707 .707 .707 -19.711 50.414)"/><path d="m53 51h2v2h-2z"/><path d="m47 45h2v2h-2z"/></g></svg>