<svg id="Capa_1" enable-background="new 0 0 512 512" height="512" viewBox="0 0 512 512" width="512" xmlns="http://www.w3.org/2000/svg"><path d="m58.008 466.114c-27.895 0-50.508-22.613-50.508-50.508s22.613-50.508 50.508-50.508v-214.155h446.492v315.171z" fill="#e4f6ff"/><path d="m486.317 150.943v286.886c0 5.579-4.523 10.102-10.102 10.102h-417.563c-18.086 0-33.273-14.801-32.964-32.884.3-17.567 14.683-31.766 32.32-31.766h8.081c5.579 0 10.102-4.523 10.102-10.102v-222.236h-18.183v214.154c-28.182 0-50.973 23.081-50.501 51.371.462 27.694 23.635 49.645 51.332 49.645h445.661v-315.17z" fill="#d3effb"/><path d="m7.5 415.606c0-27.895 22.613-50.508 50.508-50.508v-270.724c-27.895 0-50.508 22.613-50.508 50.508z" fill="#efecef"/><path d="m82.252 45.886h422.248v70.711h-422.248z" fill="#f4dd45"/><path d="m488.338 45.886v44.447c0 5.579-4.523 10.102-10.102 10.102h-395.984v16.163h422.248v-70.712z" fill="#ecc32e"/><path d="m122.658 191.35h315.171v60.61h-315.171z" fill="#e27a66"/><g fill="#aad540"><path d="m122.658 283.274h60.61v60.61h-60.61z"/><path d="m377.22 283.274h60.61v60.61h-60.61z"/><path d="m249.939 283.274h60.61v60.61h-60.61z"/></g><path d="m176.516 458.614h-118.508c-23.715 0-43.008-19.294-43.008-43.009s19.293-43.008 43.008-43.008c4.143 0 7.5-3.357 7.5-7.5v-206.654h370.992c4.143 0 7.5-3.357 7.5-7.5s-3.357-7.5-7.5-7.5h-370.992v-49.069c0-4.143-3.357-7.5-7.5-7.5-31.986 0-58.008 26.022-58.008 58.008v270.724c0 31.986 26.022 58.009 58.008 58.009h118.508c4.143 0 7.5-3.357 7.5-7.5s-3.358-7.501-7.5-7.501zm-161.516-313.732c0-21.157 15.356-38.795 35.508-42.354v255.552c-14.011 1.817-26.471 8.652-35.508 18.639z"/><path d="m504.5 143.443h-33.042c-4.143 0-7.5 3.357-7.5 7.5s3.357 7.5 7.5 7.5h25.542v300.171h-285.5c-4.143 0-7.5 3.357-7.5 7.5s3.357 7.5 7.5 7.5h293c4.143 0 7.5-3.357 7.5-7.5v-315.171c0-4.142-3.357-7.5-7.5-7.5z"/><path d="m504.5 38.386h-422.248c-4.143 0-7.5 3.357-7.5 7.5v70.712c0 4.143 3.357 7.5 7.5 7.5h104.248c4.143 0 7.5-3.357 7.5-7.5s-3.357-7.5-7.5-7.5h-96.748v-55.712h34.498v26.846c0 4.143 3.357 7.5 7.5 7.5s7.5-3.357 7.5-7.5v-26.846h25.406v16.744c0 4.143 3.357 7.5 7.5 7.5s7.5-3.357 7.5-7.5v-16.744h25.406v26.846c0 4.143 3.357 7.5 7.5 7.5s7.5-3.357 7.5-7.5v-26.846h25.407v16.744c0 4.143 3.357 7.5 7.5 7.5s7.5-3.357 7.5-7.5v-16.744h25.406v26.846c0 4.143 3.357 7.5 7.5 7.5s7.5-3.357 7.5-7.5v-26.846h25.406v16.744c0 4.143 3.357 7.5 7.5 7.5s7.5-3.357 7.5-7.5v-16.744h25.407v26.846c0 4.143 3.357 7.5 7.5 7.5s7.5-3.357 7.5-7.5v-26.846h25.406v16.744c0 4.143 3.357 7.5 7.5 7.5s7.5-3.357 7.5-7.5v-16.744h25.406v26.846c0 4.143 3.357 7.5 7.5 7.5s7.5-3.357 7.5-7.5v-26.846h34.5v55.712h-275.437c-4.143 0-7.5 3.357-7.5 7.5s3.357 7.5 7.5 7.5h282.937c4.143 0 7.5-3.357 7.5-7.5v-70.712c0-4.143-3.357-7.5-7.5-7.5z"/><path d="m445.329 191.35c0-4.143-3.357-7.5-7.5-7.5h-315.171c-4.143 0-7.5 3.357-7.5 7.5v60.609c0 4.143 3.357 7.5 7.5 7.5h315.171c4.143 0 7.5-3.357 7.5-7.5zm-15 53.109h-300.171v-45.609h300.171z"/><path d="m122.658 351.384h60.61c4.143 0 7.5-3.357 7.5-7.5v-60.609c0-4.143-3.357-7.5-7.5-7.5h-60.61c-4.143 0-7.5 3.357-7.5 7.5v60.609c0 4.142 3.358 7.5 7.5 7.5zm7.5-60.61h45.61v45.609h-45.61z"/><path d="m445.329 283.274c0-4.143-3.357-7.5-7.5-7.5h-60.609c-4.143 0-7.5 3.357-7.5 7.5v60.609c0 4.143 3.357 7.5 7.5 7.5h60.609c4.143 0 7.5-3.357 7.5-7.5zm-15 53.11h-45.609v-45.609h45.609z"/><path d="m310.549 351.384c4.143 0 7.5-3.357 7.5-7.5v-60.609c0-4.143-3.357-7.5-7.5-7.5h-60.609c-4.143 0-7.5 3.357-7.5 7.5v60.609c0 4.143 3.357 7.5 7.5 7.5zm-53.11-60.61h45.609v45.609h-45.609z"/><path d="m437.829 372.75h-315.171c-4.143 0-7.5 3.357-7.5 7.5s3.357 7.5 7.5 7.5h315.171c4.143 0 7.5-3.357 7.5-7.5s-3.357-7.5-7.5-7.5z"/><path d="m437.829 406.085h-315.171c-4.143 0-7.5 3.357-7.5 7.5s3.357 7.5 7.5 7.5h315.171c4.143 0 7.5-3.357 7.5-7.5s-3.357-7.5-7.5-7.5z"/></svg>