<svg id="Capa_1" enable-background="new 0 0 512 512" height="512" viewBox="0 0 512 512" width="512" xmlns="http://www.w3.org/2000/svg"><g><path d="m351.814 370.976 10.367-2.789 30.296 113.065c1.495 5.581-3.77 10.61-9.276 8.859l-42.627-13.55-30.139 33.05c-3.893 4.269-10.967 2.548-12.463-3.033l-28.498-106.329z" fill="#f07281"/><path d="m160.469 371.14 82.017 29.235-28.457 106.202c-1.496 5.581-8.57 7.303-12.463 3.034l-30.138-33.049-42.628 13.549c-5.507 1.75-10.772-3.278-9.276-8.86l30.274-112.96c0 .001 10.671 2.849 10.671 2.849z" fill="#f07281"/><path d="m402.962 357.224-49.256 13.243c-1.239.333-2.369.987-3.276 1.895l-36.036 36.097c-1.845 1.848-4.536 2.572-7.06 1.898l-49.279-13.159c-1.24-.331-2.545-.33-3.784.003l-49.256 13.243c-2.522.678-5.215-.041-7.063-1.886l-36.097-36.036c-.908-.907-2.039-1.558-3.279-1.889l-49.279-13.159c-2.523-.674-4.496-2.643-5.174-5.165l-13.243-49.255c-.333-1.239-.987-2.369-1.895-3.276l-36.097-36.036c-1.848-1.845-2.572-4.536-1.898-7.06l13.159-49.279c.331-1.24.33-2.545-.003-3.784l-13.243-49.256c-.678-2.522.041-5.215 1.886-7.063l36.036-36.097c.907-.908 1.558-2.039 1.889-3.279l13.159-49.279c.674-2.523 2.643-4.496 5.165-5.174l49.256-13.243c1.239-.333 2.369-.987 3.276-1.895l36.036-36.097c1.845-1.848 4.536-2.572 7.06-1.898l49.279 13.159c1.24.331 2.545.33 3.784-.003l49.256-13.243c2.522-.678 5.215.041 7.063 1.886l36.097 36.036c.908.907 2.039 1.558 3.279 1.889l49.279 13.159c2.523.674 4.496 2.643 5.174 5.165l13.243 49.256c.333 1.239.987 2.369 1.895 3.276l36.097 36.036c1.848 1.845 2.572 4.536 1.898 7.06l-13.159 49.279c-.331 1.24-.33 2.545.003 3.784l13.243 49.256c.678 2.522-.041 5.215-1.886 7.063l-36.036 36.097c-.907.908-1.558 2.039-1.889 3.279l-13.159 49.279c-.674 2.523-2.642 4.495-5.165 5.173z" fill="#ffc344"/><circle cx="256" cy="205.348" fill="#fee97d" r="156.655"/><path d="m292.553 357.712c-11.728 2.809-23.968 4.292-36.553 4.292-86.516 0-156.655-70.14-156.655-156.655s70.139-156.655 156.655-156.655c12.585 0 24.825 1.483 36.553 4.292-68.886 16.459-120.102 78.432-120.102 152.363s51.215 135.904 120.102 152.363z" fill="#fee45a"/><path d="m319.041 266.447h8.034c8.874 0 16.067 7.193 16.067 16.067 0 8.874-7.193 16.067-16.067 16.067h-86.175c-4.34 0-8.539-1.47-11.983-4.111-9.083-6.965-18.695-8.44-30.378-9.134v-102.169c27.475-31.392 62.293-34.342 59.856-81.252-.422-8.117 6.047-14.933 14.175-14.933 6.217 0 11.745 4.035 13.56 9.982 7.374 24.171 9.218 48.159-.517 73.081h58.757c8.874 0 16.067 7.193 16.067 16.067 0 8.874-7.193 16.067-16.067 16.067h-19.988 14.547c8.874 0 16.067 7.193 16.067 16.067 0 8.874-7.193 16.067-16.067 16.067h-14.547 9.206c8.874 0 16.067 7.193 16.067 16.067 0 8.874-7.193 16.067-16.067 16.067z" fill="#fff3de"/><path d="m198.539 172.128v11.039l5.222 4.25v92.165l-5.222 5.754v10.183c0 4.038-3.273 7.311-7.311 7.311h-57.858c-21.305-26.757-34.026-60.636-34.026-97.481 0-14.015 1.838-27.603 5.295-40.532h86.588c4.039 0 7.312 3.273 7.312 7.311z" fill="#8ac9fe"/><path d="m319.041 266.447h8.034c8.874 0 16.067 7.193 16.067 16.067 0 8.874-7.193 16.067-16.067 16.067h-86.175c-4.34 0-8.539-1.47-11.983-4.111-9.083-6.965-18.695-8.44-30.378-9.134v-102.169c27.475-31.392 62.293-34.342 59.856-81.252-.422-8.117 6.047-14.933 14.175-14.933 6.217 0 11.745 4.035 13.56 9.982 7.374 24.171 9.218 48.159-.517 73.081h58.757c8.874 0 16.067 7.193 16.067 16.067 0 8.874-7.193 16.067-16.067 16.067h-19.988 14.547c8.874 0 16.067 7.193 16.067 16.067 0 8.874-7.193 16.067-16.067 16.067h-14.547 9.206c8.874 0 16.067 7.193 16.067 16.067 0 8.874-7.193 16.067-16.067 16.067z" fill="#f1b0a2"/><path d="m292.056 141.529c-10.694 12.465-26.941 20.621-41.997 35.382-3.771 3.697-5.924 8.739-5.924 14.019v77.099c0 9.081 6.14 17.116 14.972 19.225 7.19 1.717 13.692 4.927 20.059 11.326h-38.268c-4.338 0-8.537-1.469-11.98-4.108-9.084-6.962-18.697-8.439-30.378-9.134v-102.168c27.494-31.415 62.342-34.346 59.847-81.355-.423-8.077 6.09-14.832 14.18-14.832 3.107 0 6.051 1.01 8.435 2.762s4.221 4.24 5.126 7.217c4.528 14.838 6.971 29.605 5.928 44.567z" fill="#eb9c8d"/><g fill="#eb5569"><path d="m362.64 389.691-39.767 39.835c-1.844 1.847-2.563 4.536-1.888 7.057l12.726 47.498-23.277 25.529c-3.893 4.27-10.968 2.548-12.463-3.033l-28.498-106.328 37.858 10.109c2.527.668 5.222-.052 7.06-1.901l36.041-36.093c.909-.909 2.037-1.567 3.279-1.901l8.47-2.277 5.41 20.177z"/><path d="m242.486 400.374-6.245 23.3-38.685 10.411c-1.757.473-3.632-.028-4.92-1.314-2.771-2.768-7.499-1.5-8.514 2.284l-11.484 42.843-1.211-1.337-42.627 13.55c-5.507 1.75-10.772-3.278-9.276-8.86l30.274-112.96 8.783 2.339c1.232.334 2.371.982 3.269 1.89l36.104 36.041c1.849 1.838 4.543 2.559 7.06 1.88z"/></g></g></svg>