<svg id="Capa_1" enable-background="new 0 0 514.028 514.028" height="512" viewBox="0 0 514.028 514.028" width="512" xmlns="http://www.w3.org/2000/svg"><g><g><path d="m312.982 203.467c4.778 2.512 10.362-1.545 9.449-6.866l-10.206-59.503c-.362-2.113.338-4.268 1.873-5.765l43.232-42.141c3.865-3.768 1.732-10.333-3.609-11.109l-59.745-8.681c-2.121-.308-3.955-1.641-4.904-3.563l-26.719-54.138c-2.389-4.841-9.291-4.841-11.681 0l-26.717 54.139c-.948 1.922-2.782 3.255-4.904 3.563l-59.745 8.681c-5.342.776-7.475 7.341-3.609 11.109l43.232 42.141c1.535 1.496 2.235 3.652 1.873 5.765l-10.206 59.503c-.913 5.32 4.672 9.378 9.449 6.866l56.468-28.461z" fill="#fbe88c"/><path d="m322.432 196.602-1.971-11.494c-1.222.141-2.516-.06-3.758-.713l-56.468-28.461-24.893 12.546c-5.995 3.021-12.875-2.068-11.74-8.685l1.898-11.068c1.167-6.806-1.089-13.751-6.034-18.571l-25.457-24.815c-6.628-6.461-2.971-17.718 6.19-19.05l35.331-5.134c6.74-.979 12.566-5.213 15.581-11.32l19.969-40.461-8.724-17.677c-2.389-4.841-9.291-4.841-11.681 0l-26.72 54.141c-.949 1.922-2.782 3.254-4.904 3.563l-59.745 8.681c-5.342.776-7.475 7.341-3.609 11.109l43.232 42.141c1.535 1.496 2.235 3.652 1.873 5.765l-10.206 59.503c-.913 5.32 4.672 9.378 9.449 6.866l56.468-28.461 56.468 28.461c4.779 2.511 10.363-1.546 9.451-6.866z" fill="#fbe372"/><path d="m86.733 91.732 19.487 39.485c.692 1.402 2.029 2.374 3.576 2.598l43.575 6.332c3.896.566 5.452 5.354 2.633 8.102l-31.531 30.735c-1.12 1.091-1.63 2.664-1.366 4.204l7.443 43.398c.666 3.88-3.407 6.839-6.892 5.007l-38.974-20.49c-1.384-.728-3.037-.728-4.421 0l-38.974 20.49c-3.485 1.832-7.558-1.127-6.892-5.007l7.443-43.398c.264-1.541-.247-3.113-1.366-4.204l-31.53-30.734c-2.819-2.748-1.264-7.536 2.633-8.102l43.575-6.332c1.547-.225 2.885-1.197 3.576-2.598l19.487-39.485c1.742-3.531 6.776-3.531 8.518-.001z" fill="#fbe88c"/><path d="m130.55 226.587-1.612-9.397c-1.013.214-2.118.104-3.17-.449l-38.974-20.49c-1.384-.727-3.037-.727-4.421 0l-19.185 10.086c-3.314 1.742-7.188-1.072-6.555-4.762l2.657-15.493c.5-2.918-.467-5.895-2.587-7.961l-22.451-21.884c-4.068-3.966-1.823-10.875 3.799-11.692l30.576-4.443c3.211-.467 5.987-2.483 7.423-5.393l15.946-32.309-5.264-10.667c-1.742-3.53-6.777-3.53-8.519 0l-19.487 39.485c-.692 1.402-2.029 2.374-3.576 2.598l-43.575 6.332c-3.896.566-5.452 5.354-2.633 8.102l31.531 30.735c1.12 1.091 1.63 2.664 1.366 4.205l-7.443 43.398c-.666 3.88 3.407 6.839 6.892 5.007l38.974-20.49c1.384-.728 3.037-.728 4.421 0l38.974 20.49c3.486 1.832 7.559-1.127 6.893-5.008z" fill="#fbe372"/><path d="m427.294 91.732-19.487 39.485c-.692 1.402-2.029 2.374-3.576 2.598l-43.575 6.332c-3.896.566-5.452 5.354-2.633 8.102l31.531 30.735c1.12 1.091 1.63 2.664 1.366 4.204l-7.443 43.398c-.666 3.88 3.407 6.839 6.892 5.007l38.974-20.49c1.384-.728 3.037-.728 4.421 0l38.974 20.49c3.485 1.832 7.558-1.127 6.892-5.007l-7.443-43.398c-.264-1.541.247-3.113 1.366-4.204l31.531-30.735c2.819-2.748 1.264-7.536-2.633-8.102l-43.575-6.332c-1.547-.225-2.885-1.197-3.576-2.598l-19.487-39.485c-1.742-3.53-6.776-3.53-8.519 0z" fill="#fbe88c"/><path d="m479.631 226.588-1.04-6.062c-.022-.011-.045-.017-.067-.027l-43.268-21.311c-1.547-.762-3.361-.762-4.908 0l-12.46 6.137c-4.826 2.377-10.32-1.699-9.444-7.007l1.787-10.834c.247-1.5-.231-3.03-1.279-4.092l-29.512-29.913c-2.639-2.675-1.183-7.335 2.464-7.885l40.785-6.163c1.448-.219 2.7-1.164 3.348-2.529l15.721-33.124-5.944-12.045c-1.742-3.53-6.777-3.53-8.519 0l-19.487 39.485c-.692 1.402-2.029 2.374-3.576 2.598l-43.574 6.332c-3.896.566-5.452 5.354-2.633 8.102l31.531 30.735c1.119 1.091 1.63 2.663 1.366 4.204l-7.443 43.398c-.665 3.88 3.407 6.839 6.892 5.007l38.974-20.49c1.384-.728 3.037-.728 4.421 0l38.974 20.49c3.483 1.833 7.556-1.126 6.891-5.006z" fill="#fbe372"/><g id="XMLID_179_"><g><path d="m356.844 289.903c0-5.58 2.26-10.62 5.91-14.28 3.65-3.65 8.7-5.91 14.27-5.91 11.15 0 20.19 9.04 20.19 20.19v30.77 95.78c0 24.71-10.02 47.09-26.21 63.29-16.2 16.19-38.57 26.21-63.29 26.21-42.83 0-79.66-30.34-87.85-72.38l-4.52-23.23c-.29-1.47-.83-2.88-1.61-4.16l-51.02-84.76c-2.13-3.54-3.16-7.48-3.16-11.39 0-5.77 2.26-11.49 6.61-15.76 8.92-8.76 23.31-8.38 31.76.84l34.02 37.12c1.34 1.46 3.77.52 3.77-1.46v-161.12c0-5.57 2.26-10.62 5.91-14.27 3.66-3.65 8.71-5.91 14.28-5.91 11.15 0 20.19 9.03 20.19 20.18v94.77c0-11.15 9.03-20.18 20.18-20.18 5.58 0 10.62 2.26 14.28 5.91 3.65 3.65 5.91 8.69 5.91 14.27v11.29c0-11.14 9.04-20.18 20.19-20.18 5.58 0 10.62 2.26 14.28 5.91 3.65 3.66 5.91 8.7 5.91 14.27z" fill="#ffe6c6"/></g><g><path d="m328.455 487.775c-42.83 0-79.66-30.34-87.85-72.38l-4.52-23.23c-.29-1.47-.83-2.88-1.61-4.16l-51.02-84.76c-2.13-3.54-3.16-7.48-3.16-11.39 0-1.298.125-2.612.352-3.89-5.245.232-10.427 2.325-14.483 6.308-4.35 4.27-6.61 9.99-6.61 15.76 0 3.91 1.03 7.85 3.16 11.39l51.02 84.76c.78 1.28 1.32 2.69 1.61 4.16l4.52 23.23c8.19 42.04 45.02 72.38 87.85 72.38 24.72 0 47.09-10.02 63.29-26.21 1.868-1.869 3.644-3.808 5.342-5.836-13.85 8.789-30.269 13.868-47.891 13.868z" fill="#f8d3aa"/></g><path d="m261.814 155.383c1.243-1.24 2.663-2.322 4.193-3.207-2.973-1.721-6.42-2.703-10.103-2.703-5.57 0-10.62 2.26-14.28 5.91-3.65 3.65-5.91 8.7-5.91 14.27v158.06c11.151 0 20.19-9.039 20.19-20.19v-137.87c0-5.57 2.26-10.62 5.91-14.27z" fill="#f8d3aa"/></g></g><g><path d="m130.744 183.346 30.495-29.726c3.363-3.278 4.551-8.09 3.1-12.557s-5.24-7.662-9.89-8.338l-42.143-6.124-18.847-38.188c-2.078-4.212-6.287-6.828-10.983-6.829-.001 0-.001 0-.002 0-4.696 0-8.905 2.616-10.985 6.828l-18.847 38.189-42.145 6.124c-4.648.676-8.438 3.871-9.889 8.338-1.451 4.467-.264 9.278 3.1 12.557l30.496 29.726-7.198 41.973c-.795 4.629 1.072 9.221 4.872 11.982 2.147 1.56 4.66 2.353 7.189 2.353 1.946 0 3.903-.47 5.712-1.42l37.694-19.817 37.695 19.817c4.154 2.185 9.1 1.829 12.9-.933 3.8-2.76 5.667-7.351 4.873-11.981zm-15.028 1.111 6.501 37.907-34.042-17.897c-1.785-.938-3.742-1.408-5.701-1.408-1.957 0-3.915.469-5.7 1.407l-34.042 17.897 6.502-37.91c.68-3.974-.638-8.026-3.523-10.839l-27.541-26.846 38.062-5.53c3.989-.581 7.437-3.085 9.223-6.701l17.021-34.489 17.021 34.487c1.784 3.617 5.231 6.122 9.225 6.703l38.06 5.531-27.541 26.846c-2.891 2.814-4.208 6.868-3.525 10.842z"/><path d="m513.419 141.063c-1.451-4.467-5.24-7.662-9.89-8.338l-42.144-6.124-18.848-38.19c-2.079-4.211-6.289-6.828-10.986-6.827-4.696 0-8.905 2.617-10.983 6.829l-18.848 38.189-42.144 6.124c-4.648.676-8.438 3.871-9.889 8.338s-.264 9.278 3.1 12.557l30.495 29.726-7.199 41.975c-.793 4.629 1.074 9.22 4.874 11.98 3.8 2.761 8.742 3.117 12.901.933l37.694-19.817 37.694 19.817c1.809.951 3.765 1.421 5.712 1.42 2.529 0 5.042-.792 7.189-2.353 3.8-2.761 5.667-7.353 4.872-11.981l-7.198-41.974 30.496-29.726c3.366-3.279 4.553-8.091 3.102-12.558zm-45.101 32.551c-2.886 2.813-4.203 6.866-3.522 10.843l6.501 37.906-34.042-17.896c-3.568-1.876-7.831-1.877-11.401 0l-34.042 17.897 6.501-37.905c.683-3.976-.634-8.029-3.521-10.844l-27.541-26.846 38.062-5.53c3.991-.581 7.438-3.086 9.222-6.701l17.021-34.489 17.021 34.491c1.785 3.614 5.232 6.119 9.224 6.699l38.06 5.531z"/><path d="m385.749 460.938c-3.414-2.347-8.082-1.483-10.43 1.928-15.331 22.285-40.604 35.59-67.606 35.59-39.151 0-73.001-27.892-80.488-66.321l-4.523-23.218c-.454-2.336-1.308-4.556-2.538-6.603l-51.023-84.759c-3.496-5.809-2.56-13.183 2.277-17.932 2.849-2.797 6.586-4.283 10.605-4.174 3.99.105 7.673 1.784 10.37 4.727l34.024 37.129c2.714 2.961 6.889 3.935 10.633 2.478s6.164-4.994 6.164-9.011v-76.292c0-4.142-3.357-7.5-7.5-7.5s-7.5 3.358-7.5 7.5v62.584l-24.763-27.022c-5.47-5.969-12.94-9.374-21.034-9.587-8.065-.215-15.732 2.793-21.51 8.466-9.811 9.633-11.71 24.589-4.619 36.371l51.021 84.756c.324.538.548 1.122.668 1.736l4.524 23.221c8.855 45.458 48.898 78.453 95.211 78.453 31.94 0 61.834-15.734 79.964-42.088 2.349-3.415 1.485-8.084-1.927-10.432z"/><path d="m377.027 262.218c-5.254 0-10.171 1.471-14.36 4.023-3.878-10.614-14.076-18.21-26.016-18.21-5.66 0-10.927 1.71-15.316 4.637-4.43-9.402-13.995-15.927-25.059-15.927-4.571 0-8.884 1.12-12.688 3.091v-43.342l25.903 13.617c2.068 1.088 4.307 1.625 6.533 1.625 2.894 0 5.767-.907 8.223-2.691 4.348-3.158 6.483-8.41 5.575-13.706l-10.118-58.992 6.556-6.389c2.966-2.891 3.026-7.639.136-10.605s-7.638-3.027-10.606-.136l-6.928 6.752c-3.303 3.221-4.809 7.857-4.028 12.402l9.867 57.532-31.112-16.357v-9.885c0-15.267-12.421-27.688-27.687-27.688s-27.688 12.42-27.688 27.688v10.528l-29.888 15.713 9.867-57.531c.78-4.545-.726-9.182-4.029-12.403l-41.799-40.744 57.764-8.394c4.563-.663 8.508-3.528 10.552-7.666l25.833-52.344 25.834 52.346c2.043 4.136 5.987 7 10.551 7.663l57.764 8.394-11.494 11.205c-2.966 2.892-3.026 7.64-.135 10.606 2.891 2.965 7.64 3.028 10.605.135l12.926-12.6c3.848-3.75 5.207-9.254 3.547-14.365s-5.995-8.765-11.312-9.537l-59.23-8.607-26.491-53.673c-2.378-4.818-7.192-7.812-12.565-7.812s-10.187 2.993-12.565 7.811l-26.489 53.672-59.23 8.607c-5.317.772-9.652 4.427-11.312 9.537s-.301 10.615 3.546 14.364l42.86 41.778-10.119 58.993c-.907 5.295 1.229 10.547 5.576 13.705 2.456 1.784 5.329 2.691 8.223 2.691 2.227 0 4.465-.538 6.533-1.625l24.679-12.974v25.267c0 4.142 3.357 7.5 7.5 7.5s7.5-3.358 7.5-7.5v-52.742c0-6.996 5.691-12.688 12.688-12.688 6.996 0 12.687 5.691 12.687 12.688v125.54c0 4.142 3.357 7.5 7.5 7.5s7.5-3.358 7.5-7.5v-30.769c0-6.996 5.691-12.687 12.688-12.687s12.688 5.691 12.688 12.687v42.059c0 4.142 3.357 7.5 7.5 7.5s7.5-3.358 7.5-7.5v-30.769c0-6.996 5.691-12.688 12.688-12.688s12.688 5.691 12.688 12.688v44.956c0 4.142 3.357 7.5 7.5 7.5s7.5-3.358 7.5-7.5v-30.769c0-6.996 5.692-12.688 12.688-12.688s12.688 5.691 12.688 12.688v126.549c0 6.647-.803 13.275-2.388 19.698-.991 4.022 1.465 8.086 5.486 9.078.604.149 1.207.22 1.802.22 3.37 0 6.433-2.288 7.276-5.706 1.873-7.598 2.823-15.434 2.823-23.29v-126.547c-.003-15.267-12.424-27.687-27.691-27.687z"/></g></g></svg>