<svg height="510pt" viewBox="-63 0 510 510.656" width="510pt" xmlns="http://www.w3.org/2000/svg"><path d="m272.328125 422.65625c0 44.183594-35.816406 80-80 80s-80-35.816406-80-80 35.816406-80 80-80 80 35.816406 80 80zm0 0" fill="#ffd54f"/><path d="m328.328125 102.65625h-272v40l104 104v64l64-16v-48l104-104zm0 0" fill="#90a4ae"/><path d="m200.328125 414.65625h-16c-4.417969 0-8-3.582031-8-8s3.582031-8 8-8h32v-16h-16v-16h-16v16c-13.253906 0-24 10.746094-24 24s10.746094 24 24 24h16c4.417969 0 8 3.582031 8 8s-3.582031 8-8 8h-32v16h16v16h16v-16c13.253906 0 24-10.746094 24-24s-10.746094-24-24-24zm0 0" fill="#fff"/><path d="m221.984375 196.3125-11.3125-11.3125-10.34375 10.34375v-52.6875h-16v52.6875l-10.34375-10.34375-11.3125 11.3125 29.65625 29.65625zm0 0" fill="#fff"/><path d="m192.328125 334.65625c-48.601563 0-88 39.398438-88 88s39.398437 88 88 88 88-39.398438 88-88c-.058594-48.578125-39.421875-87.941406-88-88zm0 160c-39.765625 0-72-32.234375-72-72s32.234375-72 72-72 72 32.234375 72 72c-.046875 39.746094-32.253906 71.953125-72 72zm0 0"/><path d="m220.769531 13.3125-8.882812-13.3125-19.558594 13.039062-19.558594-13.039062-8.882812 13.3125 28.441406 18.960938zm0 0"/><path d="m220.769531 57.3125-8.882812-13.3125-19.558594 13.039062-19.558594-13.039062-8.882812 13.3125 28.441406 18.960938zm0 0"/><path d="m324.769531 13.3125-8.882812-13.3125-19.558594 13.039062-19.558594-13.039062-8.882812 13.3125 28.441406 18.960938zm0 0"/><path d="m324.769531 57.3125-8.882812-13.3125-19.558594 13.039062-19.558594-13.039062-8.882812 13.3125 28.441406 18.960938zm0 0"/><path d="m116.769531 13.3125-8.882812-13.3125-19.558594 13.039062-19.558594-13.039062-8.882812 13.3125 28.441406 18.960938zm0 0"/><path d="m116.769531 57.3125-8.882812-13.3125-19.558594 13.039062-19.558594-13.039062-8.882812 13.3125 28.441406 18.960938zm0 0"/><path d="m152.328125 320.902344 80-20v-50.933594l104-104v-51.3125h-288v51.3125l104 104zm-88-181.558594v-28.6875h256v28.6875l-104 104v45.0625l-48 12v-57.0625zm0 0"/><path d="m368.328125 318.65625h16v192h-16zm0 0"/><path d="m336.328125 350.65625h16v160h-16zm0 0"/><path d="m.328125 318.65625h16v192h-16zm0 0"/><path d="m32.328125 350.65625h16v160h-16zm0 0"/><path d="m304.328125 382.65625h16v128h-16zm0 0"/><path d="m64.328125 382.65625h16v128h-16zm0 0"/><path d="m64.328125 350.65625h16v16h-16zm0 0"/><path d="m32.328125 318.65625h16v16h-16zm0 0"/><path d="m.328125 286.65625h16v16h-16zm0 0"/><path d="m304.328125 350.65625h16v16h-16zm0 0"/><path d="m336.328125 318.65625h16v16h-16zm0 0"/><path d="m368.328125 286.65625h16v16h-16zm0 0"/></svg>