<svg id="Capa_1" enable-background="new 0 0 512 512" height="512" viewBox="0 0 512 512" width="512" xmlns="http://www.w3.org/2000/svg"><g><path d="m266.568 274.681s-2.51-7.728-3.609-10.074c-2.387-5.097-3.315-10.759-2.586-16.34 1.63-12.483 2.061-25.219 2.434-37.169.616-19.709-1.791-42.357-15.319-57.743-11.075-12.596-27.339-19.905-44.12-19.797-6.475.042-11.642 5.444-11.642 11.919v34.347c0 26.578-4.899 56.69-22.124 77.907-22.768 28.045-50.745 24.257-82.906 24.303v189.496h25.801c6.881 0 13.53 2.375 18.914 6.661 8.778 6.987 25.928 25.009 52.282 25.009h164.347v-228.519z" fill="#fed2a4"/><path d="m74.129 511.123h-53.949c-11.145 0-20.18-9.035-20.18-20.18v-225.877c0-11.145 9.035-20.18 20.18-20.18h53.949c11.145 0 20.18 9.035 20.18 20.18v225.876c-.001 11.146-9.035 20.181-20.18 20.181z" fill="#57be92"/><path d="m94.311 265.068v225.873c0 11.151-9.037 20.178-20.188 20.178h-20.516c11.151 0 20.188-9.027 20.188-20.178v-225.873c0-11.151-9.037-20.178-20.188-20.178h20.516c11.151 0 20.188 9.028 20.188 20.178z" fill="#09a76d"/><g><g><path d="m203.368 133.557c16.781-.109 33.045 7.2 44.12 19.797 13.528 15.386 15.935 38.034 15.319 57.743-.373 11.95-.804 24.686-2.434 37.169-.729 5.581.199 11.243 2.586 16.34.689 1.471 1.932 5.056 2.764 7.527 1.471 4.369 2.539 9.602 2.751 14.201.367 7.966-.908 17.206-5.41 27.213 0 0-8.361 18.915-31.478 29.173-8.381 3.719-17.913-.849-18.395-10.394-.174-3.44 1.099-6.69 3.366-9.214 4.24-4.721 10.57-6.805 15.217-11.026 6.243-5.669 10.331-13.024 10.236-21.613-.072-6.504-1.715-12.932-4.05-18.971-1.97-5.093-3.998-10.227-4.445-15.723-.275-3.382.149-6.904.555-10.258.779-6.442 2.131-12.816 2.46-19.308.431-8.497-.248-17.034-1.811-25.392-3.123-16.707-9.704-32.769-18.727-47.146z" fill="#ffbd86"/></g></g><path d="m411.428 13.038 20.223 40.977c3.178 6.439 9.32 10.901 16.425 11.934l45.22 6.571c17.893 2.6 25.038 24.589 12.09 37.21l-32.722 31.896c-5.142 5.012-7.488 12.233-6.274 19.309l7.725 45.038c3.057 17.821-15.648 31.411-31.653 22.997l-40.446-21.264c-6.355-3.341-13.948-3.341-20.303 0l-40.446 21.264c-16.004 8.414-34.709-5.176-31.653-22.997l7.725-45.038c1.214-7.077-1.132-14.298-6.274-19.309l-32.722-31.896c-12.948-12.621-5.803-34.61 12.09-37.21l45.22-6.571c7.105-1.032 13.248-5.495 16.425-11.934l20.223-40.977c8.004-16.214 31.125-16.214 39.127 0z" fill="#fee45a"/><path d="m472.66 141.622c-5.139 5.016-7.478 12.238-6.268 19.316l7.724 45.033c3.057 17.818-15.654 31.41-31.656 22.999l-2.339-1.231c8.094-4.257 13.561-13.305 11.766-23.758l-7.971-46.5c-1.251-7.304 1.17-14.761 6.473-19.942l33.79-32.928c10.248-9.981 8.309-25.645-1.477-33.626l10.597 1.539c17.89 2.595 25.04 24.589 12.084 37.206z" fill="#fed402"/><g><g fill="#f6a96c"><path d="m388.951 331.416h-66.197c-15.812 0-28.63-12.818-28.63-28.63 0-15.812 12.818-28.63 28.63-28.63h66.197c15.812 0 28.63 12.818 28.63 28.63 0 15.812-12.818 28.63-28.63 28.63z"/><path d="m389.921 445.935h-66.197c-15.812 0-28.63-12.818-28.63-28.63 0-15.812 12.818-28.63 28.63-28.63h66.197c15.812 0 28.63 12.818 28.63 28.63 0 15.812-12.818 28.63-28.63 28.63z"/><path d="m373.569 503.2h-66.197c-15.812 0-28.63-12.818-28.63-28.63 0-15.812 12.818-28.63 28.63-28.63h66.197c15.812 0 28.63 12.818 28.63 28.63 0 15.812-12.818 28.63-28.63 28.63z"/><path d="m403.368 388.676h-66.197c-15.812 0-28.63-12.818-28.63-28.63 0-15.812 12.818-28.63 28.63-28.63h66.197c15.812 0 28.63 12.818 28.63 28.63-.001 15.812-12.819 28.63-28.63 28.63z"/></g><path d="m417.577 302.789c0 3.621-.679 7.099-1.914 10.288-4.125-10.73-14.526-18.343-26.707-18.343h-66.202c-7.911 0-15.061 3.2-20.246 8.385-2.798 2.809-5.02 6.193-6.471 9.959-1.235-3.189-1.914-6.666-1.914-10.288 0-7.901 3.21-15.061 8.384-20.246 5.185-5.185 12.335-8.385 20.246-8.385h66.202c15.804-.001 28.622 12.817 28.622 28.63z" fill="#ea9b58"/><path d="m418.547 417.31c0 3.621-.679 7.099-1.914 10.288-4.125-10.73-14.526-18.343-26.707-18.343h-66.202c-7.911 0-15.061 3.2-20.246 8.385-2.798 2.809-5.02 6.193-6.471 9.959-1.235-3.189-1.914-6.666-1.914-10.288 0-7.901 3.21-15.061 8.384-20.246 5.185-5.185 12.335-8.385 20.246-8.385h66.202c15.803-.001 28.622 12.818 28.622 28.63z" fill="#ea9b58"/><path d="m402.2 474.566c0 3.632-.669 7.099-1.914 10.288-4.125-10.73-14.537-18.343-26.717-18.343h-66.192c-7.901 0-15.061 3.21-20.246 8.384-2.809 2.809-5.031 6.183-6.471 9.959-1.245-3.189-1.913-6.656-1.913-10.288 0-7.911 3.199-15.061 8.384-20.246 5.185-5.175 12.345-8.384 20.246-8.384h66.192c15.812-.001 28.631 12.818 28.631 28.63z" fill="#ea9b58"/><path d="m431.993 360.048c0 3.621-.669 7.099-1.914 10.288-4.125-10.73-14.526-18.343-26.707-18.343h-66.202c-7.901 0-15.061 3.199-20.246 8.385-2.809 2.809-5.031 6.193-6.471 9.959-1.245-3.189-1.913-6.667-1.913-10.288 0-7.901 3.199-15.061 8.384-20.246s12.345-8.385 20.246-8.385h66.202c15.812-.001 28.621 12.818 28.621 28.63z" fill="#ea9b58"/></g></g></svg>