<svg id="Capa_1" enable-background="new 0 0 512 512" height="512" viewBox="0 0 512 512" width="512" xmlns="http://www.w3.org/2000/svg"><g><path d="m7.5 449.056c0 5.523 4.477 10 10 10h477c5.523 0 10-4.477 10-10v-321.869h-497z" fill="#d8ecfe"/><path d="m38 449.056v-320.869h-30.5v320.869c0 5.523 4.477 10 10 10h30.5c-5.523 0-10-4.477-10-10z" fill="#c4e2ff"/><g><path d="m504.5 128.187h-497v-65.243c0-5.523 4.477-10 10-10h477c5.523 0 10 4.477 10 10z" fill="#0593fc"/></g><g><path d="m48 52.944h-30.5c-5.523 0-10 4.477-10 10v65.242h30.5v-65.242c0-5.523 4.477-10 10-10z" fill="#0182fc"/></g><g><g><g><path d="m457.108 340.941h-102.97c-2.943 0-5.329-2.386-5.329-5.329v-36.129c0-2.943 2.386-5.329 5.329-5.329h102.97c2.943 0 5.329 2.386 5.329 5.329v36.129c0 2.943-2.386 5.329-5.329 5.329z" fill="#fe646f"/></g><g><path d="m369.371 335.612v-36.13c0-2.943 2.386-5.329 5.329-5.329h-20.563c-2.943 0-5.329 2.386-5.329 5.329v36.13c0 2.943 2.386 5.329 5.329 5.329h20.563c-2.943 0-5.329-2.386-5.329-5.329z" fill="#fd4755"/></g></g><g><g><path d="m258.433 413.532h-102.97c-2.943 0-5.329-2.386-5.329-5.329v-36.129c0-2.943 2.386-5.329 5.329-5.329h102.97c2.943 0 5.329 2.386 5.329 5.329v36.129c0 2.943-2.386 5.329-5.329 5.329z" fill="#fe646f"/></g><g><path d="m171 408.202v-36.13c0-2.943 2.386-5.329 5.329-5.329h-20.867c-2.943 0-5.329 2.386-5.329 5.329v36.13c0 2.943 2.386 5.329 5.329 5.329h20.867c-2.943.001-5.329-2.385-5.329-5.329z" fill="#fd4755"/></g></g><g><g><path d="m358.181 413.532h-60.956c-2.943 0-5.329-2.386-5.329-5.329v-36.129c0-2.943 2.386-5.329 5.329-5.329h60.956c2.943 0 5.329 2.386 5.329 5.329v36.129c0 2.943-2.386 5.329-5.329 5.329z" fill="#6cf5c2"/></g><g><path d="m312.385 408.202v-36.13c0-2.943 2.386-5.329 5.329-5.329h-20.49c-2.943 0-5.329 2.386-5.329 5.329v36.13c0 2.943 2.386 5.329 5.329 5.329h20.49c-2.943.001-5.329-2.385-5.329-5.329z" fill="#00f2a6"/></g></g><g><g><path d="m457.108 413.532h-60.956c-2.943 0-5.329-2.386-5.329-5.329v-36.129c0-2.943 2.386-5.329 5.329-5.329h60.956c2.943 0 5.329 2.386 5.329 5.329v36.129c0 2.943-2.386 5.329-5.329 5.329z" fill="#fed402"/></g><g><path d="m411.385 408.202v-36.13c0-2.943 2.386-5.329 5.329-5.329h-20.563c-2.943 0-5.329 2.386-5.329 5.329v36.13c0 2.943 2.386 5.329 5.329 5.329h20.563c-2.943.001-5.329-2.385-5.329-5.329z" fill="#fac600"/></g></g><g><g><path d="m216.419 340.941h-60.956c-2.943 0-5.329-2.386-5.329-5.329v-36.129c0-2.943 2.386-5.329 5.329-5.329h60.956c2.943 0 5.329 2.386 5.329 5.329v36.129c0 2.943-2.386 5.329-5.329 5.329z" fill="#6cf5c2"/></g><g><path d="m171 335.612v-36.13c0-2.943 2.386-5.329 5.329-5.329h-20.867c-2.943 0-5.329 2.386-5.329 5.329v36.13c0 2.943 2.386 5.329 5.329 5.329h20.867c-2.943 0-5.329-2.386-5.329-5.329z" fill="#00f2a6"/></g></g><g><g><path d="m315.546 340.941h-60.956c-2.943 0-5.329-2.386-5.329-5.329v-36.129c0-2.943 2.386-5.329 5.329-5.329h60.956c2.943 0 5.329 2.386 5.329 5.329v36.129c0 2.943-2.386 5.329-5.329 5.329z" fill="#0593fc"/></g><g><path d="m270 335.612v-36.13c0-2.943 2.386-5.329 5.329-5.329h-20.74c-2.943 0-5.329 2.386-5.329 5.329v36.13c0 2.943 2.386 5.329 5.329 5.329h20.74c-2.943 0-5.329-2.386-5.329-5.329z" fill="#0182fc"/></g></g></g><g><g><path d="m80.455 357.616c-11.429 0-20.694-9.265-20.694-20.694v-22.074c0-11.429 9.265-20.694 20.694-20.694 11.429 0 20.694 9.265 20.694 20.694v22.074c.001 11.428-9.265 20.694-20.694 20.694z" fill="#838383"/></g><g><path d="m80.611 336.921v-22.074c0-7.623 4.133-14.265 10.269-17.856-3.064-1.793-6.619-2.839-10.425-2.839-11.429 0-20.694 9.265-20.694 20.694v22.074c0 11.429 9.265 20.694 20.694 20.694 3.807 0 7.361-1.045 10.425-2.839-6.135-3.589-10.269-10.231-10.269-17.854z" fill="#5a5a5a"/></g></g><g><path d="m169.56 170.48c-16.058 0-29.075 13.017-29.075 29.076 0 16.058 13.018 29.075 29.075 29.075h228.496v-58.151z" fill="#fff"/><g><path d="m182.092 199.556c0-16.058 13.018-29.076 29.076-29.076h-41.608c-16.058 0-29.075 13.017-29.075 29.076 0 16.058 13.018 29.075 29.075 29.075h41.608c-16.059 0-29.076-13.017-29.076-29.075z" fill="#eaf6ff"/></g><g><path d="m433.361 170.48h-35.306v58.151h35.306c16.058 0 29.076-13.018 29.076-29.076 0-16.057-13.018-29.075-29.076-29.075z" fill="#00c285"/></g></g><g><circle cx="86.482" cy="192.137" fill="#fff" r="22.081"/><g><path d="m494.5 45.444h-477c-9.649 0-17.5 7.851-17.5 17.5v386.111c0 9.649 7.851 17.5 17.5 17.5h118.5c4.142 0 7.5-3.357 7.5-7.5s-3.358-7.5-7.5-7.5h-118.5c-1.378 0-2.5-1.121-2.5-2.5v-313.368h124c4.142 0 7.5-3.357 7.5-7.5s-3.358-7.5-7.5-7.5h-124v-57.743c0-1.379 1.122-2.5 2.5-2.5h477c1.378 0 2.5 1.121 2.5 2.5v57.742h-323c-4.142 0-7.5 3.357-7.5 7.5s3.358 7.5 7.5 7.5h323v313.369c0 1.379-1.122 2.5-2.5 2.5h-323.5c-4.142 0-7.5 3.357-7.5 7.5s3.358 7.5 7.5 7.5h323.5c9.649 0 17.5-7.851 17.5-17.5v-386.111c0-9.649-7.851-17.5-17.5-17.5z"/><circle cx="39.5" cy="90.565" r="7.5"/><circle cx="63.5" cy="90.565" r="7.5"/><circle cx="87.5" cy="90.565" r="7.5"/><path d="m471.771 98.065c4.142 0 7.5-3.357 7.5-7.5s-3.358-7.5-7.5-7.5h-43.771c-4.142 0-7.5 3.357-7.5 7.5s3.358 7.5 7.5 7.5z"/><path d="m469.937 299.482c0-7.074-5.755-12.829-12.83-12.829h-102.97c-7.074 0-12.83 5.755-12.83 12.829v36.129c0 7.074 5.755 12.83 12.83 12.83h102.97c7.074 0 12.83-5.756 12.83-12.83zm-15 33.959h-98.629v-31.788h98.629z"/><path d="m373.635 325.047h63.976c4.142 0 7.5-3.357 7.5-7.5s-3.358-7.5-7.5-7.5h-63.976c-4.142 0-7.5 3.357-7.5 7.5s3.358 7.5 7.5 7.5z"/><path d="m271.262 408.202v-36.129c0-7.074-5.755-12.83-12.83-12.83h-102.97c-7.074 0-12.83 5.756-12.83 12.83v36.129c0 7.074 5.755 12.83 12.83 12.83h102.97c7.075 0 12.83-5.756 12.83-12.83zm-15-2.17h-98.629v-31.789h98.629z"/><path d="m174.96 397.638h63.976c4.142 0 7.5-3.357 7.5-7.5s-3.358-7.5-7.5-7.5h-63.976c-4.142 0-7.5 3.357-7.5 7.5s3.358 7.5 7.5 7.5z"/><path d="m297.225 421.032h60.956c7.074 0 12.829-5.756 12.829-12.83v-36.129c0-7.074-5.755-12.83-12.829-12.83h-60.956c-7.074 0-12.83 5.756-12.83 12.83v36.129c.001 7.074 5.756 12.83 12.83 12.83zm2.171-46.789h56.615v31.789h-56.615z"/><path d="m340.594 382.638h-25.781c-4.142 0-7.5 3.357-7.5 7.5s3.358 7.5 7.5 7.5h25.781c4.142 0 7.5-3.357 7.5-7.5s-3.358-7.5-7.5-7.5z"/><path d="m457.107 359.243h-60.956c-7.074 0-12.83 5.756-12.83 12.83v36.129c0 7.074 5.755 12.83 12.83 12.83h60.956c7.074 0 12.83-5.756 12.83-12.83v-36.129c0-7.074-5.755-12.83-12.83-12.83zm-2.17 46.789h-56.615v-31.789h56.615z"/><path d="m413.739 397.638h25.781c4.142 0 7.5-3.357 7.5-7.5s-3.358-7.5-7.5-7.5h-25.781c-4.142 0-7.5 3.357-7.5 7.5s3.358 7.5 7.5 7.5z"/><path d="m155.463 286.653c-7.074 0-12.83 5.755-12.83 12.829v36.129c0 7.074 5.755 12.83 12.83 12.83h60.956c7.074 0 12.83-5.756 12.83-12.83v-36.129c0-7.074-5.755-12.829-12.83-12.829zm58.785 46.788h-56.615v-31.788h56.615z"/><path d="m173.05 325.047h25.782c4.142 0 7.5-3.357 7.5-7.5s-3.358-7.5-7.5-7.5h-25.782c-4.142 0-7.5 3.357-7.5 7.5s3.358 7.5 7.5 7.5z"/><path d="m328.375 335.611v-36.129c0-7.074-5.755-12.829-12.829-12.829h-60.956c-7.074 0-12.83 5.755-12.83 12.829v36.129c0 7.074 5.755 12.83 12.83 12.83h60.956c7.074 0 12.829-5.755 12.829-12.83zm-15-2.17h-56.615v-31.788h56.615z"/><path d="m272.177 325.047h25.781c4.142 0 7.5-3.357 7.5-7.5s-3.358-7.5-7.5-7.5h-25.781c-4.142 0-7.5 3.357-7.5 7.5s3.358 7.5 7.5 7.5z"/><path d="m80.455 286.653c-15.546 0-28.194 12.647-28.194 28.194v22.073c0 15.547 12.648 28.194 28.194 28.194s28.194-12.647 28.194-28.194v-22.073c0-15.546-12.648-28.194-28.194-28.194zm13.194 50.268c0 7.275-5.919 13.194-13.194 13.194s-13.194-5.919-13.194-13.194v-22.073c0-7.275 5.919-13.194 13.194-13.194s13.194 5.919 13.194 13.194z"/><path d="m116.65 375.524c2.929-2.929 2.929-7.677 0-10.606-2.929-2.928-7.678-2.928-10.606 0-6.835 6.836-15.922 10.6-25.589 10.6-9.666 0-18.753-3.764-25.589-10.6-2.929-2.928-7.678-2.928-10.606 0-2.929 2.93-2.929 7.678 0 10.607 7.877 7.877 17.869 12.868 28.695 14.448v11.142h-9.867c-4.142 0-7.5 3.357-7.5 7.5s3.358 7.5 7.5 7.5h34.734c4.142 0 7.5-3.357 7.5-7.5s-3.358-7.5-7.5-7.5h-9.867v-11.142c10.826-1.58 20.819-6.571 28.695-14.449z"/><path d="m433.361 162.98h-263.801c-20.168 0-36.576 16.407-36.576 36.575s16.408 36.576 36.576 36.576h161.44c4.142 0 7.5-3.357 7.5-7.5s-3.358-7.5-7.5-7.5h-161.44c-11.897 0-21.576-9.679-21.576-21.576 0-11.896 9.679-21.575 21.576-21.575h220.996v43.151h-24.556c-4.142 0-7.5 3.357-7.5 7.5s3.358 7.5 7.5 7.5h67.361c20.168 0 36.576-16.408 36.576-36.576s-16.408-36.575-36.576-36.575zm0 58.152h-27.806v-43.152h27.806c11.897 0 21.576 9.679 21.576 21.575 0 11.898-9.679 21.577-21.576 21.577z"/><path d="m44.26 234.359c1.464 1.464 3.384 2.196 5.303 2.196s3.839-.732 5.303-2.196l16.681-16.681c4.483 2.631 9.6 4.039 14.935 4.039 7.901 0 15.33-3.077 20.917-8.664 11.534-11.534 11.534-30.3 0-41.834-11.534-11.531-30.3-11.533-41.833 0-5.587 5.587-8.665 13.016-8.665 20.917 0 5.335 1.408 10.452 4.039 14.935l-16.68 16.68c-2.929 2.931-2.929 7.679 0 10.608zm31.912-52.532c2.843-2.843 6.577-4.265 10.311-4.265 3.733 0 7.467 1.422 10.31 4.265 5.685 5.685 5.685 14.935 0 20.619v.001c-2.754 2.754-6.415 4.271-10.31 4.271s-7.556-1.517-10.311-4.271c-2.754-2.754-4.271-6.415-4.271-10.31s1.517-7.556 4.271-10.31z"/></g></g></g></svg>