<svg id="Capa_1" enable-background="new 0 0 512 512" height="512" viewBox="0 0 512 512" width="512" xmlns="http://www.w3.org/2000/svg"><g><path d="m176.607 504.5h-30.198c-7.4 0-13.399-5.999-13.399-13.399v-23.506h56.996v23.506c0 7.4-5.999 13.399-13.399 13.399z" fill="#a78cd6"/><path d="m395.62 504.5h30.198c7.4 0 13.399-5.999 13.399-13.399v-23.506h-56.996v23.506c0 7.4 5.999 13.399 13.399 13.399z" fill="#a78cd6"/><path d="m439.217 467.595h-306.207c-18.559 0-33.604-15.045-33.604-33.603v-81.966c0-18.559 15.045-33.604 33.604-33.604h306.208c18.559 0 33.603 15.045 33.603 33.604v81.966c0 18.558-15.045 33.603-33.604 33.603z" fill="#475a99"/><ellipse cx="323.673" cy="393.008" fill="#8ee2e1" rx="22.768" ry="22.768" transform="matrix(.973 -.23 .23 .973 -81.636 84.878)"/><ellipse cx="408.679" cy="393.008" fill="#f5ea72" rx="22.768" ry="22.768" transform="matrix(.707 -.707 .707 .707 -158.199 404.089)"/><path d="m439.217 318.421h-306.207c-18.559 0-33.604-15.045-33.604-33.603v-81.967c0-18.559 15.045-33.604 33.604-33.604h306.208c18.559 0 33.603 15.045 33.603 33.604v81.967c0 18.559-15.045 33.603-33.604 33.603z" fill="#6171a3"/><path d="m133.01 169.248c-18.559 0-33.604 15.045-33.604 33.603v10.6c1.65.086 3.311.13 4.982.13h180.851c33.797 0 63.672-17.745 80.58-44.334h-232.809z" fill="#475a99"/><ellipse cx="323.673" cy="243.835" fill="#f5ea72" rx="22.768" ry="22.768" transform="matrix(.707 -.707 .707 .707 -77.615 300.289)"/><ellipse cx="408.679" cy="243.835" fill="#8ee2e1" rx="22.768" ry="22.768" transform="matrix(.973 -.23 .23 .973 -45.089 100.418)"/><path d="m285.238 183.582c35.472 0 64.841-28.344 65.204-63.814.446-43.544-40.888-73.741-80.883-63.127-4.666 1.238-9.47-1.3-11.229-5.796-9.932-25.373-34.624-43.345-63.517-43.345s-53.586 17.972-63.517 43.346c-1.76 4.496-6.564 7.034-11.23 5.795-39.964-10.604-81.296 19.533-80.883 63.076.337 35.49 29.715 63.865 65.206 63.865z" fill="#efedff"/><path d="m175.569 10.266c-20.28 5.957-36.64 21.076-44.273 40.58-1.76 4.496-6.564 7.034-11.23 5.795-39.964-10.604-81.296 19.533-80.883 63.076.337 35.49 29.715 63.864 65.206 63.864h116.991c-60.669-24.651-64.643-136.581-45.811-173.315z" fill="#d4d4ff"/><path d="m204.54 219.034c-4.142 0-7.5 3.357-7.5 7.5v34.601c0 4.143 3.358 7.5 7.5 7.5s7.5-3.357 7.5-7.5v-34.601c0-4.142-3.358-7.5-7.5-7.5zm-42.598 0c-4.142 0-7.5 3.357-7.5 7.5v34.601c0 4.143 3.358 7.5 7.5 7.5s7.5-3.357 7.5-7.5v-34.601c0-4.142-3.358-7.5-7.5-7.5zm161.731-5.467c-16.689 0-30.268 13.578-30.268 30.268 0 16.689 13.578 30.268 30.268 30.268 16.689 0 30.268-13.578 30.268-30.268s-13.578-30.268-30.268-30.268zm0 45.536c-8.418 0-15.268-6.849-15.268-15.268s6.849-15.268 15.268-15.268c8.418 0 15.268 6.849 15.268 15.268s-6.849 15.268-15.268 15.268zm85.006-45.536c-16.689 0-30.268 13.578-30.268 30.268 0 16.689 13.578 30.268 30.268 30.268s30.268-13.578 30.268-30.268-13.578-30.268-30.268-30.268zm0 45.536c-8.418 0-15.268-6.849-15.268-15.268s6.849-15.268 15.268-15.268 15.268 6.849 15.268 15.268-6.849 15.268-15.268 15.268zm-161.541-40.069c-4.142 0-7.5 3.357-7.5 7.5v34.601c0 4.143 3.358 7.5 7.5 7.5s7.5-3.357 7.5-7.5v-34.601c0-4.142-3.358-7.5-7.5-7.5zm233.183 65.784v-81.967c0-22.664-18.439-41.104-41.103-41.104h-95.524c8.801-11.768 14.089-26.25 14.249-41.903.493-48.101-45.083-82.458-90.307-70.453-.939.245-1.939-.3-2.322-1.279-11.44-29.227-39.113-48.112-70.502-48.112s-59.061 18.885-70.501 48.111c-.384.98-1.38 1.527-2.323 1.28-7.106-1.886-14.418-2.656-21.725-2.3-4.137.204-7.326 3.723-7.122 7.859.204 4.138 3.743 7.324 7.859 7.123 5.764-.282 11.53.327 17.14 1.815 8.317 2.211 16.973-2.226 20.138-10.31 9.175-23.434 31.365-38.578 56.534-38.578s47.36 15.144 56.533 38.58c3.165 8.084 11.819 12.521 20.137 10.309 35.463-9.414 71.852 17.459 71.46 55.801-.318 31.095-26.204 56.392-57.705 56.392h-180.849c-31.524 0-57.411-25.317-57.706-56.437-.184-19.419 8.916-36.802 24.966-47.691 3.428-2.325 4.321-6.989 1.996-10.417-2.326-3.428-6.989-4.321-10.417-1.995-19.982 13.556-31.774 36.078-31.544 60.246.339 35.78 27.391 65.479 62.194 70.528-1.288 4.019-1.971 8.231-1.971 12.536v81.967c0 13.876 6.918 26.159 17.479 33.605-10.562 7.444-17.479 19.725-17.479 33.601v81.967c0 20.102 14.51 36.869 33.604 40.405v16.704c0 11.524 9.375 20.899 20.899 20.899h30.198c11.524 0 20.899-9.375 20.899-20.899v-16.006h177.215v16.006c0 11.524 9.375 20.899 20.899 20.899h30.198c11.524 0 20.899-9.375 20.899-20.899v-16.688c10.035-1.83 19.007-7.312 25.317-15.667 2.497-3.306 1.841-8.009-1.465-10.505-3.305-2.497-8.008-1.841-10.505 1.464-4.987 6.603-12.586 10.391-20.847 10.391h-306.207c-14.394 0-26.104-11.71-26.104-26.103v-81.967c0-14.393 11.71-26.103 26.104-26.103h306.208c14.393 0 26.103 11.71 26.103 26.103v67.995c0 4.143 3.358 7.5 7.5 7.5s7.5-3.357 7.5-7.5v-67.995c0-13.876-6.919-26.156-17.481-33.6 10.562-7.448 17.481-19.731 17.481-33.608zm-90.6 190.277h41.996v16.006c0 3.253-2.647 5.899-5.899 5.899h-30.198c-3.252 0-5.899-2.647-5.899-5.899zm-249.211 0h41.996v16.006c0 3.253-2.646 5.899-5.899 5.899h-30.198c-3.253 0-5.899-2.647-5.899-5.899zm324.811-190.277c0 14.394-11.71 26.104-26.103 26.104h-306.208c-14.394 0-26.104-11.71-26.104-26.104v-81.967c0-4.133.97-8.139 2.813-11.77h175.519c16.218 0 31.252-5.341 43.393-14.334h110.586c14.393 0 26.103 11.71 26.103 26.104v81.967zm-310.879 90.89v34.601c0 4.143 3.358 7.5 7.5 7.5s7.5-3.357 7.5-7.5v-34.601c0-4.143-3.358-7.5-7.5-7.5s-7.5 3.357-7.5 7.5zm13.295-251.534c-2.929 2.93-2.929 7.678 0 10.607 2.929 2.928 7.678 2.928 10.607 0 9.081-9.082 23.857-9.082 32.938 0 2.93 2.929 7.678 2.928 10.607 0 2.929-2.93 2.929-7.678 0-10.607-14.931-14.93-39.223-14.93-54.152 0zm29.303 251.534v34.601c0 4.143 3.358 7.5 7.5 7.5s7.5-3.357 7.5-7.5v-34.601c0-4.143-3.358-7.5-7.5-7.5s-7.5 3.357-7.5 7.5zm52.533-268.611c2.929-2.929 2.929-7.678 0-10.607-30.264-30.265-79.253-30.27-109.521 0-2.929 2.929-2.929 7.678 0 10.607 2.929 2.928 7.678 2.929 10.606-.001 24.402-24.402 63.903-24.406 88.309 0 2.928 2.929 7.676 2.929 10.606.001zm128.839 285.911c0 16.69 13.578 30.269 30.268 30.269s30.268-13.578 30.268-30.269c0-16.689-13.578-30.268-30.268-30.268s-30.268 13.578-30.268 30.268zm45.535 0c0 8.419-6.849 15.269-15.268 15.269-8.418 0-15.268-6.85-15.268-15.269s6.849-15.268 15.268-15.268 15.268 6.849 15.268 15.268zm-130.541 0c0 16.69 13.578 30.269 30.268 30.269 16.689 0 30.268-13.578 30.268-30.269 0-16.689-13.578-30.268-30.268-30.268s-30.268 13.578-30.268 30.268zm45.535 0c0 8.419-6.849 15.269-15.268 15.269-8.418 0-15.268-6.85-15.268-15.269s6.849-15.268 15.268-15.268 15.268 6.849 15.268 15.268zm-99.303-17.3v34.601c0 4.143 3.358 7.5 7.5 7.5s7.5-3.357 7.5-7.5v-34.601c0-4.143-3.358-7.5-7.5-7.5s-7.5 3.357-7.5 7.5z"/></g></svg>