<svg id="Layer_1" enable-background="new 0 0 512 512" height="512" viewBox="0 0 512 512" width="512" xmlns="http://www.w3.org/2000/svg"><g><g fill="#aac3d6"><path d="m405.72 203.124c.855 1.955 2.503 3.453 4.53 4.118.763.251 1.553.375 2.34.375 1.303 0 2.598-.34 3.75-1.005l25.092-14.486c11.915-6.88 16.013-22.172 9.134-34.089-6.881-11.915-22.173-16.012-34.069-9.145l-21.752 12.472c-3.322 1.905-4.676 6.006-3.14 9.514z"/><path d="m441.432 319.875-25.092-14.486c-1.849-1.068-4.065-1.297-6.09-.63-2.027.666-3.675 2.164-4.53 4.118l-14.115 32.247c-1.536 3.508-.183 7.609 3.14 9.514l21.732 12.461c3.92 2.263 8.204 3.338 12.435 3.338 8.631 0 17.037-4.477 21.654-12.473 6.879-11.917 2.781-27.209-9.134-34.089z"/></g><g fill="#aac3d6"><path d="m387.486 139.73c-.56 1.43-1.54 2.62-2.76 3.45-1.21.83-2.68 1.3-4.22 1.3l-43.36-.03-226.48-.15c-2.55 0-4.94-1.3-6.31-3.46-1.38-2.15-1.56-4.86-.49-7.18l15.6-33.75c10.75-23.25 19.77-47.54 26.81-72.19l2.83-9.86c3.01-10.52 12.75-17.86 23.69-17.86h145.51c10.95 0 20.69 7.35 23.69 17.87l2.82 9.85c7.04 24.62 16.06 48.91 26.81 72.18l15.56 33.66c.96 1.88 1.11 4.12.3 6.17z"/><path d="m387.226 378.34-15.6 33.75c-10.75 23.26-19.77 47.55-26.81 72.18l-2.82 9.86c-3 10.52-12.74 17.87-23.69 17.87h-145.51c-10.95 0-20.69-7.35-23.7-17.87l-2.82-9.85c-7.04-24.63-16.06-48.91-26.81-72.18l-15.55-33.65c-.96-1.88-1.11-4.12-.32-6.16 1.13-2.88 3.9-4.77 6.99-4.77h.01l225.86.15 43.97.03c2.56 0 4.94 1.3 6.32 3.46 1.37 2.15 1.56 4.86.48 7.18z"/></g><g fill="#8aabbf"><path d="m387.186 133.56c.96 1.88 1.11 4.12.3 6.17-.56 1.43-1.54 2.62-2.76 3.45-1.21.83-2.68 1.3-4.22 1.3l-43.36-.03c1.31-.11 2.54-.56 3.58-1.27 1.22-.83 2.2-2.02 2.76-3.45.81-2.05.66-4.29-.3-6.17l-15.56-33.66c-10.75-23.27-19.77-47.56-26.81-72.18l-2.82-9.85c-3-10.52-12.74-17.87-23.69-17.87h44c10.95 0 20.69 7.35 23.69 17.87l2.82 9.85c7.04 24.62 16.06 48.91 26.81 72.18z"/><path d="m387.226 378.34-15.6 33.75c-10.75 23.26-19.77 47.55-26.81 72.18l-2.82 9.86c-3 10.52-12.74 17.87-23.69 17.87h-44c10.95 0 20.69-7.35 23.69-17.87l2.82-9.86c7.04-24.63 16.06-48.92 26.81-72.18l15.6-33.75c1.08-2.32.89-5.03-.48-7.18-1.38-2.16-3.76-3.46-6.32-3.46l.03-.03 43.97.03c2.56 0 4.94 1.3 6.32 3.46 1.37 2.15 1.56 4.86.48 7.18z"/></g><path d="m432.996 256c0 103.36-84.09 187.45-187.45 187.45-6.86 0-13.63-.37-20.3-1.09-93.85-10.15-167.15-89.86-167.15-186.36s73.3-176.21 167.15-186.36c6.67-.72 13.44-1.09 20.3-1.09 103.36 0 187.45 84.09 187.45 187.45z" fill="#4f667a"/><path d="m432.996 256c0 103.36-84.09 187.45-187.45 187.45-6.86 0-13.63-.37-20.3-1.09 93.85-10.15 167.15-89.86 167.15-186.36s-73.3-176.21-167.15-186.36c6.67-.72 13.44-1.09 20.3-1.09 103.36 0 187.45 84.09 187.45 187.45z" fill="#3a5366"/><path d="m392.396 256c0 81.31-65.91 147.22-147.22 147.22-5.87 0-11.67-.34-17.36-1.01-73.13-8.6-129.86-70.78-129.86-146.21s56.73-137.61 129.86-146.21c5.69-.67 11.49-1.01 17.36-1.01 81.31 0 147.22 65.91 147.22 147.22z" fill="#b9f6d3"/><path d="m392.396 256c0 81.31-65.91 147.22-147.22 147.22-5.87 0-11.67-.34-17.36-1.01 73.12-8.6 129.85-70.78 129.85-146.21s-56.73-137.61-129.85-146.21c5.69-.67 11.49-1.01 17.36-1.01 81.31 0 147.22 65.91 147.22 147.22z" fill="#93d8e4"/><path d="m337.626 239.95c0 33.52-26.5 56.14-63.18 87.45l-20.48 17.65c-2.27 2-5.27 3.13-8.37 3.13-3.11 0-6.1-1.13-8.43-3.18l-6.57-5.66-13.88-11.96c-36.66-31.29-63.16-53.91-63.16-87.43 0-32.1 22.53-56.3 52.41-56.3 10.88 0 20.84 3.44 29.59 10.23 4 3.1 7.33 6.59 10.04 10 2.71-3.41 6.03-6.9 10.03-10 4.65-3.61 9.64-6.27 14.93-7.97 4.66-1.5 9.56-2.26 14.66-2.26 29.88 0 52.41 24.2 52.41 56.3z" fill="#ff6e6e"/><path d="m337.626 239.95c0 33.52-26.5 56.14-63.18 87.45l-20.48 17.65c-2.27 2-5.27 3.13-8.37 3.13-3.11 0-6.1-1.13-8.43-3.18l-6.57-5.66 13.85-11.94c36.68-31.31 63.18-53.93 63.18-87.45 0-26.32-15.14-47.33-37.07-54.04 4.66-1.5 9.56-2.26 14.66-2.26 29.88 0 52.41 24.2 52.41 56.3z" fill="#f44e92"/><path d="m349.748 261.103h-56.454l-13.5-23.859c-1.331-2.353-3.824-3.807-6.527-3.807s-5.196 1.454-6.527 3.807l-21.146 37.372-17.512-30.949c-1.331-2.353-3.825-3.807-6.527-3.807s-5.196 1.454-6.527 3.807l-9.866 17.436h-64.562c-4.142 0-7.5 3.358-7.5 7.5s3.358 7.5 7.5 7.5h68.934c2.703 0 5.197-1.454 6.527-3.807l5.492-9.706 17.512 30.949c1.331 2.353 3.825 3.807 6.527 3.807 2.703 0 5.196-1.454 6.527-3.807l21.146-37.372 9.126 16.129c1.331 2.353 3.824 3.807 6.527 3.807h60.828c4.143 0 7.5-3.358 7.5-7.5s-3.356-7.5-7.498-7.5z" fill="#e9f5ff"/></g></svg>