<svg id="Capa_1" enable-background="new 0 0 511.998 511.998" height="512" viewBox="0 0 511.998 511.998" width="512" xmlns="http://www.w3.org/2000/svg"><g><path d="m395.779 271.528v108.72l-34.361-19.61-20-11.42v-124.311l20 17.151z" fill="#fe646f"/><path d="m170.579 224.907v124.311l-20 11.42-34.36 19.61v-108.72l34.36-29.47z" fill="#fe646f"/><path d="m150.579 242.058 20-17.151v124.311l-20 11.42z" fill="#fd4755"/><path d="m361.418 242.058v118.58l-20-11.42v-124.311z" fill="#fd4755"/><path d="m341.418 148.369v200.845h-170.84v-200.845c0-28.184 7.47-55.26 20.97-78.842v-.01c14.83-25.928 36.96-47.653 64.45-62.02 26.26 13.718 47.61 34.145 62.4 58.535.7 1.148 1.38 2.316 2.05 3.484v.01c13.5 23.583 20.97 50.659 20.97 78.843z" fill="#eaf6ff"/><path d="m270.999 16.413c-20.6 13.818-37.42 32.078-49.45 53.104v.01c-13.5 23.582-20.97 50.658-20.97 78.842v200.845h-30v-200.845c0-28.184 7.47-55.26 20.97-78.842v-.01c14.83-25.928 36.96-47.653 64.45-62.02 5.2 2.716 10.2 5.691 15 8.916z" fill="#d8ecfe"/><path d="m320.448 69.618v.01h-128.9v-.01c14.83-25.97 36.96-47.73 64.45-62.12 26.26 13.74 47.61 34.2 62.4 58.63.701 1.15 1.381 2.32 2.05 3.49z" fill="#fe646f"/><path d="m270.999 16.427c-20.6 13.84-37.42 32.13-49.45 53.19v.01h-30v-.01c14.83-25.97 36.96-47.73 64.45-62.12 5.2 2.721 10.2 5.701 15 8.93z" fill="#fd4755"/><path d="m411.371 442.432h-.061c0-15.532-15.531-31.06-31.062-31.06h-31.062c0-16.05-12.854-31.09-31.062-31.09-31.062.396-93.187-.055-124.249 0-15.531.025-31.062 14.38-31.062 31.09h-31.063c-15.531 0-31.062 15.528-31.062 31.06h-.061c-34.277 0-62.064 27.787-62.064 62.064h434.872c-.001-34.277-27.788-62.064-62.064-62.064z" fill="#d8ecfe"/><path d="m131.749 411.368h30c-15.53 0-31.06 15.53-31.06 31.06h-.06c-34.28 0-62.07 27.79-62.07 62.07h-30c0-34.28 27.79-62.07 62.07-62.07h.06c0-15.531 15.53-31.06 31.06-31.06z" fill="#b3dafe"/><path d="m222.589 380.318c-15.1.78-29.78 14.8-29.78 31.05h-30c0-16.71 15.53-31.06 31.07-31.09 7.9-.01 17.81.01 28.71.04z" fill="#b3dafe"/><path d="m296.389 380.427c-22.39.06-50.38-.05-73.8-.11.43-.03.86-.04 1.29-.04 17.84-.029 45.94.111 72.51.15z" fill="#0473ce"/><path d="m209.405 349.214h93.187l15.531 31.068h-124.249z" fill="#8ac9fe"/><path d="m239.409 349.214-15.53 31.064h-30l15.53-31.064z" fill="#60b7ff"/><ellipse cx="255.999" cy="185.867" fill="#8ac9fe" rx="46.593" ry="46.591"/><path d="m270.999 229.978c-4.71 1.61-9.75 2.48-15 2.48-25.69 0-46.59-20.9-46.59-46.59s20.9-46.59 46.59-46.59c5.25 0 10.29.87 15 2.48-18.36 6.26-31.59 23.67-31.59 44.11s13.23 37.85 31.59 44.11z" fill="#60b7ff"/><path d="m170.577 318.122h170.842v31.092h-170.842z" fill="#fe646f"/><path d="m170.579 318.118h30v31.1h-30z" fill="#fd4755"/><g><path d="m255.999 239.958c29.827 0 54.094-24.266 54.094-54.092s-24.267-54.091-54.094-54.091-54.093 24.265-54.093 54.091 24.265 54.092 54.093 54.092zm0-93.182c21.557 0 39.094 17.536 39.094 39.091 0 21.556-17.537 39.092-39.094 39.092-21.556 0-39.093-17.536-39.093-39.092-.001-21.555 17.536-39.091 39.093-39.091z"/><path d="m460.562 455.305c-11.555-11.556-26.457-18.546-42.562-20.064-3.788-16.935-20.354-31.373-37.752-31.373h-24.291c-3.193-16.152-16.502-28.707-33.081-30.781l-8.051-15.817h25.575l51.66 29.491c4.561 2.599 11.219-.549 11.219-6.514v-108.718c0-2.188-.956-4.268-2.617-5.693l-51.742-44.378v-72.858c0-61.235-35.196-119.371-89.444-147.745-2.177-1.139-4.775-1.139-6.954 0-55.171 28.867-89.444 85.479-89.444 147.745v72.861l-51.741 44.374c-1.662 1.425-2.618 3.505-2.618 5.693v30.25c0 4.143 3.358 7.5 7.5 7.5s7.5-3.357 7.5-7.5v-26.802l39.358-33.755v103.642l-39.358 22.467v-32.863c0-4.143-3.358-7.5-7.5-7.5s-7.5 3.357-7.5 7.5v45.78c0 5.962 6.658 9.115 11.218 6.514l51.665-29.492h25.569l-8.073 15.86c-15.723 2.264-29.478 15.283-32.949 30.738h-24.401c-17.398 0-33.964 14.438-37.752 31.373-35.263 3.35-62.938 33.132-62.938 69.257 0 4.143 3.358 7.5 7.5 7.5h232.16c4.143 0 7.5-3.357 7.5-7.5s-3.357-7.5-7.5-7.5h-224.146c3.666-26.555 26.515-47.07 54.116-47.07 4.142 0 7.5-3.357 7.5-7.5 0-11.449 12.11-23.56 23.56-23.56h31.06c4.142 0 7.5-3.357 7.5-7.5 0-11.866 11.648-23.532 23.531-23.588.012 0 50.17.098 54.659.11v85.728c0 4.143 3.358 7.5 7.5 7.5 4.143 0 7.5-3.357 7.5-7.5v-85.693c20.573.04 54.625-.143 54.625-.143.014 0 .028-.003.042-.003 14.531.026 23.524 12.256 23.524 23.589 0 4.143 3.357 7.5 7.5 7.5h31.06c11.449 0 23.56 12.11 23.56 23.56 0 4.143 3.418 7.5 7.561 7.5 14.576 0 28.279 5.677 38.587 15.984 8.518 8.517 13.872 19.354 15.476 31.086h-162.024c-4.143 0-7.5 3.357-7.5 7.5s3.357 7.5 7.5 7.5h170.03c4.143 0 7.5-3.357 7.5-7.5 0-18.582-7.237-36.053-20.377-49.192zm-72.283-180.328v92.352l-39.359-22.469v-103.641zm-210.202-126.378c0-25.475 6.319-49.903 17.822-71.472h43.76c4.142 0 7.5-3.357 7.5-7.5s-3.358-7.5-7.5-7.5h-34.601c12.994-18.734 30.264-34.602 50.94-46.105 20.192 11.24 37.729 27.11 50.905 46.105h-34.565c-4.143 0-7.5 3.357-7.5 7.5s3.357 7.5 7.5 7.5h43.736c11.555 21.652 17.846 46.115 17.846 71.472v162.022h-155.841zm.002 193.67v-16.647h155.841v16.647zm28.03 30.509 7.894-15.509h83.991l7.896 15.513s-98.885-.003-99.781-.004z"/><path d="m217.437 411.929v41.504c0 4.143 3.358 7.5 7.5 7.5s7.5-3.357 7.5-7.5v-41.504c0-4.143-3.358-7.5-7.5-7.5s-7.5 3.358-7.5 7.5z"/><path d="m287.061 404.429c-4.143 0-7.5 3.357-7.5 7.5v41.504c0 4.143 3.357 7.5 7.5 7.5s7.5-3.357 7.5-7.5v-41.504c0-4.142-3.357-7.5-7.5-7.5z"/></g></g></svg>