<svg id="Capa_1" enable-background="new 0 0 512 512" height="512" viewBox="0 0 512 512" width="512" xmlns="http://www.w3.org/2000/svg"><g><g><g><path d="m41.137 315.537s85.596-49.151 179.317 0c0 0 26.663 121.389-89.658 121.389-116.951.001-89.659-121.389-89.659-121.389z" fill="#5c90ae"/></g><g><path d="m470.863 315.537s-85.596-49.151-179.317 0c0 0-26.663 121.389 89.658 121.389 116.951.001 89.659-121.389 89.659-121.389z" fill="#5c90ae"/></g><g><path d="m502 283.697v31.84h-31.14s-85.59-49.15-179.31 0c0 0-10.84-12.82-35.55-12.82-24.59 0-35.55 12.82-35.55 12.82-93.72-49.15-179.31 0-179.31 0h-31.14v-31.84s51.47-31.01 120.8-31.01c27.233 0 52.391 4.786 72.902 10.598 34.169 9.681 70.426 9.681 104.595 0 20.511-5.812 45.67-10.598 72.902-10.598 69.331 0 120.801 31.01 120.801 31.01z" fill="#e0e7ef"/></g><g><path d="m236.27 115.637c0 4.7-1.11 9.49-3.46 13.97-8.12 15.5-27.67 20.85-42.55 11.65l-28.75-17.77-88.11 136.08c-38.5 9.13-63.4 24.13-63.4 24.13l108.89-168.04c15.825-24.12 45.153-49.686 76.12-37.16l22.52 9.21c11.76 4.81 18.74 16.12 18.74 27.93z" fill="#9ebccf"/></g><g><path d="m502 283.697s-24.9-15-63.4-24.13l-88.11-136.08-28.75 17.77c-14.88 9.2-34.43 3.85-42.55-11.65-7.76-14.8-.33-35.52 15.28-41.9l22.51-9.21.01-.01c38.38-15.51 68.86 26.24 74.98 35.43.425.531 110.03 169.78 110.03 169.78z" fill="#9ebccf"/></g><g><path d="m511.992 283.571c-.015-1.877-.59-3.727-1.598-5.309-94.106-145.316-107.843-166.462-110.119-169.876l.018-.012c-3.574-5.368-13.439-18.988-27.81-29.505-19.347-14.158-39.832-17.499-59.24-9.654-.111.045-.221.092-.331.141l-22.227 9.094c-10.004 4.089-18.019 12.675-21.991 23.557-3.982 10.911-3.385 22.663 1.637 32.24 5.153 9.837 14.25 17.16 24.956 20.092 10.708 2.932 22.265 1.263 31.71-4.576l20.42-12.622 70.05 108.188c-11.369-1.643-23.515-2.643-36.268-2.643-24.478 0-49.923 3.693-75.63 10.977-2.165.614-4.371 1.195-6.559 1.727-5.366 1.305-8.658 6.714-7.352 12.081s6.714 8.656 12.081 7.353c2.429-.591 4.88-1.237 7.283-1.918 23.932-6.781 47.543-10.219 70.177-10.219 53.729 0 96.783 19.698 110.8 26.944v15.906h-18.624c-55.63-27.749-124.268-29.498-180.348-1.938-.069-.05-.147-.101-.216-.151-21.352-14.553-52.531-14.488-73.821.159-56.07-27.564-124.738-25.823-180.365 1.931h-18.625v-15.906c14.029-7.252 57.078-26.944 110.8-26.944 22.634 0 46.245 3.438 70.177 10.219 3.182.901 6.431 1.736 9.656 2.479 5.381 1.243 10.75-2.115 11.992-7.497 1.241-5.381-2.115-10.75-7.497-11.992-2.906-.67-5.833-1.422-8.7-2.234-25.706-7.284-51.151-10.977-75.629-10.977-12.753 0-24.899 1-36.268 2.643l70.05-108.188 20.419 12.621c9.446 5.839 21.003 7.507 31.711 4.576 10.707-2.932 19.803-10.255 24.954-20.087 3.012-5.742 4.604-12.179 4.604-18.615 0-16.389-9.795-30.985-24.955-37.186l-22.556-9.225c-16.875-6.826-35.063-4.918-52.601 5.514-17.673 10.513-29.909 26.711-35.661 35.479l-108.888 168.041c-1.042 1.619-1.592 3.518-1.608 5.438v31.84c0 5.523 4.477 10 10 10h19.442c-2.278 19.775-3.163 59.398 19.999 88.346 17.544 21.926 44.916 33.043 81.354 33.043 36.165 0 63.398-11.061 80.941-32.876 26.033-32.372 22.047-78.226 19.562-94.618 3.871-2.602 11.281-6.269 22.63-6.674 9.293-.309 18.963 1.393 26.779 6.636-2.486 16.36-6.497 62.26 19.556 94.656 17.543 21.815 44.776 32.876 80.941 32.876 36.439 0 63.811-11.118 81.354-33.043 23.162-28.948 22.277-68.571 19.999-88.346h19.443c5.523 0 10-4.477 10-10v-31.84c0-.042-.008-.084-.008-.126zm-384.741-162.428c8.246-12.568 18.592-22.943 29.132-29.213 7.517-4.471 14.878-6.709 22.004-6.709 4.375 0 8.661.844 12.836 2.533l22.52 9.21c7.609 3.112 12.525 10.442 12.525 18.674 0 3.258-.779 6.396-2.318 9.329-2.625 5.01-7.072 8.591-12.522 10.083-5.451 1.491-11.102.676-15.913-2.298l-28.75-17.77c-4.627-2.86-10.695-1.496-13.652 3.071l-85.915 132.69c-11.325 2.854-21.422 6.163-30.027 9.408zm68.846 280.442c-13.563 16.815-35.534 25.342-65.301 25.342-30.021 0-52.12-8.569-65.683-25.47-21.021-26.195-17.06-66.048-15.007-79.291 50.153-23.852 111.445-25.319 161.36.029 1.996 13.346 5.733 53.227-15.369 79.39zm267.491-53.704c-.361 15.371-3.542 37.13-16.645 53.507-13.56 16.946-35.677 25.539-65.738 25.539-29.768 0-51.738-8.526-65.301-25.342-21.106-26.169-17.363-66.059-15.369-79.391 49.964-25.35 111.151-23.891 161.376-.022.82 5.212 1.939 14.572 1.677 25.709zm-104.704-229.829c-2.958-4.568-9.025-5.933-13.652-3.071l-28.751 17.771c-4.811 2.974-10.462 3.789-15.912 2.298-5.45-1.492-9.897-5.073-12.523-10.086-2.413-4.601-2.618-10.469-.563-16.099 2.044-5.601 5.97-9.938 10.773-11.902l22.51-9.21c.076-.031.152-.063.227-.096 31.234-12.361 57.661 24.308 62.653 31.803.026.04.053.079.08.118 2.079 3.13 53.088 81.866 91.114 140.579-8.608-3.247-18.71-6.558-30.041-9.414z"/></g></g><circle cx="256" cy="270.544" r="10"/></g></svg>