<svg id="Layer_1" enable-background="new 0 0 512 512" height="512" viewBox="0 0 512 512" width="512" xmlns="http://www.w3.org/2000/svg"><g><path d="m464 216v-8c0-114.691-93.309-208-208-208s-208 93.309-208 208v8c0 10.429 6.689 19.321 16 22.624v50.752c-9.311 3.303-16 12.195-16 22.624v48c0 13.233 10.767 24 24 24h24.805c3.717 18.235 19.878 32 39.195 32h16c13.233 0 24-10.767 24-24v-112c0-13.233-10.767-24-24-24h-16c-19.317 0-35.479 13.765-39.195 32h-16.805v-48h8c13.233 0 24-10.767 24-24v-8c0-79.402 64.598-144 144-144s144 64.598 144 144v8c0 13.233 10.767 24 24 24h8v48h-16.805c-3.717-18.235-19.878-32-39.195-32h-16c-13.233 0-24 10.767-24 24v112c0 13.233 10.767 24 24 24h16c19.317 0 35.479-13.765 39.195-32h16.805v36c0 28.673-23.327 52-52 52h-29.013c-3.562-13.786-16.104-24-30.987-24-17.645 0-32 14.355-32 32s14.355 32 32 32c14.883 0 27.426-10.214 30.987-24h29.013c37.495 0 68-30.505 68-68v-37.376c9.311-3.303 16-12.195 16-22.624v-48c0-10.429-6.689-19.321-16-22.624v-50.752c9.311-3.303 16-12.195 16-22.624zm-144 280c-8.822 0-16-7.178-16-16s7.178-16 16-16 16 7.178 16 16-7.178 16-16 16zm-184-224h16c4.411 0 8 3.589 8 8v112c0 4.411-3.589 8-8 8h-16c-13.233 0-24-10.767-24-24v-80c0-13.233 10.767-24 24-24zm-40 96h-24c-4.411 0-8-3.589-8-8v-48c0-4.411 3.589-8 8-8h24zm320-152v-8c0-88.225-71.775-160-160-160s-160 71.775-160 160v8c0 4.411-3.589 8-8 8h-16c-4.411 0-8-3.589-8-8v-8c0-105.869 86.131-192 192-192s192 86.131 192 192v8c0 4.411-3.589 8-8 8h-16c-4.411 0-8-3.589-8-8zm-40 184h-16c-4.411 0-8-3.589-8-8v-112c0-4.411 3.589-8 8-8h16c13.233 0 24 10.767 24 24v80c0 13.233-10.767 24-24 24zm72-40c0 4.411-3.589 8-8 8h-24v-64h24c4.411 0 8 3.589 8 8z"/></g></svg>