<svg height="480pt" viewBox="0 -65 480.064 480" width="480pt" xmlns="http://www.w3.org/2000/svg"><path d="m383.902344 6.992188c-39.765625 0-72 32.234374-72 72v108h144v-108c0-39.765626-32.230469-72-72-72zm0 0" fill="#edab37"/><path d="m415.984375 142.289062-32.082031 16.703126v56h96.160156s0-14.726563 0-28.167969c0-22.992188-40.238281-18.238281-64.078125-44.535157zm0 0" fill="#8cc152"/><path d="m351.558594 142.289062 32.082031 16.703126v56h-96.160156s0-14.726563 0-28.167969c.007812-22.992188 40.246093-18.238281 64.078125-44.535157zm0 0" fill="#8cc152"/><path d="m351.984375 142.289062h64v28.703126h-64zm0 0" fill="#e5b6a8"/><path d="m439.902344 158.992188-24.117188-16.703126-23.722656 72.703126 31.839844-32-8-8zm0 0" fill="#a0d468"/><path d="m327.640625 158.992188 24.128906-16.703126 23.71875 72.703126-31.847656-32 8-8zm0 0" fill="#a0d468"/><path d="m383.902344 166.992188c-16.335938 0-26.445313-7.917969-26.445313-7.917969l18.285157 55.925781h16.320312l18.273438-55.925781c0-.007813-10.097657 7.917969-26.433594 7.917969zm0 0" fill="#e6e9ed"/><path d="m419.984375 48.417969c-.503906-.222657-21.992187-.792969-36.082031-1.144531-14.085938.351562-35.574219.910156-36.078125 1.144531-.753907.335937-19.832031 33.457031-19.832031 33.457031v8.476562c0 35.722657 34.625 68.546876 55.910156 68.632813 21.289062-.085937 55.914062-32.910156 55.914062-68.632813v-8.476562c.007813 0-19.082031-33.121094-19.832031-33.457031zm0 0" fill="#f0c7b7"/><path d="m312.9375 90.671875c21.789062-6.101563 71.78125-24.964844 86.964844-33.6875 23.203125-13.183594 37.242187-25.605469 37.609375-25.933594-13.175781-14.738281-32.28125-24.066406-53.609375-24.066406-39.765625 0-72 32.234375-72 72 0 4 .410156 7.882813 1.035156 11.6875zm0 0" fill="#ffce54"/><path d="m455.902344 78.992188c0-19.304688-7.636719-36.796876-20.023438-49.71875l-35.976562 27.800781s17.867187 19.75 55.554687 29.800781c.285157-2.601562.445313-5.21875.445313-7.882812zm0 0" fill="#f6bb42"/><path d="m64.230469 143 31.921875 15.960938v56h-96.152344s0-14.726563 0-28.167969c0-22.992188 40.398438-17.496094 64.230469-43.792969zm0 0" fill="#4a89dc"/><path d="m128.136719 142.257812-32.082031 16.703126v56h96.160156s0-14.726563 0-28.167969c-.007813-22.992188-40.246094-18.238281-64.078125-44.535157zm0 0" fill="#4a89dc"/><path d="m104.078125 175h-16.046875l-8.007812-24.007812h32.066406zm0 0" fill="#fff"/><path d="m112.089844 214.960938h-31.921875l7.863281-39.960938h16.046875zm0 0" fill="#e6e9ed"/><path d="m80.472656 167.59375-16.097656-24.59375-.007812-16.132812 31.832031 21.621093.039062 11.105469zm0 0" fill="#5d9cec"/><path d="m111.921875 167.59375 16.09375-24.59375.007813-16.132812-31.824219 21.621093-.046875 11.105469zm0 0" fill="#5d9cec"/><path d="m152.320312 71.59375v8.078125c0 38-34.640624 73.042969-56 73.042969-21.28125 0-56-35.042969-56-73.042969v-8.078125l-.167968-.320312c21.359375-10.160157 60.398437-25.761719 95.28125-23.679688zm0 0" fill="#f0c7b7"/><path d="m48.078125 7.59375s112-40 104.242187 64l-16.207031-16.351562c-34.882812-2.082032-104 23.757812-104 23.757812 0-50 24.605469-63.40625 24.605469-63.40625zm0 0" fill="#656d78"/><path d="m183.839844 230.992188 20.496094 43.640624 32-16h3.878906v92.359376h-160.125s0-22.359376 0-44.191407c0-51.816406 47.871094-39.589843 103.75-75.808593zm0 0" fill="#ed5564"/><path d="m204.296875 274.632812-20.457031-43.640624v-15.648438l7.238281 11.289062 21.507813 15.570313 27.710937 8.429687.03125 8zm0 0" fill="#e6e9ed"/><path d="m296.457031 230.992188-20.496093 43.640624-32-16h-3.882813v92.359376h160.128906s0-22.359376 0-44.191407c-.007812-51.816406-47.878906-39.589843-103.75-75.808593zm0 0" fill="#ed5564"/><path d="m275.992188 274.632812 20.464843-43.640624v-15.648438l-7.25 11.289062-21.503906 15.570313-27.710937 8.429687-.03125 8zm0 0" fill="#e6e9ed"/><g fill="#da4453"><path d="m240.230469 286.671875c-2.207031 0-4.039063-1.789063-4.039063-4 0-2.207031 1.753906-4 3.953125-4h.085938c2.203125 0 4 1.792969 4 4 0 2.210937-1.789063 4-4 4zm0 0"/><path d="m240.230469 310.671875c-2.207031 0-4.039063-1.789063-4.039063-4 0-2.207031 1.753906-4 3.953125-4h.085938c2.203125 0 4 1.792969 4 4 0 2.210937-1.789063 4-4 4zm0 0"/><path d="m240.230469 334.671875c-2.207031 0-4.039063-1.789063-4.039063-4 0-2.207031 1.753906-4 3.953125-4h.085938c2.203125 0 4 1.792969 4 4 0 2.210937-1.789063 4-4 4zm0 0"/></g><path d="m335.960938 122.632812v7.839844c0 62.554688-59.449219 120.160156-96 120.160156-23.921876 0-57.839844-24.800781-78.242188-59.511718-10.71875-18.167969-17.757812-39.128906-17.757812-60.640625v-7.839844l28-40s32.800781 16 67.832031 16 68.167969-16 68.167969-16zm0 0" fill="#f0c7b7"/><path d="m291.960938 42.632812s57.832031-8.230468 44 80l-28-31.992187s-33.128907 16-68.167969 16c-35.039063 0-67.832031-16-67.832031-16l-28 31.992187c-2.882813-30.953124 2.550781-54.3125 13.039062-71.679687 39.59375-66.167969 150.960938-48.320313 150.960938-48.320313-26.160157 10.792969-16 40-16 40zm0 0" fill="#965353"/></svg>