<svg id="Layer_1" enable-background="new 0 0 512 512" height="512" viewBox="0 0 512 512" width="512" xmlns="http://www.w3.org/2000/svg"><g><g><g><g><path d="m7.5 38.5h497v435h-497z" fill="#fff6cc"/><path d="m464.5 38.5h40v435h-40z" fill="#fff1b5"/><path d="m7.5 38.5h497v57.167h-497z" fill="#7b7b7f"/><path d="m464.5 38.5h40v57.167h-40z" fill="#6b6b73"/></g><g><path d="m64.5 144.196h75.373v170.417h-75.373z" fill="#fd0"/><path d="m101.873 144.196h38v170.417h-38z" fill="#f7d200"/><path d="m64.5 345.72h75.373v74.28h-75.373z" fill="#00cfe9"/><path d="m173.734 144.196h269.84v95.373h-269.84z" fill="#00cfe9"/><path d="m403.574 144.196h40v95.373h-40z" fill="#00bfd6"/><path d="m173.734 271.44h117.266v148.56h-117.266z" fill="#ff7de9"/><path d="m251 271.44h40v148.56h-40z" fill="#ff5ee4"/><path d="m326.308 271.44h117.266v74.28h-117.266z" fill="#80e1ff"/><path d="m326.308 376.909h117.266v43.091h-117.266z" fill="#fd0"/></g></g></g><g><path d="m41.922 74.583c9.992 0 10.008-15 0-15-9.992 0-10.008 15 0 15z"/><path d="m68.755 74.583c9.992 0 10.008-15 0-15-9.992 0-10.008 15 0 15z"/><path d="m95.589 74.583c9.992 0 10.008-15 0-15-9.992 0-10.009 15 0 15z"/><path d="m504.5 31h-59.508c-9.697 0-9.697 15 0 15h52.008v42.167h-482v-42.167h390.135c9.697 0 9.697-15 0-15h-397.635c-4.143 0-7.5 3.358-7.5 7.5v435c0 4.142 3.357 7.5 7.5 7.5h497c4.143 0 7.5-3.358 7.5-7.5v-435c0-4.142-3.357-7.5-7.5-7.5zm-489.5 435v-362.833h482v362.833z"/><path d="m139.873 136.696h-75.373c-4.143 0-7.5 3.358-7.5 7.5v170.417c0 4.142 3.357 7.5 7.5 7.5h75.373c4.143 0 7.5-3.358 7.5-7.5v-170.417c0-4.142-3.357-7.5-7.5-7.5zm-7.5 170.417h-60.373v-155.417h60.373z"/><path d="m139.873 338.22h-75.373c-4.143 0-7.5 3.358-7.5 7.5v74.28c0 4.142 3.357 7.5 7.5 7.5h75.373c4.143 0 7.5-3.358 7.5-7.5v-74.28c0-4.142-3.357-7.5-7.5-7.5zm-7.5 74.28h-60.373v-59.28h60.373z"/><path d="m443.574 136.696h-269.84c-4.143 0-7.5 3.358-7.5 7.5v95.373c0 4.142 3.357 7.5 7.5 7.5h269.84c4.143 0 7.5-3.358 7.5-7.5v-95.373c0-4.142-3.357-7.5-7.5-7.5zm-7.5 95.373h-254.84v-80.373h254.84z"/><path d="m291 263.94h-117.266c-4.143 0-7.5 3.358-7.5 7.5v148.56c0 4.142 3.357 7.5 7.5 7.5h117.266c4.143 0 7.5-3.358 7.5-7.5v-87.028c0-9.697-15-9.697-15 0v79.528h-102.266v-133.56h102.266v14.11c0 9.697 15 9.697 15 0v-21.61c0-4.142-3.357-7.5-7.5-7.5z"/><path d="m443.574 263.94h-117.265c-4.143 0-7.5 3.358-7.5 7.5v74.28c0 4.142 3.357 7.5 7.5 7.5h117.266c4.143 0 7.5-3.358 7.5-7.5v-74.28c-.001-4.142-3.358-7.5-7.501-7.5zm-7.5 74.28h-102.265v-59.28h102.266v59.28z"/><path d="m443.574 369.409h-117.265c-4.143 0-7.5 3.358-7.5 7.5v43.091c0 4.142 3.357 7.5 7.5 7.5h117.266c4.143 0 7.5-3.358 7.5-7.5v-43.091c-.001-4.142-3.358-7.5-7.501-7.5zm-7.5 43.091h-102.265v-28.091h102.266v28.091z"/></g></g></svg>