<svg id="Capa_1" enable-background="new 0 0 512 512" height="512" viewBox="0 0 512 512" width="512" xmlns="http://www.w3.org/2000/svg"><g><g><g><path d="m512 125.26v353.24h-512v-445h127.39l124.94 29.81z" fill="#eeefff"/><path d="m512 125.26v353.24h-259.67v-415.19z" fill="#dfe1f7"/><g><path d="m512 33.5v91.761h-343.5l-41.11-91.761z" fill="#555c7c"/></g><path d="m252.33 33.5h259.67v91.761h-259.67z" fill="#373b5b"/><g><path d="m427.165 63.5h30v30h-30z" fill="#ff6e91"/></g><g><path d="m367.165 63.5h30v30h-30z" fill="#33c1b0"/></g><g><path d="m307.165 63.5h30v30h-30z" fill="#64c8ff"/></g></g></g><g><g><path d="m200.732 340.971c0 15.676-12.753 28.429-28.429 28.429s-28.429-12.753-28.429-28.429v-116.59h-30v116.59c0 32.218 26.211 58.429 58.429 58.429s58.429-26.211 58.429-58.429v-116.59h-30z" fill="#7be6ff"/><path d="m402.786 240.23-24.961-16.641-40.84 61.26-40.84-61.26-24.961 16.641 47.774 71.66-47.774 71.66 24.961 16.641 40.84-61.26 40.84 61.26 24.961-16.641-47.774-71.66z" fill="#64c8ff"/></g></g></g></svg>