<svg id="Layer_1" enable-background="new 0 0 512 512" height="512" viewBox="0 0 512 512" width="512" xmlns="http://www.w3.org/2000/svg"><g><g><g><g><path d="m7.5 38.5h497v435h-497z" fill="#fff6cc"/><path d="m464.5 38.5h40v435h-40z" fill="#fff1b5"/><path d="m7.5 38.5h497v57.167h-497z" fill="#7b7b7f"/><path d="m464.5 38.5h40v57.167h-40z" fill="#6b6b73"/></g><path d="m342 273.396h-287v-128.646h160.429l91.071 66.023z" fill="#ff7de9"/><circle cx="111.778" cy="338.364" fill="#fd0" r="28.612"/><circle cx="256" cy="338.364" fill="#00cfe9" r="28.612"/><circle cx="400.222" cy="338.364" fill="#fd0" r="28.612"/><path d="m457 144.75v128.646h-115l-126.571-128.646z" fill="#7b7b7f"/></g></g><g><path d="m41.922 74.583c9.992 0 10.008-15 0-15-9.992 0-10.008 15 0 15z"/><path d="m68.755 74.583c9.992 0 10.008-15 0-15-9.992 0-10.008 15 0 15z"/><path d="m95.589 74.583c9.992 0 10.008-15 0-15-9.992 0-10.009 15 0 15z"/><path d="m504.5 31h-497c-4.142 0-7.5 3.358-7.5 7.5v435c0 4.142 3.358 7.5 7.5 7.5h497c4.142 0 7.5-3.358 7.5-7.5v-40.56c0-9.385-15-9.813-15 0v33.06h-482v-362.833h482v289.875c0 9.385 15 9.813 15 0v-354.542c0-4.142-3.358-7.5-7.5-7.5zm-489.5 57.167v-42.167h482v42.167z"/><path d="m464.5 273.396v-128.646c0-4.142-3.358-7.5-7.5-7.5h-316.689c-9.385 0-9.813 15 0 15h71.977l111.812 113.646h-261.6v-113.646h37.83c9.385 0 9.813-15 0-15h-45.33c-4.142 0-7.5 3.358-7.5 7.5v128.646c0 4.142 3.358 7.5 7.5 7.5h402c4.142 0 7.5-3.358 7.5-7.5zm-15-7.5h-104.358l-111.813-113.646h216.171z"/><path d="m147.89 338.364c0-19.913-16.2-36.112-36.112-36.112-47.908 1.983-47.894 70.249 0 72.225 19.912 0 36.112-16.2 36.112-36.113zm-57.224 0c0-11.642 9.471-21.112 21.112-21.112 28.008 1.159 28 41.07 0 42.225-11.642 0-21.112-9.471-21.112-21.113z"/><path d="m292.112 338.364c0-19.913-16.2-36.112-36.112-36.112-47.908 1.983-47.894 70.249 0 72.225 19.913 0 36.112-16.2 36.112-36.113zm-57.224 0c0-11.642 9.471-21.112 21.112-21.112 28.008 1.159 28 41.07 0 42.225-11.642 0-21.112-9.471-21.112-21.113z"/><path d="m436.334 338.364c0-19.913-16.2-36.112-36.112-36.112-47.908 1.983-47.894 70.249 0 72.225 19.913 0 36.112-16.2 36.112-36.113zm-57.224 0c0-11.642 9.471-21.112 21.112-21.112 28.008 1.159 28 41.07 0 42.225-11.641 0-21.112-9.471-21.112-21.113z"/><path d="m169.611 398.333c0-4.142-3.358-7.5-7.5-7.5h-100.666c-9.385 0-9.813 15 0 15h100.667c4.141 0 7.499-3.357 7.499-7.5z"/><path d="m81.445 421.167c-9.385 0-9.813 15 0 15h60.667c9.385 0 9.813-15 0-15z"/><path d="m313.833 398.333c0-4.142-3.358-7.5-7.5-7.5h-100.666c-9.385 0-9.813 15 0 15h100.667c4.142 0 7.499-3.357 7.499-7.5z"/><path d="m225.667 421.167c-9.385 0-9.813 15 0 15h60.667c9.385 0 9.813-15 0-15z"/><path d="m458.055 398.333c0-4.142-3.358-7.5-7.5-7.5h-100.666c-9.385 0-9.813 15 0 15h100.667c4.141 0 7.499-3.357 7.499-7.5z"/><path d="m369.889 421.167c-9.385 0-9.813 15 0 15h60.667c9.385 0 9.813-15 0-15z"/><path d="m326.333 200.573h89.667c9.385 0 9.813-15 0-15h-89.667c-9.385 0-9.812 15 0 15z"/><path d="m416 217.573h-46.111c-9.385 0-9.813 15 0 15h46.111c9.385 0 9.813-15 0-15z"/></g></g></svg>