<svg id="Capa_1" enable-background="new 0 0 497 497" height="512" viewBox="0 0 497 497" width="512" xmlns="http://www.w3.org/2000/svg"><g id="_x3C_Group_x3E__41_"><path d="m359.911 368.613h25.348v85.043h-25.348z" fill="#5f6c75"/><path d="m47.17 237.209h402.66v142.979h-402.66z" fill="#b78c7a"/><path d="m47.17 237.211h402.66v25h-402.66z" fill="#ab7b64"/><path d="m275.952 472.081 101.974-6.5 78.794 6.5v-30h-180.768z" fill="#6d7c84"/><path d="m275.95 459.081h180.77v13h-180.77z" fill="#5f6c75"/><path d="m298.452 457.081c0-12.426-10.074-22.5-22.5-22.5-2.827 0-5.532.521-8.025 1.473-8.464 3.232-6.683 10.364-6.683 19.963 0 12.426 2.279 19.064 14.705 19.064 9.6 0 17.798-1.512 21.029-9.976.953-2.492 1.474-5.197 1.474-8.024z" fill="#e9edf1"/><path d="m296.97 465.101c-3.22 8.47-11.42 14.48-21.02 14.48-12.42 0-22.5-10.07-22.5-22.5 0-9.6 6.02-17.8 14.48-21.02-.96 2.49-1.48 5.19-1.48 8.02 0 12.43 10.08 22.5 22.5 22.5 2.82 0 5.53-.52 8.02-1.48z" fill="#dce6eb"/><path d="m53.415 477.72-19.298-1.426c-1.657 0-3-1.343-3-3l3.064-236.083 24.319 4.37v224l-2.085 9.138c0 1.657-1.343 3.001-3 3.001z" fill="#ab7b64"/><path d="m58.5 465.581v11c0 1.66-1.34 3-3 3h-24c-1.66 0-3-1.34-3-3v-235h14v221c0 1.66 1.34 3 3 3z" fill="#9a6a53"/><path d="m459.032 475.081-12.66-1.5c-1.657 0-3-1.343-3-3l2.043-232.691 23.085 1.691v226l-6.468 6.5c0 1.657-1.343 3-3 3z" fill="#ab7b64"/><path d="m468.5 465.581v11c0 1.66-1.34 3-3 3h-24c-1.66 0-3-1.34-3-3v-237h14v223c0 1.66 1.34 3 3 3z" fill="#9a6a53"/><g><path d="m146.816 117.047h-118.5c-5.523 0-10-4.477-10-10v-10c0-5.523 4.477-10 10-10h118.5c5.523 0 10 4.477 10 10v10c0 5.523-4.477 10-10 10z" fill="#f7f9fa"/><path d="m156.82 103.049v4c0 5.52-4.48 10-10 10h-118.5c-5.53 0-10-4.48-10-10v-10c0-5.52 4.47-10 10-10h6v9c0 3.86 3.13 7 7 7z" fill="#e9edf1"/><g><path d="m146.816 124.547h-118.5c-9.649 0-17.5-7.851-17.5-17.5v-10c0-9.649 7.851-17.5 17.5-17.5h118.5c9.649 0 17.5 7.851 17.5 17.5v10c0 9.65-7.85 17.5-17.5 17.5zm-118.5-30c-1.378 0-2.5 1.121-2.5 2.5v10c0 1.379 1.122 2.5 2.5 2.5h118.5c1.378 0 2.5-1.121 2.5-2.5v-10c0-1.379-1.122-2.5-2.5-2.5z" fill="#b3e59f"/></g><g><path d="m164.32 102.929v4.12c0 9.65-7.85 17.5-17.5 17.5l-67.873 7.298-50.627-7.298c-9.65 0-17.5-7.85-17.5-17.5v-10c0-9.65 7.85-17.5 17.5-17.5h6v15h-6c-1.38 0-2.5 1.12-2.5 2.5v10c0 1.38 1.12 2.5 2.5 2.5h118.5c1.37 0 2.5-1.12 2.5-2.5v-4h13.5c.51 0 1.01-.04 1.5-.12z" fill="#95d6a4"/></g></g><path d="m443.372 214.23-138.723-3.064-6.125-103.149c-1.209-17.902 12.986-33.089 30.93-33.089l15.796-8.749h80.468c17.943 0 32.139 15.187 30.93 33.089l-6.819 100.962z" fill="#e9edf1"/><g fill="#dce6eb"><path d="m295.11 77.981v46.83h-4.86l-1.73-25.54c-.54-8.01 2-15.48 6.59-21.29z"/><path d="m317.207 200.231c-2.115 0-3.865-1.647-3.993-3.758l-1.104-18.219c-.103-1.695 1.22-3.161 2.918-3.176 16.299-.151 30.319-13.052 30.222-29.907v-78.99h-25.8c-3.317 0-6.501.53-9.489 1.49.003-.007.006-.014.009-.021-5.847 1.877-11.057 5.521-14.86 10.33v.008c-4.585 5.806-7.133 13.27-6.59 21.282l6.824 100.96h-.004l.95 14 83.933 10.722 68.657-10.722.95-14h-132.623z"/></g><g><path d="m146.816 162.047h-118.5c-5.523 0-10-4.477-10-10v-10c0-5.523 4.477-10 10-10h118.5c5.523 0 10 4.477 10 10v10c0 5.523-4.477 10-10 10z" fill="#f7f9fa"/><path d="m156.82 148.049v4c0 5.52-4.48 10-10 10h-118.5c-5.53 0-10-4.48-10-10v-10c0-5.52 4.47-10 10-10h6v9c0 3.86 3.13 7 7 7z" fill="#e9edf1"/><g><path d="m146.816 169.547h-118.5c-9.649 0-17.5-7.851-17.5-17.5v-10c0-9.649 7.851-17.5 17.5-17.5h118.5c9.649 0 17.5 7.851 17.5 17.5v10c0 9.65-7.85 17.5-17.5 17.5zm-118.5-30c-1.378 0-2.5 1.121-2.5 2.5v10c0 1.379 1.122 2.5 2.5 2.5h118.5c1.378 0 2.5-1.121 2.5-2.5v-10c0-1.379-1.122-2.5-2.5-2.5z" fill="#df646e"/></g><g><path d="m164.32 147.929v4.12c0 9.65-7.85 17.5-17.5 17.5l-63.448 7.404-55.052-7.404c-9.65 0-17.5-7.85-17.5-17.5v-10c0-9.65 7.85-17.5 17.5-17.5h6v15h-6c-1.38 0-2.5 1.12-2.5 2.5v10c0 1.38 1.12 2.5 2.5 2.5h118.5c1.37 0 2.5-1.12 2.5-2.5v-4h13.5c.51 0 1.01-.04 1.5-.12z" fill="#dc4955"/></g></g><g><path d="m146.816 207.078h-118.5c-5.523 0-10-4.477-10-10v-10c0-5.523 4.477-10 10-10h118.5c5.523 0 10 4.477 10 10v10c0 5.523-4.477 10-10 10z" fill="#f7f9fa"/><path d="m156.82 193.08v4c0 5.52-4.48 10-10 10h-118.5c-5.53 0-10-4.48-10-10v-10c0-5.52 4.47-10 10-10h6v9c0 3.86 3.13 7 7 7z" fill="#e9edf1"/><g><path d="m146.816 214.578h-118.5c-9.649 0-17.5-7.851-17.5-17.5v-10c0-9.649 7.851-17.5 17.5-17.5h118.5c9.649 0 17.5 7.851 17.5 17.5v10c0 9.649-7.85 17.5-17.5 17.5zm-118.5-30c-1.378 0-2.5 1.121-2.5 2.5v10c0 1.379 1.122 2.5 2.5 2.5h118.5c1.378 0 2.5-1.121 2.5-2.5v-10c0-1.379-1.122-2.5-2.5-2.5z" fill="#ffd064"/></g><g><path d="m164.32 192.96v4.12c0 9.65-7.85 17.5-17.5 17.5h-118.5c-9.65 0-17.5-7.85-17.5-17.5v-10c0-9.65 7.85-17.5 17.5-17.5h6v15h-6c-1.38 0-2.5 1.12-2.5 2.5v10c0 1.38 1.12 2.5 2.5 2.5h118.5c1.37 0 2.5-1.12 2.5-2.5v-4h13.5c.51 0 1.01-.04 1.5-.12z" fill="#ffc250"/></g></g><path d="m209.5 154.23h30v32.766h-30z" fill="#5f6c75"/><path d="m478.777 239.581-460.46 2.628c-5.523 0-10-4.477-10-10l2.5-3.989c0-5.523-6.339-13.989-.816-13.989h477c5.523 0 10 4.477 10 10v10c-.001 5.522-12.702 5.35-18.224 5.35z" fill="#ab7b64"/><path d="m497 231.231v3c0 5.52-4.48 10-10 10h-477c-5.52 0-10-4.48-10-10v-10c0-5.52 4.48-10 10-10h3v10c0 3.86 3.13 7 7 7z" fill="#9a6a53"/><path d="m320.716 153.595h-192.432c-2.93 0-5.305-2.375-5.305-5.305v-118.417c0-2.93 2.375-5.305 5.305-5.305h192.433c2.93 0 5.305 2.375 5.305 5.305v118.417c0 2.93-2.376 5.305-5.306 5.305z" fill="#bed9fd"/><path d="m321.77 133.609v12.199c0 2.807-2.276 5.083-5.083 5.083h-184.374c-2.807 0-5.083-2.276-5.083-5.083v-113.454c0-2.807 2.276-5.083 5.083-5.083h12.199v104.305c0 1.123.91 2.033 2.033 2.033z" fill="#9ec8fc"/><path d="m320.548 160.744h-192.096c-6.86 0-12.441-5.581-12.441-12.441v-118.443c0-6.86 5.581-12.441 12.441-12.441h192.096c6.86 0 12.441 5.581 12.441 12.441v118.443c0 6.86-5.581 12.441-12.441 12.441zm-185.384-14.93h178.673c2.333 0 4.223-1.891 4.223-4.223v-105.019c0-2.333-1.891-4.223-4.223-4.223h-178.673c-2.333 0-4.223 1.891-4.223 4.223v105.019c-.001 2.332 1.89 4.223 4.223 4.223z" fill="#6d7c84"/><path d="m262.287 214.23h-75.574v-7c0-12.703 10.297-23 23-23h29.574c12.703 0 23 10.297 23 23z" fill="#6d7c84"/><path d="m262.29 207.231v7h-75.58v-7c0-10.42 6.94-19.23 16.45-22.05-.94 2.51-1.45 5.22-1.45 8.05v4c0 1.657 1.343 3 3 3h56.5c.7 2.21 1.08 4.56 1.08 7z" fill="#5f6c75"/></g></svg>