<?xml version="1.0" encoding="iso-8859-1"?>
<!-- Generator: Adobe Illustrator 19.0.0, SVG Export Plug-In . SVG Version: 6.00 Build 0)  -->
<svg xmlns="http://www.w3.org/2000/svg" xmlns:xlink="http://www.w3.org/1999/xlink" version="1.1" id="Layer_1" x="0px" y="0px" viewBox="0 0 512 512" style="enable-background:new 0 0 512 512;" xml:space="preserve" width="512" height="512">
<g id="XMLID_643_">
	<g id="XMLID_2276_">
		<g id="XMLID_1981_">
			<circle id="XMLID_1979_" style="fill:#55B2FF;" cx="282.945" cy="229" r="219"/>
			<path id="XMLID_2031_" style="fill:#C0E549;" d="M66.475,195.614l0.804,7.084l35.925-31.907     c9.497-8.434,21.757-13.093,34.458-13.093h74.784c24.024,0,43.5-19.476,43.5-43.5v0c0-24.024-19.476-43.5-43.5-43.5h-2.515     c-6.061,0-11.747-2.937-15.254-7.88l-16.408-23.12l-6.349,0.51C116.427,72.913,76.607,129.372,66.475,195.614z"/>
			<path id="XMLID_1978_" style="fill:#D0EC7E;" d="M419.812,58.046h-25.38c-28.244,0-51.14,22.896-51.14,51.14     c0,10.49-8.504,18.995-18.995,18.995c-18.56,0-33.606,15.046-33.606,33.606c0,22.595,18.317,40.912,40.912,40.912h168.764     C493.379,144.324,463.433,93.015,419.812,58.046z"/>
			<path id="XMLID_1970_" style="fill:#C0E549;" d="M359.528,202.698h-77.275c-16.758,0-30.343,13.585-30.343,30.343v13.36     c0,16.758,13.585,30.343,30.343,30.343h0c12.855,0,23.276,10.421,23.276,23.276v66.05c0,6.357,7.834,9.373,12.096,4.656     l16.354-18.095c3.955-4.376,9.578-6.874,15.477-6.874h0c11.522,0,20.862-9.34,20.862-20.862v-30.172     c0-8.02,6.502-14.522,14.522-14.522h5.278c12.561,0,22.744-10.183,22.744-22.744v-1.424c0-11.775-9.545-21.32-21.32-21.32h0     c-8.02,0-14.522-6.502-14.522-14.522v0C377.021,210.53,369.189,202.698,359.528,202.698z"/>
			<g id="XMLID_2194_">
				<circle id="XMLID_2211_" style="fill:#93E7F8;" cx="128.055" cy="384" r="118"/>
			</g>
		</g>
	</g>
	<g id="XMLID_628_">
		<g id="XMLID_629_">
			<path id="XMLID_637_" d="M444.873,67.073C401.62,23.82,344.113,0,282.945,0S164.271,23.82,121.018,67.073     C77.766,110.325,53.945,167.832,53.945,229c0,15.959,1.663,31.861,4.92,47.357C23.511,299.161,0.055,338.892,0.055,384     c0,70.579,57.421,128,128,128c45.144,0,84.902-23.492,107.697-58.893c15.438,3.233,31.293,4.893,47.194,4.893     c36.729,0,71.816-8.436,104.288-25.073c4.916-2.518,6.858-8.544,4.34-13.459c-2.519-4.917-8.547-6.858-13.459-4.34     C348.492,430.305,316.473,438,282.945,438c-12.558,0-25.08-1.137-37.35-3.347c6.724-15.543,10.459-32.669,10.459-50.653     c0-70.579-57.421-128-128-128c-18.018,0-35.174,3.75-50.74,10.497c-2.229-12.319-3.37-24.886-3.37-37.497     c0-6.636,0.325-13.197,0.933-19.677l34.966-31.056c7.674-6.815,17.553-10.569,27.816-10.569h74.784c29.5,0,53.5-24,53.5-53.5     s-24-53.5-53.5-53.5h-2.515c-2.816,0-5.471-1.371-7.1-3.667l-11.314-15.943C219.15,27.589,250.177,20,282.945,20     c38.276,0,74.176,10.352,105.063,28.389c-30.881,3.232-54.716,29.452-54.716,60.796c0,4.959-4.035,8.995-8.995,8.995     c-24.045,0-43.606,19.562-43.606,43.606c0,11.619,3.92,22.334,10.497,30.912h-8.936c-22.245,0-40.343,18.098-40.343,40.343v13.36     c0,22.245,18.098,40.342,40.343,40.342c7.32,0,13.276,5.956,13.276,13.276v66.05c0,7.067,4.262,13.274,10.857,15.813     c2.01,0.773,4.087,1.149,6.138,1.149c4.681,0,9.226-1.956,12.52-5.602l16.354-18.095c2.056-2.274,4.993-3.579,8.059-3.579     c17.018,0,30.862-13.845,30.862-30.861v-30.172c0-2.494,2.028-4.522,4.521-4.522h5.278c18.055,0,32.744-14.688,32.744-32.744     v-1.424c0-17.27-14.05-31.32-31.32-31.32c-2.493,0-4.521-2.028-4.521-4.521c0-2.598-0.37-5.11-1.047-7.494h105.338     c0.417,5.38,0.632,10.817,0.632,16.302c0,51.357-18.803,100.731-52.943,139.026c-3.676,4.122-3.313,10.443,0.81,14.118     c1.906,1.7,4.282,2.536,6.65,2.536c2.752,0,5.493-1.13,7.468-3.346c37.412-41.963,58.016-96.063,58.016-152.335     C511.945,167.832,488.125,110.325,444.873,67.073z M236.055,384c0,59.552-48.448,108-108,108s-108-48.448-108-108     s48.448-108,108-108S236.055,324.448,236.055,384z M186.521,68.606c5.373,7.571,14.125,12.092,23.41,12.092h2.515     c18.472,0,33.5,15.028,33.5,33.5s-15.028,33.5-33.5,33.5h-74.784c-15.164,0-29.76,5.546-41.098,15.616l-16.251,14.434     c13.532-53.476,47.729-98.805,93.563-126.96L186.521,68.606z M367.021,220.192c0,13.521,11,24.521,24.521,24.521     c6.242,0,11.32,5.078,11.32,11.32v1.424c0,7.027-5.717,12.744-12.744,12.744h-5.278c-13.521,0-24.521,11.001-24.521,24.522     v30.172c0,5.989-4.873,10.861-10.862,10.861c-8.71,0-17.056,3.706-22.896,10.169l-11.031,12.205V300.02     c0-18.349-14.928-33.276-33.276-33.276c-11.217,0-20.343-9.126-20.343-20.342v-13.36c0-11.217,9.126-20.343,20.343-20.343h49.351     h27.924C363.659,212.698,367.021,216.06,367.021,220.192z M359.527,192.698h-27.924c-17.045,0-30.912-13.867-30.912-30.912     c0-13.017,10.59-23.606,23.606-23.606c15.988,0,28.995-13.007,28.995-28.995c0-21.667,16.916-39.701,38.511-41.057     c0.447-0.028,0.882-0.095,1.31-0.179c0.432,0.057,0.87,0.097,1.318,0.097h21.689c26.565,22.018,47.602,50.477,60.715,82.954     h-48.168c-5.522,0-10,4.477-10,10s4.478,10,10,10h55.083c2.05,7.087,3.736,14.326,5.032,21.698H359.527z"/>
			<path id="XMLID_636_" d="M178.278,192.698c-5.522,0-10,4.477-10,10s4.478,10,10,10h36.667c5.522,0,10-4.477,10-10     s-4.478-10-10-10H178.278z"/>
			<path id="XMLID_635_" d="M44.23,373.904c-5.522,0-10,4.478-10,10s4.478,10,10,10h7.263c5.522,0,10-4.478,10-10s-4.478-10-10-10     H44.23z"/>
			<path id="XMLID_634_" d="M204.616,394.096h7.264c5.522,0,10-4.478,10-10s-4.478-10-10-10h-7.264c-5.522,0-10,4.478-10,10     S199.094,394.096,204.616,394.096z"/>
			<path id="XMLID_633_" d="M128.15,317.438c5.522,0,10-4.478,10-10v-7.264c0-5.522-4.478-10-10-10s-10,4.478-10,10v7.264     C118.15,312.961,122.628,317.438,128.15,317.438z"/>
			<path id="XMLID_632_" d="M128.055,470.23c5.522,0,10-4.478,10-10V394h22.023c5.522,0,10-4.478,10-10s-4.478-10-10-10h-32.023     c-5.522,0-10,4.478-10,10v76.23C118.055,465.753,122.532,470.23,128.055,470.23z"/>
			<path id="XMLID_631_" d="M417.06,391.79c-2.63,0-5.21,1.069-7.069,2.93c-1.86,1.86-2.931,4.44-2.931,7.07s1.07,5.21,2.931,7.069     c1.859,1.86,4.439,2.931,7.069,2.931s5.21-1.07,7.07-2.931c1.86-1.859,2.93-4.439,2.93-7.069s-1.069-5.21-2.93-7.07     S419.689,391.79,417.06,391.79z"/>
			<path id="XMLID_630_" d="M388.67,151c-2.641,0-5.21,1.07-7.07,2.93c-1.87,1.86-2.93,4.44-2.93,7.07c0,2.63,1.06,5.21,2.93,7.07     c1.86,1.86,4.44,2.93,7.07,2.93s5.2-1.07,7.07-2.93c1.859-1.86,2.93-4.44,2.93-7.07c0-2.63-1.07-5.21-2.93-7.07     C393.88,152.07,391.3,151,388.67,151z"/>
		</g>
	</g>
</g>















</svg>
