<?xml version="1.0" encoding="utf-8"?>
<!-- Generator: Adobe Illustrator 22.0.1, SVG Export Plug-In . SVG Version: 6.00 Build 0)  -->
<svg version="1.1" id="Capa_1" xmlns="http://www.w3.org/2000/svg" xmlns:xlink="http://www.w3.org/1999/xlink" x="0px" y="0px"  width="720" height="420"
	 viewBox="0 0 720 420" style="enable-background:new 0 0 720 420;" xml:space="preserve">
<style type="text/css">
	.st0{fill:#FFE9F0;}
</style>
<rect x="0.8" class="st0" width="720" height="420"/>
<g>
	<path d="M204.3,193.5c1.9-1,4-1.5,6.3-1.5c2.7,0,5.2,0.7,7.4,2c2.2,1.3,4,3.2,5.2,5.6c1.3,2.4,1.9,5.1,1.9,8.3
		c0,3.1-0.6,5.9-1.9,8.3c-1.3,2.5-3,4.4-5.2,5.7c-2.2,1.4-4.7,2-7.4,2c-2.4,0-4.5-0.5-6.3-1.4c-1.8-1-3.3-2.1-4.5-3.6v19.2h-6.4
		v-45.6h6.4v4.5C201,195.7,202.4,194.5,204.3,193.5z M217.4,202.4c-0.9-1.6-2-2.7-3.5-3.5c-1.4-0.8-3-1.2-4.6-1.2s-3.1,0.4-4.6,1.2
		c-1.4,0.8-2.6,2-3.5,3.6s-1.3,3.4-1.3,5.6c0,2.1,0.4,4,1.3,5.6c0.9,1.6,2,2.8,3.5,3.6c1.4,0.8,3,1.2,4.6,1.2s3.2-0.4,4.6-1.3
		c1.4-0.8,2.6-2.1,3.5-3.7c0.9-1.6,1.3-3.5,1.3-5.6C218.7,205.8,218.2,203.9,217.4,202.4z"/>
	<path d="M237.9,182v41.5h-6.4V182H237.9z"/>
	<path d="M246.2,199.6c1.3-2.4,3.1-4.3,5.3-5.6c2.2-1.3,4.7-2,7.4-2c2.4,0,4.6,0.5,6.4,1.4c1.8,1,3.3,2.1,4.4,3.6v-4.5h6.5v30.9
		h-6.5v-4.6c-1.1,1.5-2.6,2.7-4.4,3.6c-1.9,1-4,1.5-6.4,1.5c-2.7,0-5.1-0.7-7.3-2c-2.2-1.4-4-3.3-5.2-5.7c-1.3-2.5-1.9-5.2-1.9-8.3
		C244.2,204.8,244.9,202,246.2,199.6z M268.2,202.4c-0.9-1.6-2-2.8-3.5-3.6c-1.4-0.8-3-1.2-4.6-1.2s-3.2,0.4-4.6,1.2s-2.6,2-3.5,3.5
		c-0.9,1.6-1.3,3.4-1.3,5.5s0.4,4,1.3,5.6s2,2.8,3.5,3.7c1.4,0.8,3,1.3,4.6,1.3s3.2-0.4,4.6-1.2s2.6-2,3.5-3.6s1.3-3.5,1.3-5.6
		C269.5,205.9,269.1,204,268.2,202.4z"/>
	<path d="M284.2,199.6c1.3-2.4,3.1-4.3,5.4-5.6s4.9-2,7.9-2c3.7,0,6.8,0.9,9.3,2.7s4.1,4.3,5,7.6h-6.9c-0.6-1.5-1.5-2.7-2.7-3.6
		c-1.2-0.9-2.8-1.3-4.7-1.3c-2.6,0-4.7,0.9-6.3,2.8c-1.6,1.9-2.3,4.4-2.3,7.8c0,3.3,0.8,5.9,2.3,7.8c1.6,1.9,3.6,2.8,6.3,2.8
		c3.7,0,6.2-1.6,7.4-4.9h6.9c-0.9,3.1-2.6,5.6-5.1,7.5s-5.5,2.8-9.2,2.8c-3,0-5.6-0.7-7.9-2s-4.1-3.2-5.4-5.6
		c-1.3-2.4-1.9-5.2-1.9-8.4C282.3,204.8,282.9,202,284.2,199.6z"/>
	<path d="M346.2,210.4h-23.6c0.2,2.5,1.1,4.5,2.8,6c1.6,1.5,3.7,2.2,6.1,2.2c3.4,0,5.9-1.4,7.3-4.3h6.9c-0.9,2.8-2.6,5.2-5.1,7
		s-5.5,2.7-9.1,2.7c-3,0-5.6-0.7-7.9-2s-4.2-3.2-5.5-5.6c-1.3-2.4-2-5.2-2-8.4s0.6-6,1.9-8.4s3.1-4.3,5.4-5.6s5-2,8.1-2
		c2.9,0,5.5,0.6,7.8,1.9c2.3,1.3,4.1,3.1,5.3,5.4c1.3,2.3,1.9,5,1.9,7.9C346.5,208.4,346.4,209.5,346.2,210.4z M339.8,205.3
		c0-2.4-0.9-4.2-2.5-5.7c-1.6-1.4-3.7-2.1-6.1-2.1c-2.2,0-4.1,0.7-5.7,2.1c-1.6,1.4-2.5,3.3-2.8,5.7H339.8z"/>
	<path d="M375.1,193.6c1.9,1,3.3,2.5,4.4,4.5s1.6,4.4,1.6,7.2v18.2h-6.3v-17.3c0-2.8-0.7-4.9-2.1-6.4s-3.3-2.2-5.7-2.2
		c-2.4,0-4.3,0.7-5.7,2.2c-1.4,1.5-2.1,3.6-2.1,6.4v17.3h-6.4V182h6.4v14.2c1.1-1.3,2.5-2.3,4.1-3c1.7-0.7,3.5-1.1,5.5-1.1
		C371.1,192.1,373.2,192.6,375.1,193.6z"/>
	<path d="M394.7,222c-2.4-1.3-4.2-3.2-5.6-5.6c-1.3-2.4-2-5.2-2-8.4c0-3.1,0.7-5.9,2.1-8.4c1.4-2.4,3.3-4.3,5.7-5.6
		c2.4-1.3,5.1-2,8-2c3,0,5.6,0.7,8,2s4.3,3.2,5.7,5.6c1.4,2.4,2.1,5.2,2.1,8.4s-0.7,5.9-2.1,8.4c-1.4,2.4-3.4,4.3-5.8,5.6
		c-2.5,1.3-5.2,2-8.1,2C399.7,224,397,223.3,394.7,222z M407.2,217.3c1.4-0.8,2.6-2,3.5-3.5c0.9-1.6,1.3-3.5,1.3-5.7
		s-0.4-4.1-1.3-5.7c-0.9-1.6-2-2.7-3.4-3.5s-3-1.2-4.6-1.2s-3.2,0.4-4.6,1.2s-2.5,2-3.3,3.5c-0.8,1.6-1.2,3.5-1.2,5.7
		c0,3.3,0.9,5.9,2.6,7.7s3.8,2.7,6.4,2.7C404.2,218.4,405.8,218.1,407.2,217.3z"/>
	<path d="M431.4,182v41.5H425V182H431.4z"/>
	<path d="M439.6,199.6c1.3-2.4,3-4.3,5.3-5.6c2.2-1.3,4.7-2,7.4-2c2,0,4,0.4,6,1.3c2,0.9,3.5,2,4.7,3.5v-14.9h6.5v41.5H463v-4.7
		c-1,1.5-2.5,2.7-4.4,3.7s-4,1.5-6.4,1.5c-2.7,0-5.2-0.7-7.4-2c-2.2-1.4-4-3.3-5.3-5.7c-1.3-2.5-1.9-5.2-1.9-8.3
		C437.7,204.8,438.3,202,439.6,199.6z M461.7,202.4c-0.9-1.6-2-2.8-3.5-3.6c-1.4-0.8-3-1.2-4.6-1.2s-3.2,0.4-4.6,1.2s-2.6,2-3.5,3.5
		c-0.9,1.6-1.3,3.4-1.3,5.5s0.4,4,1.3,5.6s2,2.8,3.5,3.7c1.4,0.8,3,1.3,4.6,1.3s3.2-0.4,4.6-1.2s2.6-2,3.5-3.6s1.3-3.5,1.3-5.6
		C463,205.9,462.6,204,461.7,202.4z"/>
	<path d="M506,210.4h-23.6c0.2,2.5,1.1,4.5,2.8,6c1.6,1.5,3.7,2.2,6.1,2.2c3.4,0,5.9-1.4,7.3-4.3h6.9c-0.9,2.8-2.6,5.2-5.1,7
		s-5.5,2.7-9.1,2.7c-3,0-5.6-0.7-7.9-2s-4.2-3.2-5.5-5.6c-1.3-2.4-2-5.2-2-8.4s0.6-6,1.9-8.4s3.1-4.3,5.4-5.6s5-2,8.1-2
		c2.9,0,5.5,0.6,7.8,1.9c2.3,1.3,4.1,3.1,5.3,5.4c1.3,2.3,1.9,5,1.9,7.9C506.2,208.4,506.2,209.5,506,210.4z M499.5,205.3
		c0-2.4-0.9-4.2-2.5-5.7c-1.6-1.4-3.7-2.1-6.1-2.1c-2.2,0-4.1,0.7-5.7,2.1c-1.6,1.4-2.5,3.3-2.8,5.7H499.5z"/>
	<path d="M522.6,193.4c1.6-0.9,3.4-1.3,5.5-1.3v6.6h-1.6c-2.5,0-4.4,0.6-5.7,1.9c-1.3,1.3-1.9,3.5-1.9,6.6v16.3h-6.4v-30.9h6.4v4.5
		C519.9,195.5,521.1,194.3,522.6,193.4z"/>
</g>
</svg>
