<svg xmlns="http://www.w3.org/2000/svg" xmlns:xlink="http://www.w3.org/1999/xlink" width="174" height="114" viewBox="0 0 174 114"><defs><style>.a{fill:none;}.b{opacity:0.12;clip-path:url(#a);}</style><clipPath id="a"><rect class="a" width="174" height="114"/></clipPath></defs><g transform="translate(-785 -393)"><g class="b" transform="translate(785 393)"><g transform="translate(-8593 385)"><circle cx="2" cy="2" r="2" transform="translate(8593 -385)"/></g><g transform="translate(-8578 385)"><circle cx="2" cy="2" r="2" transform="translate(8593 -385)"/></g><g transform="translate(-8563 385)"><circle cx="2" cy="2" r="2" transform="translate(8593 -385)"/></g><g transform="translate(-8548 385)"><circle cx="2" cy="2" r="2" transform="translate(8593 -385)"/></g><g transform="translate(-8533 385)"><circle cx="2" cy="2" r="2" transform="translate(8593 -385)"/></g><g transform="translate(-8518 385)"><circle cx="2" cy="2" r="2" transform="translate(8593 -385)"/></g><g transform="translate(-8503 385)"><circle cx="2" cy="2" r="2" transform="translate(8593 -385)"/></g><g transform="translate(-8488 385)"><circle cx="2" cy="2" r="2" transform="translate(8593 -385)"/></g><g transform="translate(-8473 385)"><circle cx="2" cy="2" r="2" transform="translate(8593 -385)"/></g><g transform="translate(-8458 385)"><circle cx="2" cy="2" r="2" transform="translate(8593 -385)"/></g><g transform="translate(-8443 385)"><circle cx="2" cy="2" r="2" transform="translate(8593 -385)"/></g><g transform="translate(-8428 385)"><circle cx="2" cy="2" r="2" transform="translate(8593 -385)"/></g><g transform="translate(-8593 403)"><circle cx="2" cy="2" r="2" transform="translate(8593 -385)"/></g><g transform="translate(-8578 403)"><circle cx="2" cy="2" r="2" transform="translate(8593 -385)"/></g><g transform="translate(-8563 403)"><circle cx="2" cy="2" r="2" transform="translate(8593 -385)"/></g><g transform="translate(-8548 403)"><circle cx="2" cy="2" r="2" transform="translate(8593 -385)"/></g><g transform="translate(-8533 403)"><circle cx="2" cy="2" r="2" transform="translate(8593 -385)"/></g><g transform="translate(-8518 403)"><circle cx="2" cy="2" r="2" transform="translate(8593 -385)"/></g><g transform="translate(-8503 403)"><circle cx="2" cy="2" r="2" transform="translate(8593 -385)"/></g><g transform="translate(-8488 403)"><circle cx="2" cy="2" r="2" transform="translate(8593 -385)"/></g><g transform="translate(-8473 403)"><circle cx="2" cy="2" r="2" transform="translate(8593 -385)"/></g><g transform="translate(-8458 403)"><circle cx="2" cy="2" r="2" transform="translate(8593 -385)"/></g><g transform="translate(-8443 403)"><circle cx="2" cy="2" r="2" transform="translate(8593 -385)"/></g><g transform="translate(-8428 403)"><circle cx="2" cy="2" r="2" transform="translate(8593 -385)"/></g><g transform="translate(-8593 421)"><circle cx="2" cy="2" r="2" transform="translate(8593 -385)"/></g><g transform="translate(-8578 421)"><circle cx="2" cy="2" r="2" transform="translate(8593 -385)"/></g><g transform="translate(-8563 421)"><circle cx="2" cy="2" r="2" transform="translate(8593 -385)"/></g><g transform="translate(-8548 421)"><circle cx="2" cy="2" r="2" transform="translate(8593 -385)"/></g><g transform="translate(-8533 421)"><circle cx="2" cy="2" r="2" transform="translate(8593 -385)"/></g><g transform="translate(-8518 421)"><circle cx="2" cy="2" r="2" transform="translate(8593 -385)"/></g><g transform="translate(-8503 421)"><circle cx="2" cy="2" r="2" transform="translate(8593 -385)"/></g><g transform="translate(-8488 421)"><circle cx="2" cy="2" r="2" transform="translate(8593 -385)"/></g><g transform="translate(-8473 421)"><circle cx="2" cy="2" r="2" transform="translate(8593 -385)"/></g><g transform="translate(-8458 421)"><circle cx="2" cy="2" r="2" transform="translate(8593 -385)"/></g><g transform="translate(-8443 421)"><circle cx="2" cy="2" r="2" transform="translate(8593 -385)"/></g><g transform="translate(-8428 421)"><circle cx="2" cy="2" r="2" transform="translate(8593 -385)"/></g><g transform="translate(-8593 439)"><circle cx="2" cy="2" r="2" transform="translate(8593 -385)"/></g><g transform="translate(-8578 439)"><circle cx="2" cy="2" r="2" transform="translate(8593 -385)"/></g><g transform="translate(-8563 439)"><circle cx="2" cy="2" r="2" transform="translate(8593 -385)"/></g><g transform="translate(-8548 439)"><circle cx="2" cy="2" r="2" transform="translate(8593 -385)"/></g><g transform="translate(-8533 439)"><circle cx="2" cy="2" r="2" transform="translate(8593 -385)"/></g><g transform="translate(-8518 439)"><circle cx="2" cy="2" r="2" transform="translate(8593 -385)"/></g><g transform="translate(-8503 439)"><circle cx="2" cy="2" r="2" transform="translate(8593 -385)"/></g><g transform="translate(-8488 439)"><circle cx="2" cy="2" r="2" transform="translate(8593 -385)"/></g><g transform="translate(-8473 439)"><circle cx="2" cy="2" r="2" transform="translate(8593 -385)"/></g><g transform="translate(-8458 439)"><circle cx="2" cy="2" r="2" transform="translate(8593 -385)"/></g><g transform="translate(-8443 439)"><circle cx="2" cy="2" r="2" transform="translate(8593 -385)"/></g><g transform="translate(-8428 439)"><circle cx="2" cy="2" r="2" transform="translate(8593 -385)"/></g><g transform="translate(-8593 457)"><circle cx="2" cy="2" r="2" transform="translate(8593 -385)"/></g><g transform="translate(-8578 457)"><circle cx="2" cy="2" r="2" transform="translate(8593 -385)"/></g><g transform="translate(-8563 457)"><circle cx="2" cy="2" r="2" transform="translate(8593 -385)"/></g><g transform="translate(-8548 457)"><circle cx="2" cy="2" r="2" transform="translate(8593 -385)"/></g><g transform="translate(-8533 457)"><circle cx="2" cy="2" r="2" transform="translate(8593 -385)"/></g><g transform="translate(-8518 457)"><circle cx="2" cy="2" r="2" transform="translate(8593 -385)"/></g><g transform="translate(-8503 457)"><circle cx="2" cy="2" r="2" transform="translate(8593 -385)"/></g><g transform="translate(-8488 457)"><circle cx="2" cy="2" r="2" transform="translate(8593 -385)"/></g><g transform="translate(-8473 457)"><circle cx="2" cy="2" r="2" transform="translate(8593 -385)"/></g><g transform="translate(-8458 457)"><circle cx="2" cy="2" r="2" transform="translate(8593 -385)"/></g><g transform="translate(-8443 457)"><circle cx="2" cy="2" r="2" transform="translate(8593 -385)"/></g><g transform="translate(-8428 457)"><circle cx="2" cy="2" r="2" transform="translate(8593 -385)"/></g><g transform="translate(-8593 475)"><circle cx="2" cy="2" r="2" transform="translate(8593 -385)"/></g><g transform="translate(-8578 475)"><circle cx="2" cy="2" r="2" transform="translate(8593 -385)"/></g><g transform="translate(-8563 475)"><circle cx="2" cy="2" r="2" transform="translate(8593 -385)"/></g><g transform="translate(-8548 475)"><circle cx="2" cy="2" r="2" transform="translate(8593 -385)"/></g><g transform="translate(-8533 475)"><circle cx="2" cy="2" r="2" transform="translate(8593 -385)"/></g><g transform="translate(-8518 475)"><circle cx="2" cy="2" r="2" transform="translate(8593 -385)"/></g><g transform="translate(-8503 475)"><circle cx="2" cy="2" r="2" transform="translate(8593 -385)"/></g><g transform="translate(-8488 475)"><circle cx="2" cy="2" r="2" transform="translate(8593 -385)"/></g><g transform="translate(-8473 475)"><circle cx="2" cy="2" r="2" transform="translate(8593 -385)"/></g><g transform="translate(-8458 475)"><circle cx="2" cy="2" r="2" transform="translate(8593 -385)"/></g><g transform="translate(-8443 475)"><circle cx="2" cy="2" r="2" transform="translate(8593 -385)"/></g><g transform="translate(-8428 475)"><circle cx="2" cy="2" r="2" transform="translate(8593 -385)"/></g><g transform="translate(-8593 493)"><circle cx="2" cy="2" r="2" transform="translate(8593 -385)"/></g><g transform="translate(-8578 493)"><circle cx="2" cy="2" r="2" transform="translate(8593 -385)"/></g><g transform="translate(-8563 493)"><circle cx="2" cy="2" r="2" transform="translate(8593 -385)"/></g><g transform="translate(-8548 493)"><circle cx="2" cy="2" r="2" transform="translate(8593 -385)"/></g><g transform="translate(-8533 493)"><circle cx="2" cy="2" r="2" transform="translate(8593 -385)"/></g><g transform="translate(-8518 493)"><circle cx="2" cy="2" r="2" transform="translate(8593 -385)"/></g><g transform="translate(-8503 493)"><circle cx="2" cy="2" r="2" transform="translate(8593 -385)"/></g><g transform="translate(-8488 493)"><circle cx="2" cy="2" r="2" transform="translate(8593 -385)"/></g><g transform="translate(-8473 493)"><circle cx="2" cy="2" r="2" transform="translate(8593 -385)"/></g><g transform="translate(-8458 493)"><circle cx="2" cy="2" r="2" transform="translate(8593 -385)"/></g><g transform="translate(-8443 493)"><circle cx="2" cy="2" r="2" transform="translate(8593 -385)"/></g><g transform="translate(-8428 493)"><circle cx="2" cy="2" r="2" transform="translate(8593 -385)"/></g></g></g></svg>