<svg width="48" height="48" viewBox="0 0 48 48" fill="none" xmlns="http://www.w3.org/2000/svg">
<rect width="48" height="48" rx="24" fill="white"/>
<path d="M11.6868 20.0314C13.723 20.0314 15.3736 18.3807 15.3736 16.3446C15.3736 14.3084 13.723 12.6577 11.6868 12.6577C9.65064 12.6577 8 14.3084 8 16.3446C8 18.3807 9.65064 20.0314 11.6868 20.0314Z" fill="#FB5600"/>
<path d="M29.0521 22.7482L34.7911 20.1346C34.9752 19.8158 35.1324 19.4925 35.2716 19.1826L27.0089 22.4967L35.4782 18.6752C35.586 18.3923 35.6758 18.1228 35.7521 17.8848L25.2845 22.1105L35.9093 17.346C35.9542 17.1753 35.9901 17.0406 36.0126 16.9463C36.2192 16.1739 35.5994 16.5152 35.5994 16.5152L22.7338 21.9174C22.855 21.0058 23.5915 20.678 23.5915 20.678C23.5915 20.678 30.8169 16.861 34.4588 14.9345C35.5366 14.3642 36.3853 13.5334 37.0499 12.6263L29.7302 15.4823L37.5574 11.8629C37.6966 11.6294 37.8268 11.3959 37.9481 11.1668L27.3187 15.388L38.3253 10.3765C38.4106 10.1834 38.4869 9.9903 38.5588 9.80618L25.2845 15.1366L38.8507 9.01583C38.909 8.83621 38.9584 8.67005 39.0034 8.51288L23.5601 14.7459L39.2054 7.73151C39.2324 7.61475 39.2503 7.52494 39.2638 7.47105C39.3851 6.88727 38.936 6.99055 38.8013 7.03995C38.6666 7.08935 23.5107 13.3628 23.084 13.5873C22.6529 13.8118 21.3058 14.472 19.8328 15.433C15.8586 18.0151 14.6506 22.2632 14.3767 23.0356C14.1028 23.808 13.4831 26.4395 14.1342 28.4693C14.7898 30.499 16.3032 32.6635 16.3032 32.6635C16.7522 28.7432 29.3575 24.046 32.1596 22.7213C33.188 22.2363 33.9514 21.4324 34.5172 20.5702L29.0521 22.7482Z" fill="#333237"/>
<path d="M17.372 34.2667C17.372 34.2667 16.5816 33.4763 17.4573 32.201C18.333 30.9301 21.0184 28.8151 22.8909 28.4109C22.8909 28.4109 22.8415 36.503 26.6406 41.317C26.8831 41.6089 26.8203 42.1927 26.2455 41.9367C25.482 41.5954 19.1233 36.6916 17.372 34.2667Z" fill="#FB5600"/>
</svg>
