<?xml version="1.0" encoding="utf-8"?>
<!-- Generator: Adobe Illustrator 25.0.0, SVG Export Plug-In . SVG Version: 6.00 Build 0)  -->
<svg version="1.1" xmlns="http://www.w3.org/2000/svg" xmlns:xlink="http://www.w3.org/1999/xlink" x="0px" y="0px"
	 viewBox="0 0 1024 1024" style="enable-background:new 0 0 1024 1024;" xml:space="preserve">
<style type="text/css">
	.st0{fill:#333237;}
	.st1{fill:#FB5600;}
	.st2{fill:#FFFFFF;}
</style>
<g id="_x31_">
	<rect x="0" class="st0" width="1024" height="1024"/>
	<circle class="st1" cx="245.1" cy="329.5" r="82.1"/>
	<path class="st2" d="M631.8,472.1l127.8-58.2c4.1-7.1,7.6-14.3,10.7-21.2l-184,73.8l188.6-85.1c2.4-6.3,4.4-12.3,6.1-17.6
		l-233.1,94.1l236.6-106.1c1-3.8,1.8-6.8,2.3-8.9c4.6-17.2-9.2-9.6-9.2-9.6L491.1,453.6c2.7-20.3,19.1-27.6,19.1-27.6
		s160.9-85,242-127.9c24-12.7,42.9-31.2,57.7-51.4l-163,63.6l174.3-80.6c3.1-5.2,6-10.4,8.7-15.5l-236.7,94l245.1-111.6
		c1.9-4.3,3.6-8.6,5.2-12.7L547.9,302.6L850,166.3c1.3-4,2.4-7.7,3.4-11.2L509.5,293.9l348.4-156.2c0.6-2.6,1-4.6,1.3-5.8
		c2.7-13-7.3-10.7-10.3-9.6s-340.5,140.8-350,145.8c-9.6,5-39.6,19.7-72.4,41.1C338,366.7,311.1,461.3,305,478.5
		c-6.1,17.2-19.9,75.8-5.4,121c14.6,45.2,48.3,93.4,48.3,93.4c10-87.3,290.7-191.9,353.1-221.4c22.9-10.8,39.9-28.7,52.5-47.9
		L631.8,472.1z"/>
	<path class="st1" d="M371.7,728.6c0,0-17.6-17.6,1.9-46c19.5-28.3,79.3-75.4,121-84.4c0,0-1.1,180.2,83.5,287.4
		c5.4,6.5,4,19.5-8.8,13.8C552.3,891.8,410.7,782.6,371.7,728.6z"/>
</g>
<g id="_x32_">
	<rect x="1155.1" class="st2" width="1024" height="1024"/>
	<circle class="st1" cx="1400.1" cy="329.5" r="82.1"/>
	<path class="st1" d="M1526.7,728.6c0,0-17.6-17.6,1.9-46c19.5-28.3,79.3-75.4,121-84.4c0,0-1.1,180.2,83.5,287.4
		c5.4,6.5,4,19.5-8.8,13.8C1707.3,891.8,1565.8,782.6,1526.7,728.6z"/>
	<path class="st0" d="M1786.8,472.1l127.8-58.2c4.1-7.1,7.6-14.3,10.7-21.2l-184,73.8l188.6-85.1c2.4-6.3,4.4-12.3,6.1-17.6
		L1703,457.9l236.6-106.1c1-3.8,1.8-6.8,2.3-8.9c4.6-17.2-9.2-9.6-9.2-9.6l-286.5,120.3c2.7-20.3,19.1-27.6,19.1-27.6
		s160.9-85,242-127.9c24-12.7,42.9-31.2,57.7-51.4l-163,63.6l174.3-80.6c3.1-5.2,6-10.4,8.7-15.5l-236.7,94l245.1-111.6
		c1.9-4.3,3.6-8.6,5.2-12.7L1703,302.6l302.1-136.3c1.3-4,2.4-7.7,3.4-11.2l-343.9,138.8L2013,137.7c0.6-2.6,1-4.6,1.3-5.8
		c2.7-13-7.3-10.7-10.3-9.6s-340.5,140.8-350,145.8c-9.6,5-39.6,19.7-72.4,41.1c-88.5,57.4-115.3,152-121.4,169.3
		c-6.1,17.2-19.9,75.8-5.4,121c14.6,45.2,48.3,93.4,48.3,93.4c10-87.3,290.7-191.9,353.1-221.4c22.9-10.8,39.9-28.7,52.5-47.9
		L1786.8,472.1z"/>
</g>
</svg>
