<?xml version="1.0" encoding="utf-8"?>
<!-- Generator: Adobe Illustrator 22.0.1, SVG Export Plug-In . SVG Version: 6.00 Build 0)  -->
<svg version="1.1" id="Layer_1" xmlns="http://www.w3.org/2000/svg" xmlns:xlink="http://www.w3.org/1999/xlink" x="0px" y="0px"
	 viewBox="0 0 1920 935" style="enable-background:new 0 0 1920 935;" xml:space="preserve">
<style type="text/css">
	.st0{opacity:0.3;}
	.st1{fill:#E87F6B;}
	.st2{fill:none;stroke:#3B3B3B;stroke-width:0.25;stroke-miterlimit:10;}
</style>
<g class="st0">
	<path class="st1" d="M190.2,746.8c-1.5,5.7-3,11.4-4.6,17.3c1,0.3,1.9,0.6,2.7,0.9c3.8,1,7.5,2,11.3,3c0-0.9,0-1.8-0.1-2.6
		c-2.5-0.7-5.1-1.4-7.6-2c-1-0.3-1.9-0.6-3.2-0.9c0.3-1.1,0.5-2.2,0.8-3.2c2.6-9.7,5.2-19.4,7.8-29.2c-0.2-2.3-0.4-4.5-0.6-6.8
		c-0.4-2.3-0.8-4.7-1.1-7c-2-7.4-4-14.8-6-22.3c-0.3-1.1-0.6-2.1-0.9-3.5c0.8-0.2,1.5-0.4,2.1-0.6c-0.2-0.8-0.3-1.7-0.5-2.5
		c-0.5,0.1-0.9,0.2-1.4,0.4c-1,0.3-2.1,0.6-3.3,0.9c0.3,1.2,0.5,2.1,0.7,2.9c2.9,11,5.9,22,8.8,33c0.3,1.2,0.3,2.6,0,3.8
		C193.6,734.5,191.9,740.7,190.2,746.8z"/>
	<g>
		<path class="st1" d="M84.2,647.8c-0.1,0.2-0.1,0.4-0.2,0.6c-1,3.5-1.9,7-2.8,10.4c-0.1,0.4-0.2,0.9-0.3,1.4
			c-0.1,0.3-0.1,0.7-0.2,1c0,0,0,0,0,0c0,0,0,0,0,0.1c0.5,0.1,1,0.3,1.5,0.4c0.4,0.1,0.7,0.2,1.1,0.3c3.6,1,7.1,2,10.7,2.8
			c2.3,0.5,4,1.6,5.6,3.3c2.7,2.8,5.5,5.5,8.2,8.3c0,0,0.1,0.1,0.1,0.1c0.5,0.4,0.9,0.9,1.4,1.3c0.1,0,0.1-0.1,0.1-0.1
			c0,0,0.1,0.1,0.1,0.1c3.5-3.5,6.9-6.8,10.1-10.3c1.3-1.3,2.7-2.1,4.5-2.5c0.5-0.1,1-0.3,1.5-0.4c3.1-0.8,6.1-1.6,9.2-2.4
			c0.2,0,0.3-0.1,0.5-0.1c0.9-0.2,1.7-0.5,2.7-0.9c-0.8-2.9-1.5-5.7-2.3-8.5c-0.4-1.4-0.8-2.9-1.2-4.3c-0.5-1.8-0.7-3.5-0.5-5.2
			c0.1-0.5,0.2-1,0.3-1.5c0.6-1.9,1.1-3.8,1.6-5.8c0.2-0.8,0.4-1.6,0.6-2.3c0.4-1.7,0.9-3.4,1.3-5.1c0,0,0,0,0,0c0,0,0,0,0,0
			c-0.3-0.1-0.6-0.2-0.9-0.3c0,0-0.1,0-0.1-0.1c0,0,0,0,0,0c-0.3-0.1-0.6-0.2-0.8-0.3c-0.2,0-0.3-0.1-0.5-0.1c-3.6-1-7.2-2-10.8-2.9
			c-0.3-0.1-0.6-0.2-0.9-0.3c-1.7-0.4-3-1.2-4.2-2.4c-2.8-3-5.8-5.8-8.7-8.7c-0.5-0.5-1.1-0.9-1.7-1.5c0,0,0,0,0,0
			c0,0-0.1,0-0.1-0.1c-3.4,3.5-6.8,6.8-10.1,10.2c-1.3,1.3-2.6,2.2-4.4,2.6c-3.6,0.8-7.2,1.9-10.7,2.8c-0.4,0.1-0.8,0.2-1.2,0.4
			c0,0-0.1,0-0.1,0c0,0-0.1,0-0.1,0c-0.6,0.2-1.3,0.4-2,0.6c1.2,4.7,2.3,9,3.6,13.2C84.8,643.7,84.9,645.7,84.2,647.8z M86.1,629.4
			c1.1-0.3,2.3-0.6,3.4-0.9c0.4-0.1,0.7-0.2,1.1-0.2c1.7-0.3,3.4-0.7,4.9-1.3c0.4-0.1,0.7-0.2,1.1-0.3c1.4-0.3,2.5-1,3.5-2.1
			c0.2-0.2,0.4-0.4,0.6-0.6c1.3-1,2.5-2.2,3.7-3.6c0.2-0.2,0.4-0.4,0.6-0.6c0.8-0.8,1.6-1.6,2.4-2.4c0.6-0.6,1.3-1.2,2.2-2
			c0.5,0.5,1,1,1.5,1.5c0.9,0.9,1.9,1.8,2.8,2.8c0.3,0.4,0.6,0.7,0.9,1.1c1.1,1.3,2.2,2.5,3.5,3.5c1.4,1.3,3,2.2,4.9,2.8
			c1.5,0.6,3,1,4.7,1.3c0.5,0.1,1.1,0.2,1.6,0.3c1.8,0.5,3.7,1.1,5.7,1.6c-0.4,1.4-0.7,2.6-1,3.8c-0.9,3.7-2.6,7.3-2.6,11
			c0,3.6,1.7,7.1,2.6,10.7c0.3,1.2,0.6,2.3,1,3.6c-0.5,0.2-0.9,0.4-1.4,0.6c-0.3,0.1-0.5,0.2-0.8,0.3c-2.5,0.7-5,1.3-7.6,2
			c-0.8,0.2-1.5,0.4-2.3,0.6c-2,0.5-3.5,1.4-4.9,2.9c-0.5,0.5-1,1-1.4,1.5c-1.7,1.7-3.4,3.4-5.1,5.1c-0.6,0.6-1.3,1.2-2.1,2
			c-0.2-0.2-0.5-0.4-0.7-0.5c-0.4-0.3-0.7-0.6-1.1-0.9c-2.6-2.5-5.1-5.1-7.6-7.7c-1.1-1.1-2.3-1.8-3.8-2.2c0,0-0.1,0-0.1,0
			c0,0,0,0,0,0c-3.5-0.9-7-1.8-10.4-2.8c-0.6-0.2-1.2-0.4-2-0.7c0.3-1.3,0.6-2.5,1-3.6c0.9-3.5,2.4-6.9,2.6-10.4c0-0.3,0-0.6,0-0.9
			c-0.1-3.5-1.7-7-2.6-10.5c-0.2-0.7-0.4-1.4-0.6-2.1c-0.1-0.5-0.2-1-0.3-1.6C84.6,629.9,85.4,629.6,86.1,629.4z"/>
	</g>
	<path class="st1" d="M-239.5,758.1c0.4,0,0.6,0,0.7,0c9.7-2.6,19.5-5.2,29.2-7.9c1.2-0.3,2.3-1.1,3.2-2c6.7-6.6,13.4-13.3,20.1-20
		c0.5-0.5,1-1.1,1.6-1.8c-0.3-0.4-0.5-0.6-0.7-0.8c-7.1-7.1-14.2-14.3-21.4-21.4c-0.8-0.8-2-1.3-3.1-1.6c-8.1-2.2-16.2-4.4-24.2-6.5
		c-0.2,0.8-0.4,1.7-0.6,2.5c6.2,1.7,12.1,3.4,18.2,4.7c5.2,1.1,9.3,3.5,12.8,7.4c4.3,4.7,9,9.1,13.5,13.6c0.6,0.6,1.2,1.3,1.9,2.1
		c-0.7,0.7-1.2,1.4-1.8,1.9c-5.8,5.8-11.6,11.7-17.5,17.4c-0.9,0.9-2,1.7-3.2,2c-8.6,2.4-17.3,4.7-26,7c-0.3,0.1-0.5,0-1,0.1
		c-0.3-0.7-0.6-1.5-0.8-2.2c-1.4-5.4-2.9-10.7-4.3-16.1c-0.4,1.9-0.7,3.9-1.1,5.8c1.3,4.7,2.5,9.5,3.8,14.2
		C-240,757.2-239.7,757.7-239.5,758.1z"/>
	<g>
		<path class="st1" d="M50.5,728.1c0.9,3.6,1.9,7.2,2.8,10.7c0,0.1,0.1,0.1,0.1,0.2c0.2,0.6,0.3,1.1,0.4,1.7c0.1,0,0.2,0,0.3-0.1
			c0,0,0,0,0,0c1.6-0.4,3.1-0.8,4.7-1.3c2.6-0.7,5.4-1.1,7.9-2.1c0.2-0.1,0.5-0.1,0.7-0.2c0.4-0.1,0.9-0.4,1.2-0.7
			c0.2-0.2,0.4-0.4,0.5-0.5c2.2-1.6,4-3.9,5.9-5.9c0.2-0.2,0.4-0.4,0.6-0.7c1-1,2-2,3-3c0,0,0,0-0.1-0.1c0,0,0.1-0.1,0.1-0.1
			c-0.8-0.7-1.6-1.4-2.3-2c-0.5-0.5-1-1-1.5-1.5c-0.3-0.3-0.6-0.6-0.9-0.9c-1.2-1.5-2.5-2.7-3.9-3.8c-0.4-0.4-0.9-0.9-1.3-1.3
			c-0.4-0.4-0.9-0.7-1.4-0.9c-0.6-0.2-1.2-0.3-1.7-0.5c-1.7-0.8-3.6-1.3-5.7-1.6c-0.3,0-0.5-0.1-0.8-0.1c-1.8-0.5-3.5-0.9-5.2-1.4
			c0,0,0,0,0,0c-0.1,0-0.1,0-0.2-0.1c-0.1,0.4-0.2,0.7-0.3,1.1c0,0,0,0,0,0c-0.8,2.9-1.6,5.8-2.3,8.8c-0.3,1.2-0.7,2.5-1,3.7
			c-0.1,0.3-0.1,0.7,0,1.1C50.3,727.3,50.4,727.7,50.5,728.1C50.5,728.1,50.5,728.1,50.5,728.1z M52.9,725.7
			c0.9-3.3,1.8-6.6,2.8-10.3c1.4,0.3,2.8,0.7,4.1,1c1.7,0.5,3.4,0.9,5.1,1.4c1.3,0.6,2.6,1.3,3.7,2.2c2.1,2.1,4.2,4.2,6.5,6.4
			c-2.6,2.5-5,5-7.4,7.4c0,0-0.1,0.1-0.2,0.1c-0.3,0.3-0.7,0.6-1.1,0.7c-3.5,1-7,1.9-10.7,2.9c-1-3.8-2-7.2-2.9-10.7
			C52.8,726.5,52.8,726.1,52.9,725.7z"/>
	</g>
	<path class="st1" d="M-73.7,571.5c-2,5.9-3.3,11.9-5,18.3c1.1,0.3,1.9,0.6,2.6,0.8c7.2,2,14.5,3.9,21.7,5.8c1.7,0.4,3,1.2,4.2,2.5
		c2,2,4.1,4.1,6.1,6.1v0.5c1.6,1.5,3.3,2.9,4.9,4.4c1.1,1.1,2.2,2.2,3.3,3.2c0.1,0.1,0.1,0.1,0.2,0.2c1.1,1.1,2.1,2.1,3.2,3.2
		c0.3-0.3,0.6-0.6,0.9-0.8c0.5-0.4,0.9-0.9,1.3-1.3c5.2-5.2,10.5-10.4,15.7-15.7c1.2-1.2,2.6-2,4.2-2.4c6.8-1.8,13.7-3.6,20.5-5.5
		c0.5-0.1,1-0.3,1.5-0.4c0.2-0.1,0.4-0.1,0.6-0.2c0.5-0.2,1-0.3,1.5-0.5c-0.2-1-0.4-1.8-0.6-2.5c-1.9-7.2-3.8-14.5-5.8-21.7
		c-0.5-1.7-0.4-3.2,0-4.9c0.2-0.8,0.4-1.6,0.6-2.4c-0.9,0.1-1.8,0.3-2.8,0.4c-0.2,0.8-0.4,1.5-0.6,2.3c-0.4,1.5-0.4,2.8,0,4.3
		c1.8,6.7,3.6,13.4,5.4,20.1c0.2,0.8,0.3,1.7,0.5,2.7c-1.2,0.3-2.3,0.7-3.3,1c-6.4,1.7-12.7,3.5-19.1,5.1c-0.8,0.2-1.4,0.5-2.1,0.8
		c0,0-0.1,0-0.1,0.1c-0.6,0.4-1.2,0.8-1.8,1.4c-4.9,4.9-9.8,9.8-14.7,14.7c-0.5,0.5-1.1,1-1.9,1.6c-0.7-0.6-1.3-1.1-1.9-1.7
		c-4.9-4.9-9.9-9.8-14.7-14.7c-1.2-1.2-2.4-1.9-4-2.3c-6.5-1.7-13.1-3.5-19.6-5.2c-0.9-0.2-1.7-0.5-2.9-0.9c0.2-1,0.4-1.9,0.6-2.7
		c1.8-6.7,3.5-13.4,5.4-20.1c0.4-1.4,0.4-2.7,0-4.1c0-0.1,0-0.1-0.1-0.2c-1,0-1.9,0.1-2.9,0.1C-72,564.5-72.5,567.9-73.7,571.5z"/>
	<g>
		<path class="st1" d="M63.8,668.5c-0.2,0.9-0.4,1.8-0.7,2.8c1,0.3,1.9,0.6,2.8,0.9c7.2,2,14.5,3.9,21.7,5.8
			c1.5,0.4,2.7,1.1,3.8,2.2c5.2,5.3,10.5,10.5,15.7,15.7c0.7,0.7,1.5,1.4,2.3,2.2c0,0,0,0,0,0c0,0,0,0,0,0c0.9-0.8,1.6-1.5,2.3-2.2
			c5.2-5.2,10.5-10.4,15.7-15.7c0,0,0,0,0.1-0.1c0.5-0.5,1-0.9,1.6-1.2c0,0,0.1,0,0.1-0.1c0.6-0.3,1.2-0.6,1.9-0.8c0,0,0.1,0,0.1,0
			c7.2-1.9,14.5-3.9,21.7-5.8c0.9-0.2,1.7-0.5,2.8-0.9c-0.3-1.1-0.4-1.9-0.7-2.8c-1.9-7.2-3.8-14.5-5.8-21.7c-0.4-1.4-0.4-2.7,0-4.1
			c2-7.2,3.9-14.5,5.8-21.7c0.2-0.9,0.4-1.8,0.7-2.9c0,0-0.1,0-0.1,0c0,0,0,0,0,0c-0.4-0.1-0.8-0.2-1.2-0.3
			c-0.6-0.2-1.2-0.3-1.8-0.5c-7.1-1.9-14.1-3.8-21.2-5.6c-1.7-0.4-3-1.2-4.2-2.4c-5.2-5.3-10.5-10.5-15.7-15.7
			c-0.6-0.6-1.3-1.2-2.1-1.9c0,0,0,0,0,0c0,0,0,0,0,0c-0.8,0.7-1.5,1.3-2.1,1.9c-5.2,5.2-10.5,10.4-15.7,15.7
			c-0.9,0.9-1.8,1.6-2.9,2c0,0-0.1,0-0.1,0c-0.3,0.1-0.7,0.2-1,0.3c-0.1,0-0.1,0-0.2,0.1c-7.1,1.8-14.1,3.7-21.2,5.6
			c-1,0.3-1.9,0.5-3.1,0.9c0.2,1.1,0.4,2,0.7,2.9c1.9,7.2,3.8,14.5,5.8,21.7c0.4,1.4,0.4,2.7,0,4.1C67.6,654,65.7,661.2,63.8,668.5z
			 M72.3,642.7c-1.8-6.6-3.6-13.2-5.3-19.9c-0.2-0.9-0.4-1.8-0.6-2.8c0.3-0.1,0.6-0.2,0.9-0.3c0.5-0.2,1-0.4,1.4-0.5
			c6.7-1.8,13.5-3.7,20.2-5.4c1.5-0.4,2.7-1.1,3.8-2.2c4.8-4.9,9.7-9.7,14.5-14.6c0.6-0.6,1.3-1.2,2.1-2c0.8,0.7,1.5,1.4,2.2,2
			c4.8,4.8,9.6,9.5,14.3,14.4c1.1,1.2,2.4,1.9,4,2.3c0,0,0,0,0.1,0c0,0,0,0,0,0c0.2,0.1,0.5,0.1,0.7,0.2c6.3,1.7,12.7,3.4,19,5.1
			c0.1,0,0.2,0.1,0.3,0.1c0.7,0.2,1.5,0.4,2.3,0.7c-0.2,1-0.3,1.8-0.5,2.7c-1.6,6.2-3.2,12.4-5,18.5c-0.1,0.3-0.1,0.6-0.2,1
			c0,0.1,0,0.2-0.1,0.2c-0.5,1.7-0.4,3.2,0,4.9c0,0.1,0.1,0.3,0.1,0.4c0.1,0.3,0.1,0.5,0.2,0.8c1.7,6,3.3,12.2,4.9,18.2
			c0.2,0.9,0.4,1.7,0.6,2.8c-0.5,0.1-0.9,0.3-1.4,0.4c-1.4,0.4-2.8,0.8-4.2,1.2c-4.8,1.3-9.6,2.6-14.3,3.8c-0.8,0.2-1.7,0.5-2.5,0.7
			c0,0,0,0,0,0c0,0,0,0-0.1,0c-0.4,0.1-0.7,0.2-1.1,0.4c0,0,0,0,0,0c-1.1,0.4-2,1.1-2.9,2c0,0-0.1,0.1-0.1,0.1c0,0,0,0,0,0
			c-4.7,4.8-9.5,9.6-14.3,14.4c-0.6,0.6-1.3,1.2-2.1,2c-0.8-0.7-1.4-1.3-2-1.8c-4.9-4.9-9.9-9.8-14.7-14.7c-1.1-1.1-2.3-1.8-3.8-2.2
			c-0.1,0-0.3-0.1-0.4-0.1c0,0,0,0-0.1,0c-1.1-0.3-2.2-0.6-3.2-0.9c-5.2-1.4-10.4-2.8-15.6-4.2c-0.5-0.1-0.9-0.3-1.5-0.4
			c-0.6-0.2-1.2-0.4-1.8-0.6c0.3-1.1,0.4-2,0.7-2.9c1.8-6.6,3.5-13.2,5.3-19.9C72.7,645.4,72.7,644.1,72.3,642.7z"/>
	</g>
	<path class="st1" d="M53.4,575.5C53.4,575.5,53.4,575.5,53.4,575.5c0.2,0.7,0.3,1.2,0.5,1.8c0.1,0,0.2,0,0.3-0.1c0,0,0,0,0,0
		c1-0.3,1.9-0.5,2.8-0.8c0.3-0.1,0.7-0.2,1-0.3c2.8-0.8,5.9-1.2,8.5-2.3c0.3-0.1,0.6-0.2,0.9-0.2c0.4-0.1,0.9-0.4,1.2-0.7
		c0.2-0.2,0.5-0.5,0.7-0.7c0.2-0.1,0.3-0.3,0.4-0.4c-1-0.3-1.9-0.6-2.9-0.9c-0.1,0.1-0.3,0.2-0.4,0.2c-3.5,1-7,1.9-10.8,2.9
		c-0.7-2.6-1.3-4.9-2-7.3c-1-0.3-1.9-0.6-2.9-0.9c0.7,2.5,1.3,5,2,7.6C53.1,574.2,53.2,574.8,53.4,575.5z"/>
	<g>
		<path class="st1" d="M98.2,651.1C98.2,651.1,98.2,651.1,98.2,651.1c2.3,0.7,4.6,1,6.3,2c1.8,1,3.1,2.8,5,4.7c0,0,0,0,0,0
			c0,0,0,0,0,0c2.6-4.1,6.5-5.8,11-6.6c-0.6-2.4-1.4-4.5-1.4-6.5c0-2,0.9-4.1,1.4-6.2c-2.3-0.7-4.5-0.9-6.2-2
			c-1.8-1.1-3.3-2.9-5-4.5c0,0,0,0,0,0c-0.1-0.1-0.1-0.1-0.2-0.2c-2,2.9-4.6,4.8-7.7,5.7c0,0-0.1,0-0.1,0c-1,0.3-2.1,0.5-3.2,0.6
			c0,0.1,0,0.1,0.1,0.2c-0.1,0-0.1,0-0.2,0.1c0.2,0.5,0.4,1,0.6,1.6c0,0,0,0,0,0c1.2,3.6,1,7.2-0.7,10.9
			C98,651.1,98.1,651.1,98.2,651.1z M103.6,639.6c0.1,0,0.1-0.1,0.2-0.1c0.7-0.2,1.3-0.5,1.9-0.8c0.1,0,0.1-0.1,0.2-0.1
			c1.1-0.6,2-1.4,2.8-2.5c0.2-0.2,0.4-0.4,0.5-0.6c0.6,0.6,1.1,1.2,1.7,1.7c1.8,1.6,3.8,2.7,6.4,2.9c-0.4,1.8-0.9,3.2-0.9,4.6
			c0,1.4,0.5,2.9,0.9,4.6c-0.1,0-0.3,0.1-0.4,0.1c-1.1,0.3-2.2,0.6-3.2,1.1c-0.8,0.4-1.5,0.8-2.2,1.4c-0.8,0.6-1.5,1.3-2.1,2.2
			c-1.4-1.3-2.4-2.5-3.7-3.3c-1.2-0.7-2.8-0.9-4.5-1.5c0-0.1,0.1-0.3,0.1-0.4c0.1-0.2,0.1-0.5,0.2-0.7c0,0,0,0,0,0
			c0.2-0.9,0.4-1.7,0.4-2.6c0.1-1,0-2-0.2-3.1c0-0.1-0.1-0.2-0.1-0.3c-0.1-0.3-0.1-0.6-0.2-0.9c-0.1-0.4-0.3-0.8-0.4-1.2
			C102,640,102.8,639.8,103.6,639.6z"/>
	</g>
	<path class="st1" d="M-164.2,808.3c0-2.1,0.8-4.2,1.3-6.5c-2.3-0.7-4.5-1-6.3-2c-1.8-1.1-3.3-2.9-5.1-4.6
		c-2.7,3.9-6.3,5.9-11.1,6.4c0.4,1.9,1,3.5,1.3,5.1c0.9,0.5,1.8,1.1,2.7,1.6c0-1.5-0.3-3.1-1.3-4.7c3.8-0.4,6.3-1.9,8.4-4.6
		c2.4,2.3,4.6,4.5,8.4,4.4c-1.1,3.3-1.4,6.2,0,9.3c-1.7,0.4-3.3,0.9-4.7,1.7c0.9,0.5,1.8,1,2.7,1.5c1.5-0.6,3.2-0.9,5-1.4
		C-163.3,812.3-164.2,810.3-164.2,808.3z"/>
	<path class="st1" d="M-120.5,805.2c-0.6,2-0.5,3.9,0,5.9c2.4,8.8,4.8,17.7,7.2,26.5c0.9,0.2,1.8,0.4,2.8,0.6
		c-2.5-9.3-4.9-18.5-7.4-27.7c-0.4-1.6-0.5-3,0-4.6c3-10.8,5.8-21.6,8.7-32.4c0.2-0.9,0.5-1.9,0.7-2.9c-1.3-0.4-2.2-0.7-3.2-1
		c-10.6-2.8-21.3-5.7-31.9-8.5c-1.8-0.5-3.2-1.2-4.5-2.6c-7.8-7.9-15.7-15.7-23.6-23.6c-0.7-0.7-1.5-1.4-2.3-2.2
		c-0.9,0.8-1.6,1.5-2.3,2.2c-7.7,7.7-15.5,15.4-23.2,23.2c-1.5,1.5-3.1,2.5-5.1,3c-10.7,2.8-21.4,5.7-32.1,8.6c1,0.6,2,1.2,3.1,1.8
		c0,0,0.1,0,0.1,0c10.3-2.8,20.6-5.5,30.8-8.3c1.6-0.4,2.8-1.1,4-2.3c7.4-7.4,14.8-14.8,22.2-22.2c0.7-0.7,1.3-1.6,2.1-2.7
		c1.3,1.2,2,1.9,2.7,2.6c7.3,7.3,14.7,14.6,22,22c1.4,1.4,2.8,2.3,4.7,2.7c10.2,2.7,20.4,5.4,30.6,8.2c0.9,0.2,1.7,0.5,2.7,0.9
		c-0.5,1.8-0.8,3.4-1.3,5C-115.5,786.6-117.9,795.9-120.5,805.2z"/>
	<g>
		<path class="st1" d="M-229.5,740.7c1.8-0.5,3.2-0.8,4.6-1.2c3.2-0.9,6.7-1.2,9.5-2.8c2.8-1.6,4.8-4.5,7.2-6.9
			c1.1-1.1,2.1-2.2,3.4-3.5c-3.4-3.3-6.5-6.5-9.7-9.5c-0.5-0.5-1.2-0.9-1.9-1.1c-4.3-1.2-8.6-2.3-12.8-3.4c-0.2,0.3-0.5,0.5-0.5,0.8
			c-1.2,4.2-2.3,8.4-3.4,12.6c-0.1,0.4-0.2,0.9-0.1,1.4C-232,731.4-230.8,735.9-229.5,740.7z M-230.6,726c0.9-3.5,1.9-6.9,2.9-10.7
			c3.8,1,7.3,2,10.8,3c0.4,0.1,0.8,0.5,1.1,0.8c2.4,2.3,4.7,4.7,7.3,7.2c-1.4,1.5-2.9,2.8-4,4.2c-2.5,3.2-5.8,5-9.8,5.6
			c-1.7,0.3-3.4,0.8-5.5,1.4c-1-3.7-1.9-7.1-2.8-10.5C-230.6,726.7-230.7,726.3-230.6,726z"/>
	</g>
	<g>
		<path class="st1" d="M-87.8,822.3c2.3-0.6,4.3-1.4,6.3-1.7c5.7-0.8,10.2-3.5,13.8-7.9c1.3-1.6,2.9-3,4.5-4.7
			c-3.3-3.2-6.4-6.3-9.5-9.3c-0.5-0.5-1.2-0.9-1.9-1.1c-4.3-1.2-8.6-2.3-13.2-3.6c-0.8,2.9-1.3,5.5-2.3,8c-1.6,4.2-1.5,8.2,0,12.4
			C-89.1,816.9-88.5,819.5-87.8,822.3z M-88.8,807.8c0.9-3.5,1.9-6.9,2.8-10.6c3.7,1,7.2,1.9,10.6,2.9c0.5,0.1,1,0.6,1.3,0.9
			c2.4,2.3,4.8,4.6,7.3,7.1c-2.7,2.7-5.1,5.1-7.6,7.6c-0.3,0.3-0.8,0.6-1.2,0.7c-3.4,0.9-6.8,1.8-10.5,2.8c-1-3.8-1.9-7.3-2.9-10.9
			C-88.9,808.1-88.9,807.9-88.8,807.8z"/>
	</g>
	<path class="st1" d="M-214.9,782.7c6.7-1.8,13.4-3.7,20.1-5.4c1.7-0.4,3-1.2,4.2-2.4c4.7-4.8,9.5-9.6,14.3-14.4
		c0.6-0.6,1.3-1.2,2.2-2c0.8,0.8,1.6,1.4,2.3,2.1c4.7,4.7,9.5,9.4,14.1,14.2c1.2,1.2,2.5,2,4.2,2.5c6.5,1.7,13.1,3.5,19.6,5.2
		c0.9,0.2,1.7,0.5,2.8,0.8c-0.2,0.9-0.3,1.8-0.5,2.5c-1.8,6.7-3.5,13.4-5.4,20.1c-0.4,1.5-0.4,2.9,0,4.3c1.8,6.5,3.5,13.1,5.2,19.6
		c0.2,0.9,0.4,1.8,0.7,3c-0.8,0.2-1.5,0.4-2.2,0.6c1.8,0.4,3.6,0.8,5.4,1.1c-0.3-1.1-0.4-1.9-0.7-2.8c-1.9-7.2-3.8-14.5-5.8-21.7
		c-0.4-1.4-0.4-2.7,0-4.1c2-7.4,4-14.8,6-22.2c0.2-0.8,0.3-1.5,0.4-2.4c-1.3-0.4-2.2-0.6-3.2-0.9c-7-1.9-13.9-3.8-20.9-5.6
		c-1.7-0.4-3-1.2-4.2-2.4c-5.2-5.4-10.6-10.6-15.9-15.9c-0.6-0.6-1.3-1.2-2.3-2.1c-0.8,1-1.3,1.8-1.9,2.4
		c-5.2,5.2-10.4,10.3-15.5,15.5c-1.2,1.2-2.5,2-4.2,2.5c-5.6,1.5-11.3,3-16.9,4.5c-2.1,0.6-4.3,1.2-6.6,1.8c0.9,0.7,1.8,1.4,2.7,2.1
		C-216.1,783.1-215.5,782.9-214.9,782.7z"/>
	<g>
		<path class="st1" d="M-107.8,696.8c-0.2-0.7-0.5-1.3-0.7-2c-0.6,0.1-0.9,0.1-1.3,0.2c-9.7,2.6-19.3,5.1-29,7.8c-1,0.3-2,1-2.8,1.7
			c-3.5,3.3-6.8,6.8-10.2,10.2c-3.9,3.9-7.7,7.7-11.8,11.7c0.8,0.9,1.4,1.5,2,2.1c6.5,6.6,13.1,13.1,19.6,19.7
			c1.2,1.2,2.4,1.9,4,2.3c8.9,2.3,17.7,4.7,26.5,7.1c0.9,0.3,1.9,0.4,2.8,0.7c0.3-0.5,0.4-0.7,0.5-1c2.6-9.7,5.3-19.5,7.8-29.2
			c0.3-1.1,0.2-2.4-0.1-3.5C-102.8,715.2-105.3,706-107.8,696.8z M-103,728.2c-2.1,8.3-4.4,16.6-6.6,24.9c-0.2,0.6-0.4,1.2-0.7,1.9
			c-0.8-0.2-1.6-0.3-2.2-0.5c-8.1-2.2-16.3-4.3-24.4-6.5c-1.1-0.3-2.3-0.9-3.1-1.7c-6.3-6.2-12.6-12.5-18.9-18.8
			c-0.3-0.3-0.5-0.6-0.8-1c0.4-0.5,0.7-1,1.2-1.4c6.1-6.1,12.1-12.2,18.3-18.2c0.8-0.7,1.7-1.5,2.7-1.7c8.6-2.4,17.3-4.7,26-7
			c0.3-0.1,0.7-0.1,1.2-0.2c0.3,0.8,0.6,1.6,0.8,2.3c2.2,8,4.4,16.1,6.4,24.1C-102.8,725.6-102.7,727-103,728.2z"/>
	</g>
	<g>
		<path class="st1" d="M-118.6,712.2c-2.2,0.6-4.1,1.3-6.1,1.6c-5.8,0.8-10.4,3.5-14,8.1c-1.3,1.6-2.9,3-4.5,4.7
			c3.4,3.4,6.6,6.6,9.9,9.7c0.6,0.5,1.4,0.8,2.2,1c3.3,0.9,6.6,1.8,9.9,2.7c0.9,0.2,1.7,0.4,2.7,0.6c0.5-1.8,1-3.4,1.4-5
			c0.8-3,2.2-6.1,2.2-9.1c0-3-1.4-6.1-2.2-9.1C-117.6,715.6-118.1,714-118.6,712.2z M-118.7,731.5c-0.7,1.9-1.1,3.9-1.7,6.1
			c-3.7-1-7.3-2-10.8-2.9c-0.3-0.1-0.5-0.3-0.7-0.5c-2.5-2.5-5.1-5.1-7.8-7.8c2.7-2.7,5.1-5.1,7.7-7.6c0.4-0.4,0.9-0.6,1.4-0.8
			c3.3-0.9,6.6-1.8,10.2-2.8c0.6,2.2,1,4.2,1.8,6.2C-117.4,724.8-117.4,728.1-118.7,731.5z"/>
	</g>
	<path class="st1" d="M50.7,657.2c-2,7.4-4,14.8-6,22.3c-0.3,0.9-0.5,1.9-0.7,3c1.2,0.4,2,0.6,2.9,0.9c0.3,0.1,0.6,0.2,0.9,0.2
		c9.5,2.6,19.1,5.2,28.6,7.7c1,0.3,1.9,0.5,2.9,0.8c0.2,0,0.3,0.1,0.4,0.1c0.5,0.1,0.9,0.3,1.3,0.5c0.3,0.2,0.6,0.3,0.9,0.5
		c0.4,0.3,0.8,0.6,1.2,1c0.1,0.1,0.1,0.1,0.2,0.2c7.9,7.9,15.8,15.8,23.7,23.7c0.7,0.7,1.4,1.4,2.3,2.2c0,0,0,0,0,0
		c0.1,0.1,0.3,0.3,0.4,0.4c0.8-1,1.3-2,2-2.7c7.8-7.9,15.7-15.7,23.5-23.6c0.6-0.6,1.2-1.1,1.8-1.4c0,0,0,0,0.1,0
		c0.6-0.4,1.3-0.7,2.1-0.8c3.3-0.8,6.6-1.7,9.9-2.6c0.7-0.2,1.3-0.4,2-0.6c6.9-1.8,13.7-3.7,20.6-5.5c0.9-0.3,1.9-0.6,2.9-0.9
		c-0.3-1.2-0.5-2.1-0.7-3c-2.3-8.5-4.6-17.1-6.9-25.6v-0.6c-0.2-0.5-0.4-0.9-0.5-1.4c-0.4-1.3-0.7-2.7-1.1-4
		c-0.3-1.9-0.4-3.9-0.1-5.8c0-0.1,0-0.1,0-0.2c0.3-1.2,0.7-2.5,1-3.7c0.2-0.5,0.4-1,0.6-1.5v-0.9c1-3.6,1.9-7.2,2.9-10.8
		c-0.7-0.7-1.4-1.4-2-2.1c-0.3,1.3-0.7,2.5-1,3.8c0,0-0.1,0-0.1,0.1c-0.7,2.6-1.4,5.1-2,7.7c-0.6,2.3-1.2,4.6-1.9,6.9
		c-0.1,0.4-0.2,0.7-0.2,1.1c-0.1,0.5-0.2,0.9-0.4,1.4c-0.1,0.5-0.2,1.1-0.1,1.6c0.1,0.5,0.3,1,0.4,1.6c0.1,0.4,0.1,0.7,0.2,1.1
		c2.7,9.9,5.4,19.8,8,29.8c0.2,0.8,0.4,1.6,0.6,2.7c-1,0.3-1.9,0.7-2.8,0.9c-10,2.7-20,5.4-30,8c-0.1,0-0.2,0.1-0.3,0.1
		c-0.1,0-0.2,0-0.3,0.1c-1.7,0.4-3,1.2-4.2,2.4c0,0,0,0-0.1,0.1c-0.1,0.1-0.2,0.2-0.3,0.3c-2,2-4,4.1-6,6.1
		c-5.3,5.3-10.6,10.7-16,16c-0.6,0.6-1.3,1.2-2.2,2.1c-0.9-0.8-1.6-1.4-2.2-2c-3.1-3.1-6.2-6.2-9.3-9.3c-4.4-4.4-8.7-8.7-13.1-13.1
		c-0.5-0.5-1.1-1-1.7-1.4c-0.1,0-0.1-0.1-0.2-0.1c-0.7-0.4-1.4-0.7-2.3-0.9c-10.1-2.6-20.2-5.4-30.3-8.1c-1-0.3-2.1-0.6-3.2-1
		c0.3-1.3,0.5-2.3,0.8-3.2c2-7.5,4-15,6.1-22.5c0.6-2.3,1.2-4.6,1.9-6.9c0-0.2,0.1-0.3,0.1-0.5c0.1-0.2,0.1-0.5,0.2-0.7
		c0.4-1.4,0.4-2.7,0-4.1c-0.1-0.4-0.2-0.8-0.3-1.2c0,0,0,0,0-0.1c-0.1-0.5-0.3-0.9-0.4-1.4c-2.5-9.3-5-18.6-7.5-27.9
		c-0.3-1-0.5-2.1-0.8-3.2c0.3-0.1,0.5-0.2,0.8-0.2c0.7-0.2,1.4-0.4,2-0.6c10.3-2.8,20.6-5.6,31-8.3c1.5-0.4,2.7-1.1,3.8-2.2
		c5.1-5.1,10.2-10.2,15.3-15.4c-0.9-0.3-1.8-0.6-2.7-1c-4.6,4.6-9.1,9.1-13.7,13.7c-1.4,1.4-2.9,2.2-4.7,2.7
		c-10.1,2.7-20.2,5.4-30.3,8.1c-0.5,0.1-1,0.3-1.6,0.4c0,0,0,0,0,0c0,0,0,0,0,0c-0.7,0.2-1.5,0.4-2.2,0.7c-0.3,0.1-0.6,0.2-0.9,0.3
		c0,0.1,0,0.2,0.1,0.3c0.2,0.9,0.4,1.6,0.5,2.2c2.4,8.8,4.7,17.6,7.1,26.5c0.5,1.9,1,3.7,1.5,5.6c0.5,2,0.5,3.8,0.1,5.8
		C52.4,650.7,51.5,653.9,50.7,657.2z"/>
	<g>
		<path class="st1" d="M-105.9,810c2.4,9.3,5,18.6,7.5,27.9c0.2,0.6,0.4,1.2,0.6,1.7c0.4,0,0.5,0,0.7,0c9.9-2.6,19.9-5.3,29.8-8
			c1-0.3,1.9-1,2.7-1.8c6.8-6.7,13.5-13.5,20.3-20.2c0.4-0.5,0.9-0.9,1.3-1.4c-0.1-0.3-0.2-0.4-0.3-0.6
			c-7.3-7.3-14.5-14.6-21.8-21.8c-0.7-0.7-1.7-1.1-2.6-1.4c-9.4-2.6-18.8-5.1-28.1-7.6c-0.6-0.2-1.2-0.2-1.8-0.3
			c-0.2,0.4-0.4,0.6-0.4,0.9c-2.6,9.7-5.3,19.5-7.8,29.2C-106.3,807.8-106.2,809-105.9,810z M-103.3,806.3
			c2.1-8.1,4.3-16.3,6.5-24.4c0.2-0.7,0.5-1.4,0.8-2.2c0.8,0.1,1.6,0.2,2.2,0.4c8.1,2.2,16.3,4.3,24.4,6.5c1.1,0.3,2.3,0.9,3.1,1.7
			c6.4,6.3,12.7,12.7,19.1,19c0.2,0.2,0.3,0.4,0.6,0.8c-0.6,0.6-1.1,1.2-1.7,1.8c-5.8,5.8-11.7,11.6-17.4,17.5
			c-1.1,1.1-2.3,1.8-3.8,2.2c-8,2.1-15.9,4.3-23.8,6.4c-0.8,0.2-1.6,0.4-2.6,0.6c-0.3-0.9-0.6-1.8-0.8-2.7
			c-2.1-7.9-4.3-15.7-6.3-23.6C-103.5,809.1-103.6,807.6-103.3,806.3z"/>
	</g>
	<path class="st1" d="M-6.5,840c-7.8-7.9-15.7-15.7-23.5-23.6c-0.7-0.7-1.5-1.4-2.3-2.1c0,0,0,0,0,0c0,0,0,0,0,0
		c-0.8,0.8-1.5,1.4-2.1,2c-2.5,2.5-5,5-7.5,7.4c-0.5,0.5-1.3,0.8-2,1.2v0.9c-4.8,4.8-9.6,9.6-14.4,14.4c-1.1,1.1-2.2,1.8-3.7,2.2
		c-1.2,0.3-2.4,0.6-3.6,1c2.4,0.1,4.7,0.2,7.1,0.3c0.7-0.4,1.3-0.9,1.8-1.5c7.4-7.4,14.8-14.8,22.2-22.2c0.4-0.4,0.8-0.8,1.3-1.2
		c0.3-0.2,0.7-0.5,1.2-0.9c0.8,0.8,1.6,1.4,2.2,2.1c4.5,4.5,8.9,8.9,13.4,13.4c2.9,2.9,5.8,5.8,8.7,8.7c0.3,0.4,0.7,0.7,1.1,0.9
		c0.7,0.6,1.5,1,2.3,1.3c0.1,0,0.2,0.1,0.2,0.1c0.3,0.1,0.6,0.2,0.9,0.3c0,0,0,0,0,0c3.2,0,6.3,0,9.5-0.1c-2.8-0.7-5.6-1.5-8.4-2.3
		C-3.9,842.1-5.3,841.3-6.5,840z"/>
	<path class="st1" d="M-145.3,824.5c-1.2-4.5-2.2-8.8-3.5-13.1c-0.7-2.3-0.7-4.4,0-6.8c1.3-4.2,2.3-8.5,3.5-12.9
		c-0.8-0.3-1.4-0.6-2-0.7c-4-1.1-8-2.3-12.1-3.2c-1.8-0.4-3.2-1.3-4.4-2.6c-2.8-2.9-5.7-5.8-8.6-8.7c-0.5-0.5-1.1-0.9-1.7-1.4
		c-0.8,0.7-1.5,1.4-2.1,2c-2.6,2.6-5.3,5.2-7.8,7.9c-1.4,1.5-2.9,2.4-4.9,2.9c-4,0.9-7.9,2.1-11.8,3.2c-0.7,0.2-1.3,0.5-2,0.8
		c0.4,1.5,0.8,2.9,1.1,4.3c1,0.6,2.1,1.2,3.1,1.8c-0.4-1.4-0.7-2.9-1.1-4.4c0.8-0.3,1.6-0.7,2.3-0.9c3.5-1,6.9-1.9,10.5-2.8
		c1.4-0.3,2.5-1,3.5-2c2.4-2.5,4.8-4.9,7.2-7.3c0.6-0.6,1.3-1.2,2.2-2c2.1,2.1,4.3,4,6.1,6.2c2.9,3.5,6.4,5.6,11,6.3
		c2.8,0.5,5.5,1.5,8.5,2.3c-0.7,2.6-1.1,5.1-2,7.3c-1.9,5-1.9,9.8,0,14.8c0.9,2.2,1.2,4.6,1.9,7.2c-1.1,0.3-2,0.7-3,0.9
		c-0.6,0.2-1.3,0.3-1.9,0.5c1.1,0.6,2.1,1.2,3.2,1.8c0.7-0.2,1.4-0.4,2.1-0.6C-147.1,825.2-146.3,824.9-145.3,824.5z"/>
	<path class="st1" d="M-32.4,836.5C-32.4,836.5-32.4,836.5-32.4,836.5C-32.4,836.5-32.4,836.5-32.4,836.5c-0.8,0.8-1.5,1.4-2.2,2
		c-2,2-4,4-6.1,6c1.2,0,2.4,0.1,3.6,0.1c1-1,2-2,3-3c0.5-0.5,1.1-0.9,1.7-1.4c0.7,0.6,1.2,1.1,1.6,1.5c0.2,0.2,0.5,0.5,0.7,0.7
		c0.8,0.8,1.6,1.6,2.4,2.4c1.2,0,2.5,0.1,3.7,0.1c-2.2-2.2-4.4-4.3-6.5-6.5C-30.9,837.7-31.6,837.2-32.4,836.5z"/>
	<g>
		<path class="st1" d="M-185.2,638.4c0.5,2.3,1.4,4.3,1.4,6.4c0,2-0.9,4.1-1.4,6.3c2.2,0.7,4.4,0.9,6.2,1.9c1.9,1.1,3.3,2.9,5.2,4.7
			c2.7-3.8,6.3-5.9,11.1-6.4c-0.6-2.4-1.4-4.4-1.4-6.5c0-2.1,0.8-4.2,1.4-6.7c-4.7-0.5-8.3-2.5-11-6.4c-1.9,1.8-3.3,3.6-5.1,4.6
			C-180.7,637.4-183,637.8-185.2,638.4z M-174.2,635.4c2.3,2.5,4.7,4.4,8.3,4.6c-1.1,3.2-1.4,6,0.1,9.2c-3.3,0.8-6.1,1.9-8.1,4.8
			c-1.4-1.3-2.4-2.5-3.7-3.3c-1.2-0.7-2.8-0.9-4.5-1.5c0.9-2.9,1.2-5.9-0.2-9.1C-178.9,639.6-176.2,638.4-174.2,635.4z"/>
	</g>
	<path class="st1" d="M-196.4,677.8c1.8,0.5,3.4,1.3,4.7,2.7c5.1,5.2,10.3,10.4,15.5,15.5c0.7,0.7,1.4,1.3,2.6,2.4
		c0.8-1.1,1.3-1.9,2-2.7c5.1-5.1,10.2-10.2,15.3-15.3c1.2-1.2,2.5-2,4.2-2.5c5.2-1.3,10.4-2.7,15.6-4.1c2.8-0.8,5.7-1.6,8.7-2.4
		c-0.3-1.1-0.4-2-0.7-2.8c-1.9-7.2-3.8-14.3-5.7-21.4c-0.4-1.6-0.5-3,0-4.6c2-7.3,3.9-14.6,5.9-22c0.2-0.8,0.3-1.5,0.4-2.4
		c-1.2-0.4-2.2-0.7-3.2-0.9c-7.1-1.9-14.1-3.8-21.2-5.6c-1.5-0.4-2.7-1.1-3.8-2.2c-5.3-5.4-10.7-10.8-16.1-16.1
		c-0.6-0.6-1.3-1.2-2.3-2.1c-0.8,1-1.3,1.8-1.9,2.4c-5.1,5.2-10.4,10.3-15.5,15.5c-0.9,0.9-1.9,1.6-3,2.1c-1.1,1.2-2.2,2.4-3.3,3.6
		c1.1-0.3,2.2-0.6,3.3-0.9c1.8-0.5,3.2-1.2,4.5-2.5c4.6-4.7,9.3-9.3,13.9-14c0.7-0.7,1.2-1.6,2-2.7c1.2,1,1.8,1.6,2.5,2.2
		c4.8,4.8,9.6,9.5,14.3,14.4c1.3,1.3,2.6,2.1,4.4,2.6c6.5,1.7,13.1,3.5,19.6,5.2c0.8,0.2,1.6,0.5,2.7,0.8c-0.2,1-0.3,1.8-0.5,2.7
		c-1.8,6.7-3.5,13.4-5.4,20.1c-0.4,1.4-0.4,2.7,0,4.1c1.8,6.6,3.6,13.2,5.3,19.9c0.2,0.9,0.4,1.8,0.7,2.9c-7.6,2-14.7,4-21.8,5.8
		c-2.1,0.5-3.7,1.5-5.2,3c-4.6,4.7-9.3,9.3-13.9,14c-0.6,0.6-1.3,1.3-2.1,2c-0.7-0.6-1.3-1.1-1.9-1.7c-4.9-4.9-9.9-9.8-14.7-14.7
		c-1.2-1.2-2.4-1.9-4-2.3c-6.4-1.7-12.9-3.4-19.3-5.1c-1-0.3-1.9-0.6-3.2-0.9c0.2-1,0.4-1.9,0.6-2.7c1.8-6.6,3.5-13.3,5.3-19.9
		c0.4-1.5,0.4-2.8,0-4.3c-0.6-2.1-1.1-4.2-1.7-6.4c-0.6,1.1-1.2,2.1-1.8,3.2c0.3,1,0.5,2,0.8,3c0.5,1.7,0.4,3.2,0,4.9
		c-1.9,7-3.8,14.1-5.7,21.2c-0.2,0.9-0.4,1.8-0.7,2.9c1.2,0.3,2,0.6,2.7,0.8C-210.5,674.1-203.5,676-196.4,677.8z"/>
	<path class="st1" d="M-126.8,575.2c2.7,0.5,5.3,1.4,8.1,2.1c0.3-0.6,0.5-1,0.6-1.5c1-3.6,1.9-7.2,2.9-10.8
		c-0.9,0.2-1.8,0.4-2.8,0.6c-0.1,0.4-0.2,0.7-0.3,1.1c-0.8,2.3-1.3,4.8-2.1,7.5c-3.8-1-7.3-2-10.9-3c-0.3-0.1-0.5-0.3-0.7-0.5
		c-0.4-0.4-0.9-0.9-1.3-1.3c-1,0.3-2,0.5-2.9,0.8C-133.6,572.9-130.5,574.5-126.8,575.2z"/>
	<g>
		<path class="st1" d="M-184.7,622.2c-1.1,1.1-2.3,1.8-3.8,2.2c-4.1,1-8.2,2.2-12.3,3.3c-0.7,0.2-1.3,0.5-2,0.8
			c1.3,4.9,2.5,9.5,3.8,14.1c0.4,1.5,0.4,2.9,0,4.3c-1.3,4.6-2.5,9.3-3.8,14.2c1.2,0.4,2.1,0.7,2.9,0.9c3.8,1,7.7,2.1,11.5,3.1
			c1.5,0.4,2.7,1.1,3.8,2.2c3,3.1,6,6.1,9,9c0.5,0.5,1.1,0.9,1.7,1.4c3.6-3.6,7.1-7.1,10.5-10.6c1-1,2.1-1.7,3.5-2
			c3.9-1,7.9-2.1,11.8-3.1c0.9-0.2,1.7-0.5,2.7-0.9c-1.2-4.6-2.3-9-3.6-13.3c-0.6-2.1-0.6-4.1,0-6.2c1.3-4.3,2.4-8.7,3.6-13.2
			c-0.8-0.3-1.3-0.6-1.9-0.7c-4.1-1.1-8.2-2.3-12.3-3.3c-1.6-0.4-2.9-1.1-4-2.3c-2.9-3-5.9-5.9-8.8-8.9c-0.5-0.5-1.1-0.9-1.7-1.5
			c-0.8,0.7-1.5,1.3-2.1,2C-179,616.6-181.9,619.4-184.7,622.2z M-174,615.2c3.3,3.3,6.3,6.3,9.2,9.4c1.1,1.1,2.3,1.8,3.8,2.1
			c4.1,1,8.2,2.2,12.6,3.4c-0.4,1.6-0.7,3-1.1,4.4c-0.9,3.5-2.5,7-2.5,10.5c0,3.4,1.6,6.8,2.5,10.2c0.3,1.3,0.7,2.7,1.1,4.2
			c-0.7,0.3-1.2,0.6-1.8,0.8c-3.4,0.9-6.8,1.9-10.2,2.7c-2,0.5-3.5,1.4-4.9,2.9c-2.7,2.9-5.5,5.7-8.4,8.7c-0.8-0.6-1.4-1-1.9-1.5
			c-2.6-2.5-5.2-5-7.6-7.7c-1.1-1.2-2.4-1.9-4-2.3c-3.5-0.9-7-1.8-10.4-2.8c-0.6-0.2-1.2-0.4-2-0.7c1-3.9,2-7.8,3.1-11.6
			c0.6-2,0.6-3.9,0-5.9c-1.1-3.8-2.1-7.6-3.1-11.7c2.4-0.7,4.6-1.5,6.8-1.8c5.6-0.9,10.2-3.4,13.8-7.9
			C-177.7,618.5-175.9,617.1-174,615.2z"/>
	</g>
	<path class="st1" d="M-103,564.9c-2.1,8.3-4.4,16.6-6.6,24.9c-0.2,0.6-0.5,1.2-0.8,1.9c-4.3-1.1-8.5-2.3-12.7-3.4
		c-4.6-1.2-9.3-2.5-13.9-3.8c-0.9-0.3-2-0.6-2.7-1.3c-3.1-3-6.1-6.1-9.2-9.2c-0.8,0.4-1.5,0.9-2.3,1.3c3.3,3.3,6.5,6.6,9.9,9.8
		c0.9,0.8,2.2,1.4,3.4,1.7c8.9,2.5,17.9,4.8,26.8,7.2c0.9,0.2,1.8,0.4,2.7,0.6c0.2-0.6,0.4-1,0.5-1.5c2.5-9.5,5.1-18.9,7.6-28.4
		c0.2-0.7,0.2-1.6,0.1-2.4c-0.9,0.1-1.8,0.1-2.6,0.2C-102.8,563.4-102.9,564.2-103,564.9z"/>
	<g>
		<path class="st1" d="M-31.7,650.7c-0.4,0-0.8,0-1.2,0c-0.6,0.8-1.1,1.8-1.8,2.5c-0.8,0.8-1.6,1.6-2.4,2.4
			c-1.6,1.6-3.1,3.1-4.7,4.7c-0.6,0.6-1.5,0.9-2.2,1.4v0.9c-4.6,4.6-9.3,9.3-13.9,13.9c-1.4,1.4-2.9,2.4-4.9,2.9
			c-10.7,2.8-21.3,5.6-31.9,8.5c-1,0.3-1.9,0.5-3.1,0.9c0.3,1.2,0.5,2.2,0.7,3.1c2.9,10.8,5.7,21.6,8.7,32.4c0.4,1.6,0.4,3,0,4.6
			c-2.9,10.8-5.8,21.6-8.7,32.4c-0.2,1-0.4,1.9-0.7,3c1.1,0.3,2,0.6,2.8,0.8c10.8,2.9,21.6,5.8,32.4,8.7c1.7,0.4,3,1.2,4.2,2.4
			c4.7,4.8,9.5,9.5,14.2,14.2v0.7c0.7,0.5,1.6,1,2.2,1.6c2.7,2.6,5.2,5.2,7.9,7.8c0.2,0.2,0.3,0.3,0.5,0.5c0.3,0.3,0.7,0.6,1.1,1
			c0,0,0.1-0.1,0.1-0.1c0.2,0.1,0.3,0.2,0.5,0.4c0.7-0.9,1.2-1.9,1.9-2.6c4.5-4.5,8.9-9,13.4-13.5c3.3-3.3,6.7-6.7,10-10
			c1.2-1.2,2.5-2,4.2-2.5c10.9-2.9,21.8-5.8,32.7-8.8c0.4-0.1,0.9-0.3,1.4-0.4c0.4-0.1,0.8-0.2,1.2-0.4c0,0,0,0,0,0c0,0,0,0,0,0
			c-0.3-1.1-0.5-2-0.7-2.9c-2-7.4-3.9-14.7-5.9-22.1c-0.9-3.4-1.8-6.7-2.7-10.1c-0.4-1.8-0.4-3.5,0-5.2c0.7-2.6,1.4-5.1,2.1-7.7
			c2.1-7.6,4.1-15.2,6.1-22.8c0.3-1.1,0.6-2.2,0.8-3.4c0.1-0.5,0.2-0.9,0.4-1.3c-0.8-0.2-1.6-0.5-2.3-0.7c-0.2-0.1-0.3-0.1-0.5-0.2
			c-8.3-2.2-16.6-4.5-24.9-6.7c-2.4-0.6-4.7-1.3-7.1-1.9c-2-0.6-3.7-1.5-5.2-3c-0.7-0.7-1.3-1.3-2-2c-7-7.1-14-14.1-21-21.1
			C-30.6,652.5-31.1,651.6-31.7,650.7z M-7.9,678.8c0.3,0.4,0.7,0.7,1.1,1c0.7,0.6,1.5,1,2.3,1.3c0.2,0.1,0.3,0.1,0.5,0.2
			c0.2,0.1,0.4,0.2,0.7,0.2c0,0,0,0,0,0c0,0,0.1,0,0.1,0c10.3,2.7,20.6,5.5,30.8,8.3c0,0,0,0,0,0c0.8,0.2,1.5,0.5,2.4,0.8
			c-0.1,0.6-0.3,1.1-0.4,1.7c-0.1,0.5-0.2,1-0.4,1.5c-2.7,10.3-5.5,20.6-8.3,30.8c-0.4,1.3-0.4,2.5,0,3.8
			c2.8,10.3,5.5,20.5,8.3,30.8c0.3,1,0.5,2.1,0.8,3.2c-1.3,0.4-2.2,0.7-3.2,0.9c-10,2.7-20,5.4-30,8c-0.1,0-0.2,0.1-0.3,0.1
			c0,0-0.1,0-0.1,0c-1.3,0.3-2.3,0.9-3.3,1.6c0,0,0,0,0,0c-0.2,0.2-0.5,0.4-0.7,0.6l0,0c-0.1,0.1-0.2,0.2-0.3,0.2
			c-7.4,7.4-14.8,14.8-22.2,22.2c-0.7,0.7-1.4,1.3-2.2,2.1c-0.8-0.8-1.6-1.4-2.3-2.1c-7.5-7.5-14.9-14.9-22.4-22.4
			c-1.2-1.2-2.4-1.9-4-2.3c-10.2-2.7-20.4-5.4-30.6-8.2c-1-0.3-1.9-0.6-3.1-0.9c0.3-1.2,0.6-2.3,0.8-3.3c2.7-10.2,5.4-20.4,8.2-30.6
			c0.4-1.4,0.4-2.6,0-4.1c-2.8-10.2-5.5-20.4-8.2-30.6c-0.3-1.1-0.5-2.1-0.8-3.4c1-0.3,1.9-0.6,2.7-0.8c10.2-2.7,20.4-5.5,30.6-8.2
			c1.7-0.5,3.2-1.2,4.5-2.6c7.3-7.4,14.8-14.8,22.2-22.2c0.4-0.4,0.8-0.8,1.2-1.2c0.3-0.3,0.7-0.5,1.2-0.9c0.8,0.8,1.5,1.4,2.2,2.1
			c4.5,4.5,9.1,9.1,13.6,13.6C-13.6,673.2-10.7,676-7.9,678.8z"/>
	</g>
	<g>
		<path class="st1" d="M-73.7,634.7c-2.6-1.5-6-1.8-9-2.7c-1.7-0.5-3.3-0.8-5.1-1.3c-1.2,4.7-2.4,9-3.6,13.4c-0.1,0.4-0.1,0.9,0,1.3
			c1.1,4.4,2.3,8.7,3.6,13.5c4.7-1.3,9.1-2.4,13.5-3.6c0.4-0.1,0.9-0.3,1.2-0.6c3.3-3.2,6.5-6.5,10.1-10.1c-1.4-1.3-2.6-2.4-3.8-3.5
			C-69.1,638.9-71,636.2-73.7,634.7z M-74.2,652.2c-0.3,0.3-0.6,0.5-0.9,0.6c-3.5,1-7.1,2-10.8,3c-1-3.7-1.9-7.1-2.8-10.5
			c-0.1-0.4-0.1-0.9,0.1-1.4c0.9-3.3,1.8-6.6,2.7-10.3c3.8,1,7.4,2,11,3.1c0.4,0.1,0.7,0.5,1.1,0.9c2.3,2.3,4.6,4.6,7.2,7.1
			C-69.4,647.4-71.8,649.8-74.2,652.2z"/>
	</g>
	<g>
		<path class="st1" d="M-65.2,622.5c-0.7-0.7-1.7-1.1-2.6-1.4c-9.4-2.6-18.8-5.1-28.1-7.6c-0.6-0.2-1.2-0.2-1.9-0.3
			c-0.2,0.5-0.4,0.8-0.5,1.2c-2.6,9.6-5.2,19.1-7.7,28.7c-0.3,1.1-0.2,2.4,0.1,3.5c1.2,4.8,2.5,9.7,3.8,14.5c1.3,5,2.7,10,4.1,15.3
			c0.8-0.2,1.2-0.3,1.7-0.4c9.6-2.6,19.1-5.1,28.7-7.7c1.1-0.3,2.2-1,3-1.8c6.8-6.7,13.5-13.5,20.3-20.2c0.5-0.5,0.9-0.9,1.3-1.4
			c-0.1-0.3-0.2-0.4-0.3-0.6C-50.7,637-57.9,629.7-65.2,622.5z M-48.1,646.3c-5.9,6-11.9,11.9-17.9,17.8c-0.8,0.8-1.7,1.5-2.7,1.8
			c-9,2.5-18,4.9-27.3,7.4c-0.3-1-0.6-1.6-0.7-2.3c-2.2-8-4.3-16.1-6.4-24.1c-0.3-1.2-0.4-2.6-0.1-3.8c2.1-8.3,4.4-16.6,6.6-24.9
			c0.1-0.5,0.4-1,0.6-1.7c0.7,0.1,1.3,0.1,1.9,0.2c8.3,2.2,16.6,4.4,24.9,6.7c0.9,0.3,2,0.7,2.6,1.3c6.7,6.6,13.2,13.2,20,19.9
			C-47.2,645.2-47.6,645.8-48.1,646.3z"/>
	</g>
	<path class="st1" d="M-88.5,566.1c-2.6,9.3-5,18.6-7.5,27.9c-0.6,2.2-1.2,4.4-1.8,6.8c1.1,0.3,1.9,0.6,2.8,0.9
		c10.8,2.9,21.6,5.9,32.4,8.7c1.8,0.5,3.2,1.3,4.4,2.6c4.7,4.7,9.4,9.4,14.1,14.1v0.7c0.7,0.5,1.6,1,2.2,1.6
		c2.7,2.6,5.2,5.2,7.9,7.8c0,0,0.1,0.1,0.1,0.1c0.5,0.5,1.1,1,1.8,1.8c0.8-1.1,1.4-2,2.1-2.7c7.8-7.9,15.7-15.7,23.5-23.6
		c0.7-0.7,1.5-1.3,2.4-1.7c0.5-0.2,1-0.4,1.6-0.6c7.2-1.9,14.3-3.8,21.5-5.8c3.7-1,7.5-2,11.2-3c0,0,0,0,0,0c0,0,0,0,0,0
		c0,0,0,0,0,0c0.9-0.2,1.7-0.5,2.7-0.8c-0.2-1-0.4-1.8-0.6-2.6c0-0.1,0-0.2-0.1-0.3c0,0,0-0.1,0-0.1c0,0,0-0.1,0-0.1
		c-1.9-7-3.8-14-5.6-21.1c-1-3.7-2-7.4-3-11.1c-0.4-1.7-0.5-3.2,0-4.9c0.2-0.8,0.4-1.7,0.7-2.5c-0.8-0.2-1.6-0.5-2.4-0.7
		c-0.3,1.1-0.6,2.3-0.9,3.4c-0.4,1.5-0.4,2.8,0,4.3c2.8,10.2,5.5,20.4,8.2,30.5c0.3,1,0.5,2.1,0.8,3.2c-1.3,0.4-2.2,0.7-3.2,0.9
		c-9.9,2.7-19.8,5.4-29.7,7.9c-0.2,0.1-0.4,0.1-0.6,0.2c-0.1,0-0.2,0-0.2,0.1c-0.1,0-0.1,0.1-0.2,0.1c-0.3,0.1-0.6,0.2-0.9,0.4
		c-0.6,0.3-1.2,0.6-1.8,1c-0.2,0.2-0.5,0.4-0.7,0.6c-0.1,0.1-0.1,0.1-0.2,0.2c-0.1,0.1-0.1,0.1-0.2,0.2c-0.1,0.1-0.3,0.2-0.4,0.3
		c-7.3,7.4-14.6,14.7-22,22c-0.7,0.7-1.4,1.3-2.2,2.1c-1-0.9-1.6-1.5-2.2-2.1c-7.5-7.5-15-14.9-22.4-22.4c-1.2-1.2-2.6-2-4.2-2.4
		c-10.1-2.7-20.2-5.4-30.3-8.1c-1-0.3-1.9-0.6-3.2-0.9c0.3-1.2,0.5-2.2,0.8-3.2c2.7-10.2,5.4-20.4,8.2-30.6c0.4-1.3,0.4-2.4,0.1-3.7
		c-0.9,0-1.8,0.1-2.6,0.2C-88,563.2-88.1,564.6-88.5,566.1z"/>
	<g>
		<path class="st1" d="M-32.3,673.1C-32.3,673.1-32.3,673.1-32.3,673.1C-32.4,673.1-32.4,673.1-32.3,673.1c-0.9,0.8-1.5,1.4-2.2,2
			c-2.4,2.4-4.8,4.9-7.3,7.2c-0.6,0.6-1.5,1-2.2,1.5v0.8c-2,2-4.1,4.1-6.1,6.1c-1.2,1.2-2.6,2-4.2,2.4c-7.2,1.9-14.3,3.8-21.4,5.7
			c-0.9,0.2-1.7,0.5-2.7,0.9c0.2,1,0.4,1.8,0.6,2.5c1.9,7.3,3.9,14.7,5.9,22c0.4,1.5,0.4,2.9,0,4.3c-2,7.2-3.9,14.5-5.8,21.7
			c-0.2,0.9-0.4,1.8-0.6,2.8c1,0.3,1.7,0.6,2.5,0.8c7.2,2,14.5,3.9,21.7,5.8c1.7,0.4,3,1.2,4.2,2.5c2,2,4.1,4.1,6.1,6.1v0.5
			c1.6,1.5,3.3,2.9,4.9,4.4c1.1,1.1,2.2,2.1,3.3,3.2c0.1,0.1,0.3,0.3,0.4,0.4c1,1,2,2,3,3c0.4-0.4,0.8-0.7,1.1-1
			c0.4-0.4,0.7-0.7,1.1-1c5.3-5.3,10.6-10.6,15.9-15.9c0.2-0.3,0.5-0.5,0.8-0.7c0.8-0.7,1.8-1.1,2.9-1.4c0,0,0.1,0,0.1,0
			c3.7-1,7.5-2,11.2-3c3.7-1,7.4-2,11.1-3c0.2-0.1,0.4-0.1,0.6-0.2c0.5-0.2,1-0.3,1.5-0.5c-0.2-0.8-0.3-1.5-0.5-2.2c0,0,0-0.1,0-0.1
			c0,0,0,0,0,0c0,0,0-0.1,0-0.2c-1.9-7.3-3.9-14.7-5.9-22c0,0,0,0,0-0.1c-0.1-0.3-0.1-0.6-0.2-0.9c-0.1-0.6-0.1-1.2,0-1.9
			c0-0.5,0.1-1,0.3-1.5c2-7.3,3.9-14.6,5.9-22c0.2-0.8,0.4-1.6,0.6-2.5c0,0,0,0,0,0c0,0,0,0,0,0c-0.2-0.1-0.4-0.1-0.6-0.2
			c-0.8-0.2-1.5-0.5-2.2-0.7c-7-1.9-13.9-3.8-20.9-5.6c-0.1,0-0.2-0.1-0.3-0.1c-1.9-0.5-3.3-1.3-4.7-2.7
			c-5.1-5.2-10.3-10.4-15.5-15.5C-30.9,674.4-31.6,673.8-32.3,673.1z M-16,692.9c1.3,1.3,2.6,2.1,4.4,2.6c6.8,1.7,13.6,3.6,20.4,5.4
			c0.5,0.1,1,0.3,1.6,0.6c0.1,0,0.2,0.1,0.3,0.1c-0.2,1-0.4,1.9-0.6,2.8c-1.8,6.6-3.5,13.2-5.3,19.8c-0.4,1.5-0.4,2.8,0,4.3
			c1.8,6.7,3.6,13.4,5.4,20.1c0.2,0.8,0.3,1.7,0.5,2.7c-0.6,0.2-1.2,0.4-1.8,0.6c-0.4,0.1-0.8,0.2-1.1,0.3c-5.7,1.5-11.3,3.1-17,4.5
			c-0.4,0.1-0.8,0.2-1.2,0.3c-0.1,0-0.1,0-0.2,0.1c-0.4,0.1-0.8,0.2-1.1,0.3c-1.6,0.4-2.8,1.1-4,2.3c-0.3,0.3-0.6,0.6-0.9,0.9
			c0,0-0.1,0.1-0.1,0.1c-0.3,0.3-0.6,0.6-0.9,0.9c-4.3,4.3-8.6,8.6-12.9,12.9c-0.6,0.6-1.2,1.1-2,1.7c-2.2-2.2-4.4-4.4-6.6-6.6
			c-3.1-3.1-6.3-6.3-9.4-9.5c-1.5-1.5-3.1-2.4-5.2-2.9c-6.4-1.6-12.7-3.4-19-5.1c-0.8-0.2-1.6-0.5-2.7-0.8c0.2-0.9,0.3-1.8,0.5-2.7
			c1.8-6.7,3.5-13.4,5.4-20.1c0.4-1.5,0.4-2.8,0-4.3c-1.8-6.6-3.6-13.2-5.3-19.8c-0.2-0.9-0.4-1.8-0.7-2.9c1.3-0.4,2.4-0.7,3.5-1
			c6.3-1.7,12.7-3.4,19-5.1c1.6-0.4,2.8-1.1,4-2.3c4.7-4.8,9.4-9.4,14.1-14.2c0.3-0.3,0.6-0.6,0.9-0.9c0.5-0.4,1-0.8,1.6-1.3
			c0.7,0.6,1.3,1.2,1.9,1.7c0.2,0.1,0.3,0.3,0.5,0.5C-25.3,683.6-20.6,688.2-16,692.9z"/>
	</g>
	<path class="st1" d="M-199.5,694.8c7.6,7.7,15.3,15.3,22.9,23c0.7,0.7,1.3,1.6,2.1,2.7c1.3-1.2,2-1.9,2.7-2.6
		c7.9-7.9,15.7-15.7,23.6-23.6c1.2-1.2,2.5-2,4.2-2.4c10.8-2.8,21.6-5.8,32.4-8.7c0.9-0.3,1.9-0.6,2.9-0.9c-0.3-1.2-0.5-2.1-0.8-3
		c-2.9-10.9-5.8-21.8-8.8-32.7c-0.4-1.3-0.4-2.5,0-3.8c3-10.9,5.9-21.8,8.8-32.7c0.3-1,0.4-1.9,0.7-3.1c-1.2-0.4-2.3-0.7-3.3-1
		c-10.6-2.8-21.3-5.7-31.9-8.5c-1.7-0.4-3-1.2-4.2-2.4c-4.5-4.6-9.1-9.1-13.7-13.7c-0.7,0.4-1.5,0.9-2.2,1.4
		c4.9,4.8,9.7,9.7,14.5,14.6c1.2,1.2,2.5,2,4.2,2.4c10.3,2.7,20.6,5.5,30.8,8.3c0.8,0.2,1.6,0.5,2.7,0.8c-0.2,1-0.4,2-0.7,3
		c-2.7,9.9-5.3,19.9-8,29.7c-0.6,2.1-0.6,4.1,0,6.2c2.8,10,5.4,20,8.1,30c0.2,0.8,0.4,1.6,0.6,2.7c-1,0.3-1.9,0.7-2.9,0.9
		c-10,2.7-20,5.4-30,8c-2,0.5-3.7,1.4-5.2,3c-7.4,7.5-14.9,15-22.4,22.4c-0.5,0.5-1.1,1-1.8,1.7c-0.8-0.7-1.5-1.3-2.2-2
		c-7.5-7.5-15.1-15-22.6-22.6c-1.1-1.1-2.2-1.8-3.7-2.2c-9.3-2.4-18.6-5-28-7.5c-0.2,0.8-0.5,1.6-0.7,2.4c8.8,2.4,17.5,4.7,26.3,7
		C-202.7,692.3-201,693.2-199.5,694.8z"/>
	<path class="st1" d="M177.5,646.7c1.2,4.9,2.6,9.8,3.9,14.7c1.3,4.9,2.6,9.8,4,15c0.7-0.1,1.1-0.2,1.4-0.3c0.3-0.1,0.7-0.2,1-0.3
		c-0.2-0.9-0.4-1.7-0.6-2.6c0,0,0,0,0,0c-1.3-4.8-2.5-9.4-3.7-13.9c-1.1-4.2-2.3-8.4-3.4-12.6c-0.2-0.6-0.2-1.3-0.3-2
		c-0.5-1.7-1-3.5-1.6-5.2c-0.3,1.2-0.6,2.4-1,3.6C177.1,644.3,177.2,645.6,177.5,646.7z"/>
	<path class="st1" d="M185.6,776.6c-0.2,0.5-0.4,0.8-0.5,1.1c-1.6,5.9-3.2,11.8-4.8,17.7c0.9-0.7,1.7-1.5,2.6-2.2
		c0.3-0.2,0.6-0.5,0.9-0.7c1-3.7,2-7.4,3-11.1c0.1-0.5,0.4-1,0.6-1.6c0.8,0.1,1.6,0.2,2.2,0.4c2.3,0.6,4.5,1.2,6.8,1.8
		c0.8-0.7,1.6-1.3,2.4-2c-3.7-1-7.4-2-11.1-3C187.1,776.9,186.4,776.8,185.6,776.6z"/>
	<path class="st1" d="M152.8,780.7c-5-1.3-10-2.7-15-4c-1.8-0.5-3.5-0.9-5.3-1.4c-2.5-0.7-4.5-2-6.4-3.8c-1.3-1.4-2.7-2.7-4-4
		c-4.1-4.2-8.3-8.3-12.6-12.6c0,0-0.1,0.1-0.1,0.1c-0.1-0.1-0.2-0.2-0.4-0.3c-0.7,0.9-1.2,1.8-1.8,2.4c-5.2,5.3-10.5,10.5-15.7,15.7
		c-0.2,0.2-0.4,0.4-0.7,0.6c-1,0.8-2.1,1.4-3.4,1.7c-3.6,0.9-7.3,1.9-10.9,2.9c-1.8,0.5-3.6,1-5.4,1.5c-1.6,0.4-3.3,0.9-4.9,1.3
		c-0.5,0.1-1,0.3-1.6,0.5c-0.5,0.1-0.9,0.3-1.4,0.4c0.2,0.8,0.3,1.5,0.5,2.1c0,0.1,0,0.2,0.1,0.3c0,0.1,0,0.2,0.1,0.2
		c0,0,0,0.1,0,0.1c0.1,0.2,0.1,0.4,0.2,0.6c1.2,4.5,2.4,9.1,3.6,13.6c0.6,2.2,1.2,4.5,1.8,6.7c0.4,1.9,0.4,3.8,0,5.7
		c-0.7,2.4-1.3,4.8-1.9,7.3c-0.9,3.4-1.9,6.9-2.8,10.3c-0.4,1.3-0.7,2.7-1.1,4c-0.1,0.2-0.1,0.4-0.1,0.7c-0.1,0.5-0.2,0.9-0.3,1.5
		c0,0,0.1,0,0.1,0c0,0,0,0,0,0c0.9,0.3,1.6,0.5,2.3,0.7c6.7,1.8,13.4,3.7,20.1,5.4c2-0.2,4-0.3,5.9-0.5c-0.9-0.7-1.9-1.1-3.1-1.4
		c-0.3-0.1-0.5-0.1-0.8-0.2c-0.2,0-0.3-0.1-0.4-0.1c-1.1-0.3-2.3-0.6-3.4-0.9c-3.9-1-7.9-2.1-11.8-3.1c-0.8-0.2-1.7-0.4-2.5-0.7
		c-0.7-0.2-1.4-0.4-2.2-0.7c-0.3-0.1-0.6-0.2-0.9-0.3c0.2-1,0.4-1.9,0.6-2.7c1.8-6.6,3.5-13.2,5.3-19.8c0.4-1.5,0.4-2.8,0-4.3
		c-1.8-6.5-3.5-13-5.2-19.6c-0.2-0.9-0.4-1.8-0.7-2.9c0.9-0.3,1.6-0.6,2.4-0.8c0.4-0.1,0.7-0.2,1.1-0.3c5.9-1.6,11.8-3.2,17.7-4.8
		c0.3-0.1,0.7-0.2,1-0.3c0,0,0,0,0.1,0c0.2,0,0.3-0.1,0.5-0.1c0.1,0,0.2-0.1,0.4-0.2c0.2-0.1,0.5-0.2,0.7-0.3c0.6-0.2,1.1-0.6,1.7-1
		c0.2-0.1,0.4-0.3,0.6-0.4c0.1-0.1,0.2-0.1,0.2-0.2c0.1-0.1,0.2-0.2,0.3-0.3c0.1-0.1,0.2-0.1,0.2-0.2c4.6-4.7,9.3-9.3,13.9-14
		c0.6-0.6,1.3-1.3,2.2-2.1c0.7,0.6,1.4,1.2,2,1.9c0.1,0.1,0.2,0.1,0.2,0.2c4.8,4.8,9.6,9.5,14.3,14.4c1.1,1.2,2.4,1.9,4,2.3
		c6.6,1.7,13.2,3.5,19.8,5.3c0.8,0.2,1.6,0.5,2.6,0.8c0,0.1,0,0.2-0.1,0.4c-0.2,0.8-0.3,1.6-0.5,2.4c-1.8,6.6-3.5,13.2-5.3,19.9
		c0,0.1,0,0.1,0,0.2l0,0c0,0,0,0,0,0c-0.2,0.7-0.3,1.3-0.3,2c0,0,0,0.1,0,0.1c0,0.7,0.1,1.3,0.3,2c1.1,4,2.2,8.1,3.2,12.1
		c0.7-0.6,1.4-1.3,2.2-1.9c0-0.1,0-0.1,0-0.2c-0.9-3.3-1.7-6.6-2.7-9.9c-0.1-0.2-0.1-0.4-0.1-0.6c-0.2-1.3-0.1-2.6,0.1-3.9
		c0.6-2,1.1-4.1,1.6-6.1c1.3-4.7,2.5-9.4,3.8-14.2c0.1-0.3,0.2-0.7,0.3-1.1c0-0.1,0-0.1,0.1-0.2c0-0.1,0-0.2,0.1-0.3
		c0.2-0.8,0.4-1.6,0.6-2.4c-0.3-0.1-0.5-0.2-0.8-0.3C154.1,781.1,153.4,780.9,152.8,780.7z"/>
	<g>
		<path class="st1" d="M117.6,833.1c0.9-0.9,1.7-1.7,2.6-2.5c0.9-0.8,2.1-1.5,3.3-1.9c2.9-0.9,5.9-1.7,8.8-2.4
			c1-0.3,2.1-0.5,3.1-0.8c0.4-0.1,0.7-0.2,1.1-0.3c0.5-0.2,1-0.3,1.6-0.5c0,0,0,0,0,0c0,0,0,0,0,0c-0.1-0.5-0.2-1-0.4-1.5
			c-0.5-2.2-1-4.2-1.6-6.2c-0.5-1.8-1-3.6-1.5-5.4c0-0.1-0.1-0.3-0.1-0.4c-0.3-1.9-0.3-3.8,0-5.7c0.1-0.2,0.1-0.4,0.1-0.6
			c0.5-1.8,1-3.6,1.5-5.4c0.6-1.9,1-3.8,1.5-5.7c0.2-0.6,0.3-1.2,0.5-1.9c0,0,0,0,0,0c0,0,0,0,0,0c-0.5-0.2-0.9-0.3-1.3-0.5
			c-0.2-0.1-0.5-0.2-0.7-0.2c-4.1-1.1-8.2-2.3-12.3-3.3c-1.6-0.4-2.9-1.1-4-2.3c-2.9-3-5.9-5.9-8.8-8.9c-0.5-0.5-1.1-0.9-1.7-1.4
			c0,0,0,0,0,0c0,0-0.1,0-0.1-0.1c-3.6,3.6-7.1,7-10.4,10.5c0,0-0.1,0.1-0.1,0.1c-0.4,0.4-0.8,0.7-1.3,1c-0.3,0.2-0.5,0.3-0.8,0.4
			c-0.4,0.2-0.8,0.4-1.2,0.5c-0.2,0.1-0.5,0.2-0.7,0.2c-4,1-8.1,2.1-12.1,3.2c-0.1,0-0.2,0.1-0.3,0.1c-0.5,0.2-1,0.4-1.6,0.6
			c0,0,0,0,0,0.1c0,0,0,0-0.1,0c0.2,0.7,0.4,1.5,0.6,2.2c0,0.2,0.1,0.4,0.1,0.5c0.3,0.9,0.5,1.9,0.8,2.8c0.2,0.7,0.4,1.4,0.5,2
			c0.6,2.3,1.2,4.6,1.8,6.9c0.3,1.1,0.3,2.4,0,3.5c-1,4-2.1,8.1-3.2,12.1c0,0.1-0.1,0.3-0.1,0.4c-0.2,0.8-0.4,1.5-0.6,2.3
			c0,0,0.1,0,0.1,0c0,0,0,0,0,0c0.1,0,0.1,0,0.2,0.1c3.6,1,6.8,2.1,10.2,2.7c4.4,0.8,7.8,2.9,10.7,6.2c1.6,1.8,3.4,3.6,5.2,5.3
			c1.8-0.2,3.5-0.3,5.3-0.5C114.1,836.7,115.8,834.9,117.6,833.1z M100.1,828.4c-1.1-1.1-2.3-1.8-3.8-2.2c-3.3-0.8-6.5-1.7-10-2.6
			c-0.2-0.1-0.5-0.1-0.7-0.2c-0.6-0.2-1.2-0.4-1.9-0.7c0.4-1.5,0.7-2.8,1.1-4.2c0.9-3.5,2.5-7,2.5-10.5c0-3.4-1.6-6.8-2.5-10.2
			c-0.4-1.3-0.7-2.7-1.1-4.2c0.8-0.3,1.6-0.6,2.3-0.8c1.6-0.4,3.1-0.9,4.7-1.3c0.5-0.1,1.1-0.3,1.6-0.4c1.2-0.2,2.3-0.5,3.3-0.9
			c0.2,0,0.3-0.1,0.5-0.1c1.6-0.4,2.8-1.1,4-2.3c0.1-0.1,0.2-0.2,0.3-0.3c0.9-0.7,1.7-1.5,2.4-2.4c0.3-0.3,0.6-0.6,0.9-0.9
			c1.2-1.2,2.3-2.3,3.5-3.5c0.6-0.6,1.3-1.2,2.2-2c0.2,0.2,0.4,0.4,0.7,0.7c1.2,1.2,2.4,2.3,3.5,3.5c0.8,0.8,1.7,1.7,2.5,2.6
			c0.7,0.9,1.5,1.6,2.4,2.3c1.3,1.2,2.7,2,4.4,2.5c1,0.4,2,0.7,3,0.9c1.2,0.2,2.3,0.5,3.5,0.9c1.8,0.5,3.5,1,5.4,1.5
			c0.1,0,0.1,0,0.2,0.1c-0.5,2.1-1.1,4.1-1.6,6c-0.7,2.9-2.1,5.9-2.1,8.9c0,2.9,1.3,5.7,2.1,8.6c0.5,1.8,1,3.6,1.5,5.6
			c0,0,0,0.1,0,0.1c-0.8,0.3-1.4,0.6-2.1,0.8c-3.3,0.9-6.6,1.8-9.8,2.6c-0.1,0-0.3,0.1-0.4,0.1c-0.3,0.1-0.5,0.2-0.7,0.2
			c-0.1,0-0.3,0.1-0.4,0.1c-0.1,0-0.2,0.1-0.3,0.2c-1,0.4-1.9,1-2.7,1.9c-0.2,0.2-0.3,0.3-0.5,0.5c-2.7,2.8-5.6,5.6-8.5,8.5
			c-0.7-0.6-1.3-1-1.8-1.5C105.2,833.5,102.6,831,100.1,828.4z"/>
	</g>
	<g>
		<path class="st1" d="M43.9,694.8C43.9,694.8,43.9,694.8,43.9,694.8c-0.1,0.3-0.2,0.5-0.3,0.7c-0.1,0.2-0.2,0.5-0.3,0.7
			c-2.6,9.6-5.2,19.1-7.7,28.7c-0.3,1.2-0.1,2.6,0.2,3.8c0.1,0.6,0.3,1.1,0.4,1.7c1,4,2.1,8,3.2,12.1c1.2,4.4,2.3,8.7,3.5,13.1
			c0.1,0.3,0.2,0.6,0.3,0.9c0.2,0.6,0.3,1.2,0.5,1.8c0,0,0.1,0,0.1,0c0,0,0,0.1,0,0.1c1.4-0.4,2.8-0.7,4.2-1.1
			c8.6-2.3,17.2-4.6,25.8-6.9c0.3-0.1,0.6-0.2,1-0.4c0,0,0.1,0,0.1-0.1c0.8-0.4,1.6-0.9,2.2-1.5c6.8-6.7,13.5-13.5,20.3-20.2
			c0.2-0.2,0.3-0.3,0.4-0.5c0.3-0.4,0.6-0.7,1-1.1c0,0,0,0,0,0c0,0,0,0,0,0c-0.3-0.3-0.4-0.6-0.6-0.8c-7.1-7.1-14.2-14.3-21.4-21.4
			c0,0,0,0,0,0c0,0,0,0-0.1-0.1c-0.7-0.7-1.8-1.2-2.9-1.5c-9.2-2.5-18.4-5-27.6-7.4c-0.2-0.1-0.4-0.1-0.6-0.1
			c-0.3-0.1-0.6-0.1-0.9-0.2C44.4,694.9,44.2,694.9,43.9,694.8C43.9,694.8,43.9,694.8,43.9,694.8z M45,699.8
			c0.2-0.6,0.4-1.2,0.7-1.9c0.6,0.1,1.1,0.2,1.7,0.3c2,0.5,4,1.1,5.9,1.6c1.3,0.3,2.5,0.7,3.8,1c4.2,1.1,8.5,2.3,12.7,3.4
			c0.8,0.2,1.7,0.5,2.5,0.7c1.1,0.3,2.3,0.9,3.1,1.7c6.4,6.3,12.7,12.7,19.1,19c0.2,0.2,0.3,0.4,0.6,0.8c-0.4,0.5-0.8,1.1-1.3,1.6
			c-6,6-12,12.1-18.1,18c-0.1,0.1-0.3,0.3-0.4,0.4c-0.1,0.1-0.2,0.2-0.4,0.3c-0.3,0.2-0.7,0.5-1,0.6c-0.3,0.1-0.6,0.3-0.9,0.4
			c0,0-0.1,0-0.1,0c-8,2.2-16,4.3-24.1,6.5c-0.5,0.1-0.9,0.2-1.4,0.4c-0.4,0.1-0.8,0.2-1.2,0.2c-0.2,0-0.4,0-0.6,0
			c-0.3-0.9-0.6-1.7-0.8-2.5c-2.1-7.9-4.3-15.7-6.3-23.6c-0.3-1.3-0.5-2.8-0.2-4C40.5,716.4,42.8,708.1,45,699.8z"/>
	</g>
	<g>
		<path class="st1" d="M110.6,819.8c0.5-0.5,0.9-1,1.4-1.4c2.4-2.1,5.4-3.3,8.9-3.8c-2-4.4-2-8.5-0.1-12.7c-0.1,0-0.1,0-0.2-0.1
			c0,0,0,0,0,0c-2.2-0.7-4.4-1-6.2-2c-1.1-0.7-2.2-1.6-3.2-2.7c-0.6-0.6-1.2-1.3-1.9-1.9c0,0,0,0,0,0c-0.1-0.1-0.1-0.1-0.2-0.2
			c-0.6,1.1-1.3,2-2.1,2.7c-1,0.9-2.1,1.6-3.3,2.2c-0.8,0.4-1.7,0.7-2.6,1c-1.1,0.3-2.2,0.5-3.4,0.7c0.5,0.8,0.8,1.6,1.1,2.4
			c0.6,1.9,0.7,3.8,0.5,5.7c0,0.3-0.1,0.5-0.1,0.8c-0.2,1.3-0.6,2.6-1,3.9c0,0,0.1,0,0.1,0c0,0,0,0,0,0c2.4,0.7,4.5,1,6.3,2
			c1.2,0.7,2.2,1.7,3.3,2.8c0.5,0.6,1.1,1.1,1.6,1.7c0,0,0,0,0,0c0.1,0.1,0.1,0.1,0.2,0.2C109.9,820.7,110.2,820.2,110.6,819.8z
			 M109.4,817.5c-1.8-2.2-3.8-3.7-6.4-4.3c-0.5-0.1-1-0.3-1.6-0.3c0.3-1.8,0.9-3.2,0.9-4.7c0-1.4-0.5-2.8-0.9-4.6
			c0.8-0.1,1.5-0.3,2.2-0.5c1.1-0.3,2.1-0.9,3-1.6c0.5-0.4,1-0.8,1.4-1.2c0.4-0.4,0.8-0.8,1.2-1.3c0.4,0.4,0.9,0.8,1.3,1.2
			c0.3,0.3,0.6,0.5,0.9,0.8c1.4,1.2,2.8,2.1,4.8,2.3c0.4,0.1,0.8,0.2,1.3,0.2c-0.4,1.5-0.7,2.9-0.7,4.3c0,0.2,0,0.5,0,0.7
			c0,0.6,0.1,1.2,0.2,1.8c0,0,0,0.1,0,0.1c0.1,0.7,0.4,1.4,0.7,2.2c0,0,0,0.1,0,0.1c-1.7,0.4-3.2,0.9-4.6,1.6
			c-0.1,0-0.2,0.1-0.2,0.2c-0.6,0.4-1.2,0.8-1.7,1.3c0,0,0,0,0,0c-0.4,0.3-0.7,0.7-1,1.1C109.8,817.1,109.6,817.3,109.4,817.5z"/>
	</g>
	<path class="st1" d="M167.2,768.4L167.2,768.4c-9.6-2.6-19.1-5.1-28.7-7.7c-0.3-0.1-0.5-0.2-0.8-0.3c0,0,0,0-0.1,0
		c-0.8-0.4-1.5-1-2.1-1.6c-6.1-6-12.2-12.1-18.2-18.2c-1.9-1.9-3.7-3.7-5.6-5.6c-0.7-0.7-1.2-1.6-1.8-2.5c-0.3,0-0.5,0.1-0.8,0.1
		c-0.1,0-0.1-0.1-0.1-0.1c0,0.1-0.1,0.1-0.1,0.2c0,0-0.1,0-0.1,0c-0.6,0.8-1.2,1.7-1.9,2.4c-7.8,7.8-15.6,15.6-23.3,23.4
		c-1.3,1.3-2.7,2.1-4.4,2.6c-2.8,0.7-5.7,1.5-8.5,2.3c-7.8,2.1-15.6,4.2-23.5,6.2c-1.1,0.3-2.1,0.6-3.3,1c0,0,0,0,0,0.1c0,0,0,0,0,0
		c0.2,1,0.4,1.7,0.6,2.4c0.1,0.2,0.1,0.4,0.2,0.6c2.9,10.8,5.8,21.6,8.7,32.4c0.4,1.4,0.4,2.7,0,4.1c-3,10.9-5.9,21.8-8.8,32.7
		c-0.1,0.2-0.1,0.5-0.2,0.7c0.9,0,1.8-0.1,2.7-0.1c0.2-1,0.4-1.9,0.7-2.7c2.7-10.2,5.4-20.4,8.2-30.6c0.4-1.4,0.4-2.7,0-4.1
		c-2.8-10.2-5.5-20.4-8.2-30.6c-0.3-1-0.5-2.1-0.8-3.2c1-0.3,1.8-0.6,2.5-0.8c0.2-0.1,0.4-0.1,0.6-0.2c10.2-2.7,20.4-5.5,30.6-8.2
		c1.5-0.4,2.7-1.1,3.8-2.2c7.5-7.6,15-15.1,22.6-22.6c0.6-0.6,1.2-1.2,2.2-2.1c0.8,0.8,1.5,1.4,2.2,2.1c7.5,7.5,15,14.9,22.4,22.4
		c1.2,1.2,2.6,2,4.2,2.4c0.4,0.1,0.9,0.2,1.3,0.4c9.2,2.5,18.4,5,27.7,7.4v0c0.5,0.1,1.1,0.3,1.6,0.4c0.9,0.2,1.8,0.5,2.9,0.8
		c-0.3,1.2-0.5,2.2-0.8,3.3c-1.3,4.8-2.6,9.7-3.9,14.5c0,0,0,0,0,0c-0.6,2.4-1.3,4.9-1.9,7.3c-0.8,2.9-1.6,5.8-2.3,8.7
		c0,0.1,0,0.2,0,0.2c-0.1,0.3-0.1,0.5-0.2,0.8c-0.1,0.5-0.2,1.1-0.1,1.6c0.1,0.3,0.2,0.7,0.3,1c0,0.1,0,0.2,0.1,0.3
		c0,0.2,0.1,0.3,0.1,0.5c0.8-0.7,1.7-1.5,2.5-2.2c0-0.9,0-1.9,0.1-2.8c0.4-1.5,0.8-2.9,1.2-4.4c0.2-0.4,0.3-0.9,0.6-1.3v-0.8
		c2.3-8.5,4.6-17.1,6.9-25.6c0.3-1,0.4-1.9,0.7-3.1c-1.2-0.4-2.3-0.7-3.3-1C170,769.1,168.6,768.8,167.2,768.4z"/>
	<g>
		<path class="st1" d="M26.3,805.8c-0.2-1.2-0.4-2.5-0.9-3.8c-0.3-0.8-0.5-1.6-0.7-2.3c-0.5-1.9-1-3.8-1.5-5.8
			c-2.4,0.6-4.7,1.3-7,1.9c-0.2,0-0.3,0.1-0.5,0.1c-1.5,0.2-2.8,0.6-4.1,1.2c-0.5,0.1-1,0.3-1.5,0.4c-0.6,0.2-1.2,0.5-1.7,0.9
			c-0.5,0.5-1,1-1.5,1.4c-1.1,0.9-2.1,1.8-3,3c-0.2,0.2-0.3,0.3-0.5,0.5c-1.6,1.6-3.2,3.2-4.8,4.8c3.4,3.4,6.6,6.6,9.9,9.9
			c0.3,0.3,0.6,0.5,0.9,0.6c0.1,0,0.1,0,0.2,0c0,0,0,0,0,0c3.4,0.9,6.8,1.8,10.3,2.8c1.1,0.3,2.2,0.6,3.3,0.9c0.5-2,1-3.9,1.5-5.7
			c0.2-0.8,0.4-1.6,0.7-2.4c0.5-1.2,0.7-2.5,0.9-3.7c0.2-0.7,0.4-1.3,0.5-2c0.1-0.3,0-0.6,0-0.8C26.6,807.1,26.5,806.4,26.3,805.8z
			 M24.1,808.9c-0.9,3.3-1.8,6.5-2.7,10.2c-1.6-0.4-3-0.8-4.5-1.1c-1.5-0.4-3-0.8-4.5-1.2c-1.3-0.5-2.6-1.2-3.7-2.1c-1-1-2-2-3-3
			c-1.1-1.2-2.3-2.3-3.5-3.6c2.5-2.5,4.9-4.8,7.3-7.1c0.5-0.5,1.2-0.9,1.9-1.1c0.2-0.1,0.5-0.1,0.7-0.2c2.9-0.8,5.9-1.6,9.1-2.5
			c0.1,0,0.1,0,0.2-0.1c1,3.7,1.9,7.1,2.8,10.5C24.2,808,24.2,808.5,24.1,808.9z"/>
	</g>
	<g>
		<path class="st1" d="M33.6,777.7c-0.1-0.4-0.3-0.7-0.4-1.1c0,0,0,0-0.1,0c0,0,0,0,0,0c-0.8,0.2-1.4,0.3-2,0.5c0,0,0,0-0.1,0
			c0,0,0,0-0.1,0c-6.7,1.8-13.4,3.6-20.1,5.4c-2.6,0.7-5.5,1.1-7.9,2.2c-0.1,0-0.2,0.1-0.2,0.1c-0.4,0.2-0.8,0.3-1.1,0.5
			c-2.6,1.5-4.6,4.1-6.7,6.4c-3.7,3.7-7.4,7.4-11.1,11.1c-1.8,1.8-3.6,3.6-5.4,5.4c0.2,0.2,0.3,0.3,0.5,0.5c0.1,0.1,0.1,0.2,0.2,0.3
			c0.2,0.2,0.5,0.5,0.7,0.7c0.2,0.2,0.4,0.4,0.6,0.6c0.9,0.9,1.7,1.7,2.6,2.5c3.2,3.2,6.4,6.4,9.7,9.6c0.9,0.9,1.8,1.9,2.6,2.8
			c1.2,1.3,2.4,2.4,3.6,3.4c0.6,0.6,1.1,1.1,1.7,1.7c0.7,0.7,1.8,1.2,2.9,1.5c0.6,0.2,1.3,0.3,1.9,0.5c1.4,0.6,3,1,4.6,1.4
			c1.2,0.2,2.3,0.5,3.5,0.8c2.6,0.7,5.3,1.4,7.9,2.1c3.3,0.9,6.7,1.8,10.1,2.7c0.6,0.2,1.1,0.3,1.7,0.5c0,0,0,0,0,0c0,0,0,0,0,0
			c0.2-0.3,0.3-0.5,0.4-0.8c0-0.1,0.1-0.1,0.1-0.2c0,0,0,0,0,0c0,0,0-0.1,0-0.1c2.6-9.7,5.2-19.5,7.8-29.2c0.2-0.9,0.2-2-0.1-3
			c-2.5-9.4-5-18.8-7.5-28.2C33.7,778.1,33.7,777.9,33.6,777.7z M38.5,806.1c0.3,1.2,0.4,2.5,0.1,3.7c-2.2,8.5-4.5,17.1-6.8,25.6
			c-0.2,0.4-0.3,0.8-0.5,1.3c-0.7-0.1-1.3-0.3-1.9-0.4c-2.6-0.7-5.1-1.4-7.6-2c-5.7-1.5-11.4-3-17.1-4.6c-0.1,0-0.3-0.1-0.4-0.2
			c-0.4-0.1-0.8-0.3-1.2-0.5c0,0-0.1,0-0.1-0.1c-0.4-0.2-0.8-0.5-1.2-0.9c-6.4-6.3-12.8-12.7-19.1-19.1c0,0,0,0-0.1-0.1
			c-0.2-0.2-0.3-0.4-0.5-0.8c2.8-2.8,5.6-5.6,8.3-8.3c0.2-0.2,0.4-0.4,0.7-0.7c3.5-3.5,6.9-7,10.4-10.4c0.7-0.7,1.6-1.3,2.5-1.6
			c4.7-1.3,9.5-2.6,14.3-3.8c4-1.1,8-2.2,12.1-3.2c0.2,0,0.5-0.1,0.8-0.1c0.1,0,0.2,0,0.2,0c0.1,0.4,0.3,0.7,0.4,1.1
			c0.1,0.4,0.3,0.8,0.4,1.2c1.9,7.2,3.9,14.4,5.8,21.6C38.1,804.5,38.4,805.3,38.5,806.1z"/>
	</g>
	<g>
		<path class="st1" d="M-33.3,714.4c-0.1,0.1-0.2,0.1-0.2,0.2c-0.5,0.6-1,1.1-1.5,1.6c-0.3,0.2-0.5,0.5-0.8,0.7
			c-0.3,0.3-0.7,0.5-1.1,0.7c-0.4,0.3-0.9,0.5-1.3,0.7c-0.4,0.2-0.9,0.4-1.3,0.5c-0.2,0.1-0.4,0.2-0.6,0.2c-0.6,0.2-1.3,0.3-1.9,0.4
			c-0.5,0.1-1,0.2-1.5,0.2c0,0,0,0.1,0,0.1c-0.1,0-0.3,0.1-0.4,0.1v1.1c2.4,3,2.5,7.9,0,10.6v1.7c1.6,0.4,3.4,0.5,5,1
			c2.6,1.1,4.8,2.9,6.7,5.5c0.1-0.1,0.1-0.2,0.2-0.2c0,0,0,0,0.1,0.1c0.3-0.5,0.6-0.9,0.9-1.3c1.3-1.5,2.8-2.7,4.5-3.5
			c0.9-0.4,1.8-0.8,2.8-1.1c0.9-0.2,1.8-0.4,2.8-0.5c0-0.1,0-0.1,0-0.1c0,0,0,0,0,0c-0.3-1.2-0.7-2.3-0.9-3.4
			c-0.3-1.1-0.5-2.1-0.5-3.2c0-0.5,0.1-1,0.1-1.5c0.3-1.6,0.9-3.2,1.3-4.9c0,0,0,0,0,0c0,0,0,0,0,0c-2.3-0.7-4.5-1-6.3-2
			c-0.5-0.3-0.9-0.6-1.3-0.9c-1.2-1-2.3-2.3-3.4-3.3c0,0,0,0,0,0c-0.1-0.1-0.2-0.2-0.4-0.4C-32.8,713.7-33,714-33.3,714.4z
			 M-30.7,718.7c0.1,0.1,0.2,0.2,0.4,0.3c0.5,0.4,1,0.8,1.6,1.2c1.3,0.8,2.8,1.3,4.5,1.5c0,0,0,0.1,0,0.1c-0.2,0.7-0.4,1.5-0.5,2.2
			c-0.2,0.9-0.4,1.7-0.4,2.5c0,1.4,0.5,2.8,0.9,4.5c-1.6,0.5-3.2,0.7-4.5,1.5c-1.2,0.7-2.2,1.9-3.6,3.2c-2.1-2.3-4.5-4.2-8-4.5
			c0.2-0.9,0.4-1.7,0.5-2.4c0,0,0,0,0,0c0.2-0.9,0.4-1.8,0.4-2.6c0-1.4-0.5-2.8-0.9-4.5c3-0.5,5.4-1.7,7.4-4.1
			c0.2-0.2,0.4-0.4,0.6-0.6C-31.8,717.6-31.3,718.2-30.7,718.7z"/>
	</g>
	<path class="st1" d="M35.7,564.9c2.4,9,4.8,17.9,7.2,26.8c0.1,0.2,0.1,0.4,0.2,0.6c0,0,0,0,0,0c0.1,0.2,0.1,0.5,0.2,0.7
		c0.1,0.2,0.2,0.4,0.2,0.7c0.1,0.3,0.2,0.6,0.3,0.9c0,0,0.1,0,0.1,0c0,0.1,0.1,0.1,0.1,0.2c2.2-0.6,4.4-1.2,6.7-1.8
		c7.8-2.1,15.6-4.1,23.3-6.3c0,0,0.1,0,0.1,0c0.1,0,0.2-0.1,0.3-0.1c0.9-0.3,1.8-0.9,2.5-1.6c0.1-0.1,0.2-0.2,0.3-0.3c0,0,0,0,0,0
		c2.6-2.6,5.2-5.2,7.7-7.7c-0.9-0.3-1.8-0.6-2.7-0.9c-2.2,2.2-4.3,4.3-6.5,6.5c-0.9,0.9-2.1,1.6-3.2,1.9c-4.3,1.2-8.5,2.4-12.8,3.5
		c-3.8,1-7.7,2-11.5,3.1c-0.7,0.2-1.3,0.3-2.1,0.5c-0.1,0-0.2,0-0.3,0c-0.2-0.5-0.5-1.1-0.7-1.6c-0.1-0.3-0.2-0.5-0.2-0.8
		c-2.1-7.9-4.3-15.9-6.4-23.8c0-0.2-0.1-0.4-0.1-0.5c-0.1-0.4-0.2-0.9-0.2-1.4c0-0.1,0-0.2,0-0.3c0-0.3,0.1-0.5,0.1-0.8
		c-0.9-0.3-1.7-0.5-2.6-0.8c0,0.1,0,0.1-0.1,0.2C35.3,562.7,35.5,563.9,35.7,564.9z"/>
	<g>
		<path class="st1" d="M25.4,638.8c-0.3-0.8-0.5-1.6-0.7-2.5c-0.5-1.9-1-3.7-1.5-5.7c0,0,0,0,0,0c0,0,0,0,0,0
			c-0.2,0.1-0.4,0.1-0.6,0.2c-4.4,1.2-8.5,2.3-12.6,3.4c-0.1,0-0.2,0.1-0.3,0.1c0,0,0,0,0,0c0,0,0,0,0,0c-0.3,0.1-0.5,0.2-0.8,0.4
			c-0.1,0-0.1,0.1-0.2,0.1c-0.1,0.1-0.3,0.2-0.4,0.3c-0.4,0.4-0.8,0.8-1.2,1.1c-0.9,0.9-1.9,1.9-2.9,2.8c-0.6,0.6-1.3,1.3-1.9,1.9
			c-1.3,1.3-2.6,2.6-4,4c1.5,1.4,2.8,2.4,3.9,3.6c2.3,2.2,4.2,4.9,6.8,6.4c2.6,1.5,5.9,1.8,9,2.7c1.1,0.3,2.2,0.6,3.4,0.9
			c0.6,0.2,1.1,0.3,1.7,0.5c0.5-2,1.1-3.9,1.6-5.9c0.2-0.8,0.4-1.6,0.7-2.4c0.4-1.2,0.7-2.4,0.9-3.6c0.1-0.6,0.3-1.1,0.4-1.7
			c0.1-0.3,0.1-0.7,0-1.1c-0.2-0.6-0.3-1.2-0.5-1.8C26.1,641.2,25.9,640,25.4,638.8z M23.8,646.8c-0.4,1.6-0.8,3.2-1.3,4.8
			c-0.4,1.3-0.7,2.6-1.1,4.1c-0.5-0.1-1-0.3-1.6-0.4c-1.4-0.4-2.8-0.7-4.2-1c-0.9-0.2-1.8-0.4-2.7-0.7c-0.7-0.2-1.4-0.6-2-0.9
			c-1.8-0.9-3.3-2.2-4.7-3.8c-0.1-0.1-0.3-0.3-0.4-0.4c-1.1-1.3-2.4-2.5-3.7-3.8c2.5-2.5,4.8-4.8,7.1-7c0.6-0.5,1.3-1,2.1-1.3
			c0.7-0.2,1.5-0.4,2.2-0.6c2.5-0.7,5.1-1.4,7.8-2.1c0.4,1.5,0.8,2.9,1.2,4.2c0.4,1.6,0.8,3.1,1.2,4.6
			C23.9,644,23.9,645.4,23.8,646.8z"/>
	</g>
	<g>
		<path class="st1" d="M31.5,613.5c-6.2,1.7-12.5,3.3-18.7,5c-3,0.8-6,1.6-9.1,2.4c-0.5,0.1-1,0.3-1.4,0.5c-0.1,0-0.1,0.1-0.2,0.1
			c-0.9,0.4-1.6,1-2.4,1.7c-5.4,5.4-10.8,10.8-16.1,16.2c-1.3,1.3-2.5,2.5-3.8,3.8c-0.5,0.5-0.9,1-1.8,1.9c0.9,0.7,1.8,1.2,2.4,1.8
			c6.4,6.4,12.9,12.8,19.2,19.3c1.2,1.2,2.6,2,4.2,2.4c9,2.3,17.9,4.8,26.8,7.2c0.8,0.2,1.6,0.4,2.4,0.6c0.1-0.1,0.1-0.2,0.2-0.3
			c0.1-0.2,0.2-0.3,0.3-0.5c0-0.1,0.1-0.2,0.1-0.3c0,0,0,0,0,0c0.2-0.6,0.3-1.2,0.5-1.8c2.5-9.1,4.9-18.2,7.3-27.4
			c0.3-1,0.1-2.2-0.2-3.2c-1.4-5.6-3-11.3-4.5-16.9c-0.5-1.9-1-3.8-1.5-5.7c-0.4-1.4-0.8-2.9-1.1-4.3c0-0.1-0.1-0.2-0.1-0.3
			c-0.2-0.8-0.4-1.6-0.7-2.5c-0.4,0.1-0.6,0.1-0.9,0.2C32.1,613.4,31.8,613.4,31.5,613.5z M35.4,630.9c1,3.8,2,7.5,3,11.3
			c0.3,1.8,0.3,3.5,0,5.2c-0.8,3.1-1.6,6.3-2.5,9.4c-1.2,4.2-2.3,8.5-3.4,12.7c-0.1,0.5-0.3,1-0.4,1.5c-0.2,0.7-0.4,1.4-0.7,2.2
			c0,0,0,0,0,0c-0.7-0.1-1.3-0.2-2-0.4c-1.9-0.5-3.8-1-5.6-1.5c-6.4-1.7-12.9-3.4-19.3-5.2c-1-0.3-2.1-0.8-2.8-1.5
			c-6.4-6.3-12.8-12.7-19.1-19.1c-0.2-0.2-0.3-0.4-0.5-0.9c1.3-1.3,2.6-2.6,3.8-3.8c0,0,0,0,0,0c5.1-5.1,10.2-10.2,15.3-15.3
			c0.9-0.9,2-1.7,3.2-2c0.1,0,0.3-0.1,0.4-0.1c8.4-2.3,16.8-4.5,25.2-6.8c0.3,0,0.6-0.1,0.9-0.1c0.1,0,0.2,0,0.4,0
			c0.2,0.6,0.5,1.2,0.7,1.8C33.2,622.5,34.3,626.7,35.4,630.9z"/>
	</g>
	<g>
		<path class="st1" d="M-32,693.7c-0.2-0.1-0.3-0.2-0.5-0.4c-1.7,1.7-3.3,3.3-4.9,4.9c-0.1,0.1-0.3,0.3-0.4,0.4
			c-1,1-1.9,1.9-2.9,2.9c-1,1-2.2,1.9-3.3,2.9v0.3c-0.8,0.6-1.8,1-2.8,1.3c-3.8,0.9-7.5,2-11.3,3c-1,0.3-1.9,0.6-3,0.9
			c1.2,4.6,2.3,9,3.6,13.3c0.7,2.2,0.6,4.3,0,6.5c-1.3,4.3-2.4,8.7-3.6,13.3c1,0.3,1.9,0.6,2.8,0.9c3.9,1.1,7.8,2.2,11.8,3.2
			c1,0.2,1.8,0.7,2.5,1.2v0.6c0.7,0.5,1.6,0.9,2.2,1.5c2.7,2.6,5.2,5.2,7.9,7.8c0.3,0.3,0.6,0.5,1,0.8c0.2,0.2,0.5,0.4,0.8,0.6
			c0,0,0,0,0,0c0.1,0.1,0.1,0.1,0.2,0.2c1-1,1.8-2,2.7-3c1.3-1.2,2.5-2.4,3.6-3.7c0.1-0.1,0.1-0.1,0.2-0.2c0.8-0.9,1.7-1.8,2.6-2.6
			c2.9-2.5,6.4-4,10.3-4.7c3-0.5,5.9-1.5,8.9-2.4c-0.2-1.1-0.4-2-0.6-2.9c-1-3.8-2-7.7-3.1-11.5c-0.1-0.3-0.1-0.6-0.2-0.9
			c-0.1-1-0.1-1.9,0-2.9c0.1-0.3,0.1-0.6,0.2-0.9c0.4-1.3,0.7-2.7,1.1-4.1c0.7-2.6,1.4-5.2,2.1-7.7c0,0,0,0,0,0
			c0.2-0.8,0.4-1.6,0.6-2.4c-0.7-0.3-1.2-0.4-1.6-0.6c-4.1-1.1-8.2-2.3-12.3-3.3c-1.9-0.5-3.4-1.3-4.7-2.7c-2.8-3-5.7-5.8-8.6-8.7
			C-31.2,694.3-31.6,694-32,693.7z M-23.7,705.4c0.1,0.1,0.2,0.2,0.3,0.3c0,0,0.1,0.1,0.1,0.1c0.1,0.1,0.2,0.2,0.4,0.4
			c1,1.1,2.2,1.7,3.5,2c0.1,0,0.2,0.1,0.3,0.1c0.1,0,0.1,0,0.1,0c0.2,0,0.3,0.1,0.5,0.1c3.2,0.8,6.4,1.7,9.5,2.5
			c0.2,0,0.3,0.1,0.5,0.2c0.6,0.2,1.1,0.4,1.8,0.7c-0.2,0.6-0.3,1.2-0.5,1.9c-0.9,3.3-1.7,6.6-2.7,9.8c-0.6,2-0.6,3.9,0,5.9
			c1,3.3,1.8,6.6,2.7,9.9c0.2,0.6,0.2,1.2,0.3,1.9c-0.2,0.1-0.4,0.1-0.6,0.2c-2.6,0.7-5.2,1.4-7.7,2.1c-0.9,0.2-1.8,0.5-2.7,0.7
			c-1.2,0.3-2.3,0.7-3.3,1.2c-0.2,0.1-0.3,0.2-0.4,0.3c-0.9,0.6-1.8,1.3-2.6,2.2c-0.4,0.4-0.8,0.8-1.2,1.2c-1.7,1.7-3.5,3.5-5.2,5.2
			c-0.5,0.5-1.2,1-1.9,1.7c-1-1-2-1.9-2.9-2.8c-0.6-0.6-1.1-1.1-1.7-1.7c-0.9-0.9-1.8-1.8-2.7-2.8c-0.8-0.9-1.6-1.6-2.5-2.2
			c-0.6-0.5-1.2-1-1.8-1.5v0.4c-1.2-0.6-2.5-1.1-3.9-1.4c-3.3-0.7-6.6-1.7-10.1-2.7c1-3.6,1.7-6.9,2.8-10.1c1.1-3.2,1.1-6.2,0-9.5
			c-1.1-3.1-1.8-6.4-2.7-9.8c0.7-0.3,1.4-0.6,2-0.8c3.6-1,7.1-1.9,10.7-2.9c0.4-0.1,0.8-0.3,1.2-0.5v0c0,0,0,0,0,0
			c0.8-0.4,1.6-0.8,2.3-1.6c0.8-0.8,1.6-1.6,2.4-2.4c1.8-1.8,3.6-3.6,5.4-5.4c0.4-0.4,1-0.8,1.6-1.3c0.6,0.5,1.1,0.8,1.6,1.3
			C-28.4,700.7-26,703-23.7,705.4z"/>
	</g>
	<g>
		<path class="st1" d="M176.3,699.4c-0.4-1.5-0.8-3-1.3-4.7c-1,0.2-1.6,0.3-2.3,0.5c-1.9,0.5-3.7,1-5.6,1.5v-0.1
			c-4.9,1.3-9.9,2.7-14.8,4.1c-2.2,0.6-4.5,1.2-6.7,1.8c-1.8,0.5-3.2,1.3-4.4,2.6c-6.1,6.2-12.3,12.3-18.5,18.5
			c-0.9,0.9-2,1.6-3.1,2.6c1,1.1,1.6,1.8,2.3,2.4c4.8,4.8,9.6,9.6,14.4,14.4c0.9,0.9,1.8,1.8,2.7,2.7c0.2,0.3,0.5,0.4,0.7,0.7
			c0.6,0.6,1.2,1.2,1.8,1.8c1.2,1.2,2.4,1.9,4,2.3c0.6,0.2,1.2,0.3,1.8,0.5c0.6,0.2,1.1,0.4,1.7,0.5c0.5,0.1,0.9,0.2,1.4,0.3
			c3.1,0.8,6.2,1.7,9.4,2.5c5,1.3,10,2.6,15.1,4c0.3-0.6,0.5-1.1,0.6-1.6c2.6-9.5,5.1-18.9,7.6-28.4c0.3-1.2,0.2-2.6-0.1-3.8
			C180.8,716.1,178.5,707.8,176.3,699.4z M180.3,728.4c-2.1,8.1-4.3,16.3-6.5,24.4c-0.2,0.7-0.5,1.4-0.8,2.2
			c-0.8-0.2-1.5-0.3-2.2-0.5c-1.2-0.3-2.4-0.7-3.7-1v-0.3c-0.5,0-1,0-1.5-0.1c-6.4-1.7-12.9-3.4-19.3-5.2c-1-0.3-2-0.8-2.8-1.4
			c-0.2-0.1-0.3-0.3-0.5-0.4c-5.3-5.2-10.5-10.4-15.7-15.6c-0.7-0.7-1.3-1.3-2-2c-0.6-0.6-1.1-1.2-1.7-1.9c-0.1-0.1-0.1-0.1-0.2-0.2
			c0,0,0,0,0,0c0.3-0.4,0.7-0.9,1-1.2c6.2-6.2,12.4-12.5,18.7-18.7c0.8-0.8,2-1.3,3.1-1.6c6.9-1.9,13.7-3.7,20.6-5.5v0
			c1.6-0.4,3.1-0.8,4.7-1.2c0.4-0.1,0.7-0.1,1.2-0.2c0.3,0.8,0.6,1.6,0.8,2.3c2.2,8,4.4,16.1,6.4,24.1
			C180.6,725.7,180.6,727.2,180.3,728.4z"/>
	</g>
	<g>
		<path class="st1" d="M167.2,720.7v-0.2c-0.6-2.2-1.3-4.4-1.9-6.7c-0.1-0.5-0.3-1.1-0.4-1.6c-4.7,1.3-9.1,2.4-13.6,3.6
			c-0.3,0.1-0.7,0.3-1,0.5c0,0-0.1,0.1-0.1,0.1c0,0,0,0-0.1,0c-1.6,1.6-3.2,3.2-4.8,4.8c0,0,0,0,0,0c0,0-0.1,0.1-0.1,0.1
			c-1.6,1.6-3.3,3.3-5,5c0,0,0,0,0,0c0,0,0,0,0,0c1.2,1.2,2.3,2.3,3.5,3.5c0.3,0.3,0.7,0.7,1,1.1c1.4,1.7,2.8,3.2,4.5,4.4
			c0.4,0.4,0.8,0.8,1.2,1.2c0.5,0.5,1.3,0.6,2,0.8c0.3,0.1,0.6,0.2,0.8,0.2c1.7,0.7,3.6,1.3,5.6,1.6c0.4,0.1,0.9,0.2,1.3,0.3
			c1,0.3,1.9,0.5,2.9,0.8c0.2,0.1,0.4,0.1,0.7,0.1c0.4,0.1,0.8,0.2,1.2,0.3c0.1-0.2,0.1-0.4,0.2-0.7c0.3-1,0.6-2,0.8-2.9
			c0.4-1.5,0.9-2.9,1.3-4.4v-0.5c0.2-0.5,0.3-1.1,0.5-1.6c0.9-2.8,0.9-5.5,0-8.4C167.5,721.7,167.3,721.2,167.2,720.7z M165.9,727.1
			c-0.9,3.4-1.8,6.8-2.8,10.4c-1.5-0.4-3-0.8-4.4-1.1c-1.8-0.5-3.5-1-5.2-1.5c-1.1-0.5-2.1-1.1-3.1-1.8c0,0,0,0,0,0
			c-1-1-2-2-3.1-3.1c-1.1-1.2-2.3-2.3-3.5-3.6c2.7-2.7,5.2-5.2,7.8-7.7c0.2-0.2,0.4-0.4,0.7-0.4c3.5-1,7.1-1.9,10.8-3
			c1,3.8,2,7.2,2.9,10.7C166,726.3,166,726.7,165.9,727.1z"/>
	</g>
	<path class="st1" d="M-24.7,560.1c-0.6,2.5-0.6,5,0.6,7.6c-1.7,0.4-3.2,0.9-4.6,1.6c-0.1,0-0.1,0.1-0.2,0.1c-1.1,0.7-2.2,1.5-3,2.7
		c-0.1,0.2-0.3,0.3-0.4,0.4c-1.5-1.9-3.2-3.2-5.3-4c-0.1-0.1-0.3-0.1-0.4-0.2c-0.8-0.2-1.6-0.4-2.4-0.5c0.2-0.7,0.3-1.3,0.5-2
		c0.1-0.3,0.1-0.6,0.2-0.9c0.2-1.4,0.3-2.8,0-4.2c0,0,0-0.1,0-0.1c0-0.2-0.1-0.4-0.2-0.6c-0.9,0-1.8,0-2.7,0c0.9,2.8,0.5,6-1.4,8
		v1.7c2.2,0.5,4.7,0.6,6.6,1.6c1.3,0.7,2.3,1.7,3.5,2.9c0.6,0.6,1.2,1.2,1.8,1.9c0,0,0,0,0,0c0,0,0,0,0,0c0.6-0.9,1.2-1.7,1.9-2.4
		c1.9-1.9,4.2-3,6.7-3.7c0.8-0.2,1.5-0.4,2.3-0.6l0,0c0,0,0,0,0,0c-0.6-2.4-1.5-4.5-1.4-6.5c0-1,0.2-1.9,0.4-2.9
		C-23,560.2-23.8,560.2-24.7,560.1z"/>
	<path class="st1" d="M-57.2,561.1c0.4,1.3,0.4,2.5,0,3.8c-1.1,4-2.2,8-3.2,12.1c-0.2,0.9-0.3,1.7-0.5,2.7c2.3,0.6,4.5,1.2,6.6,1.8
		c3.2,0.9,6.8,1.2,9.5,2.8c0.3,0.2,0.5,0.4,0.8,0.6v0.5c0.7,0.5,1.6,0.9,2.2,1.5c2.7,2.6,5.2,5.2,7.9,7.8c0.1,0.1,0.3,0.3,0.5,0.4
		c0.4,0.4,0.7,0.7,1.1,1.1c0,0,0.1-0.1,0.1-0.1c0.1,0.1,0.2,0.1,0.3,0.2c1.6-1.7,3.1-3.4,4.6-5c0.1-0.1,0.3-0.3,0.4-0.5
		c1.7-1.7,3.5-3.4,5.2-5.2c0.1-0.1,0.1-0.1,0.2-0.2c0.5-0.4,1.1-0.9,1.7-1.2c0.4-0.3,0.9-0.4,1.4-0.6c0.2-0.1,0.3-0.1,0.5-0.2
		c4-1,8.1-2.1,12.1-3.2c0.1,0,0.2-0.1,0.3-0.1c0.7-0.2,1.3-0.3,2-0.5c0-0.1,0-0.1,0-0.2c0,0,0.1,0,0.1,0c-0.7-2.5-1.1-4.9-1.9-7.2
		c-0.5-2-1-4-1.7-5.9c-0.4-2.2-0.4-4.4,0-6.6c-0.9,0.1-1.8,0.1-2.7,0.2c0,0.1,0,0.1-0.1,0.2c-0.1,0.3-0.1,0.6-0.2,0.9
		c0,0,0,0.1,0,0.1c0,0,0,0,0,0.1c-0.1,0.3-0.1,0.6-0.1,0.8c-0.1,0.7-0.1,1.4,0,2.1c0,0.2,0.1,0.4,0.1,0.6c0,0,0,0.1,0,0.1
		c0,0.1,0.1,0.2,0.1,0.3c0.1,0.3,0.1,0.6,0.2,0.9c0.4,1.3,0.7,2.6,1.1,3.9c0.2,0.7,0.4,1.3,0.5,2c0.3,1.3,0.7,2.7,1,4
		c0.1,0.6,0.2,1.1,0.3,1.8c-0.7,0.2-1.3,0.5-2,0.7c-3.5,1-7,1.9-10.5,2.8c0,0-0.1,0-0.1,0c-0.7,0.2-1.3,0.4-1.9,0.8
		c0,0-0.1,0-0.1,0.1c-0.6,0.3-1.1,0.7-1.6,1.3c0,0,0,0-0.1,0c-2.5,2.6-5.1,5.1-7.7,7.7c-0.5,0.5-1,0.9-1.7,1.4
		c-0.8-0.7-1.5-1.3-2.1-2c-2.4-2.4-4.9-4.8-7.3-7.3c-0.5-0.5-1.1-0.9-1.7-1.2c-0.2-0.2-0.4-0.3-0.6-0.5v0.2
		c-0.4-0.1-0.7-0.3-1.1-0.4c-4.1-1-8.2-2.2-12.5-3.4c0-0.6-0.1-1.2,0-1.8c0.9-3.6,1.8-7.2,2.9-10.7c0.5-1.7,0.5-3.2,0-4.9
		c0-0.1,0-0.1-0.1-0.2c-0.9,0-1.8,0-2.6,0.1C-57.3,560.7-57.3,560.9-57.2,561.1z"/>
</g>
<g>
	<circle class="st1" cx="1751.5" cy="595.1" r="1.7"/>
	<circle class="st1" cx="1771" cy="595.1" r="1.7"/>
	<circle class="st1" cx="1790.5" cy="595.1" r="1.7"/>
	<circle class="st1" cx="1809.9" cy="595.1" r="1.7"/>
	<circle class="st1" cx="1829.4" cy="595.1" r="1.7"/>
	<circle class="st1" cx="1848.9" cy="595.1" r="1.7"/>
	<circle class="st1" cx="1868.4" cy="595.1" r="1.7"/>
	<circle class="st1" cx="1887.9" cy="595.1" r="1.7"/>
	<circle class="st1" cx="1907.3" cy="595.1" r="1.7"/>
	<circle class="st1" cx="1751.5" cy="614.6" r="1.7"/>
	<circle class="st1" cx="1771" cy="614.6" r="1.7"/>
	<circle class="st1" cx="1790.5" cy="614.6" r="1.7"/>
	<circle class="st1" cx="1809.9" cy="614.6" r="1.7"/>
	<circle class="st1" cx="1829.4" cy="614.6" r="1.7"/>
	<circle class="st1" cx="1848.9" cy="614.6" r="1.7"/>
	<circle class="st1" cx="1868.4" cy="614.6" r="1.7"/>
	<circle class="st1" cx="1887.9" cy="614.6" r="1.7"/>
	<circle class="st1" cx="1907.3" cy="614.6" r="1.7"/>
	<circle class="st1" cx="1751.5" cy="634.1" r="1.7"/>
	<circle class="st1" cx="1771" cy="634.1" r="1.7"/>
	<circle class="st1" cx="1790.5" cy="634.1" r="1.7"/>
	<circle class="st1" cx="1809.9" cy="634.1" r="1.7"/>
	<circle class="st1" cx="1829.4" cy="634.1" r="1.7"/>
	<circle class="st1" cx="1848.9" cy="634.1" r="1.7"/>
	<circle class="st1" cx="1868.4" cy="634.1" r="1.7"/>
	<circle class="st1" cx="1887.9" cy="634.1" r="1.7"/>
	<circle class="st1" cx="1907.3" cy="634.1" r="1.7"/>
	<circle class="st1" cx="1751.5" cy="653.5" r="1.7"/>
	<circle class="st1" cx="1771" cy="653.5" r="1.7"/>
	<circle class="st1" cx="1790.5" cy="653.5" r="1.7"/>
	<circle class="st1" cx="1809.9" cy="653.5" r="1.7"/>
	<circle class="st1" cx="1829.4" cy="653.5" r="1.7"/>
	<circle class="st1" cx="1848.9" cy="653.5" r="1.7"/>
	<circle class="st1" cx="1868.4" cy="653.5" r="1.7"/>
	<circle class="st1" cx="1887.9" cy="653.5" r="1.7"/>
	<circle class="st1" cx="1907.3" cy="653.5" r="1.7"/>
	<circle class="st1" cx="1751.5" cy="673" r="1.7"/>
	<circle class="st1" cx="1771" cy="673" r="1.7"/>
	<circle class="st1" cx="1790.5" cy="673" r="1.7"/>
	<circle class="st1" cx="1809.9" cy="673" r="1.7"/>
	<circle class="st1" cx="1829.4" cy="673" r="1.7"/>
	<circle class="st1" cx="1848.9" cy="673" r="1.7"/>
	<circle class="st1" cx="1868.4" cy="673" r="1.7"/>
	<circle class="st1" cx="1887.9" cy="673" r="1.7"/>
	<circle class="st1" cx="1907.3" cy="673" r="1.7"/>
	<circle class="st1" cx="1751.5" cy="692.5" r="1.7"/>
	<circle class="st1" cx="1771" cy="692.5" r="1.7"/>
	<circle class="st1" cx="1790.5" cy="692.5" r="1.7"/>
	<circle class="st1" cx="1809.9" cy="692.5" r="1.7"/>
	<circle class="st1" cx="1829.4" cy="692.5" r="1.7"/>
	<circle class="st1" cx="1848.9" cy="692.5" r="1.7"/>
	<circle class="st1" cx="1868.4" cy="692.5" r="1.7"/>
	<circle class="st1" cx="1887.9" cy="692.5" r="1.7"/>
	<circle class="st1" cx="1907.3" cy="692.5" r="1.7"/>
	<circle class="st1" cx="1751.5" cy="712" r="1.7"/>
	<circle class="st1" cx="1771" cy="712" r="1.7"/>
	<circle class="st1" cx="1790.5" cy="712" r="1.7"/>
	<circle class="st1" cx="1809.9" cy="712" r="1.7"/>
	<circle class="st1" cx="1829.4" cy="712" r="1.7"/>
	<circle class="st1" cx="1848.9" cy="712" r="1.7"/>
	<circle class="st1" cx="1868.4" cy="712" r="1.7"/>
	<circle class="st1" cx="1887.9" cy="712" r="1.7"/>
	<circle class="st1" cx="1907.3" cy="712" r="1.7"/>
	<circle class="st1" cx="1751.5" cy="731.4" r="1.7"/>
	<circle class="st1" cx="1771" cy="731.4" r="1.7"/>
	<circle class="st1" cx="1790.5" cy="731.4" r="1.7"/>
	<circle class="st1" cx="1809.9" cy="731.4" r="1.7"/>
	<circle class="st1" cx="1829.4" cy="731.4" r="1.7"/>
	<circle class="st1" cx="1848.9" cy="731.4" r="1.7"/>
	<circle class="st1" cx="1868.4" cy="731.4" r="1.7"/>
	<circle class="st1" cx="1887.9" cy="731.4" r="1.7"/>
	<circle class="st1" cx="1907.3" cy="731.4" r="1.7"/>
	<circle class="st1" cx="1751.5" cy="750.9" r="1.7"/>
	<circle class="st1" cx="1771" cy="750.9" r="1.7"/>
	<circle class="st1" cx="1790.5" cy="750.9" r="1.7"/>
	<circle class="st1" cx="1809.9" cy="750.9" r="1.7"/>
	<circle class="st1" cx="1829.4" cy="750.9" r="1.7"/>
	<circle class="st1" cx="1848.9" cy="750.9" r="1.7"/>
	<circle class="st1" cx="1868.4" cy="750.9" r="1.7"/>
	<circle class="st1" cx="1887.9" cy="750.9" r="1.7"/>
	<circle class="st1" cx="1907.3" cy="750.9" r="1.7"/>
	<circle class="st1" cx="1751.5" cy="770.4" r="1.7"/>
	<circle class="st1" cx="1771" cy="770.4" r="1.7"/>
	<circle class="st1" cx="1790.5" cy="770.4" r="1.7"/>
	<circle class="st1" cx="1809.9" cy="770.4" r="1.7"/>
	<circle class="st1" cx="1829.4" cy="770.4" r="1.7"/>
	<circle class="st1" cx="1848.9" cy="770.4" r="1.7"/>
	<circle class="st1" cx="1868.4" cy="770.4" r="1.7"/>
	<circle class="st1" cx="1887.9" cy="770.4" r="1.7"/>
	<circle class="st1" cx="1907.3" cy="770.4" r="1.7"/>
	<circle class="st1" cx="1751.5" cy="789.9" r="1.7"/>
	<circle class="st1" cx="1771" cy="789.9" r="1.7"/>
	<circle class="st1" cx="1790.5" cy="789.9" r="1.7"/>
	<circle class="st1" cx="1809.9" cy="789.9" r="1.7"/>
	<circle class="st1" cx="1829.4" cy="789.9" r="1.7"/>
	<circle class="st1" cx="1848.9" cy="789.9" r="1.7"/>
	<circle class="st1" cx="1868.4" cy="789.9" r="1.7"/>
	<circle class="st1" cx="1887.9" cy="789.9" r="1.7"/>
	<circle class="st1" cx="1907.3" cy="789.9" r="1.7"/>
	<circle class="st1" cx="1751.5" cy="809.4" r="1.7"/>
	<circle class="st1" cx="1771" cy="809.4" r="1.7"/>
	<circle class="st1" cx="1790.5" cy="809.4" r="1.7"/>
	<circle class="st1" cx="1809.9" cy="809.4" r="1.7"/>
	<circle class="st1" cx="1829.4" cy="809.4" r="1.7"/>
	<circle class="st1" cx="1848.9" cy="809.4" r="1.7"/>
	<circle class="st1" cx="1868.4" cy="809.4" r="1.7"/>
	<circle class="st1" cx="1887.9" cy="809.4" r="1.7"/>
	<circle class="st1" cx="1907.3" cy="809.4" r="1.7"/>
	<circle class="st1" cx="1751.5" cy="828.8" r="1.7"/>
	<circle class="st1" cx="1771" cy="828.8" r="1.7"/>
	<circle class="st1" cx="1790.5" cy="828.8" r="1.7"/>
	<circle class="st1" cx="1809.9" cy="828.8" r="1.7"/>
	<circle class="st1" cx="1829.4" cy="828.8" r="1.7"/>
	<circle class="st1" cx="1848.9" cy="828.8" r="1.7"/>
	<circle class="st1" cx="1868.4" cy="828.8" r="1.7"/>
	<circle class="st1" cx="1887.9" cy="828.8" r="1.7"/>
	<circle class="st1" cx="1907.3" cy="828.8" r="1.7"/>
	<circle class="st1" cx="1751.5" cy="848.3" r="1.7"/>
	<circle class="st1" cx="1771" cy="848.3" r="1.7"/>
	<circle class="st1" cx="1790.5" cy="848.3" r="1.7"/>
	<circle class="st1" cx="1809.9" cy="848.3" r="1.7"/>
	<circle class="st1" cx="1829.4" cy="848.3" r="1.7"/>
	<circle class="st1" cx="1848.9" cy="848.3" r="1.7"/>
	<circle class="st1" cx="1868.4" cy="848.3" r="1.7"/>
	<circle class="st1" cx="1887.9" cy="848.3" r="1.7"/>
	<circle class="st1" cx="1907.3" cy="848.3" r="1.7"/>
	<circle class="st1" cx="1751.5" cy="867.8" r="1.7"/>
	<circle class="st1" cx="1771" cy="867.8" r="1.7"/>
	<circle class="st1" cx="1790.5" cy="867.8" r="1.7"/>
	<circle class="st1" cx="1809.9" cy="867.8" r="1.7"/>
	<circle class="st1" cx="1829.4" cy="867.8" r="1.7"/>
	<circle class="st1" cx="1848.9" cy="867.8" r="1.7"/>
	<circle class="st1" cx="1868.4" cy="867.8" r="1.7"/>
	<circle class="st1" cx="1887.9" cy="867.8" r="1.7"/>
	<circle class="st1" cx="1907.3" cy="867.8" r="1.7"/>
	<circle class="st1" cx="1751.5" cy="887.3" r="1.7"/>
	<circle class="st1" cx="1771" cy="887.3" r="1.7"/>
	<circle class="st1" cx="1790.5" cy="887.3" r="1.7"/>
	<circle class="st1" cx="1809.9" cy="887.3" r="1.7"/>
	<circle class="st1" cx="1829.4" cy="887.3" r="1.7"/>
	<circle class="st1" cx="1848.9" cy="887.3" r="1.7"/>
	<circle class="st1" cx="1868.4" cy="887.3" r="1.7"/>
	<circle class="st1" cx="1887.9" cy="887.3" r="1.7"/>
	<circle class="st1" cx="1907.3" cy="887.3" r="1.7"/>
	<circle class="st1" cx="1751.5" cy="906.8" r="1.7"/>
	<circle class="st1" cx="1771" cy="906.8" r="1.7"/>
	<circle class="st1" cx="1790.5" cy="906.8" r="1.7"/>
	<circle class="st1" cx="1809.9" cy="906.8" r="1.7"/>
	<circle class="st1" cx="1829.4" cy="906.8" r="1.7"/>
	<circle class="st1" cx="1848.9" cy="906.8" r="1.7"/>
	<circle class="st1" cx="1868.4" cy="906.8" r="1.7"/>
	<circle class="st1" cx="1887.9" cy="906.8" r="1.7"/>
	<circle class="st1" cx="1907.3" cy="906.8" r="1.7"/>
	<circle class="st1" cx="1751.5" cy="926.2" r="1.7"/>
	<circle class="st1" cx="1771" cy="926.2" r="1.7"/>
	<circle class="st1" cx="1790.5" cy="926.2" r="1.7"/>
	<circle class="st1" cx="1809.9" cy="926.2" r="1.7"/>
	<circle class="st1" cx="1829.4" cy="926.2" r="1.7"/>
	<circle class="st1" cx="1848.9" cy="926.2" r="1.7"/>
	<circle class="st1" cx="1868.4" cy="926.2" r="1.7"/>
	<circle class="st1" cx="1887.9" cy="926.2" r="1.7"/>
	<circle class="st1" cx="1907.3" cy="926.2" r="1.7"/>
	<circle class="st1" cx="1751.5" cy="945.7" r="1.7"/>
	<circle class="st1" cx="1771" cy="945.7" r="1.7"/>
	<circle class="st1" cx="1790.5" cy="945.7" r="1.7"/>
	<circle class="st1" cx="1809.9" cy="945.7" r="1.7"/>
	<circle class="st1" cx="1829.4" cy="945.7" r="1.7"/>
	<circle class="st1" cx="1848.9" cy="945.7" r="1.7"/>
	<circle class="st1" cx="1868.4" cy="945.7" r="1.7"/>
	<circle class="st1" cx="1887.9" cy="945.7" r="1.7"/>
	<circle class="st1" cx="1907.3" cy="945.7" r="1.7"/>
	<circle class="st1" cx="1751.5" cy="965.2" r="1.7"/>
	<circle class="st1" cx="1771" cy="965.2" r="1.7"/>
	<circle class="st1" cx="1790.5" cy="965.2" r="1.7"/>
	<circle class="st1" cx="1809.9" cy="965.2" r="1.7"/>
	<circle class="st1" cx="1829.4" cy="965.2" r="1.7"/>
	<circle class="st1" cx="1848.9" cy="965.2" r="1.7"/>
	<circle class="st1" cx="1868.4" cy="965.2" r="1.7"/>
	<circle class="st1" cx="1887.9" cy="965.2" r="1.7"/>
	<circle class="st1" cx="1907.3" cy="965.2" r="1.7"/>
	<circle class="st1" cx="1751.5" cy="984.7" r="1.7"/>
	<circle class="st1" cx="1771" cy="984.7" r="1.7"/>
	<circle class="st1" cx="1790.5" cy="984.7" r="1.7"/>
	<circle class="st1" cx="1809.9" cy="984.7" r="1.7"/>
	<circle class="st1" cx="1829.4" cy="984.7" r="1.7"/>
	<circle class="st1" cx="1848.9" cy="984.7" r="1.7"/>
	<circle class="st1" cx="1868.4" cy="984.7" r="1.7"/>
	<circle class="st1" cx="1887.9" cy="984.7" r="1.7"/>
	<circle class="st1" cx="1907.3" cy="984.7" r="1.7"/>
	<circle class="st1" cx="1751.5" cy="1004.2" r="1.7"/>
	<circle class="st1" cx="1771" cy="1004.2" r="1.7"/>
	<circle class="st1" cx="1790.5" cy="1004.2" r="1.7"/>
	<circle class="st1" cx="1809.9" cy="1004.2" r="1.7"/>
	<circle class="st1" cx="1829.4" cy="1004.2" r="1.7"/>
	<circle class="st1" cx="1848.9" cy="1004.2" r="1.7"/>
	<circle class="st1" cx="1868.4" cy="1004.2" r="1.7"/>
	<circle class="st1" cx="1887.9" cy="1004.2" r="1.7"/>
	<circle class="st1" cx="1907.3" cy="1004.2" r="1.7"/>
	<circle class="st1" cx="1751.5" cy="1023.6" r="1.7"/>
	<circle class="st1" cx="1771" cy="1023.6" r="1.7"/>
	<circle class="st1" cx="1790.5" cy="1023.6" r="1.7"/>
	<circle class="st1" cx="1809.9" cy="1023.6" r="1.7"/>
	<circle class="st1" cx="1829.4" cy="1023.6" r="1.7"/>
	<circle class="st1" cx="1848.9" cy="1023.6" r="1.7"/>
	<circle class="st1" cx="1868.4" cy="1023.6" r="1.7"/>
	<circle class="st1" cx="1887.9" cy="1023.6" r="1.7"/>
	<circle class="st1" cx="1907.3" cy="1023.6" r="1.7"/>
	<circle class="st1" cx="1751.5" cy="1043.1" r="1.7"/>
	<circle class="st1" cx="1771" cy="1043.1" r="1.7"/>
	<circle class="st1" cx="1790.5" cy="1043.1" r="1.7"/>
	<circle class="st1" cx="1809.9" cy="1043.1" r="1.7"/>
	<circle class="st1" cx="1829.4" cy="1043.1" r="1.7"/>
	<circle class="st1" cx="1848.9" cy="1043.1" r="1.7"/>
	<circle class="st1" cx="1868.4" cy="1043.1" r="1.7"/>
	<circle class="st1" cx="1887.9" cy="1043.1" r="1.7"/>
	<circle class="st1" cx="1907.3" cy="1043.1" r="1.7"/>
	<circle class="st1" cx="1751.5" cy="1062.6" r="1.7"/>
	<circle class="st1" cx="1771" cy="1062.6" r="1.7"/>
	<circle class="st1" cx="1790.5" cy="1062.6" r="1.7"/>
	<circle class="st1" cx="1809.9" cy="1062.6" r="1.7"/>
	<circle class="st1" cx="1829.4" cy="1062.6" r="1.7"/>
	<circle class="st1" cx="1848.9" cy="1062.6" r="1.7"/>
	<circle class="st1" cx="1868.4" cy="1062.6" r="1.7"/>
	<circle class="st1" cx="1887.9" cy="1062.6" r="1.7"/>
	<circle class="st1" cx="1907.3" cy="1062.6" r="1.7"/>
	<circle class="st1" cx="1751.5" cy="1082.1" r="1.7"/>
	<circle class="st1" cx="1771" cy="1082.1" r="1.7"/>
	<circle class="st1" cx="1790.5" cy="1082.1" r="1.7"/>
	<circle class="st1" cx="1809.9" cy="1082.1" r="1.7"/>
	<circle class="st1" cx="1829.4" cy="1082.1" r="1.7"/>
	<circle class="st1" cx="1848.9" cy="1082.1" r="1.7"/>
	<circle class="st1" cx="1868.4" cy="1082.1" r="1.7"/>
	<circle class="st1" cx="1887.9" cy="1082.1" r="1.7"/>
	<circle class="st1" cx="1907.3" cy="1082.1" r="1.7"/>
	<circle class="st1" cx="1751.5" cy="1101.6" r="1.7"/>
	<circle class="st1" cx="1771" cy="1101.6" r="1.7"/>
	<circle class="st1" cx="1790.5" cy="1101.6" r="1.7"/>
	<circle class="st1" cx="1809.9" cy="1101.6" r="1.7"/>
	<circle class="st1" cx="1829.4" cy="1101.6" r="1.7"/>
	<circle class="st1" cx="1848.9" cy="1101.6" r="1.7"/>
	<circle class="st1" cx="1868.4" cy="1101.6" r="1.7"/>
	<circle class="st1" cx="1887.9" cy="1101.6" r="1.7"/>
	<circle class="st1" cx="1907.3" cy="1101.6" r="1.7"/>
	<circle class="st1" cx="1751.5" cy="1121" r="1.7"/>
	<circle class="st1" cx="1771" cy="1121" r="1.7"/>
	<circle class="st1" cx="1790.5" cy="1121" r="1.7"/>
	<circle class="st1" cx="1809.9" cy="1121" r="1.7"/>
	<circle class="st1" cx="1829.4" cy="1121" r="1.7"/>
	<circle class="st1" cx="1848.9" cy="1121" r="1.7"/>
	<circle class="st1" cx="1868.4" cy="1121" r="1.7"/>
	<circle class="st1" cx="1887.9" cy="1121" r="1.7"/>
	<circle class="st1" cx="1907.3" cy="1121" r="1.7"/>
</g>
<g>
	<path class="st1" d="M1187.6,799.6c0.9,0,1.7-0.7,1.7-1.7c0-0.9-0.7-1.7-1.7-1.7c-0.9,0-1.7,0.7-1.7,1.7
		C1185.9,798.9,1186.7,799.6,1187.6,799.6z"/>
	<path class="st1" d="M1207.1,799.6c0.9,0,1.7-0.7,1.7-1.7c0-0.9-0.7-1.7-1.7-1.7c-0.9,0-1.7,0.7-1.7,1.7
		C1205.4,798.9,1206.2,799.6,1207.1,799.6z"/>
	<path class="st1" d="M1226.6,799.6c0.9,0,1.7-0.7,1.7-1.7c0-0.9-0.7-1.7-1.7-1.7c-0.9,0-1.7,0.7-1.7,1.7
		C1224.9,798.9,1225.6,799.6,1226.6,799.6z"/>
	<path class="st1" d="M1187.6,819.1c0.9,0,1.7-0.7,1.7-1.7s-0.7-1.7-1.7-1.7c-0.9,0-1.7,0.7-1.7,1.7S1186.7,819.1,1187.6,819.1z"/>
	<path class="st1" d="M1207.1,819.1c0.9,0,1.7-0.7,1.7-1.7s-0.7-1.7-1.7-1.7c-0.9,0-1.7,0.7-1.7,1.7S1206.2,819.1,1207.1,819.1z"/>
	<path class="st1" d="M1226.6,819.1c0.9,0,1.7-0.7,1.7-1.7s-0.7-1.7-1.7-1.7c-0.9,0-1.7,0.7-1.7,1.7S1225.6,819.1,1226.6,819.1z"/>
	<path class="st1" d="M1187.6,838.6c0.9,0,1.7-0.7,1.7-1.7s-0.7-1.7-1.7-1.7c-0.9,0-1.7,0.7-1.7,1.7S1186.7,838.6,1187.6,838.6z"/>
	<path class="st1" d="M1207.1,838.6c0.9,0,1.7-0.7,1.7-1.7s-0.7-1.7-1.7-1.7c-0.9,0-1.7,0.7-1.7,1.7S1206.2,838.6,1207.1,838.6z"/>
	<path class="st1" d="M1226.6,838.6c0.9,0,1.7-0.7,1.7-1.7s-0.7-1.7-1.7-1.7c-0.9,0-1.7,0.7-1.7,1.7S1225.6,838.6,1226.6,838.6z"/>
	<path class="st1" d="M1187.6,858.1c0.9,0,1.7-0.7,1.7-1.7c0-0.9-0.7-1.7-1.7-1.7c-0.9,0-1.7,0.7-1.7,1.7
		C1185.9,857.3,1186.7,858.1,1187.6,858.1z"/>
	<path class="st1" d="M1207.1,858.1c0.9,0,1.7-0.7,1.7-1.7c0-0.9-0.7-1.7-1.7-1.7c-0.9,0-1.7,0.7-1.7,1.7
		C1205.4,857.3,1206.2,858.1,1207.1,858.1z"/>
	<path class="st1" d="M1226.6,858.1c0.9,0,1.7-0.7,1.7-1.7c0-0.9-0.7-1.7-1.7-1.7c-0.9,0-1.7,0.7-1.7,1.7
		C1224.9,857.3,1225.6,858.1,1226.6,858.1z"/>
	<path class="st1" d="M1187.6,877.5c0.9,0,1.7-0.7,1.7-1.7s-0.7-1.7-1.7-1.7c-0.9,0-1.7,0.7-1.7,1.7S1186.7,877.5,1187.6,877.5z"/>
	<path class="st1" d="M1207.1,877.5c0.9,0,1.7-0.7,1.7-1.7s-0.7-1.7-1.7-1.7c-0.9,0-1.7,0.7-1.7,1.7S1206.2,877.5,1207.1,877.5z"/>
	<path class="st1" d="M1226.6,877.5c0.9,0,1.7-0.7,1.7-1.7s-0.7-1.7-1.7-1.7c-0.9,0-1.7,0.7-1.7,1.7S1225.6,877.5,1226.6,877.5z"/>
	<path class="st1" d="M1187.6,897c0.9,0,1.7-0.7,1.7-1.7s-0.7-1.7-1.7-1.7c-0.9,0-1.7,0.7-1.7,1.7S1186.7,897,1187.6,897z"/>
	<path class="st1" d="M1207.1,897c0.9,0,1.7-0.7,1.7-1.7s-0.7-1.7-1.7-1.7c-0.9,0-1.7,0.7-1.7,1.7S1206.2,897,1207.1,897z"/>
	<path class="st1" d="M1226.6,897c0.9,0,1.7-0.7,1.7-1.7s-0.7-1.7-1.7-1.7c-0.9,0-1.7,0.7-1.7,1.7S1225.6,897,1226.6,897z"/>
	<path class="st1" d="M1187.6,916.5c0.9,0,1.7-0.7,1.7-1.7c0-0.9-0.7-1.7-1.7-1.7c-0.9,0-1.7,0.7-1.7,1.7
		C1185.9,915.8,1186.7,916.5,1187.6,916.5z"/>
	<path class="st1" d="M1207.1,916.5c0.9,0,1.7-0.7,1.7-1.7c0-0.9-0.7-1.7-1.7-1.7c-0.9,0-1.7,0.7-1.7,1.7
		C1205.4,915.8,1206.2,916.5,1207.1,916.5z"/>
	<path class="st1" d="M1226.6,916.5c0.9,0,1.7-0.7,1.7-1.7c0-0.9-0.7-1.7-1.7-1.7c-0.9,0-1.7,0.7-1.7,1.7
		C1224.9,915.8,1225.6,916.5,1226.6,916.5z"/>
	<path class="st1" d="M1187.6,936c0.9,0,1.7-0.7,1.7-1.7s-0.7-1.7-1.7-1.7c-0.9,0-1.7,0.7-1.7,1.7S1186.7,936,1187.6,936z"/>
	<path class="st1" d="M1207.1,936c0.9,0,1.7-0.7,1.7-1.7s-0.7-1.7-1.7-1.7c-0.9,0-1.7,0.7-1.7,1.7S1206.2,936,1207.1,936z"/>
	<path class="st1" d="M1226.6,936c0.9,0,1.7-0.7,1.7-1.7s-0.7-1.7-1.7-1.7c-0.9,0-1.7,0.7-1.7,1.7S1225.6,936,1226.6,936z"/>
	<path class="st1" d="M1187.6,955.5c0.9,0,1.7-0.7,1.7-1.7s-0.7-1.7-1.7-1.7c-0.9,0-1.7,0.7-1.7,1.7S1186.7,955.5,1187.6,955.5z"/>
	<path class="st1" d="M1207.1,955.5c0.9,0,1.7-0.7,1.7-1.7s-0.7-1.7-1.7-1.7c-0.9,0-1.7,0.7-1.7,1.7S1206.2,955.5,1207.1,955.5z"/>
	<path class="st1" d="M1226.6,955.5c0.9,0,1.7-0.7,1.7-1.7s-0.7-1.7-1.7-1.7c-0.9,0-1.7,0.7-1.7,1.7S1225.6,955.5,1226.6,955.5z"/>
	<path class="st1" d="M1187.6,974.9c0.9,0,1.7-0.7,1.7-1.7c0-0.9-0.7-1.7-1.7-1.7c-0.9,0-1.7,0.7-1.7,1.7
		C1185.9,974.2,1186.7,974.9,1187.6,974.9z"/>
	<path class="st1" d="M1207.1,974.9c0.9,0,1.7-0.7,1.7-1.7c0-0.9-0.7-1.7-1.7-1.7c-0.9,0-1.7,0.7-1.7,1.7
		C1205.4,974.2,1206.2,974.9,1207.1,974.9z"/>
	<path class="st1" d="M1226.6,974.9c0.9,0,1.7-0.7,1.7-1.7c0-0.9-0.7-1.7-1.7-1.7c-0.9,0-1.7,0.7-1.7,1.7
		C1224.9,974.2,1225.6,974.9,1226.6,974.9z"/>
	<path class="st1" d="M1187.6,994.4c0.9,0,1.7-0.7,1.7-1.7s-0.7-1.7-1.7-1.7c-0.9,0-1.7,0.7-1.7,1.7S1186.7,994.4,1187.6,994.4z"/>
	<path class="st1" d="M1207.1,994.4c0.9,0,1.7-0.7,1.7-1.7s-0.7-1.7-1.7-1.7c-0.9,0-1.7,0.7-1.7,1.7S1206.2,994.4,1207.1,994.4z"/>
	<path class="st1" d="M1226.6,994.4c0.9,0,1.7-0.7,1.7-1.7s-0.7-1.7-1.7-1.7c-0.9,0-1.7,0.7-1.7,1.7S1225.6,994.4,1226.6,994.4z"/>
	<path class="st1" d="M1187.6,1013.9c0.9,0,1.7-0.7,1.7-1.7s-0.7-1.7-1.7-1.7c-0.9,0-1.7,0.7-1.7,1.7S1186.7,1013.9,1187.6,1013.9z"
		/>
	<path class="st1" d="M1207.1,1013.9c0.9,0,1.7-0.7,1.7-1.7s-0.7-1.7-1.7-1.7c-0.9,0-1.7,0.7-1.7,1.7S1206.2,1013.9,1207.1,1013.9z"
		/>
	<path class="st1" d="M1226.6,1013.9c0.9,0,1.7-0.7,1.7-1.7s-0.7-1.7-1.7-1.7c-0.9,0-1.7,0.7-1.7,1.7S1225.6,1013.9,1226.6,1013.9z"
		/>
	<path class="st1" d="M1187.6,1033.4c0.9,0,1.7-0.7,1.7-1.7s-0.7-1.7-1.7-1.7c-0.9,0-1.7,0.7-1.7,1.7S1186.7,1033.4,1187.6,1033.4z"
		/>
	<path class="st1" d="M1207.1,1033.4c0.9,0,1.7-0.7,1.7-1.7s-0.7-1.7-1.7-1.7c-0.9,0-1.7,0.7-1.7,1.7S1206.2,1033.4,1207.1,1033.4z"
		/>
	<path class="st1" d="M1226.6,1033.4c0.9,0,1.7-0.7,1.7-1.7s-0.7-1.7-1.7-1.7c-0.9,0-1.7,0.7-1.7,1.7S1225.6,1033.4,1226.6,1033.4z"
		/>
	<path class="st1" d="M1187.6,1052.9c0.9,0,1.7-0.7,1.7-1.7s-0.7-1.7-1.7-1.7c-0.9,0-1.7,0.7-1.7,1.7S1186.7,1052.9,1187.6,1052.9z"
		/>
	<path class="st1" d="M1207.1,1052.9c0.9,0,1.7-0.7,1.7-1.7s-0.7-1.7-1.7-1.7c-0.9,0-1.7,0.7-1.7,1.7S1206.2,1052.9,1207.1,1052.9z"
		/>
	<path class="st1" d="M1226.6,1052.9c0.9,0,1.7-0.7,1.7-1.7s-0.7-1.7-1.7-1.7c-0.9,0-1.7,0.7-1.7,1.7S1225.6,1052.9,1226.6,1052.9z"
		/>
	<path class="st1" d="M1187.6,1072.3c0.9,0,1.7-0.7,1.7-1.7s-0.7-1.7-1.7-1.7c-0.9,0-1.7,0.7-1.7,1.7S1186.7,1072.3,1187.6,1072.3z"
		/>
	<path class="st1" d="M1207.1,1072.3c0.9,0,1.7-0.7,1.7-1.7s-0.7-1.7-1.7-1.7c-0.9,0-1.7,0.7-1.7,1.7S1206.2,1072.3,1207.1,1072.3z"
		/>
	<path class="st1" d="M1226.6,1072.3c0.9,0,1.7-0.7,1.7-1.7s-0.7-1.7-1.7-1.7c-0.9,0-1.7,0.7-1.7,1.7S1225.6,1072.3,1226.6,1072.3z"
		/>
	<path class="st1" d="M1187.6,1091.8c0.9,0,1.7-0.7,1.7-1.7s-0.7-1.7-1.7-1.7c-0.9,0-1.7,0.7-1.7,1.7S1186.7,1091.8,1187.6,1091.8z"
		/>
	<path class="st1" d="M1207.1,1091.8c0.9,0,1.7-0.7,1.7-1.7s-0.7-1.7-1.7-1.7c-0.9,0-1.7,0.7-1.7,1.7S1206.2,1091.8,1207.1,1091.8z"
		/>
	<path class="st1" d="M1226.6,1091.8c0.9,0,1.7-0.7,1.7-1.7s-0.7-1.7-1.7-1.7c-0.9,0-1.7,0.7-1.7,1.7S1225.6,1091.8,1226.6,1091.8z"
		/>
	<path class="st1" d="M1187.6,1111.3c0.9,0,1.7-0.7,1.7-1.7s-0.7-1.7-1.7-1.7c-0.9,0-1.7,0.7-1.7,1.7S1186.7,1111.3,1187.6,1111.3z"
		/>
	<path class="st1" d="M1207.1,1111.3c0.9,0,1.7-0.7,1.7-1.7s-0.7-1.7-1.7-1.7c-0.9,0-1.7,0.7-1.7,1.7S1206.2,1111.3,1207.1,1111.3z"
		/>
	<path class="st1" d="M1226.6,1111.3c0.9,0,1.7-0.7,1.7-1.7s-0.7-1.7-1.7-1.7c-0.9,0-1.7,0.7-1.7,1.7S1225.6,1111.3,1226.6,1111.3z"
		/>
	<path class="st1" d="M1187.6,1130.8c0.9,0,1.7-0.7,1.7-1.7s-0.7-1.7-1.7-1.7c-0.9,0-1.7,0.7-1.7,1.7S1186.7,1130.8,1187.6,1130.8z"
		/>
	<path class="st1" d="M1207.1,1130.8c0.9,0,1.7-0.7,1.7-1.7s-0.7-1.7-1.7-1.7c-0.9,0-1.7,0.7-1.7,1.7S1206.2,1130.8,1207.1,1130.8z"
		/>
	<path class="st1" d="M1226.6,1130.8c0.9,0,1.7-0.7,1.7-1.7s-0.7-1.7-1.7-1.7c-0.9,0-1.7,0.7-1.7,1.7S1225.6,1130.8,1226.6,1130.8z"
		/>
	<path class="st1" d="M1187.6,1150.3c0.9,0,1.7-0.7,1.7-1.7s-0.7-1.7-1.7-1.7c-0.9,0-1.7,0.7-1.7,1.7S1186.7,1150.3,1187.6,1150.3z"
		/>
	<path class="st1" d="M1207.1,1150.3c0.9,0,1.7-0.7,1.7-1.7s-0.7-1.7-1.7-1.7c-0.9,0-1.7,0.7-1.7,1.7S1206.2,1150.3,1207.1,1150.3z"
		/>
	<path class="st1" d="M1226.6,1150.3c0.9,0,1.7-0.7,1.7-1.7s-0.7-1.7-1.7-1.7c-0.9,0-1.7,0.7-1.7,1.7S1225.6,1150.3,1226.6,1150.3z"
		/>
	<path class="st1" d="M1187.6,1169.7c0.9,0,1.7-0.7,1.7-1.7s-0.7-1.7-1.7-1.7c-0.9,0-1.7,0.7-1.7,1.7S1186.7,1169.7,1187.6,1169.7z"
		/>
	<path class="st1" d="M1207.1,1169.7c0.9,0,1.7-0.7,1.7-1.7s-0.7-1.7-1.7-1.7c-0.9,0-1.7,0.7-1.7,1.7S1206.2,1169.7,1207.1,1169.7z"
		/>
	<path class="st1" d="M1226.6,1169.7c0.9,0,1.7-0.7,1.7-1.7s-0.7-1.7-1.7-1.7c-0.9,0-1.7,0.7-1.7,1.7S1225.6,1169.7,1226.6,1169.7z"
		/>
	<path class="st1" d="M1187.6,1189.2c0.9,0,1.7-0.7,1.7-1.7s-0.7-1.7-1.7-1.7c-0.9,0-1.7,0.7-1.7,1.7S1186.7,1189.2,1187.6,1189.2z"
		/>
	<path class="st1" d="M1207.1,1189.2c0.9,0,1.7-0.7,1.7-1.7s-0.7-1.7-1.7-1.7c-0.9,0-1.7,0.7-1.7,1.7S1206.2,1189.2,1207.1,1189.2z"
		/>
	<path class="st1" d="M1226.6,1189.2c0.9,0,1.7-0.7,1.7-1.7s-0.7-1.7-1.7-1.7c-0.9,0-1.7,0.7-1.7,1.7S1225.6,1189.2,1226.6,1189.2z"
		/>
	<path class="st1" d="M1187.6,1208.7c0.9,0,1.7-0.7,1.7-1.7s-0.7-1.7-1.7-1.7c-0.9,0-1.7,0.7-1.7,1.7S1186.7,1208.7,1187.6,1208.7z"
		/>
	<path class="st1" d="M1207.1,1208.7c0.9,0,1.7-0.7,1.7-1.7s-0.7-1.7-1.7-1.7c-0.9,0-1.7,0.7-1.7,1.7S1206.2,1208.7,1207.1,1208.7z"
		/>
	<path class="st1" d="M1226.6,1208.7c0.9,0,1.7-0.7,1.7-1.7s-0.7-1.7-1.7-1.7c-0.9,0-1.7,0.7-1.7,1.7S1225.6,1208.7,1226.6,1208.7z"
		/>
</g>
<g>
	<path class="st1" d="M581.3-234.6c0.9,0,1.7-0.7,1.7-1.7c0-0.9-0.7-1.7-1.7-1.7c-0.9,0-1.7,0.7-1.7,1.7
		C579.6-235.4,580.3-234.6,581.3-234.6z"/>
	<path class="st1" d="M600.7-234.6c0.9,0,1.7-0.7,1.7-1.7c0-0.9-0.7-1.7-1.7-1.7c-0.9,0-1.7,0.7-1.7,1.7
		C599.1-235.4,599.8-234.6,600.7-234.6z"/>
	<path class="st1" d="M620.2-234.6c0.9,0,1.7-0.7,1.7-1.7c0-0.9-0.7-1.7-1.7-1.7c-0.9,0-1.7,0.7-1.7,1.7
		C618.5-235.4,619.3-234.6,620.2-234.6z"/>
	<path class="st1" d="M581.3-215.1c0.9,0,1.7-0.7,1.7-1.7s-0.7-1.7-1.7-1.7c-0.9,0-1.7,0.7-1.7,1.7S580.3-215.1,581.3-215.1z"/>
	<path class="st1" d="M600.7-215.1c0.9,0,1.7-0.7,1.7-1.7s-0.7-1.7-1.7-1.7c-0.9,0-1.7,0.7-1.7,1.7S599.8-215.1,600.7-215.1z"/>
	<path class="st1" d="M620.2-215.1c0.9,0,1.7-0.7,1.7-1.7s-0.7-1.7-1.7-1.7c-0.9,0-1.7,0.7-1.7,1.7S619.3-215.1,620.2-215.1z"/>
	<path class="st1" d="M581.3-195.7c0.9,0,1.7-0.7,1.7-1.7c0-0.9-0.7-1.7-1.7-1.7c-0.9,0-1.7,0.7-1.7,1.7
		C579.6-196.4,580.3-195.7,581.3-195.7z"/>
	<path class="st1" d="M600.7-195.7c0.9,0,1.7-0.7,1.7-1.7c0-0.9-0.7-1.7-1.7-1.7c-0.9,0-1.7,0.7-1.7,1.7
		C599.1-196.4,599.8-195.7,600.7-195.7z"/>
	<path class="st1" d="M620.2-195.7c0.9,0,1.7-0.7,1.7-1.7c0-0.9-0.7-1.7-1.7-1.7c-0.9,0-1.7,0.7-1.7,1.7
		C618.5-196.4,619.3-195.7,620.2-195.7z"/>
	<path class="st1" d="M581.3-176.2c0.9,0,1.7-0.7,1.7-1.7c0-0.9-0.7-1.7-1.7-1.7c-0.9,0-1.7,0.7-1.7,1.7
		C579.6-176.9,580.3-176.2,581.3-176.2z"/>
	<path class="st1" d="M600.7-176.2c0.9,0,1.7-0.7,1.7-1.7c0-0.9-0.7-1.7-1.7-1.7c-0.9,0-1.7,0.7-1.7,1.7
		C599.1-176.9,599.8-176.2,600.7-176.2z"/>
	<path class="st1" d="M620.2-176.2c0.9,0,1.7-0.7,1.7-1.7c0-0.9-0.7-1.7-1.7-1.7c-0.9,0-1.7,0.7-1.7,1.7
		C618.5-176.9,619.3-176.2,620.2-176.2z"/>
	<path class="st1" d="M581.3-156.7c0.9,0,1.7-0.7,1.7-1.7s-0.7-1.7-1.7-1.7c-0.9,0-1.7,0.7-1.7,1.7S580.3-156.7,581.3-156.7z"/>
	<path class="st1" d="M600.7-156.7c0.9,0,1.7-0.7,1.7-1.7s-0.7-1.7-1.7-1.7c-0.9,0-1.7,0.7-1.7,1.7S599.8-156.7,600.7-156.7z"/>
	<path class="st1" d="M620.2-156.7c0.9,0,1.7-0.7,1.7-1.7s-0.7-1.7-1.7-1.7c-0.9,0-1.7,0.7-1.7,1.7S619.3-156.7,620.2-156.7z"/>
	<path class="st1" d="M581.3-137.2c0.9,0,1.7-0.7,1.7-1.7c0-0.9-0.7-1.7-1.7-1.7c-0.9,0-1.7,0.7-1.7,1.7
		C579.6-138,580.3-137.2,581.3-137.2z"/>
	<path class="st1" d="M600.7-137.2c0.9,0,1.7-0.7,1.7-1.7c0-0.9-0.7-1.7-1.7-1.7c-0.9,0-1.7,0.7-1.7,1.7
		C599.1-138,599.8-137.2,600.7-137.2z"/>
	<path class="st1" d="M620.2-137.2c0.9,0,1.7-0.7,1.7-1.7c0-0.9-0.7-1.7-1.7-1.7c-0.9,0-1.7,0.7-1.7,1.7
		C618.5-138,619.3-137.2,620.2-137.2z"/>
	<path class="st1" d="M581.3-117.7c0.9,0,1.7-0.7,1.7-1.7c0-0.9-0.7-1.7-1.7-1.7c-0.9,0-1.7,0.7-1.7,1.7
		C579.6-118.5,580.3-117.7,581.3-117.7z"/>
	<path class="st1" d="M600.7-117.7c0.9,0,1.7-0.7,1.7-1.7c0-0.9-0.7-1.7-1.7-1.7c-0.9,0-1.7,0.7-1.7,1.7
		C599.1-118.5,599.8-117.7,600.7-117.7z"/>
	<path class="st1" d="M620.2-117.7c0.9,0,1.7-0.7,1.7-1.7c0-0.9-0.7-1.7-1.7-1.7c-0.9,0-1.7,0.7-1.7,1.7
		C618.5-118.5,619.3-117.7,620.2-117.7z"/>
	<path class="st1" d="M581.3-98.3c0.9,0,1.7-0.7,1.7-1.7s-0.7-1.7-1.7-1.7c-0.9,0-1.7,0.7-1.7,1.7S580.3-98.3,581.3-98.3z"/>
	<path class="st1" d="M600.7-98.3c0.9,0,1.7-0.7,1.7-1.7s-0.7-1.7-1.7-1.7c-0.9,0-1.7,0.7-1.7,1.7S599.8-98.3,600.7-98.3z"/>
	<path class="st1" d="M620.2-98.3c0.9,0,1.7-0.7,1.7-1.7s-0.7-1.7-1.7-1.7c-0.9,0-1.7,0.7-1.7,1.7S619.3-98.3,620.2-98.3z"/>
	<path class="st1" d="M581.3-78.8c0.9,0,1.7-0.7,1.7-1.7s-0.7-1.7-1.7-1.7c-0.9,0-1.7,0.7-1.7,1.7S580.3-78.8,581.3-78.8z"/>
	<path class="st1" d="M600.7-78.8c0.9,0,1.7-0.7,1.7-1.7s-0.7-1.7-1.7-1.7c-0.9,0-1.7,0.7-1.7,1.7S599.8-78.8,600.7-78.8z"/>
	<path class="st1" d="M620.2-78.8c0.9,0,1.7-0.7,1.7-1.7s-0.7-1.7-1.7-1.7c-0.9,0-1.7,0.7-1.7,1.7S619.3-78.8,620.2-78.8z"/>
	<path class="st1" d="M581.3-59.3c0.9,0,1.7-0.7,1.7-1.7c0-0.9-0.7-1.7-1.7-1.7c-0.9,0-1.7,0.7-1.7,1.7
		C579.6-60.1,580.3-59.3,581.3-59.3z"/>
	<path class="st1" d="M600.7-59.3c0.9,0,1.7-0.7,1.7-1.7c0-0.9-0.7-1.7-1.7-1.7c-0.9,0-1.7,0.7-1.7,1.7
		C599.1-60.1,599.8-59.3,600.7-59.3z"/>
	<path class="st1" d="M620.2-59.3c0.9,0,1.7-0.7,1.7-1.7c0-0.9-0.7-1.7-1.7-1.7c-0.9,0-1.7,0.7-1.7,1.7
		C618.5-60.1,619.3-59.3,620.2-59.3z"/>
	<path class="st1" d="M581.3-39.8c0.9,0,1.7-0.7,1.7-1.7c0-0.9-0.7-1.7-1.7-1.7c-0.9,0-1.7,0.7-1.7,1.7
		C579.6-40.6,580.3-39.8,581.3-39.8z"/>
	<path class="st1" d="M600.7-39.8c0.9,0,1.7-0.7,1.7-1.7c0-0.9-0.7-1.7-1.7-1.7c-0.9,0-1.7,0.7-1.7,1.7
		C599.1-40.6,599.8-39.8,600.7-39.8z"/>
	<path class="st1" d="M620.2-39.8c0.9,0,1.7-0.7,1.7-1.7c0-0.9-0.7-1.7-1.7-1.7c-0.9,0-1.7,0.7-1.7,1.7
		C618.5-40.6,619.3-39.8,620.2-39.8z"/>
	<path class="st1" d="M581.3-20.3c0.9,0,1.7-0.7,1.7-1.7s-0.7-1.7-1.7-1.7c-0.9,0-1.7,0.7-1.7,1.7S580.3-20.3,581.3-20.3z"/>
	<path class="st1" d="M600.7-20.3c0.9,0,1.7-0.7,1.7-1.7s-0.7-1.7-1.7-1.7c-0.9,0-1.7,0.7-1.7,1.7S599.8-20.3,600.7-20.3z"/>
	<path class="st1" d="M620.2-20.3c0.9,0,1.7-0.7,1.7-1.7s-0.7-1.7-1.7-1.7c-0.9,0-1.7,0.7-1.7,1.7S619.3-20.3,620.2-20.3z"/>
	<path class="st1" d="M581.3-0.9c0.9,0,1.7-0.7,1.7-1.7s-0.7-1.7-1.7-1.7c-0.9,0-1.7,0.7-1.7,1.7S580.3-0.9,581.3-0.9z"/>
	<path class="st1" d="M600.7-0.9c0.9,0,1.7-0.7,1.7-1.7s-0.7-1.7-1.7-1.7c-0.9,0-1.7,0.7-1.7,1.7S599.8-0.9,600.7-0.9z"/>
	<path class="st1" d="M620.2-0.9c0.9,0,1.7-0.7,1.7-1.7s-0.7-1.7-1.7-1.7c-0.9,0-1.7,0.7-1.7,1.7S619.3-0.9,620.2-0.9z"/>
	<path class="st1" d="M581.3,18.6c0.9,0,1.7-0.7,1.7-1.7c0-0.9-0.7-1.7-1.7-1.7c-0.9,0-1.7,0.7-1.7,1.7
		C579.6,17.9,580.3,18.6,581.3,18.6z"/>
	<path class="st1" d="M600.7,18.6c0.9,0,1.7-0.7,1.7-1.7c0-0.9-0.7-1.7-1.7-1.7c-0.9,0-1.7,0.7-1.7,1.7
		C599.1,17.9,599.8,18.6,600.7,18.6z"/>
	<path class="st1" d="M620.2,18.6c0.9,0,1.7-0.7,1.7-1.7c0-0.9-0.7-1.7-1.7-1.7c-0.9,0-1.7,0.7-1.7,1.7
		C618.5,17.9,619.3,18.6,620.2,18.6z"/>
	<path class="st1" d="M581.3,38.1c0.9,0,1.7-0.7,1.7-1.7c0-0.9-0.7-1.7-1.7-1.7c-0.9,0-1.7,0.7-1.7,1.7
		C579.6,37.3,580.3,38.1,581.3,38.1z"/>
	<path class="st1" d="M600.7,38.1c0.9,0,1.7-0.7,1.7-1.7c0-0.9-0.7-1.7-1.7-1.7c-0.9,0-1.7,0.7-1.7,1.7
		C599.1,37.3,599.8,38.1,600.7,38.1z"/>
	<path class="st1" d="M620.2,38.1c0.9,0,1.7-0.7,1.7-1.7c0-0.9-0.7-1.7-1.7-1.7c-0.9,0-1.7,0.7-1.7,1.7
		C618.5,37.3,619.3,38.1,620.2,38.1z"/>
	<path class="st1" d="M581.3,57.6c0.9,0,1.7-0.7,1.7-1.7c0-0.9-0.7-1.7-1.7-1.7c-0.9,0-1.7,0.7-1.7,1.7
		C579.6,56.8,580.3,57.6,581.3,57.6z"/>
	<path class="st1" d="M600.7,57.6c0.9,0,1.7-0.7,1.7-1.7c0-0.9-0.7-1.7-1.7-1.7c-0.9,0-1.7,0.7-1.7,1.7
		C599.1,56.8,599.8,57.6,600.7,57.6z"/>
	<path class="st1" d="M620.2,57.6c0.9,0,1.7-0.7,1.7-1.7c0-0.9-0.7-1.7-1.7-1.7c-0.9,0-1.7,0.7-1.7,1.7
		C618.5,56.8,619.3,57.6,620.2,57.6z"/>
	<path class="st1" d="M581.3,77c0.9,0,1.7-0.7,1.7-1.7s-0.7-1.7-1.7-1.7c-0.9,0-1.7,0.7-1.7,1.7S580.3,77,581.3,77z"/>
	<path class="st1" d="M600.7,77c0.9,0,1.7-0.7,1.7-1.7s-0.7-1.7-1.7-1.7c-0.9,0-1.7,0.7-1.7,1.7S599.8,77,600.7,77z"/>
	<path class="st1" d="M620.2,77c0.9,0,1.7-0.7,1.7-1.7s-0.7-1.7-1.7-1.7c-0.9,0-1.7,0.7-1.7,1.7S619.3,77,620.2,77z"/>
	<path class="st1" d="M581.3,96.5c0.9,0,1.7-0.7,1.7-1.7s-0.7-1.7-1.7-1.7c-0.9,0-1.7,0.7-1.7,1.7S580.3,96.5,581.3,96.5z"/>
	<path class="st1" d="M600.7,96.5c0.9,0,1.7-0.7,1.7-1.7s-0.7-1.7-1.7-1.7c-0.9,0-1.7,0.7-1.7,1.7S599.8,96.5,600.7,96.5z"/>
	<path class="st1" d="M620.2,96.5c0.9,0,1.7-0.7,1.7-1.7s-0.7-1.7-1.7-1.7c-0.9,0-1.7,0.7-1.7,1.7S619.3,96.5,620.2,96.5z"/>
	<path class="st1" d="M581.3,116c0.9,0,1.7-0.7,1.7-1.7c0-0.9-0.7-1.7-1.7-1.7c-0.9,0-1.7,0.7-1.7,1.7
		C579.6,115.3,580.3,116,581.3,116z"/>
	<path class="st1" d="M600.7,116c0.9,0,1.7-0.7,1.7-1.7c0-0.9-0.7-1.7-1.7-1.7c-0.9,0-1.7,0.7-1.7,1.7
		C599.1,115.3,599.8,116,600.7,116z"/>
	<path class="st1" d="M620.2,116c0.9,0,1.7-0.7,1.7-1.7c0-0.9-0.7-1.7-1.7-1.7c-0.9,0-1.7,0.7-1.7,1.7
		C618.5,115.3,619.3,116,620.2,116z"/>
	<path class="st1" d="M581.3,135.5c0.9,0,1.7-0.7,1.7-1.7s-0.7-1.7-1.7-1.7c-0.9,0-1.7,0.7-1.7,1.7S580.3,135.5,581.3,135.5z"/>
	<path class="st1" d="M600.7,135.5c0.9,0,1.7-0.7,1.7-1.7s-0.7-1.7-1.7-1.7c-0.9,0-1.7,0.7-1.7,1.7S599.8,135.5,600.7,135.5z"/>
	<path class="st1" d="M620.2,135.5c0.9,0,1.7-0.7,1.7-1.7s-0.7-1.7-1.7-1.7c-0.9,0-1.7,0.7-1.7,1.7S619.3,135.5,620.2,135.5z"/>
	<path class="st1" d="M581.3,155c0.9,0,1.7-0.7,1.7-1.7c0-0.9-0.7-1.7-1.7-1.7c-0.9,0-1.7,0.7-1.7,1.7
		C579.6,154.2,580.3,155,581.3,155z"/>
	<path class="st1" d="M600.7,155c0.9,0,1.7-0.7,1.7-1.7c0-0.9-0.7-1.7-1.7-1.7c-0.9,0-1.7,0.7-1.7,1.7
		C599.1,154.2,599.8,155,600.7,155z"/>
	<path class="st1" d="M620.2,155c0.9,0,1.7-0.7,1.7-1.7c0-0.9-0.7-1.7-1.7-1.7c-0.9,0-1.7,0.7-1.7,1.7
		C618.5,154.2,619.3,155,620.2,155z"/>
	<path class="st1" d="M581.3,174.4c0.9,0,1.7-0.7,1.7-1.7c0-0.9-0.7-1.7-1.7-1.7c-0.9,0-1.7,0.7-1.7,1.7
		C579.6,173.7,580.3,174.4,581.3,174.4z"/>
	<path class="st1" d="M600.7,174.4c0.9,0,1.7-0.7,1.7-1.7c0-0.9-0.7-1.7-1.7-1.7c-0.9,0-1.7,0.7-1.7,1.7
		C599.1,173.7,599.8,174.4,600.7,174.4z"/>
	<path class="st1" d="M620.2,174.4c0.9,0,1.7-0.7,1.7-1.7c0-0.9-0.7-1.7-1.7-1.7c-0.9,0-1.7,0.7-1.7,1.7
		C618.5,173.7,619.3,174.4,620.2,174.4z"/>
</g>
<g>
	<g>
		<path class="st2" d="M157.8,268.5c2.9,0,5.2,2.3,5.2,5.2c0,2.9-2.3,5.2-5.2,5.2c-2.9,0-5.2-2.3-5.2-5.2
			C152.6,270.9,154.9,268.5,157.8,268.5z"/>
		<path class="st2" d="M157.8,243.9c2.9,0,5.2,2.3,5.2,5.2c0,2.9-2.3,5.2-5.2,5.2c-2.9,0-5.2-2.3-5.2-5.2
			C152.6,246.2,154.9,243.9,157.8,243.9z"/>
		<circle class="st2" cx="157.8" cy="224.4" r="5.2"/>
	</g>
	<g>
		<path class="st2" d="M182.5,268.5c2.9,0,5.2,2.3,5.2,5.2c0,2.9-2.3,5.2-5.2,5.2c-2.9,0-5.2-2.3-5.2-5.2
			C177.3,270.9,179.6,268.5,182.5,268.5z"/>
		<path class="st2" d="M182.5,243.9c2.9,0,5.2,2.3,5.2,5.2c0,2.9-2.3,5.2-5.2,5.2c-2.9,0-5.2-2.3-5.2-5.2
			C177.3,246.2,179.6,243.9,182.5,243.9z"/>
		<path class="st2" d="M182.5,219.2c2.9,0,5.2,2.3,5.2,5.2c0,2.9-2.3,5.2-5.2,5.2c-2.9,0-5.2-2.3-5.2-5.2
			C177.3,221.5,179.6,219.2,182.5,219.2z"/>
	</g>
	<g>
		<path class="st2" d="M207.1,268.5c2.9,0,5.2,2.3,5.2,5.2c0,2.9-2.3,5.2-5.2,5.2c-2.9,0-5.2-2.3-5.2-5.2
			C202,270.9,204.3,268.5,207.1,268.5z"/>
		<path class="st2" d="M207.1,243.9c2.9,0,5.2,2.3,5.2,5.2c0,2.9-2.3,5.2-5.2,5.2c-2.9,0-5.2-2.3-5.2-5.2
			C202,246.2,204.3,243.9,207.1,243.9z"/>
		<path class="st2" d="M207.1,219.2c2.9,0,5.2,2.3,5.2,5.2c0,2.9-2.3,5.2-5.2,5.2c-2.9,0-5.2-2.3-5.2-5.2
			C202,221.5,204.3,219.2,207.1,219.2z"/>
	</g>
</g>
<g>
	<g>
		<path class="st2" d="M700.9,772.1c2.9,0,5.2,2.3,5.2,5.2c0,2.9-2.3,5.2-5.2,5.2c-2.9,0-5.2-2.3-5.2-5.2
			C695.7,774.4,698,772.1,700.9,772.1z"/>
		<path class="st2" d="M700.9,747.4c2.9,0,5.2,2.3,5.2,5.2c0,2.9-2.3,5.2-5.2,5.2c-2.9,0-5.2-2.3-5.2-5.2
			C695.7,749.7,698,747.4,700.9,747.4z"/>
		<circle class="st2" cx="700.9" cy="727.9" r="5.2"/>
	</g>
	<g>
		<path class="st2" d="M725.6,772.1c2.9,0,5.2,2.3,5.2,5.2c0,2.9-2.3,5.2-5.2,5.2c-2.9,0-5.2-2.3-5.2-5.2
			C720.4,774.4,722.7,772.1,725.6,772.1z"/>
		<path class="st2" d="M725.6,747.4c2.9,0,5.2,2.3,5.2,5.2c0,2.9-2.3,5.2-5.2,5.2c-2.9,0-5.2-2.3-5.2-5.2
			C720.4,749.7,722.7,747.4,725.6,747.4z"/>
		<path class="st2" d="M725.6,722.8c2.9,0,5.2,2.3,5.2,5.2s-2.3,5.2-5.2,5.2c-2.9,0-5.2-2.3-5.2-5.2S722.7,722.8,725.6,722.8z"/>
	</g>
	<g>
		<path class="st2" d="M750.2,772.1c2.9,0,5.2,2.3,5.2,5.2c0,2.9-2.3,5.2-5.2,5.2c-2.9,0-5.2-2.3-5.2-5.2
			C745.1,774.4,747.4,772.1,750.2,772.1z"/>
		<path class="st2" d="M750.2,747.4c2.9,0,5.2,2.3,5.2,5.2c0,2.9-2.3,5.2-5.2,5.2c-2.9,0-5.2-2.3-5.2-5.2
			C745.1,749.7,747.4,747.4,750.2,747.4z"/>
		<path class="st2" d="M750.2,722.8c2.9,0,5.2,2.3,5.2,5.2s-2.3,5.2-5.2,5.2c-2.9,0-5.2-2.3-5.2-5.2S747.4,722.8,750.2,722.8z"/>
	</g>
</g>
<g>
	<g>
		<path class="st2" d="M1698.7,116c2.9,0,5.2,2.3,5.2,5.2c0,2.9-2.3,5.2-5.2,5.2c-2.9,0-5.2-2.3-5.2-5.2
			C1693.5,118.4,1695.8,116,1698.7,116z"/>
		<path class="st2" d="M1698.7,91.4c2.9,0,5.2,2.3,5.2,5.2c0,2.9-2.3,5.2-5.2,5.2c-2.9,0-5.2-2.3-5.2-5.2
			C1693.5,93.7,1695.8,91.4,1698.7,91.4z"/>
		<circle class="st2" cx="1698.7" cy="71.8" r="5.2"/>
	</g>
	<g>
		<path class="st2" d="M1723.3,116c2.9,0,5.2,2.3,5.2,5.2c0,2.9-2.3,5.2-5.2,5.2c-2.9,0-5.2-2.3-5.2-5.2
			C1718.2,118.4,1720.5,116,1723.3,116z"/>
		<path class="st2" d="M1723.3,91.4c2.9,0,5.2,2.3,5.2,5.2c0,2.9-2.3,5.2-5.2,5.2c-2.9,0-5.2-2.3-5.2-5.2
			C1718.2,93.7,1720.5,91.4,1723.3,91.4z"/>
		<path class="st2" d="M1723.3,66.7c2.9,0,5.2,2.3,5.2,5.2c0,2.9-2.3,5.2-5.2,5.2c-2.9,0-5.2-2.3-5.2-5.2
			C1718.2,69,1720.5,66.7,1723.3,66.7z"/>
	</g>
	<g>
		<path class="st2" d="M1748,116c2.9,0,5.2,2.3,5.2,5.2c0,2.9-2.3,5.2-5.2,5.2c-2.9,0-5.2-2.3-5.2-5.2
			C1742.8,118.4,1745.2,116,1748,116z"/>
		<path class="st2" d="M1748,91.4c2.9,0,5.2,2.3,5.2,5.2c0,2.9-2.3,5.2-5.2,5.2c-2.9,0-5.2-2.3-5.2-5.2
			C1742.8,93.7,1745.2,91.4,1748,91.4z"/>
		<path class="st2" d="M1748,66.7c2.9,0,5.2,2.3,5.2,5.2c0,2.9-2.3,5.2-5.2,5.2c-2.9,0-5.2-2.3-5.2-5.2
			C1742.8,69,1745.2,66.7,1748,66.7z"/>
	</g>
</g>
<g>
	<g>
		<path class="st2" d="M1528,777.6c2.9,0,5.2,2.3,5.2,5.2c0,2.9-2.3,5.2-5.2,5.2c-2.9,0-5.2-2.3-5.2-5.2
			C1522.9,779.9,1525.2,777.6,1528,777.6z"/>
		<path class="st2" d="M1528,752.9c2.9,0,5.2,2.3,5.2,5.2c0,2.9-2.3,5.2-5.2,5.2c-2.9,0-5.2-2.3-5.2-5.2
			C1522.9,755.2,1525.2,752.9,1528,752.9z"/>
		<circle class="st2" cx="1528" cy="733.4" r="5.2"/>
	</g>
	<g>
		<path class="st2" d="M1552.7,777.6c2.9,0,5.2,2.3,5.2,5.2c0,2.9-2.3,5.2-5.2,5.2c-2.9,0-5.2-2.3-5.2-5.2
			C1547.5,779.9,1549.9,777.6,1552.7,777.6z"/>
		<path class="st2" d="M1552.7,752.9c2.9,0,5.2,2.3,5.2,5.2c0,2.9-2.3,5.2-5.2,5.2c-2.9,0-5.2-2.3-5.2-5.2
			C1547.5,755.2,1549.9,752.9,1552.7,752.9z"/>
		<path class="st2" d="M1552.7,728.3c2.9,0,5.2,2.3,5.2,5.2c0,2.9-2.3,5.2-5.2,5.2c-2.9,0-5.2-2.3-5.2-5.2
			C1547.5,730.6,1549.9,728.3,1552.7,728.3z"/>
	</g>
	<g>
		<path class="st2" d="M1577.4,777.6c2.9,0,5.2,2.3,5.2,5.2c0,2.9-2.3,5.2-5.2,5.2s-5.2-2.3-5.2-5.2
			C1572.2,779.9,1574.5,777.6,1577.4,777.6z"/>
		<path class="st2" d="M1577.4,752.9c2.9,0,5.2,2.3,5.2,5.2c0,2.9-2.3,5.2-5.2,5.2s-5.2-2.3-5.2-5.2
			C1572.2,755.2,1574.5,752.9,1577.4,752.9z"/>
		<path class="st2" d="M1577.4,728.3c2.9,0,5.2,2.3,5.2,5.2c0,2.9-2.3,5.2-5.2,5.2s-5.2-2.3-5.2-5.2
			C1572.2,730.6,1574.5,728.3,1577.4,728.3z"/>
	</g>
</g>
<g>
	<g>
		<path class="st2" d="M1351.8,96.5c2.9,0,5.2,2.3,5.2,5.2c0,2.9-2.3,5.2-5.2,5.2c-2.9,0-5.2-2.3-5.2-5.2
			C1346.6,98.8,1349,96.5,1351.8,96.5z"/>
		<path class="st2" d="M1351.8,71.8c2.9,0,5.2,2.3,5.2,5.2c0,2.9-2.3,5.2-5.2,5.2c-2.9,0-5.2-2.3-5.2-5.2
			C1346.6,74.2,1349,71.8,1351.8,71.8z"/>
		<circle class="st2" cx="1351.8" cy="52.3" r="5.2"/>
	</g>
	<g>
		<path class="st2" d="M1376.5,96.5c2.9,0,5.2,2.3,5.2,5.2c0,2.9-2.3,5.2-5.2,5.2c-2.9,0-5.2-2.3-5.2-5.2
			C1371.3,98.8,1373.6,96.5,1376.5,96.5z"/>
		<path class="st2" d="M1376.5,71.8c2.9,0,5.2,2.3,5.2,5.2c0,2.9-2.3,5.2-5.2,5.2c-2.9,0-5.2-2.3-5.2-5.2
			C1371.3,74.2,1373.6,71.8,1376.5,71.8z"/>
		<path class="st2" d="M1376.5,47.2c2.9,0,5.2,2.3,5.2,5.2c0,2.9-2.3,5.2-5.2,5.2c-2.9,0-5.2-2.3-5.2-5.2
			C1371.3,49.5,1373.6,47.2,1376.5,47.2z"/>
	</g>
	<g>
		<path class="st2" d="M1401.2,96.5c2.9,0,5.2,2.3,5.2,5.2c0,2.9-2.3,5.2-5.2,5.2c-2.9,0-5.2-2.3-5.2-5.2
			C1396,98.8,1398.3,96.5,1401.2,96.5z"/>
		<path class="st2" d="M1401.2,71.8c2.9,0,5.2,2.3,5.2,5.2c0,2.9-2.3,5.2-5.2,5.2c-2.9,0-5.2-2.3-5.2-5.2
			C1396,74.2,1398.3,71.8,1401.2,71.8z"/>
		<path class="st2" d="M1401.2,47.2c2.9,0,5.2,2.3,5.2,5.2c0,2.9-2.3,5.2-5.2,5.2c-2.9,0-5.2-2.3-5.2-5.2
			C1396,49.5,1398.3,47.2,1401.2,47.2z"/>
	</g>
</g>
</svg>
