<?xml version="1.0" encoding="utf-8"?>
<!-- Generator: Adobe Illustrator 22.0.1, SVG Export Plug-In . SVG Version: 6.00 Build 0)  -->
<svg version="1.1" id="Layer_1" xmlns="http://www.w3.org/2000/svg" xmlns:xlink="http://www.w3.org/1999/xlink" x="0px" y="0px"
	 viewBox="0 0 1900 600" style="enable-background:new 0 0 1900 600;" xml:space="preserve">
<style type="text/css">
	.st0{clip-path:url(#SVGID_2_);fill:url(#SVGID_3_);}
	.st1{clip-path:url(#SVGID_2_);fill:url(#SVGID_4_);}
	.st2{clip-path:url(#SVGID_2_);fill:#2C316D;}
	.st3{clip-path:url(#SVGID_2_);}
	.st4{fill:#FFA350;}
	.st5{clip-path:url(#SVGID_2_);fill:none;stroke:#FFFFFF;stroke-width:3;stroke-linecap:round;stroke-miterlimit:10;}
	.st6{clip-path:url(#SVGID_2_);fill:#FFFFFF;}
	.st7{clip-path:url(#SVGID_2_);fill:#FFCF47;}
	.st8{clip-path:url(#SVGID_2_);fill:none;}
	.st9{clip-path:url(#SVGID_2_);fill:#45B4FF;}
	.st10{clip-path:url(#SVGID_2_);fill:none;stroke:#FF7300;stroke-width:3;stroke-linecap:round;stroke-miterlimit:10;}
</style>
<g>
	<defs>
		<rect id="SVGID_1_" width="1900" height="600"/>
	</defs>
	<clipPath id="SVGID_2_">
		<use xlink:href="#SVGID_1_"  style="overflow:visible;"/>
	</clipPath>
	<linearGradient id="SVGID_3_" gradientUnits="userSpaceOnUse" x1="1859.257" y1="340.7431" x2="1940.743" y2="340.7431">
		<stop  offset="0" style="stop-color:#FFC05C"/>
		<stop  offset="1" style="stop-color:#FF3857"/>
	</linearGradient>
	<circle class="st0" cx="1900" cy="340.7" r="40.7"/>
	<linearGradient id="SVGID_4_" gradientUnits="userSpaceOnUse" x1="1427.3938" y1="140.1374" x2="2035.2672" y2="140.1374">
		<stop  offset="0" style="stop-color:#FFC05C"/>
		<stop  offset="1" style="stop-color:#FF3857"/>
	</linearGradient>
	<path class="st1" d="M1916.8,186.8l-82,82c-18.4,18.4-48.2,18.4-66.5,0v0c-18.4-18.4-18.4-48.2,0-66.5l37.3-37.3
		c8.1-8.1,8.1-21.1,0-29.2l0,0c-8.1-8.1-21.1-8.1-29.2,0l-8.1,8.1c-16.6,16.6-43.5,16.6-60.1,0l0,0c-16.6-16.6-16.6-43.5,0-60.1
		l33.3-33.3c3.6-3.6,3.6-9.4,0-13v0c-3.6-3.6-9.4-3.6-13,0l-81.2,81.2c-14.3,14.3-37.6,14.3-51.9,0v0c-14.3-14.3-14.3-37.6,0-51.9
		l21.9-21.9c3.1-3.1,3.1-8.2,0-11.4v0c-3.1-3.1-8.2-3.1-11.4,0l-1.8,1.8c-38.4,38.4-100.8,38.4-139.2,0l-37.5-37.5h607.9
		C2035.3-2.3,1909.5,179.5,1916.8,186.8z"/>
	<circle class="st2" cx="1929.4" cy="-74.7" r="7.5"/>
	<g class="st3">
		<g>
			<g>
				<circle class="st4" cx="1795.9" cy="414" r="3.2"/>
				<path class="st4" d="M1792.8,397.5c0-1.7,1.4-3.2,3.2-3.2s3.2,1.4,3.2,3.2c0,1.7-1.4,3.2-3.2,3.2S1792.8,399.3,1792.8,397.5z"/>
				<circle class="st4" cx="1779.9" cy="414" r="3.2"/>
				<path class="st4" d="M1776.7,397.5c0-1.7,1.4-3.2,3.2-3.2s3.2,1.4,3.2,3.2c0,1.7-1.4,3.2-3.2,3.2S1776.7,399.3,1776.7,397.5z"/>
			</g>
			<g>
				<circle class="st4" cx="1828.4" cy="414" r="3.2"/>
				<path class="st4" d="M1825.3,397.5c0-1.7,1.4-3.2,3.2-3.2c1.7,0,3.2,1.4,3.2,3.2c0,1.7-1.4,3.2-3.2,3.2
					C1826.7,400.7,1825.3,399.3,1825.3,397.5z"/>
				<circle class="st4" cx="1812.4" cy="414" r="3.2"/>
				<path class="st4" d="M1809.2,397.5c0-1.7,1.4-3.2,3.2-3.2c1.7,0,3.2,1.4,3.2,3.2c0,1.7-1.4,3.2-3.2,3.2
					C1810.6,400.7,1809.2,399.3,1809.2,397.5z"/>
			</g>
		</g>
		<g>
			<g>
				<circle class="st4" cx="1731" cy="414" r="3.2"/>
				<path class="st4" d="M1727.8,397.5c0-1.7,1.4-3.2,3.2-3.2s3.2,1.4,3.2,3.2c0,1.7-1.4,3.2-3.2,3.2S1727.8,399.3,1727.8,397.5z"/>
				<path class="st4" d="M1711.8,414c0-1.7,1.4-3.2,3.2-3.2s3.2,1.4,3.2,3.2c0,1.7-1.4,3.2-3.2,3.2S1711.8,415.8,1711.8,414z"/>
				<path class="st4" d="M1711.8,397.5c0-1.7,1.4-3.2,3.2-3.2s3.2,1.4,3.2,3.2c0,1.7-1.4,3.2-3.2,3.2S1711.8,399.3,1711.8,397.5z"/>
			</g>
			<g>
				<circle class="st4" cx="1763.5" cy="414" r="3.2"/>
				<path class="st4" d="M1760.3,397.5c0-1.7,1.4-3.2,3.2-3.2c1.7,0,3.2,1.4,3.2,3.2c0,1.7-1.4,3.2-3.2,3.2
					C1761.7,400.7,1760.3,399.3,1760.3,397.5z"/>
				<circle class="st4" cx="1747.4" cy="414" r="3.2"/>
				<path class="st4" d="M1744.3,397.5c0-1.7,1.4-3.2,3.2-3.2c1.7,0,3.2,1.4,3.2,3.2c0,1.7-1.4,3.2-3.2,3.2
					C1745.7,400.7,1744.3,399.3,1744.3,397.5z"/>
			</g>
		</g>
	</g>
	<circle class="st2" cx="1670.1" cy="96.6" r="7.8"/>
	<line class="st5" x1="1916.1" y1="84" x2="1786.8" y2="213.2"/>
	<line class="st5" x1="1775.5" y1="-74.4" x2="1659.7" y2="41.4"/>
	<line class="st5" x1="1979.5" y1="57.1" x2="1863.7" y2="173"/>
	<circle class="st6" cx="1828.9" cy="109" r="20.5"/>
	<path class="st7" d="M1372.9,51.6c38.6,0,70-31.4,70-70c0-38.6-31.4-70-70-70c-38.6,0-70,31.4-70,70
		C1303,20.3,1334.4,51.6,1372.9,51.6z M1372.9-74.5c31,0,56.2,25.1,56.2,56.2s-25.1,56.2-56.2,56.2c-31,0-56.2-25.1-56.2-56.2
		S1341.9-74.5,1372.9-74.5z"/>
	<path class="st7" d="M1872.2-6.3c-1.4,0.5-54.9,54.5-75.3,75.2c-4.3,4.4-11.4,4.4-15.7,0l0,0c-4.3-4.3-4.3-11.4,0-15.7l16.8-16.8
		c2.2-2.2,2.2-5.7,0-7.9h0c-2.2-2.2-5.7-2.2-7.9,0l-7,7c-4.8,4.8-12.5,4.8-17.2,0h0c-4.8-4.8-4.8-12.5,0-17.2h0c2-2,2-5.3,0-7.3
		l-19.7-19.7h127.8"/>
	
		<rect x="1152.6" y="1" transform="matrix(-1 -1.224647e-16 1.224647e-16 -1 3055.1731 502.0514)" class="st8" width="750" height="500"/>
	<path class="st9" d="M1684.8,173.3c-20.6,0-37.3,16.7-37.3,37.3s16.7,37.3,37.3,37.3c20.6,0,37.3-16.7,37.3-37.3
		S1705.4,173.3,1684.8,173.3z M1684.8,240.6c-16.6,0-30-13.4-30-30c0-16.5,13.4-30,30-30c16.5,0,30,13.4,30,30
		C1714.8,227.2,1701.4,240.6,1684.8,240.6z"/>
	<line class="st10" x1="1675.1" y1="222.3" x2="1645.8" y2="251.7"/>
</g>
</svg>
