<?xml version="1.0" encoding="utf-8"?>
<!-- Generator: Adobe Illustrator 22.0.1, SVG Export Plug-In . SVG Version: 6.00 Build 0)  -->
<svg version="1.1" id="BACKGROUND" xmlns="http://www.w3.org/2000/svg" xmlns:xlink="http://www.w3.org/1999/xlink" x="0px" y="0px"
	 viewBox="0 0 1900 600" style="enable-background:new 0 0 1900 600;" xml:space="preserve">
<style type="text/css">
	.st0{clip-path:url(#SVGID_2_);fill:url(#SVGID_3_);}
	.st1{clip-path:url(#SVGID_2_);fill:#FFB95C;}
	.st2{clip-path:url(#SVGID_2_);fill:#A4E3DB;}
	.st3{clip-path:url(#SVGID_2_);}
	.st4{fill:#2C316D;}
</style>
<g>
	<defs>
		<rect id="SVGID_1_" y="0" width="1900" height="600"/>
	</defs>
	<clipPath id="SVGID_2_">
		<use xlink:href="#SVGID_1_"  style="overflow:visible;"/>
	</clipPath>
	<linearGradient id="SVGID_3_" gradientUnits="userSpaceOnUse" x1="1093.0848" y1="-54.0036" x2="2153.9446" y2="-54.0036">
		<stop  offset="0" style="stop-color:#FFC05C"/>
		<stop  offset="1" style="stop-color:#FF3857"/>
	</linearGradient>
	<path class="st0" d="M2112.3,234.2c0,0-1.1-79.1-135.5-10.6c-188.1,95.8-228.1-241.7-389.3-115.4s-158-195.4-281.2-74.7
		s-85.8-295.7-213.1-207l1060.9-175.4L2112.3,234.2z"/>
	<circle class="st1" cx="1900" cy="231.8" r="98.5"/>
	<path class="st2" d="M1701.1,148c-20.6,0-37.3,16.7-37.3,37.3s16.7,37.3,37.3,37.3c20.6,0,37.3-16.7,37.3-37.3
		S1721.6,148,1701.1,148z M1701.1,215.3c-16.6,0-30-13.4-30-30c0-16.5,13.4-30,30-30c16.5,0,30,13.4,30,30
		C1731,201.9,1717.6,215.3,1701.1,215.3z"/>
	<g class="st3">
		<g>
			<g>
				<circle class="st4" cx="1799.3" cy="363.5" r="3.2"/>
				<path class="st4" d="M1802.4,380c0,1.7-1.4,3.2-3.2,3.2s-3.2-1.4-3.2-3.2c0-1.7,1.4-3.2,3.2-3.2S1802.4,378.3,1802.4,380z"/>
				<circle class="st4" cx="1815.3" cy="363.5" r="3.2"/>
				<path class="st4" d="M1818.5,380c0,1.7-1.4,3.2-3.2,3.2s-3.2-1.4-3.2-3.2c0-1.7,1.4-3.2,3.2-3.2S1818.5,378.3,1818.5,380z"/>
			</g>
			<g>
				<circle class="st4" cx="1766.7" cy="363.5" r="3.2"/>
				<path class="st4" d="M1769.9,380c0,1.7-1.4,3.2-3.2,3.2c-1.7,0-3.2-1.4-3.2-3.2c0-1.7,1.4-3.2,3.2-3.2
					C1768.5,376.9,1769.9,378.3,1769.9,380z"/>
				<circle class="st4" cx="1782.8" cy="363.5" r="3.2"/>
				<path class="st4" d="M1786,380c0,1.7-1.4,3.2-3.2,3.2s-3.2-1.4-3.2-3.2c0-1.7,1.4-3.2,3.2-3.2S1786,378.3,1786,380z"/>
			</g>
		</g>
		<g>
			<g>
				<circle class="st4" cx="1864.2" cy="363.5" r="3.2"/>
				<path class="st4" d="M1867.4,380c0,1.7-1.4,3.2-3.2,3.2s-3.2-1.4-3.2-3.2c0-1.7,1.4-3.2,3.2-3.2S1867.4,378.3,1867.4,380z"/>
				<path class="st4" d="M1883.4,363.5c0,1.7-1.4,3.2-3.2,3.2c-1.7,0-3.2-1.4-3.2-3.2c0-1.7,1.4-3.2,3.2-3.2
					C1882,360.4,1883.4,361.8,1883.4,363.5z"/>
				<path class="st4" d="M1883.4,380c0,1.7-1.4,3.2-3.2,3.2c-1.7,0-3.2-1.4-3.2-3.2c0-1.7,1.4-3.2,3.2-3.2
					C1882,376.9,1883.4,378.3,1883.4,380z"/>
			</g>
			<g>
				<circle class="st4" cx="1831.7" cy="363.5" r="3.2"/>
				<path class="st4" d="M1834.9,380c0,1.7-1.4,3.2-3.2,3.2c-1.7,0-3.2-1.4-3.2-3.2c0-1.7,1.4-3.2,3.2-3.2
					C1833.4,376.9,1834.9,378.3,1834.9,380z"/>
				<circle class="st4" cx="1847.8" cy="363.5" r="3.2"/>
				<path class="st4" d="M1850.9,380c0,1.7-1.4,3.2-3.2,3.2c-1.7,0-3.2-1.4-3.2-3.2c0-1.7,1.4-3.2,3.2-3.2
					C1849.5,376.9,1850.9,378.3,1850.9,380z"/>
			</g>
		</g>
	</g>
	<g class="st3">
		<path class="st4" d="M1764.2,326L1764.2,326c1.1-1.1,3-1.1,4.1,0l8.8,8.8c1.1,1.1,1.1,3,0,4.1l0,0c-1.1,1.1-3,1.1-4.1,0l-8.8-8.8
			C1763.1,329,1763.1,327.2,1764.2,326z"/>
		<path class="st4" d="M1777.2,326L1777.2,326c1.1,1.1,1.1,3,0,4.1l-8.8,8.8c-1.1,1.1-3,1.1-4.1,0l0,0c-1.1-1.1-1.1-3,0-4.1l8.8-8.8
			C1774.2,324.9,1776,324.9,1777.2,326z"/>
	</g>
</g>
</svg>
