<?xml version="1.0" encoding="utf-8"?>
<!-- Generator: Adobe Illustrator 22.0.1, SVG Export Plug-In . SVG Version: 6.00 Build 0)  -->
<svg version="1.1" id="Layer_1" xmlns="http://www.w3.org/2000/svg" xmlns:xlink="http://www.w3.org/1999/xlink" x="0px" y="0px"
	 viewBox="0 0 1900 600" style="enable-background:new 0 0 1900 600;" xml:space="preserve">
<style type="text/css">
	.st0{opacity:0.15;clip-path:url(#SVGID_2_);}
	.st1{fill:#FFB992;}
	.st2{fill:#E8524A;}
	.st3{clip-path:url(#SVGID_2_);fill:#FFFFFF;}
	.st4{opacity:0.15;clip-path:url(#SVGID_2_);fill:#FFFFFF;}
	.st5{clip-path:url(#SVGID_2_);}
	.st6{fill:#FFAF78;}
	.st7{clip-path:url(#SVGID_2_);fill:url(#SVGID_3_);}
	.st8{clip-path:url(#SVGID_2_);fill:url(#SVGID_4_);}
	.st9{clip-path:url(#SVGID_2_);fill:#FFD85C;}
</style>
<g id="BACKGROUND">
</g>
<g>
	<defs>
		<rect id="SVGID_1_" width="1900" height="600"/>
	</defs>
	<clipPath id="SVGID_2_">
		<use xlink:href="#SVGID_1_"  style="overflow:visible;"/>
	</clipPath>
	<g class="st0">
		<path class="st1" d="M85.4,554.7c84.7,31.6,177.9,1.8,241.2-28.9c32.6-15.8,64.3-34.5,95-52.6c39.7-23.4,80.8-47.6,124-65.6
			c42.2-17.5,149.2-52.6,231.8,2.2c47.5,31.5,80.5,89.5,98.1,172.5c1.6,7.8,3.1,15.7,4.6,23.7h1.8c-1.5-8-3-16-4.7-24
			c-17.7-83.5-51-141.9-98.9-173.6c-83.3-55.1-191-20-233.4-2.3c-43.3,18-84.5,42.3-124.2,65.8c-30.7,18.1-62.4,36.7-94.9,52.5
			c-63,30.5-155.7,60.2-239.8,28.8c-30-11.2-57.3-29.6-83.7-47.5c-11-7.5-22.2-15-33.6-22v2.1c11.1,6.9,21.9,14.2,32.6,21.4
			C27.9,524.8,55.3,543.4,85.4,554.7z"/>
	</g>
	<g class="st0">
		<g>
			<path class="st2" d="M1544.3,293.8c-56-10.1-111.5-32-150.8-74.5c-17.8-19.2-31.8-42.2-39-67.4c-6.6-22.9-7.4-47-4.8-70.6
				c5.5-48.9,24.6-95.2,39.3-141.8c8.1-25.6,15.4-52.1,18.3-79h-13c-0.4,3.1-0.8,6.2-1.3,9.3c-7.8,49.8-27.9,96.7-42.1,144.9
				c-13.6,46-22.7,95.7-8.5,142.7c15.7,51.9,56.3,93,103.5,117.7c54.5,28.5,117.2,37.6,178,39.5c67.1,2.1,134-5.2,200.9-9.4
				c28.5-1.8,57.6-2.9,86.7-2.5v-13.3C1789.2,287.7,1666.1,315.9,1544.3,293.8z"/>
		</g>
	</g>
	<polygon class="st3" points="490.3,577.4 468.6,577.4 468.6,555.7 454.7,555.7 454.7,577.4 433,577.4 433,591.4 454.7,591.4 
		454.7,613 468.6,613 468.6,591.4 490.3,591.4 	"/>
	<polygon class="st4" points="1433.4,41.7 1419.9,41.7 1419.9,28.2 1411.2,28.2 1411.2,41.7 1397.8,41.7 1397.8,50.4 1411.2,50.4 
		1411.2,63.8 1419.9,63.8 1419.9,50.4 1433.4,50.4 	"/>
	<g class="st5">
		<g>
			<circle class="st2" cx="1658" cy="398.8" r="1.9"/>
			<circle class="st2" cx="1684.9" cy="398.8" r="1.9"/>
			<circle class="st2" cx="1711.9" cy="398.8" r="1.9"/>
			<circle class="st2" cx="1739" cy="398.8" r="1.9"/>
			<circle class="st2" cx="1765.9" cy="398.8" r="1.9"/>
			<circle class="st2" cx="1792.9" cy="398.8" r="1.9"/>
			<path class="st2" d="M1821.8,398.8c0,1.1-0.8,1.9-1.9,1.9s-1.9-0.8-1.9-1.9s0.8-1.9,1.9-1.9
				C1820.9,396.9,1821.8,397.7,1821.8,398.8z"/>
			<circle class="st2" cx="1846.9" cy="398.8" r="1.9"/>
			<circle class="st2" cx="1873.9" cy="398.8" r="1.9"/>
		</g>
		<g>
			<circle class="st2" cx="1658" cy="416.9" r="1.9"/>
			<circle class="st2" cx="1684.9" cy="416.9" r="1.9"/>
			<circle class="st2" cx="1711.9" cy="416.9" r="1.9"/>
			<circle class="st2" cx="1739" cy="416.9" r="1.9"/>
			<circle class="st2" cx="1765.9" cy="416.9" r="1.9"/>
			<circle class="st2" cx="1792.9" cy="416.9" r="1.9"/>
			<path class="st2" d="M1821.8,416.9c0,1.1-0.8,1.9-1.9,1.9s-1.9-0.8-1.9-1.9c0-1.1,0.8-1.9,1.9-1.9
				C1820.9,415,1821.8,415.8,1821.8,416.9z"/>
			<circle class="st2" cx="1846.9" cy="416.9" r="1.9"/>
			<circle class="st2" cx="1873.9" cy="416.9" r="1.9"/>
		</g>
		<g>
			<circle class="st2" cx="1658" cy="435.1" r="1.9"/>
			<circle class="st2" cx="1684.9" cy="435.1" r="1.9"/>
			<circle class="st2" cx="1711.9" cy="435.1" r="1.9"/>
			<circle class="st2" cx="1739" cy="435.1" r="1.9"/>
			<circle class="st2" cx="1765.9" cy="435.1" r="1.9"/>
			<circle class="st2" cx="1792.9" cy="435.1" r="1.9"/>
			<path class="st2" d="M1821.8,435.1c0,1.1-0.8,1.9-1.9,1.9s-1.9-0.8-1.9-1.9s0.8-1.9,1.9-1.9
				C1820.9,433.2,1821.8,434,1821.8,435.1z"/>
			<circle class="st2" cx="1846.9" cy="435.1" r="1.9"/>
			<circle class="st2" cx="1873.9" cy="435.1" r="1.9"/>
		</g>
		<g>
			<circle class="st2" cx="1658" cy="453.2" r="1.9"/>
			<circle class="st2" cx="1684.9" cy="453.2" r="1.9"/>
			<circle class="st2" cx="1711.9" cy="453.2" r="1.9"/>
			<circle class="st2" cx="1739" cy="453.2" r="1.9"/>
			<circle class="st2" cx="1765.9" cy="453.2" r="1.9"/>
			<circle class="st2" cx="1792.9" cy="453.2" r="1.9"/>
			<path class="st2" d="M1821.8,453.2c0,1.1-0.8,1.9-1.9,1.9s-1.9-0.8-1.9-1.9s0.8-1.9,1.9-1.9
				C1820.9,451.3,1821.8,452.1,1821.8,453.2z"/>
			<circle class="st2" cx="1846.9" cy="453.2" r="1.9"/>
			<circle class="st2" cx="1873.9" cy="453.2" r="1.9"/>
		</g>
		<g>
			<circle class="st2" cx="1658" cy="471.3" r="1.9"/>
			<circle class="st2" cx="1684.9" cy="471.3" r="1.9"/>
			<circle class="st2" cx="1711.9" cy="471.3" r="1.9"/>
			<circle class="st2" cx="1739" cy="471.3" r="1.9"/>
			<circle class="st2" cx="1765.9" cy="471.3" r="1.9"/>
			<circle class="st2" cx="1792.9" cy="471.3" r="1.9"/>
			<path class="st2" d="M1821.8,471.3c0,1.1-0.8,1.9-1.9,1.9s-1.9-0.8-1.9-1.9c0-1.1,0.8-1.9,1.9-1.9
				C1820.9,469.5,1821.8,470.3,1821.8,471.3z"/>
			<circle class="st2" cx="1846.9" cy="471.3" r="1.9"/>
			<circle class="st2" cx="1873.9" cy="471.3" r="1.9"/>
		</g>
	</g>
	<g class="st0">
		<path class="st6" d="M1872.5,323.2c-12,1.2-24.1,2.4-36.2,3.6c-139.2,14.2-283.1,28.9-404.9-34.8
			c-72.7-38-129.1-100.6-183.5-161.2c-45-50.1-91.6-101.9-147.6-140.2c-112-76.4-255.6-94-368.2-100.7c-28.6-1.7-57.7-2.9-85.9-4.1
			c-98.6-4.1-200.5-8.3-296.9-34.6c-4.4-1.2-8.7-2.4-12.9-3.7h-8.9c6.8,2.2,13.8,4.2,21.1,6.2c96.7,26.4,198.8,30.7,297.5,34.7
			c28.2,1.2,57.3,2.4,85.8,4.1c112.3,6.7,255.4,24.1,366.8,100.4c55.7,38.1,102.2,89.8,147.1,139.7
			c54.6,60.7,111.1,123.5,184.3,161.7c122.6,64,266.9,49.3,406.4,35.1c12.1-1.2,24.2-2.5,36.2-3.6c55.1-5.4,115.6-8.9,175.4-4.6
			v-2.6C1988.2,314.3,1927.6,317.8,1872.5,323.2z"/>
	</g>
	<linearGradient id="SVGID_3_" gradientUnits="userSpaceOnUse" x1="1658.6106" y1="69.4492" x2="1965.6106" y2="69.4492">
		<stop  offset="0" style="stop-color:#FFC05C"/>
		<stop  offset="1" style="stop-color:#FF3857"/>
	</linearGradient>
	<circle class="st7" cx="1812.1" cy="69.4" r="153.5"/>
	<linearGradient id="SVGID_4_" gradientUnits="userSpaceOnUse" x1="1566.2355" y1="-38.8136" x2="1735.2355" y2="-38.8136">
		<stop  offset="0" style="stop-color:#40D5E6"/>
		<stop  offset="1" style="stop-color:#5577FF"/>
	</linearGradient>
	<circle class="st8" cx="1650.7" cy="-38.8" r="84.5"/>
	<circle class="st9" cx="1900" cy="267.9" r="98.5"/>
</g>
</svg>
